<?xml version="1.0" encoding="utf-8" standalone="no"?>
<!DOCTYPE svg PUBLIC "-//W3C//DTD SVG 1.1//EN"
  "http://www.w3.org/Graphics/SVG/1.1/DTD/svg11.dtd">
<!-- Created with matplotlib (https://matplotlib.org/) -->
<svg height="384.22pt" version="1.1" viewBox="0 0 500.721094 384.22" width="500.721094pt" xmlns="http://www.w3.org/2000/svg" xmlns:xlink="http://www.w3.org/1999/xlink">
 <defs>
  <style type="text/css">
*{stroke-linecap:butt;stroke-linejoin:round;}
  </style>
 </defs>
 <g id="figure_1">
  <g id="patch_1">
   <path d="M 0 384.22 
L 500.721094 384.22 
L 500.721094 0 
L 0 0 
z
" style="fill:#ffffff;"/>
  </g>
  <g id="axes_1">
   <g id="patch_2">
    <path d="M 43.78125 353.438437 
L 490.18125 353.438437 
L 490.18125 20.798437 
L 43.78125 20.798437 
z
" style="fill:#ffffff;"/>
   </g>
   <g id="patch_3">
    <path clip-path="url(#p8c1d280b4a)" d="M 94.202696 353.438437 
L 99.950042 353.438437 
L 99.950042 220.401579 
L 94.202696 220.401579 
z
" style="fill:#1f77b4;opacity:0.4;stroke:#000000;stroke-linejoin:miter;"/>
   </g>
   <g id="patch_4">
    <path clip-path="url(#p8c1d280b4a)" d="M 99.950042 353.438437 
L 105.697387 353.438437 
L 105.697387 201.259586 
L 99.950042 201.259586 
z
" style="fill:#1f77b4;opacity:0.4;stroke:#000000;stroke-linejoin:miter;"/>
   </g>
   <g id="patch_5">
    <path clip-path="url(#p8c1d280b4a)" d="M 105.697387 353.438437 
L 111.444733 353.438437 
L 111.444733 177.332093 
L 105.697387 177.332093 
z
" style="fill:#1f77b4;opacity:0.4;stroke:#000000;stroke-linejoin:miter;"/>
   </g>
   <g id="patch_6">
    <path clip-path="url(#p8c1d280b4a)" d="M 111.444733 353.438437 
L 117.192079 353.438437 
L 117.192079 143.833604 
L 111.444733 143.833604 
z
" style="fill:#1f77b4;opacity:0.4;stroke:#000000;stroke-linejoin:miter;"/>
   </g>
   <g id="patch_7">
    <path clip-path="url(#p8c1d280b4a)" d="M 117.192079 353.438437 
L 122.939425 353.438437 
L 122.939425 163.932697 
L 117.192079 163.932697 
z
" style="fill:#1f77b4;opacity:0.4;stroke:#000000;stroke-linejoin:miter;"/>
   </g>
   <g id="patch_8">
    <path clip-path="url(#p8c1d280b4a)" d="M 122.939425 353.438437 
L 128.686771 353.438437 
L 128.686771 163.932697 
L 122.939425 163.932697 
z
" style="fill:#1f77b4;opacity:0.4;stroke:#000000;stroke-linejoin:miter;"/>
   </g>
   <g id="patch_9">
    <path clip-path="url(#p8c1d280b4a)" d="M 128.686771 353.438437 
L 134.434117 353.438437 
L 134.434117 201.259586 
L 128.686771 201.259586 
z
" style="fill:#1f77b4;opacity:0.4;stroke:#000000;stroke-linejoin:miter;"/>
   </g>
   <g id="patch_10">
    <path clip-path="url(#p8c1d280b4a)" d="M 134.434117 353.438437 
L 140.181463 353.438437 
L 140.181463 237.629374 
L 134.434117 237.629374 
z
" style="fill:#1f77b4;opacity:0.4;stroke:#000000;stroke-linejoin:miter;"/>
   </g>
   <g id="patch_11">
    <path clip-path="url(#p8c1d280b4a)" d="M 140.181463 353.438437 
L 145.928809 353.438437 
L 145.928809 201.259586 
L 140.181463 201.259586 
z
" style="fill:#1f77b4;opacity:0.4;stroke:#000000;stroke-linejoin:miter;"/>
   </g>
   <g id="patch_12">
    <path clip-path="url(#p8c1d280b4a)" d="M 145.928809 353.438437 
L 151.676154 353.438437 
L 151.676154 199.345386 
L 145.928809 199.345386 
z
" style="fill:#1f77b4;opacity:0.4;stroke:#000000;stroke-linejoin:miter;"/>
   </g>
   <g id="patch_13">
    <path clip-path="url(#p8c1d280b4a)" d="M 151.676154 353.438437 
L 157.4235 353.438437 
L 157.4235 62.480129 
L 151.676154 62.480129 
z
" style="fill:#1f77b4;opacity:0.4;stroke:#000000;stroke-linejoin:miter;"/>
   </g>
   <g id="patch_14">
    <path clip-path="url(#p8c1d280b4a)" d="M 157.4235 353.438437 
L 163.170846 353.438437 
L 163.170846 103.635416 
L 157.4235 103.635416 
z
" style="fill:#1f77b4;opacity:0.4;stroke:#000000;stroke-linejoin:miter;"/>
   </g>
   <g id="patch_15">
    <path clip-path="url(#p8c1d280b4a)" d="M 163.170846 353.438437 
L 168.918192 353.438437 
L 168.918192 93.10732 
L 163.170846 93.10732 
z
" style="fill:#1f77b4;opacity:0.4;stroke:#000000;stroke-linejoin:miter;"/>
   </g>
   <g id="patch_16">
    <path clip-path="url(#p8c1d280b4a)" d="M 168.918192 353.438437 
L 174.665538 353.438437 
L 174.665538 132.348407 
L 168.918192 132.348407 
z
" style="fill:#1f77b4;opacity:0.4;stroke:#000000;stroke-linejoin:miter;"/>
   </g>
   <g id="patch_17">
    <path clip-path="url(#p8c1d280b4a)" d="M 174.665538 353.438437 
L 180.412884 353.438437 
L 180.412884 117.034812 
L 174.665538 117.034812 
z
" style="fill:#1f77b4;opacity:0.4;stroke:#000000;stroke-linejoin:miter;"/>
   </g>
   <g id="patch_18">
    <path clip-path="url(#p8c1d280b4a)" d="M 180.412884 353.438437 
L 186.16023 353.438437 
L 186.16023 152.447501 
L 180.412884 152.447501 
z
" style="fill:#1f77b4;opacity:0.4;stroke:#000000;stroke-linejoin:miter;"/>
   </g>
   <g id="patch_19">
    <path clip-path="url(#p8c1d280b4a)" d="M 186.16023 353.438437 
L 191.907576 353.438437 
L 191.907576 196.474087 
L 186.16023 196.474087 
z
" style="fill:#1f77b4;opacity:0.4;stroke:#000000;stroke-linejoin:miter;"/>
   </g>
   <g id="patch_20">
    <path clip-path="url(#p8c1d280b4a)" d="M 191.907576 353.438437 
L 197.654921 353.438437 
L 197.654921 157.232999 
L 191.907576 157.232999 
z
" style="fill:#1f77b4;opacity:0.4;stroke:#000000;stroke-linejoin:miter;"/>
   </g>
   <g id="patch_21">
    <path clip-path="url(#p8c1d280b4a)" d="M 197.654921 353.438437 
L 203.402267 353.438437 
L 203.402267 183.074691 
L 197.654921 183.074691 
z
" style="fill:#1f77b4;opacity:0.4;stroke:#000000;stroke-linejoin:miter;"/>
   </g>
   <g id="patch_22">
    <path clip-path="url(#p8c1d280b4a)" d="M 203.402267 353.438437 
L 209.149613 353.438437 
L 209.149613 140.005205 
L 203.402267 140.005205 
z
" style="fill:#1f77b4;opacity:0.4;stroke:#000000;stroke-linejoin:miter;"/>
   </g>
   <g id="patch_23">
    <path clip-path="url(#p8c1d280b4a)" d="M 209.149613 353.438437 
L 214.896959 353.438437 
L 214.896959 36.638437 
L 209.149613 36.638437 
z
" style="fill:#1f77b4;opacity:0.4;stroke:#000000;stroke-linejoin:miter;"/>
   </g>
   <g id="patch_24">
    <path clip-path="url(#p8c1d280b4a)" d="M 214.896959 353.438437 
L 220.644305 353.438437 
L 220.644305 106.506715 
L 214.896959 106.506715 
z
" style="fill:#1f77b4;opacity:0.4;stroke:#000000;stroke-linejoin:miter;"/>
   </g>
   <g id="patch_25">
    <path clip-path="url(#p8c1d280b4a)" d="M 220.644305 353.438437 
L 226.391651 353.438437 
L 226.391651 124.69161 
L 220.644305 124.69161 
z
" style="fill:#1f77b4;opacity:0.4;stroke:#000000;stroke-linejoin:miter;"/>
   </g>
   <g id="patch_26">
    <path clip-path="url(#p8c1d280b4a)" d="M 226.391651 353.438437 
L 232.138997 353.438437 
L 232.138997 201.259586 
L 226.391651 201.259586 
z
" style="fill:#1f77b4;opacity:0.4;stroke:#000000;stroke-linejoin:miter;"/>
   </g>
   <g id="patch_27">
    <path clip-path="url(#p8c1d280b4a)" d="M 232.138997 353.438437 
L 237.886343 353.438437 
L 237.886343 219.44448 
L 232.138997 219.44448 
z
" style="fill:#1f77b4;opacity:0.4;stroke:#000000;stroke-linejoin:miter;"/>
   </g>
   <g id="patch_28">
    <path clip-path="url(#p8c1d280b4a)" d="M 237.886343 353.438437 
L 243.633688 353.438437 
L 243.633688 286.441459 
L 237.886343 286.441459 
z
" style="fill:#1f77b4;opacity:0.4;stroke:#000000;stroke-linejoin:miter;"/>
   </g>
   <g id="patch_29">
    <path clip-path="url(#p8c1d280b4a)" d="M 243.633688 353.438437 
L 249.381034 353.438437 
L 249.381034 271.127863 
L 243.633688 271.127863 
z
" style="fill:#1f77b4;opacity:0.4;stroke:#000000;stroke-linejoin:miter;"/>
   </g>
   <g id="patch_30">
    <path clip-path="url(#p8c1d280b4a)" d="M 249.381034 353.438437 
L 255.12838 353.438437 
L 255.12838 284.527259 
L 249.381034 284.527259 
z
" style="fill:#1f77b4;opacity:0.4;stroke:#000000;stroke-linejoin:miter;"/>
   </g>
   <g id="patch_31">
    <path clip-path="url(#p8c1d280b4a)" d="M 255.12838 353.438437 
L 260.875726 353.438437 
L 260.875726 310.368951 
L 255.12838 310.368951 
z
" style="fill:#1f77b4;opacity:0.4;stroke:#000000;stroke-linejoin:miter;"/>
   </g>
   <g id="patch_32">
    <path clip-path="url(#p8c1d280b4a)" d="M 260.875726 353.438437 
L 266.623072 353.438437 
L 266.623072 271.127863 
L 260.875726 271.127863 
z
" style="fill:#1f77b4;opacity:0.4;stroke:#000000;stroke-linejoin:miter;"/>
   </g>
   <g id="patch_33">
    <path clip-path="url(#p8c1d280b4a)" d="M 266.623072 353.438437 
L 272.370418 353.438437 
L 272.370418 281.65596 
L 266.623072 281.65596 
z
" style="fill:#1f77b4;opacity:0.4;stroke:#000000;stroke-linejoin:miter;"/>
   </g>
   <g id="patch_34">
    <path clip-path="url(#p8c1d280b4a)" d="M 272.370418 353.438437 
L 278.117764 353.438437 
L 278.117764 267.299465 
L 272.370418 267.299465 
z
" style="fill:#1f77b4;opacity:0.4;stroke:#000000;stroke-linejoin:miter;"/>
   </g>
   <g id="patch_35">
    <path clip-path="url(#p8c1d280b4a)" d="M 278.117764 353.438437 
L 283.86511 353.438437 
L 283.86511 292.184057 
L 278.117764 292.184057 
z
" style="fill:#1f77b4;opacity:0.4;stroke:#000000;stroke-linejoin:miter;"/>
   </g>
   <g id="patch_36">
    <path clip-path="url(#p8c1d280b4a)" d="M 283.86511 353.438437 
L 289.612455 353.438437 
L 289.612455 327.596746 
L 283.86511 327.596746 
z
" style="fill:#1f77b4;opacity:0.4;stroke:#000000;stroke-linejoin:miter;"/>
   </g>
   <g id="patch_37">
    <path clip-path="url(#p8c1d280b4a)" d="M 289.612455 353.438437 
L 295.359801 353.438437 
L 295.359801 327.596746 
L 289.612455 327.596746 
z
" style="fill:#1f77b4;opacity:0.4;stroke:#000000;stroke-linejoin:miter;"/>
   </g>
   <g id="patch_38">
    <path clip-path="url(#p8c1d280b4a)" d="M 295.359801 353.438437 
L 301.107147 353.438437 
L 301.107147 323.768347 
L 295.359801 323.768347 
z
" style="fill:#1f77b4;opacity:0.4;stroke:#000000;stroke-linejoin:miter;"/>
   </g>
   <g id="patch_39">
    <path clip-path="url(#p8c1d280b4a)" d="M 301.107147 353.438437 
L 306.854493 353.438437 
L 306.854493 339.081942 
L 301.107147 339.081942 
z
" style="fill:#1f77b4;opacity:0.4;stroke:#000000;stroke-linejoin:miter;"/>
   </g>
   <g id="patch_40">
    <path clip-path="url(#p8c1d280b4a)" d="M 306.854493 353.438437 
L 312.601839 353.438437 
L 312.601839 340.039042 
L 306.854493 340.039042 
z
" style="fill:#1f77b4;opacity:0.4;stroke:#000000;stroke-linejoin:miter;"/>
   </g>
   <g id="patch_41">
    <path clip-path="url(#p8c1d280b4a)" d="M 312.601839 353.438437 
L 318.349185 353.438437 
L 318.349185 341.953241 
L 312.601839 341.953241 
z
" style="fill:#1f77b4;opacity:0.4;stroke:#000000;stroke-linejoin:miter;"/>
   </g>
   <g id="patch_42">
    <path clip-path="url(#p8c1d280b4a)" d="M 318.349185 353.438437 
L 324.096531 353.438437 
L 324.096531 328.553845 
L 318.349185 328.553845 
z
" style="fill:#1f77b4;opacity:0.4;stroke:#000000;stroke-linejoin:miter;"/>
   </g>
   <g id="patch_43">
    <path clip-path="url(#p8c1d280b4a)" d="M 324.096531 353.438437 
L 329.843877 353.438437 
L 329.843877 343.867441 
L 324.096531 343.867441 
z
" style="fill:#1f77b4;opacity:0.4;stroke:#000000;stroke-linejoin:miter;"/>
   </g>
   <g id="patch_44">
    <path clip-path="url(#p8c1d280b4a)" d="M 329.843877 353.438437 
L 335.591222 353.438437 
L 335.591222 351.524238 
L 329.843877 351.524238 
z
" style="fill:#1f77b4;opacity:0.4;stroke:#000000;stroke-linejoin:miter;"/>
   </g>
   <g id="patch_45">
    <path clip-path="url(#p8c1d280b4a)" d="M 335.591222 353.438437 
L 341.338568 353.438437 
L 341.338568 347.695839 
L 335.591222 347.695839 
z
" style="fill:#1f77b4;opacity:0.4;stroke:#000000;stroke-linejoin:miter;"/>
   </g>
   <g id="patch_46">
    <path clip-path="url(#p8c1d280b4a)" d="M 341.338568 353.438437 
L 347.085914 353.438437 
L 347.085914 350.567138 
L 341.338568 350.567138 
z
" style="fill:#1f77b4;opacity:0.4;stroke:#000000;stroke-linejoin:miter;"/>
   </g>
   <g id="patch_47">
    <path clip-path="url(#p8c1d280b4a)" d="M 347.085914 353.438437 
L 352.83326 353.438437 
L 352.83326 345.78164 
L 347.085914 345.78164 
z
" style="fill:#1f77b4;opacity:0.4;stroke:#000000;stroke-linejoin:miter;"/>
   </g>
   <g id="patch_48">
    <path clip-path="url(#p8c1d280b4a)" d="M 352.83326 353.438437 
L 358.580606 353.438437 
L 358.580606 352.481338 
L 352.83326 352.481338 
z
" style="fill:#1f77b4;opacity:0.4;stroke:#000000;stroke-linejoin:miter;"/>
   </g>
   <g id="patch_49">
    <path clip-path="url(#p8c1d280b4a)" d="M 358.580606 353.438437 
L 364.327952 353.438437 
L 364.327952 347.695839 
L 358.580606 347.695839 
z
" style="fill:#1f77b4;opacity:0.4;stroke:#000000;stroke-linejoin:miter;"/>
   </g>
   <g id="patch_50">
    <path clip-path="url(#p8c1d280b4a)" d="M 364.327952 353.438437 
L 370.075298 353.438437 
L 370.075298 351.524238 
L 364.327952 351.524238 
z
" style="fill:#1f77b4;opacity:0.4;stroke:#000000;stroke-linejoin:miter;"/>
   </g>
   <g id="patch_51">
    <path clip-path="url(#p8c1d280b4a)" d="M 370.075298 353.438437 
L 375.822644 353.438437 
L 375.822644 352.481338 
L 370.075298 352.481338 
z
" style="fill:#1f77b4;opacity:0.4;stroke:#000000;stroke-linejoin:miter;"/>
   </g>
   <g id="patch_52">
    <path clip-path="url(#p8c1d280b4a)" d="M 375.822644 353.438437 
L 381.569989 353.438437 
L 381.569989 336.210643 
L 375.822644 336.210643 
z
" style="fill:#1f77b4;opacity:0.4;stroke:#000000;stroke-linejoin:miter;"/>
   </g>
   <g id="patch_53">
    <path clip-path="url(#p8c1d280b4a)" d="M 381.569989 353.438437 
L 387.317335 353.438437 
L 387.317335 351.524238 
L 381.569989 351.524238 
z
" style="fill:#1f77b4;opacity:0.4;stroke:#000000;stroke-linejoin:miter;"/>
   </g>
   <g id="patch_54">
    <path clip-path="url(#p8c1d280b4a)" d="M 387.317335 353.438437 
L 393.064681 353.438437 
L 393.064681 351.524238 
L 387.317335 351.524238 
z
" style="fill:#1f77b4;opacity:0.4;stroke:#000000;stroke-linejoin:miter;"/>
   </g>
   <g id="patch_55">
    <path clip-path="url(#p8c1d280b4a)" d="M 393.064681 353.438437 
L 398.812027 353.438437 
L 398.812027 349.610039 
L 393.064681 349.610039 
z
" style="fill:#1f77b4;opacity:0.4;stroke:#000000;stroke-linejoin:miter;"/>
   </g>
   <g id="patch_56">
    <path clip-path="url(#p8c1d280b4a)" d="M 398.812027 353.438437 
L 404.559373 353.438437 
L 404.559373 352.481338 
L 398.812027 352.481338 
z
" style="fill:#1f77b4;opacity:0.4;stroke:#000000;stroke-linejoin:miter;"/>
   </g>
   <g id="patch_57">
    <path clip-path="url(#p8c1d280b4a)" d="M 404.559373 353.438437 
L 410.306719 353.438437 
L 410.306719 350.567138 
L 404.559373 350.567138 
z
" style="fill:#1f77b4;opacity:0.4;stroke:#000000;stroke-linejoin:miter;"/>
   </g>
   <g id="patch_58">
    <path clip-path="url(#p8c1d280b4a)" d="M 410.306719 353.438437 
L 416.054065 353.438437 
L 416.054065 353.438437 
L 410.306719 353.438437 
z
" style="fill:#1f77b4;opacity:0.4;stroke:#000000;stroke-linejoin:miter;"/>
   </g>
   <g id="patch_59">
    <path clip-path="url(#p8c1d280b4a)" d="M 416.054065 353.438437 
L 421.801411 353.438437 
L 421.801411 353.438437 
L 416.054065 353.438437 
z
" style="fill:#1f77b4;opacity:0.4;stroke:#000000;stroke-linejoin:miter;"/>
   </g>
   <g id="patch_60">
    <path clip-path="url(#p8c1d280b4a)" d="M 421.801411 353.438437 
L 427.548756 353.438437 
L 427.548756 353.438437 
L 421.801411 353.438437 
z
" style="fill:#1f77b4;opacity:0.4;stroke:#000000;stroke-linejoin:miter;"/>
   </g>
   <g id="patch_61">
    <path clip-path="url(#p8c1d280b4a)" d="M 427.548756 353.438437 
L 433.296102 353.438437 
L 433.296102 353.438437 
L 427.548756 353.438437 
z
" style="fill:#1f77b4;opacity:0.4;stroke:#000000;stroke-linejoin:miter;"/>
   </g>
   <g id="patch_62">
    <path clip-path="url(#p8c1d280b4a)" d="M 433.296102 353.438437 
L 439.043448 353.438437 
L 439.043448 352.481338 
L 433.296102 352.481338 
z
" style="fill:#1f77b4;opacity:0.4;stroke:#000000;stroke-linejoin:miter;"/>
   </g>
   <g id="matplotlib.axis_1">
    <g id="xtick_1">
     <g id="line2d_1">
      <defs>
       <path d="M 0 0 
L 0 3.5 
" id="m27e991047e" style="stroke:#000000;stroke-width:0.8;"/>
      </defs>
      <g>
       <use style="stroke:#000000;stroke-width:0.8;" x="94.202696" xlink:href="#m27e991047e" y="353.438437"/>
      </g>
     </g>
     <g id="text_1">
      <!-- 6.0 -->
      <defs>
       <path d="M 33.015625 40.375 
Q 26.375 40.375 22.484375 35.828125 
Q 18.609375 31.296875 18.609375 23.390625 
Q 18.609375 15.53125 22.484375 10.953125 
Q 26.375 6.390625 33.015625 6.390625 
Q 39.65625 6.390625 43.53125 10.953125 
Q 47.40625 15.53125 47.40625 23.390625 
Q 47.40625 31.296875 43.53125 35.828125 
Q 39.65625 40.375 33.015625 40.375 
z
M 52.59375 71.296875 
L 52.59375 62.3125 
Q 48.875 64.0625 45.09375 64.984375 
Q 41.3125 65.921875 37.59375 65.921875 
Q 27.828125 65.921875 22.671875 59.328125 
Q 17.53125 52.734375 16.796875 39.40625 
Q 19.671875 43.65625 24.015625 45.921875 
Q 28.375 48.1875 33.59375 48.1875 
Q 44.578125 48.1875 50.953125 41.515625 
Q 57.328125 34.859375 57.328125 23.390625 
Q 57.328125 12.15625 50.6875 5.359375 
Q 44.046875 -1.421875 33.015625 -1.421875 
Q 20.359375 -1.421875 13.671875 8.265625 
Q 6.984375 17.96875 6.984375 36.375 
Q 6.984375 53.65625 15.1875 63.9375 
Q 23.390625 74.21875 37.203125 74.21875 
Q 40.921875 74.21875 44.703125 73.484375 
Q 48.484375 72.75 52.59375 71.296875 
z
" id="DejaVuSans-54"/>
       <path d="M 10.6875 12.40625 
L 21 12.40625 
L 21 0 
L 10.6875 0 
z
" id="DejaVuSans-46"/>
       <path d="M 31.78125 66.40625 
Q 24.171875 66.40625 20.328125 58.90625 
Q 16.5 51.421875 16.5 36.375 
Q 16.5 21.390625 20.328125 13.890625 
Q 24.171875 6.390625 31.78125 6.390625 
Q 39.453125 6.390625 43.28125 13.890625 
Q 47.125 21.390625 47.125 36.375 
Q 47.125 51.421875 43.28125 58.90625 
Q 39.453125 66.40625 31.78125 66.40625 
z
M 31.78125 74.21875 
Q 44.046875 74.21875 50.515625 64.515625 
Q 56.984375 54.828125 56.984375 36.375 
Q 56.984375 17.96875 50.515625 8.265625 
Q 44.046875 -1.421875 31.78125 -1.421875 
Q 19.53125 -1.421875 13.0625 8.265625 
Q 6.59375 17.96875 6.59375 36.375 
Q 6.59375 54.828125 13.0625 64.515625 
Q 19.53125 74.21875 31.78125 74.21875 
z
" id="DejaVuSans-48"/>
      </defs>
      <g transform="translate(91.817227 362.717969)scale(0.03 -0.03)">
       <use xlink:href="#DejaVuSans-54"/>
       <use x="63.623047" xlink:href="#DejaVuSans-46"/>
       <use x="95.410156" xlink:href="#DejaVuSans-48"/>
      </g>
     </g>
    </g>
    <g id="xtick_2">
     <g id="line2d_2">
      <g>
       <use style="stroke:#000000;stroke-width:0.8;" x="105.516369" xlink:href="#m27e991047e" y="353.438437"/>
      </g>
     </g>
     <g id="text_2">
      <!-- 6.2 -->
      <defs>
       <path d="M 19.1875 8.296875 
L 53.609375 8.296875 
L 53.609375 0 
L 7.328125 0 
L 7.328125 8.296875 
Q 12.9375 14.109375 22.625 23.890625 
Q 32.328125 33.6875 34.8125 36.53125 
Q 39.546875 41.84375 41.421875 45.53125 
Q 43.3125 49.21875 43.3125 52.78125 
Q 43.3125 58.59375 39.234375 62.25 
Q 35.15625 65.921875 28.609375 65.921875 
Q 23.96875 65.921875 18.8125 64.3125 
Q 13.671875 62.703125 7.8125 59.421875 
L 7.8125 69.390625 
Q 13.765625 71.78125 18.9375 73 
Q 24.125 74.21875 28.421875 74.21875 
Q 39.75 74.21875 46.484375 68.546875 
Q 53.21875 62.890625 53.21875 53.421875 
Q 53.21875 48.921875 51.53125 44.890625 
Q 49.859375 40.875 45.40625 35.40625 
Q 44.1875 33.984375 37.640625 27.21875 
Q 31.109375 20.453125 19.1875 8.296875 
z
" id="DejaVuSans-50"/>
      </defs>
      <g transform="translate(103.1309 362.717969)scale(0.03 -0.03)">
       <use xlink:href="#DejaVuSans-54"/>
       <use x="63.623047" xlink:href="#DejaVuSans-46"/>
       <use x="95.410156" xlink:href="#DejaVuSans-50"/>
      </g>
     </g>
    </g>
    <g id="xtick_3">
     <g id="line2d_3">
      <g>
       <use style="stroke:#000000;stroke-width:0.8;" x="116.830042" xlink:href="#m27e991047e" y="353.438437"/>
      </g>
     </g>
     <g id="text_3">
      <!-- 6.4 -->
      <defs>
       <path d="M 37.796875 64.3125 
L 12.890625 25.390625 
L 37.796875 25.390625 
z
M 35.203125 72.90625 
L 47.609375 72.90625 
L 47.609375 25.390625 
L 58.015625 25.390625 
L 58.015625 17.1875 
L 47.609375 17.1875 
L 47.609375 0 
L 37.796875 0 
L 37.796875 17.1875 
L 4.890625 17.1875 
L 4.890625 26.703125 
z
" id="DejaVuSans-52"/>
      </defs>
      <g transform="translate(114.444573 362.717969)scale(0.03 -0.03)">
       <use xlink:href="#DejaVuSans-54"/>
       <use x="63.623047" xlink:href="#DejaVuSans-46"/>
       <use x="95.410156" xlink:href="#DejaVuSans-52"/>
      </g>
     </g>
    </g>
    <g id="xtick_4">
     <g id="line2d_4">
      <g>
       <use style="stroke:#000000;stroke-width:0.8;" x="128.143715" xlink:href="#m27e991047e" y="353.438437"/>
      </g>
     </g>
     <g id="text_4">
      <!-- 6.6 -->
      <g transform="translate(125.758246 362.717969)scale(0.03 -0.03)">
       <use xlink:href="#DejaVuSans-54"/>
       <use x="63.623047" xlink:href="#DejaVuSans-46"/>
       <use x="95.410156" xlink:href="#DejaVuSans-54"/>
      </g>
     </g>
    </g>
    <g id="xtick_5">
     <g id="line2d_5">
      <g>
       <use style="stroke:#000000;stroke-width:0.8;" x="139.457388" xlink:href="#m27e991047e" y="353.438437"/>
      </g>
     </g>
     <g id="text_5">
      <!-- 6.8 -->
      <defs>
       <path d="M 31.78125 34.625 
Q 24.75 34.625 20.71875 30.859375 
Q 16.703125 27.09375 16.703125 20.515625 
Q 16.703125 13.921875 20.71875 10.15625 
Q 24.75 6.390625 31.78125 6.390625 
Q 38.8125 6.390625 42.859375 10.171875 
Q 46.921875 13.96875 46.921875 20.515625 
Q 46.921875 27.09375 42.890625 30.859375 
Q 38.875 34.625 31.78125 34.625 
z
M 21.921875 38.8125 
Q 15.578125 40.375 12.03125 44.71875 
Q 8.5 49.078125 8.5 55.328125 
Q 8.5 64.0625 14.71875 69.140625 
Q 20.953125 74.21875 31.78125 74.21875 
Q 42.671875 74.21875 48.875 69.140625 
Q 55.078125 64.0625 55.078125 55.328125 
Q 55.078125 49.078125 51.53125 44.71875 
Q 48 40.375 41.703125 38.8125 
Q 48.828125 37.15625 52.796875 32.3125 
Q 56.78125 27.484375 56.78125 20.515625 
Q 56.78125 9.90625 50.3125 4.234375 
Q 43.84375 -1.421875 31.78125 -1.421875 
Q 19.734375 -1.421875 13.25 4.234375 
Q 6.78125 9.90625 6.78125 20.515625 
Q 6.78125 27.484375 10.78125 32.3125 
Q 14.796875 37.15625 21.921875 38.8125 
z
M 18.3125 54.390625 
Q 18.3125 48.734375 21.84375 45.5625 
Q 25.390625 42.390625 31.78125 42.390625 
Q 38.140625 42.390625 41.71875 45.5625 
Q 45.3125 48.734375 45.3125 54.390625 
Q 45.3125 60.0625 41.71875 63.234375 
Q 38.140625 66.40625 31.78125 66.40625 
Q 25.390625 66.40625 21.84375 63.234375 
Q 18.3125 60.0625 18.3125 54.390625 
z
" id="DejaVuSans-56"/>
      </defs>
      <g transform="translate(137.071919 362.717969)scale(0.03 -0.03)">
       <use xlink:href="#DejaVuSans-54"/>
       <use x="63.623047" xlink:href="#DejaVuSans-46"/>
       <use x="95.410156" xlink:href="#DejaVuSans-56"/>
      </g>
     </g>
    </g>
    <g id="xtick_6">
     <g id="line2d_6">
      <g>
       <use style="stroke:#000000;stroke-width:0.8;" x="150.771061" xlink:href="#m27e991047e" y="353.438437"/>
      </g>
     </g>
     <g id="text_6">
      <!-- 7.0 -->
      <defs>
       <path d="M 8.203125 72.90625 
L 55.078125 72.90625 
L 55.078125 68.703125 
L 28.609375 0 
L 18.3125 0 
L 43.21875 64.59375 
L 8.203125 64.59375 
z
" id="DejaVuSans-55"/>
      </defs>
      <g transform="translate(148.385592 362.717969)scale(0.03 -0.03)">
       <use xlink:href="#DejaVuSans-55"/>
       <use x="63.623047" xlink:href="#DejaVuSans-46"/>
       <use x="95.410156" xlink:href="#DejaVuSans-48"/>
      </g>
     </g>
    </g>
    <g id="xtick_7">
     <g id="line2d_7">
      <g>
       <use style="stroke:#000000;stroke-width:0.8;" x="162.084734" xlink:href="#m27e991047e" y="353.438437"/>
      </g>
     </g>
     <g id="text_7">
      <!-- 7.2 -->
      <g transform="translate(159.699265 362.717969)scale(0.03 -0.03)">
       <use xlink:href="#DejaVuSans-55"/>
       <use x="63.623047" xlink:href="#DejaVuSans-46"/>
       <use x="95.410156" xlink:href="#DejaVuSans-50"/>
      </g>
     </g>
    </g>
    <g id="xtick_8">
     <g id="line2d_8">
      <g>
       <use style="stroke:#000000;stroke-width:0.8;" x="173.398407" xlink:href="#m27e991047e" y="353.438437"/>
      </g>
     </g>
     <g id="text_8">
      <!-- 7.4 -->
      <g transform="translate(171.012938 362.717969)scale(0.03 -0.03)">
       <use xlink:href="#DejaVuSans-55"/>
       <use x="63.623047" xlink:href="#DejaVuSans-46"/>
       <use x="95.410156" xlink:href="#DejaVuSans-52"/>
      </g>
     </g>
    </g>
    <g id="xtick_9">
     <g id="line2d_9">
      <g>
       <use style="stroke:#000000;stroke-width:0.8;" x="184.71208" xlink:href="#m27e991047e" y="353.438437"/>
      </g>
     </g>
     <g id="text_9">
      <!-- 7.6 -->
      <g transform="translate(182.326611 362.717969)scale(0.03 -0.03)">
       <use xlink:href="#DejaVuSans-55"/>
       <use x="63.623047" xlink:href="#DejaVuSans-46"/>
       <use x="95.410156" xlink:href="#DejaVuSans-54"/>
      </g>
     </g>
    </g>
    <g id="xtick_10">
     <g id="line2d_10">
      <g>
       <use style="stroke:#000000;stroke-width:0.8;" x="196.025753" xlink:href="#m27e991047e" y="353.438437"/>
      </g>
     </g>
     <g id="text_10">
      <!-- 7.8 -->
      <g transform="translate(193.640284 362.717969)scale(0.03 -0.03)">
       <use xlink:href="#DejaVuSans-55"/>
       <use x="63.623047" xlink:href="#DejaVuSans-46"/>
       <use x="95.410156" xlink:href="#DejaVuSans-56"/>
      </g>
     </g>
    </g>
    <g id="xtick_11">
     <g id="line2d_11">
      <g>
       <use style="stroke:#000000;stroke-width:0.8;" x="207.339426" xlink:href="#m27e991047e" y="353.438437"/>
      </g>
     </g>
     <g id="text_11">
      <!-- 8.0 -->
      <g transform="translate(204.953957 362.717969)scale(0.03 -0.03)">
       <use xlink:href="#DejaVuSans-56"/>
       <use x="63.623047" xlink:href="#DejaVuSans-46"/>
       <use x="95.410156" xlink:href="#DejaVuSans-48"/>
      </g>
     </g>
    </g>
    <g id="xtick_12">
     <g id="line2d_12">
      <g>
       <use style="stroke:#000000;stroke-width:0.8;" x="218.653099" xlink:href="#m27e991047e" y="353.438437"/>
      </g>
     </g>
     <g id="text_12">
      <!-- 8.2 -->
      <g transform="translate(216.26763 362.717969)scale(0.03 -0.03)">
       <use xlink:href="#DejaVuSans-56"/>
       <use x="63.623047" xlink:href="#DejaVuSans-46"/>
       <use x="95.410156" xlink:href="#DejaVuSans-50"/>
      </g>
     </g>
    </g>
    <g id="xtick_13">
     <g id="line2d_13">
      <g>
       <use style="stroke:#000000;stroke-width:0.8;" x="229.966771" xlink:href="#m27e991047e" y="353.438437"/>
      </g>
     </g>
     <g id="text_13">
      <!-- 8.4 -->
      <g transform="translate(227.581303 362.717969)scale(0.03 -0.03)">
       <use xlink:href="#DejaVuSans-56"/>
       <use x="63.623047" xlink:href="#DejaVuSans-46"/>
       <use x="95.410156" xlink:href="#DejaVuSans-52"/>
      </g>
     </g>
    </g>
    <g id="xtick_14">
     <g id="line2d_14">
      <g>
       <use style="stroke:#000000;stroke-width:0.8;" x="241.280444" xlink:href="#m27e991047e" y="353.438437"/>
      </g>
     </g>
     <g id="text_14">
      <!-- 8.6 -->
      <g transform="translate(238.894976 362.717969)scale(0.03 -0.03)">
       <use xlink:href="#DejaVuSans-56"/>
       <use x="63.623047" xlink:href="#DejaVuSans-46"/>
       <use x="95.410156" xlink:href="#DejaVuSans-54"/>
      </g>
     </g>
    </g>
    <g id="xtick_15">
     <g id="line2d_15">
      <g>
       <use style="stroke:#000000;stroke-width:0.8;" x="252.594117" xlink:href="#m27e991047e" y="353.438437"/>
      </g>
     </g>
     <g id="text_15">
      <!-- 8.8 -->
      <g transform="translate(250.208649 362.717969)scale(0.03 -0.03)">
       <use xlink:href="#DejaVuSans-56"/>
       <use x="63.623047" xlink:href="#DejaVuSans-46"/>
       <use x="95.410156" xlink:href="#DejaVuSans-56"/>
      </g>
     </g>
    </g>
    <g id="xtick_16">
     <g id="line2d_16">
      <g>
       <use style="stroke:#000000;stroke-width:0.8;" x="263.90779" xlink:href="#m27e991047e" y="353.438437"/>
      </g>
     </g>
     <g id="text_16">
      <!-- 9.0 -->
      <defs>
       <path d="M 10.984375 1.515625 
L 10.984375 10.5 
Q 14.703125 8.734375 18.5 7.8125 
Q 22.3125 6.890625 25.984375 6.890625 
Q 35.75 6.890625 40.890625 13.453125 
Q 46.046875 20.015625 46.78125 33.40625 
Q 43.953125 29.203125 39.59375 26.953125 
Q 35.25 24.703125 29.984375 24.703125 
Q 19.046875 24.703125 12.671875 31.3125 
Q 6.296875 37.9375 6.296875 49.421875 
Q 6.296875 60.640625 12.9375 67.421875 
Q 19.578125 74.21875 30.609375 74.21875 
Q 43.265625 74.21875 49.921875 64.515625 
Q 56.59375 54.828125 56.59375 36.375 
Q 56.59375 19.140625 48.40625 8.859375 
Q 40.234375 -1.421875 26.421875 -1.421875 
Q 22.703125 -1.421875 18.890625 -0.6875 
Q 15.09375 0.046875 10.984375 1.515625 
z
M 30.609375 32.421875 
Q 37.25 32.421875 41.125 36.953125 
Q 45.015625 41.5 45.015625 49.421875 
Q 45.015625 57.28125 41.125 61.84375 
Q 37.25 66.40625 30.609375 66.40625 
Q 23.96875 66.40625 20.09375 61.84375 
Q 16.21875 57.28125 16.21875 49.421875 
Q 16.21875 41.5 20.09375 36.953125 
Q 23.96875 32.421875 30.609375 32.421875 
z
" id="DejaVuSans-57"/>
      </defs>
      <g transform="translate(261.522322 362.717969)scale(0.03 -0.03)">
       <use xlink:href="#DejaVuSans-57"/>
       <use x="63.623047" xlink:href="#DejaVuSans-46"/>
       <use x="95.410156" xlink:href="#DejaVuSans-48"/>
      </g>
     </g>
    </g>
    <g id="xtick_17">
     <g id="line2d_17">
      <g>
       <use style="stroke:#000000;stroke-width:0.8;" x="275.221463" xlink:href="#m27e991047e" y="353.438437"/>
      </g>
     </g>
     <g id="text_17">
      <!-- 9.2 -->
      <g transform="translate(272.835995 362.717969)scale(0.03 -0.03)">
       <use xlink:href="#DejaVuSans-57"/>
       <use x="63.623047" xlink:href="#DejaVuSans-46"/>
       <use x="95.410156" xlink:href="#DejaVuSans-50"/>
      </g>
     </g>
    </g>
    <g id="xtick_18">
     <g id="line2d_18">
      <g>
       <use style="stroke:#000000;stroke-width:0.8;" x="286.535136" xlink:href="#m27e991047e" y="353.438437"/>
      </g>
     </g>
     <g id="text_18">
      <!-- 9.4 -->
      <g transform="translate(284.149668 362.717969)scale(0.03 -0.03)">
       <use xlink:href="#DejaVuSans-57"/>
       <use x="63.623047" xlink:href="#DejaVuSans-46"/>
       <use x="95.410156" xlink:href="#DejaVuSans-52"/>
      </g>
     </g>
    </g>
    <g id="xtick_19">
     <g id="line2d_19">
      <g>
       <use style="stroke:#000000;stroke-width:0.8;" x="297.848809" xlink:href="#m27e991047e" y="353.438437"/>
      </g>
     </g>
     <g id="text_19">
      <!-- 9.6 -->
      <g transform="translate(295.463341 362.717969)scale(0.03 -0.03)">
       <use xlink:href="#DejaVuSans-57"/>
       <use x="63.623047" xlink:href="#DejaVuSans-46"/>
       <use x="95.410156" xlink:href="#DejaVuSans-54"/>
      </g>
     </g>
    </g>
    <g id="xtick_20">
     <g id="line2d_20">
      <g>
       <use style="stroke:#000000;stroke-width:0.8;" x="309.162482" xlink:href="#m27e991047e" y="353.438437"/>
      </g>
     </g>
     <g id="text_20">
      <!-- 9.8 -->
      <g transform="translate(306.777014 362.717969)scale(0.03 -0.03)">
       <use xlink:href="#DejaVuSans-57"/>
       <use x="63.623047" xlink:href="#DejaVuSans-46"/>
       <use x="95.410156" xlink:href="#DejaVuSans-56"/>
      </g>
     </g>
    </g>
    <g id="xtick_21">
     <g id="line2d_21">
      <g>
       <use style="stroke:#000000;stroke-width:0.8;" x="320.476155" xlink:href="#m27e991047e" y="353.438437"/>
      </g>
     </g>
     <g id="text_21">
      <!-- 10.0 -->
      <defs>
       <path d="M 12.40625 8.296875 
L 28.515625 8.296875 
L 28.515625 63.921875 
L 10.984375 60.40625 
L 10.984375 69.390625 
L 28.421875 72.90625 
L 38.28125 72.90625 
L 38.28125 8.296875 
L 54.390625 8.296875 
L 54.390625 0 
L 12.40625 0 
z
" id="DejaVuSans-49"/>
      </defs>
      <g transform="translate(317.136312 362.717969)scale(0.03 -0.03)">
       <use xlink:href="#DejaVuSans-49"/>
       <use x="63.623047" xlink:href="#DejaVuSans-48"/>
       <use x="127.246094" xlink:href="#DejaVuSans-46"/>
       <use x="159.033203" xlink:href="#DejaVuSans-48"/>
      </g>
     </g>
    </g>
    <g id="xtick_22">
     <g id="line2d_22">
      <g>
       <use style="stroke:#000000;stroke-width:0.8;" x="331.789828" xlink:href="#m27e991047e" y="353.438437"/>
      </g>
     </g>
     <g id="text_22">
      <!-- 10.2 -->
      <g transform="translate(328.449985 362.717969)scale(0.03 -0.03)">
       <use xlink:href="#DejaVuSans-49"/>
       <use x="63.623047" xlink:href="#DejaVuSans-48"/>
       <use x="127.246094" xlink:href="#DejaVuSans-46"/>
       <use x="159.033203" xlink:href="#DejaVuSans-50"/>
      </g>
     </g>
    </g>
    <g id="xtick_23">
     <g id="line2d_23">
      <g>
       <use style="stroke:#000000;stroke-width:0.8;" x="343.103501" xlink:href="#m27e991047e" y="353.438437"/>
      </g>
     </g>
     <g id="text_23">
      <!-- 10.4 -->
      <g transform="translate(339.763658 362.717969)scale(0.03 -0.03)">
       <use xlink:href="#DejaVuSans-49"/>
       <use x="63.623047" xlink:href="#DejaVuSans-48"/>
       <use x="127.246094" xlink:href="#DejaVuSans-46"/>
       <use x="159.033203" xlink:href="#DejaVuSans-52"/>
      </g>
     </g>
    </g>
    <g id="xtick_24">
     <g id="line2d_24">
      <g>
       <use style="stroke:#000000;stroke-width:0.8;" x="354.417174" xlink:href="#m27e991047e" y="353.438437"/>
      </g>
     </g>
     <g id="text_24">
      <!-- 10.6 -->
      <g transform="translate(351.077331 362.717969)scale(0.03 -0.03)">
       <use xlink:href="#DejaVuSans-49"/>
       <use x="63.623047" xlink:href="#DejaVuSans-48"/>
       <use x="127.246094" xlink:href="#DejaVuSans-46"/>
       <use x="159.033203" xlink:href="#DejaVuSans-54"/>
      </g>
     </g>
    </g>
    <g id="xtick_25">
     <g id="line2d_25">
      <g>
       <use style="stroke:#000000;stroke-width:0.8;" x="365.730847" xlink:href="#m27e991047e" y="353.438437"/>
      </g>
     </g>
     <g id="text_25">
      <!-- 10.8 -->
      <g transform="translate(362.391003 362.717969)scale(0.03 -0.03)">
       <use xlink:href="#DejaVuSans-49"/>
       <use x="63.623047" xlink:href="#DejaVuSans-48"/>
       <use x="127.246094" xlink:href="#DejaVuSans-46"/>
       <use x="159.033203" xlink:href="#DejaVuSans-56"/>
      </g>
     </g>
    </g>
    <g id="xtick_26">
     <g id="line2d_26">
      <g>
       <use style="stroke:#000000;stroke-width:0.8;" x="377.04452" xlink:href="#m27e991047e" y="353.438437"/>
      </g>
     </g>
     <g id="text_26">
      <!-- 11.0 -->
      <g transform="translate(373.704676 362.717969)scale(0.03 -0.03)">
       <use xlink:href="#DejaVuSans-49"/>
       <use x="63.623047" xlink:href="#DejaVuSans-49"/>
       <use x="127.246094" xlink:href="#DejaVuSans-46"/>
       <use x="159.033203" xlink:href="#DejaVuSans-48"/>
      </g>
     </g>
    </g>
    <g id="xtick_27">
     <g id="line2d_27">
      <g>
       <use style="stroke:#000000;stroke-width:0.8;" x="388.358193" xlink:href="#m27e991047e" y="353.438437"/>
      </g>
     </g>
     <g id="text_27">
      <!-- 11.2 -->
      <g transform="translate(385.018349 362.717969)scale(0.03 -0.03)">
       <use xlink:href="#DejaVuSans-49"/>
       <use x="63.623047" xlink:href="#DejaVuSans-49"/>
       <use x="127.246094" xlink:href="#DejaVuSans-46"/>
       <use x="159.033203" xlink:href="#DejaVuSans-50"/>
      </g>
     </g>
    </g>
    <g id="xtick_28">
     <g id="line2d_28">
      <g>
       <use style="stroke:#000000;stroke-width:0.8;" x="399.671866" xlink:href="#m27e991047e" y="353.438437"/>
      </g>
     </g>
     <g id="text_28">
      <!-- 11.4 -->
      <g transform="translate(396.332022 362.717969)scale(0.03 -0.03)">
       <use xlink:href="#DejaVuSans-49"/>
       <use x="63.623047" xlink:href="#DejaVuSans-49"/>
       <use x="127.246094" xlink:href="#DejaVuSans-46"/>
       <use x="159.033203" xlink:href="#DejaVuSans-52"/>
      </g>
     </g>
    </g>
    <g id="xtick_29">
     <g id="line2d_29">
      <g>
       <use style="stroke:#000000;stroke-width:0.8;" x="410.985539" xlink:href="#m27e991047e" y="353.438437"/>
      </g>
     </g>
     <g id="text_29">
      <!-- 11.6 -->
      <g transform="translate(407.645695 362.717969)scale(0.03 -0.03)">
       <use xlink:href="#DejaVuSans-49"/>
       <use x="63.623047" xlink:href="#DejaVuSans-49"/>
       <use x="127.246094" xlink:href="#DejaVuSans-46"/>
       <use x="159.033203" xlink:href="#DejaVuSans-54"/>
      </g>
     </g>
    </g>
    <g id="xtick_30">
     <g id="line2d_30">
      <g>
       <use style="stroke:#000000;stroke-width:0.8;" x="422.299212" xlink:href="#m27e991047e" y="353.438437"/>
      </g>
     </g>
     <g id="text_30">
      <!-- 11.8 -->
      <g transform="translate(418.959368 362.717969)scale(0.03 -0.03)">
       <use xlink:href="#DejaVuSans-49"/>
       <use x="63.623047" xlink:href="#DejaVuSans-49"/>
       <use x="127.246094" xlink:href="#DejaVuSans-46"/>
       <use x="159.033203" xlink:href="#DejaVuSans-56"/>
      </g>
     </g>
    </g>
    <g id="xtick_31">
     <g id="line2d_31">
      <g>
       <use style="stroke:#000000;stroke-width:0.8;" x="433.612885" xlink:href="#m27e991047e" y="353.438437"/>
      </g>
     </g>
     <g id="text_31">
      <!-- 12.0 -->
      <g transform="translate(430.273041 362.717969)scale(0.03 -0.03)">
       <use xlink:href="#DejaVuSans-49"/>
       <use x="63.623047" xlink:href="#DejaVuSans-50"/>
       <use x="127.246094" xlink:href="#DejaVuSans-46"/>
       <use x="159.033203" xlink:href="#DejaVuSans-48"/>
      </g>
     </g>
    </g>
    <g id="xtick_32">
     <g id="line2d_32">
      <g>
       <use style="stroke:#000000;stroke-width:0.8;" x="444.926558" xlink:href="#m27e991047e" y="353.438437"/>
      </g>
     </g>
     <g id="text_32">
      <!-- 12.2 -->
      <g transform="translate(441.586714 362.717969)scale(0.03 -0.03)">
       <use xlink:href="#DejaVuSans-49"/>
       <use x="63.623047" xlink:href="#DejaVuSans-50"/>
       <use x="127.246094" xlink:href="#DejaVuSans-46"/>
       <use x="159.033203" xlink:href="#DejaVuSans-50"/>
      </g>
     </g>
    </g>
    <g id="xtick_33">
     <g id="line2d_33">
      <g>
       <use style="stroke:#000000;stroke-width:0.8;" x="456.240231" xlink:href="#m27e991047e" y="353.438437"/>
      </g>
     </g>
     <g id="text_33">
      <!-- 12.4 -->
      <g transform="translate(452.900387 362.717969)scale(0.03 -0.03)">
       <use xlink:href="#DejaVuSans-49"/>
       <use x="63.623047" xlink:href="#DejaVuSans-50"/>
       <use x="127.246094" xlink:href="#DejaVuSans-46"/>
       <use x="159.033203" xlink:href="#DejaVuSans-52"/>
      </g>
     </g>
    </g>
    <g id="xtick_34">
     <g id="line2d_34">
      <g>
       <use style="stroke:#000000;stroke-width:0.8;" x="467.553904" xlink:href="#m27e991047e" y="353.438437"/>
      </g>
     </g>
     <g id="text_34">
      <!-- 12.6 -->
      <g transform="translate(464.21406 362.717969)scale(0.03 -0.03)">
       <use xlink:href="#DejaVuSans-49"/>
       <use x="63.623047" xlink:href="#DejaVuSans-50"/>
       <use x="127.246094" xlink:href="#DejaVuSans-46"/>
       <use x="159.033203" xlink:href="#DejaVuSans-54"/>
      </g>
     </g>
    </g>
    <g id="xtick_35">
     <g id="line2d_35">
      <g>
       <use style="stroke:#000000;stroke-width:0.8;" x="478.867577" xlink:href="#m27e991047e" y="353.438437"/>
      </g>
     </g>
     <g id="text_35">
      <!-- 12.8 -->
      <g transform="translate(475.527733 362.717969)scale(0.03 -0.03)">
       <use xlink:href="#DejaVuSans-49"/>
       <use x="63.623047" xlink:href="#DejaVuSans-50"/>
       <use x="127.246094" xlink:href="#DejaVuSans-46"/>
       <use x="159.033203" xlink:href="#DejaVuSans-56"/>
      </g>
     </g>
    </g>
    <g id="xtick_36">
     <g id="line2d_36">
      <g>
       <use style="stroke:#000000;stroke-width:0.8;" x="490.18125" xlink:href="#m27e991047e" y="353.438437"/>
      </g>
     </g>
     <g id="text_36">
      <!-- 13.0 -->
      <defs>
       <path d="M 40.578125 39.3125 
Q 47.65625 37.796875 51.625 33 
Q 55.609375 28.21875 55.609375 21.1875 
Q 55.609375 10.40625 48.1875 4.484375 
Q 40.765625 -1.421875 27.09375 -1.421875 
Q 22.515625 -1.421875 17.65625 -0.515625 
Q 12.796875 0.390625 7.625 2.203125 
L 7.625 11.71875 
Q 11.71875 9.328125 16.59375 8.109375 
Q 21.484375 6.890625 26.8125 6.890625 
Q 36.078125 6.890625 40.9375 10.546875 
Q 45.796875 14.203125 45.796875 21.1875 
Q 45.796875 27.640625 41.28125 31.265625 
Q 36.765625 34.90625 28.71875 34.90625 
L 20.21875 34.90625 
L 20.21875 43.015625 
L 29.109375 43.015625 
Q 36.375 43.015625 40.234375 45.921875 
Q 44.09375 48.828125 44.09375 54.296875 
Q 44.09375 59.90625 40.109375 62.90625 
Q 36.140625 65.921875 28.71875 65.921875 
Q 24.65625 65.921875 20.015625 65.03125 
Q 15.375 64.15625 9.8125 62.3125 
L 9.8125 71.09375 
Q 15.4375 72.65625 20.34375 73.4375 
Q 25.25 74.21875 29.59375 74.21875 
Q 40.828125 74.21875 47.359375 69.109375 
Q 53.90625 64.015625 53.90625 55.328125 
Q 53.90625 49.265625 50.4375 45.09375 
Q 46.96875 40.921875 40.578125 39.3125 
z
" id="DejaVuSans-51"/>
      </defs>
      <g transform="translate(486.841406 362.717969)scale(0.03 -0.03)">
       <use xlink:href="#DejaVuSans-49"/>
       <use x="63.623047" xlink:href="#DejaVuSans-51"/>
       <use x="127.246094" xlink:href="#DejaVuSans-46"/>
       <use x="159.033203" xlink:href="#DejaVuSans-48"/>
      </g>
     </g>
    </g>
    <g id="text_37">
     <!-- pKi -->
     <defs>
      <path d="M 18.109375 8.203125 
L 18.109375 -20.796875 
L 9.078125 -20.796875 
L 9.078125 54.6875 
L 18.109375 54.6875 
L 18.109375 46.390625 
Q 20.953125 51.265625 25.265625 53.625 
Q 29.59375 56 35.59375 56 
Q 45.5625 56 51.78125 48.09375 
Q 58.015625 40.1875 58.015625 27.296875 
Q 58.015625 14.40625 51.78125 6.484375 
Q 45.5625 -1.421875 35.59375 -1.421875 
Q 29.59375 -1.421875 25.265625 0.953125 
Q 20.953125 3.328125 18.109375 8.203125 
z
M 48.6875 27.296875 
Q 48.6875 37.203125 44.609375 42.84375 
Q 40.53125 48.484375 33.40625 48.484375 
Q 26.265625 48.484375 22.1875 42.84375 
Q 18.109375 37.203125 18.109375 27.296875 
Q 18.109375 17.390625 22.1875 11.75 
Q 26.265625 6.109375 33.40625 6.109375 
Q 40.53125 6.109375 44.609375 11.75 
Q 48.6875 17.390625 48.6875 27.296875 
z
" id="DejaVuSans-112"/>
      <path d="M 9.8125 72.90625 
L 19.671875 72.90625 
L 19.671875 42.09375 
L 52.390625 72.90625 
L 65.09375 72.90625 
L 28.90625 38.921875 
L 67.671875 0 
L 54.6875 0 
L 19.671875 35.109375 
L 19.671875 0 
L 9.8125 0 
z
" id="DejaVuSans-75"/>
      <path d="M 9.421875 54.6875 
L 18.40625 54.6875 
L 18.40625 0 
L 9.421875 0 
z
M 9.421875 75.984375 
L 18.40625 75.984375 
L 18.40625 64.59375 
L 9.421875 64.59375 
z
" id="DejaVuSans-105"/>
     </defs>
     <g transform="translate(259.139062 374.940312)scale(0.1 -0.1)">
      <use xlink:href="#DejaVuSans-112"/>
      <use x="63.476562" xlink:href="#DejaVuSans-75"/>
      <use x="129.052734" xlink:href="#DejaVuSans-105"/>
     </g>
    </g>
   </g>
   <g id="matplotlib.axis_2">
    <g id="ytick_1">
     <g id="line2d_37">
      <defs>
       <path d="M 0 0 
L -3.5 0 
" id="m0a710e2cd4" style="stroke:#000000;stroke-width:0.8;"/>
      </defs>
      <g>
       <use style="stroke:#000000;stroke-width:0.8;" x="43.78125" xlink:href="#m0a710e2cd4" y="353.438437"/>
      </g>
     </g>
     <g id="text_38">
      <!-- 0.0 -->
      <g transform="translate(20.878125 357.237656)scale(0.1 -0.1)">
       <use xlink:href="#DejaVuSans-48"/>
       <use x="63.623047" xlink:href="#DejaVuSans-46"/>
       <use x="95.410156" xlink:href="#DejaVuSans-48"/>
      </g>
     </g>
    </g>
    <g id="ytick_2">
     <g id="line2d_38">
      <g>
       <use style="stroke:#000000;stroke-width:0.8;" x="43.78125" xlink:href="#m0a710e2cd4" y="295.784053"/>
      </g>
     </g>
     <g id="text_39">
      <!-- 0.1 -->
      <g transform="translate(20.878125 299.583272)scale(0.1 -0.1)">
       <use xlink:href="#DejaVuSans-48"/>
       <use x="63.623047" xlink:href="#DejaVuSans-46"/>
       <use x="95.410156" xlink:href="#DejaVuSans-49"/>
      </g>
     </g>
    </g>
    <g id="ytick_3">
     <g id="line2d_39">
      <g>
       <use style="stroke:#000000;stroke-width:0.8;" x="43.78125" xlink:href="#m0a710e2cd4" y="238.129669"/>
      </g>
     </g>
     <g id="text_40">
      <!-- 0.2 -->
      <g transform="translate(20.878125 241.928888)scale(0.1 -0.1)">
       <use xlink:href="#DejaVuSans-48"/>
       <use x="63.623047" xlink:href="#DejaVuSans-46"/>
       <use x="95.410156" xlink:href="#DejaVuSans-50"/>
      </g>
     </g>
    </g>
    <g id="ytick_4">
     <g id="line2d_40">
      <g>
       <use style="stroke:#000000;stroke-width:0.8;" x="43.78125" xlink:href="#m0a710e2cd4" y="180.475285"/>
      </g>
     </g>
     <g id="text_41">
      <!-- 0.3 -->
      <g transform="translate(20.878125 184.274504)scale(0.1 -0.1)">
       <use xlink:href="#DejaVuSans-48"/>
       <use x="63.623047" xlink:href="#DejaVuSans-46"/>
       <use x="95.410156" xlink:href="#DejaVuSans-51"/>
      </g>
     </g>
    </g>
    <g id="ytick_5">
     <g id="line2d_41">
      <g>
       <use style="stroke:#000000;stroke-width:0.8;" x="43.78125" xlink:href="#m0a710e2cd4" y="122.820901"/>
      </g>
     </g>
     <g id="text_42">
      <!-- 0.4 -->
      <g transform="translate(20.878125 126.62012)scale(0.1 -0.1)">
       <use xlink:href="#DejaVuSans-48"/>
       <use x="63.623047" xlink:href="#DejaVuSans-46"/>
       <use x="95.410156" xlink:href="#DejaVuSans-52"/>
      </g>
     </g>
    </g>
    <g id="ytick_6">
     <g id="line2d_42">
      <g>
       <use style="stroke:#000000;stroke-width:0.8;" x="43.78125" xlink:href="#m0a710e2cd4" y="65.166517"/>
      </g>
     </g>
     <g id="text_43">
      <!-- 0.5 -->
      <defs>
       <path d="M 10.796875 72.90625 
L 49.515625 72.90625 
L 49.515625 64.59375 
L 19.828125 64.59375 
L 19.828125 46.734375 
Q 21.96875 47.46875 24.109375 47.828125 
Q 26.265625 48.1875 28.421875 48.1875 
Q 40.625 48.1875 47.75 41.5 
Q 54.890625 34.8125 54.890625 23.390625 
Q 54.890625 11.625 47.5625 5.09375 
Q 40.234375 -1.421875 26.90625 -1.421875 
Q 22.3125 -1.421875 17.546875 -0.640625 
Q 12.796875 0.140625 7.71875 1.703125 
L 7.71875 11.625 
Q 12.109375 9.234375 16.796875 8.0625 
Q 21.484375 6.890625 26.703125 6.890625 
Q 35.15625 6.890625 40.078125 11.328125 
Q 45.015625 15.765625 45.015625 23.390625 
Q 45.015625 31 40.078125 35.4375 
Q 35.15625 39.890625 26.703125 39.890625 
Q 22.75 39.890625 18.8125 39.015625 
Q 14.890625 38.140625 10.796875 36.28125 
z
" id="DejaVuSans-53"/>
      </defs>
      <g transform="translate(20.878125 68.965736)scale(0.1 -0.1)">
       <use xlink:href="#DejaVuSans-48"/>
       <use x="63.623047" xlink:href="#DejaVuSans-46"/>
       <use x="95.410156" xlink:href="#DejaVuSans-53"/>
      </g>
     </g>
    </g>
    <g id="text_44">
     <!-- Probability Density -->
     <defs>
      <path d="M 19.671875 64.796875 
L 19.671875 37.40625 
L 32.078125 37.40625 
Q 38.96875 37.40625 42.71875 40.96875 
Q 46.484375 44.53125 46.484375 51.125 
Q 46.484375 57.671875 42.71875 61.234375 
Q 38.96875 64.796875 32.078125 64.796875 
z
M 9.8125 72.90625 
L 32.078125 72.90625 
Q 44.34375 72.90625 50.609375 67.359375 
Q 56.890625 61.8125 56.890625 51.125 
Q 56.890625 40.328125 50.609375 34.8125 
Q 44.34375 29.296875 32.078125 29.296875 
L 19.671875 29.296875 
L 19.671875 0 
L 9.8125 0 
z
" id="DejaVuSans-80"/>
      <path d="M 41.109375 46.296875 
Q 39.59375 47.171875 37.8125 47.578125 
Q 36.03125 48 33.890625 48 
Q 26.265625 48 22.1875 43.046875 
Q 18.109375 38.09375 18.109375 28.8125 
L 18.109375 0 
L 9.078125 0 
L 9.078125 54.6875 
L 18.109375 54.6875 
L 18.109375 46.1875 
Q 20.953125 51.171875 25.484375 53.578125 
Q 30.03125 56 36.53125 56 
Q 37.453125 56 38.578125 55.875 
Q 39.703125 55.765625 41.0625 55.515625 
z
" id="DejaVuSans-114"/>
      <path d="M 30.609375 48.390625 
Q 23.390625 48.390625 19.1875 42.75 
Q 14.984375 37.109375 14.984375 27.296875 
Q 14.984375 17.484375 19.15625 11.84375 
Q 23.34375 6.203125 30.609375 6.203125 
Q 37.796875 6.203125 41.984375 11.859375 
Q 46.1875 17.53125 46.1875 27.296875 
Q 46.1875 37.015625 41.984375 42.703125 
Q 37.796875 48.390625 30.609375 48.390625 
z
M 30.609375 56 
Q 42.328125 56 49.015625 48.375 
Q 55.71875 40.765625 55.71875 27.296875 
Q 55.71875 13.875 49.015625 6.21875 
Q 42.328125 -1.421875 30.609375 -1.421875 
Q 18.84375 -1.421875 12.171875 6.21875 
Q 5.515625 13.875 5.515625 27.296875 
Q 5.515625 40.765625 12.171875 48.375 
Q 18.84375 56 30.609375 56 
z
" id="DejaVuSans-111"/>
      <path d="M 48.6875 27.296875 
Q 48.6875 37.203125 44.609375 42.84375 
Q 40.53125 48.484375 33.40625 48.484375 
Q 26.265625 48.484375 22.1875 42.84375 
Q 18.109375 37.203125 18.109375 27.296875 
Q 18.109375 17.390625 22.1875 11.75 
Q 26.265625 6.109375 33.40625 6.109375 
Q 40.53125 6.109375 44.609375 11.75 
Q 48.6875 17.390625 48.6875 27.296875 
z
M 18.109375 46.390625 
Q 20.953125 51.265625 25.265625 53.625 
Q 29.59375 56 35.59375 56 
Q 45.5625 56 51.78125 48.09375 
Q 58.015625 40.1875 58.015625 27.296875 
Q 58.015625 14.40625 51.78125 6.484375 
Q 45.5625 -1.421875 35.59375 -1.421875 
Q 29.59375 -1.421875 25.265625 0.953125 
Q 20.953125 3.328125 18.109375 8.203125 
L 18.109375 0 
L 9.078125 0 
L 9.078125 75.984375 
L 18.109375 75.984375 
z
" id="DejaVuSans-98"/>
      <path d="M 34.28125 27.484375 
Q 23.390625 27.484375 19.1875 25 
Q 14.984375 22.515625 14.984375 16.5 
Q 14.984375 11.71875 18.140625 8.90625 
Q 21.296875 6.109375 26.703125 6.109375 
Q 34.1875 6.109375 38.703125 11.40625 
Q 43.21875 16.703125 43.21875 25.484375 
L 43.21875 27.484375 
z
M 52.203125 31.203125 
L 52.203125 0 
L 43.21875 0 
L 43.21875 8.296875 
Q 40.140625 3.328125 35.546875 0.953125 
Q 30.953125 -1.421875 24.3125 -1.421875 
Q 15.921875 -1.421875 10.953125 3.296875 
Q 6 8.015625 6 15.921875 
Q 6 25.140625 12.171875 29.828125 
Q 18.359375 34.515625 30.609375 34.515625 
L 43.21875 34.515625 
L 43.21875 35.40625 
Q 43.21875 41.609375 39.140625 45 
Q 35.0625 48.390625 27.6875 48.390625 
Q 23 48.390625 18.546875 47.265625 
Q 14.109375 46.140625 10.015625 43.890625 
L 10.015625 52.203125 
Q 14.9375 54.109375 19.578125 55.046875 
Q 24.21875 56 28.609375 56 
Q 40.484375 56 46.34375 49.84375 
Q 52.203125 43.703125 52.203125 31.203125 
z
" id="DejaVuSans-97"/>
      <path d="M 9.421875 75.984375 
L 18.40625 75.984375 
L 18.40625 0 
L 9.421875 0 
z
" id="DejaVuSans-108"/>
      <path d="M 18.3125 70.21875 
L 18.3125 54.6875 
L 36.8125 54.6875 
L 36.8125 47.703125 
L 18.3125 47.703125 
L 18.3125 18.015625 
Q 18.3125 11.328125 20.140625 9.421875 
Q 21.96875 7.515625 27.59375 7.515625 
L 36.8125 7.515625 
L 36.8125 0 
L 27.59375 0 
Q 17.1875 0 13.234375 3.875 
Q 9.28125 7.765625 9.28125 18.015625 
L 9.28125 47.703125 
L 2.6875 47.703125 
L 2.6875 54.6875 
L 9.28125 54.6875 
L 9.28125 70.21875 
z
" id="DejaVuSans-116"/>
      <path d="M 32.171875 -5.078125 
Q 28.375 -14.84375 24.75 -17.8125 
Q 21.140625 -20.796875 15.09375 -20.796875 
L 7.90625 -20.796875 
L 7.90625 -13.28125 
L 13.1875 -13.28125 
Q 16.890625 -13.28125 18.9375 -11.515625 
Q 21 -9.765625 23.484375 -3.21875 
L 25.09375 0.875 
L 2.984375 54.6875 
L 12.5 54.6875 
L 29.59375 11.921875 
L 46.6875 54.6875 
L 56.203125 54.6875 
z
" id="DejaVuSans-121"/>
      <path id="DejaVuSans-32"/>
      <path d="M 19.671875 64.796875 
L 19.671875 8.109375 
L 31.59375 8.109375 
Q 46.6875 8.109375 53.6875 14.9375 
Q 60.6875 21.78125 60.6875 36.53125 
Q 60.6875 51.171875 53.6875 57.984375 
Q 46.6875 64.796875 31.59375 64.796875 
z
M 9.8125 72.90625 
L 30.078125 72.90625 
Q 51.265625 72.90625 61.171875 64.09375 
Q 71.09375 55.28125 71.09375 36.53125 
Q 71.09375 17.671875 61.125 8.828125 
Q 51.171875 0 30.078125 0 
L 9.8125 0 
z
" id="DejaVuSans-68"/>
      <path d="M 56.203125 29.59375 
L 56.203125 25.203125 
L 14.890625 25.203125 
Q 15.484375 15.921875 20.484375 11.0625 
Q 25.484375 6.203125 34.421875 6.203125 
Q 39.59375 6.203125 44.453125 7.46875 
Q 49.3125 8.734375 54.109375 11.28125 
L 54.109375 2.78125 
Q 49.265625 0.734375 44.1875 -0.34375 
Q 39.109375 -1.421875 33.890625 -1.421875 
Q 20.796875 -1.421875 13.15625 6.1875 
Q 5.515625 13.8125 5.515625 26.8125 
Q 5.515625 40.234375 12.765625 48.109375 
Q 20.015625 56 32.328125 56 
Q 43.359375 56 49.78125 48.890625 
Q 56.203125 41.796875 56.203125 29.59375 
z
M 47.21875 32.234375 
Q 47.125 39.59375 43.09375 43.984375 
Q 39.0625 48.390625 32.421875 48.390625 
Q 24.90625 48.390625 20.390625 44.140625 
Q 15.875 39.890625 15.1875 32.171875 
z
" id="DejaVuSans-101"/>
      <path d="M 54.890625 33.015625 
L 54.890625 0 
L 45.90625 0 
L 45.90625 32.71875 
Q 45.90625 40.484375 42.875 44.328125 
Q 39.84375 48.1875 33.796875 48.1875 
Q 26.515625 48.1875 22.3125 43.546875 
Q 18.109375 38.921875 18.109375 30.90625 
L 18.109375 0 
L 9.078125 0 
L 9.078125 54.6875 
L 18.109375 54.6875 
L 18.109375 46.1875 
Q 21.34375 51.125 25.703125 53.5625 
Q 30.078125 56 35.796875 56 
Q 45.21875 56 50.046875 50.171875 
Q 54.890625 44.34375 54.890625 33.015625 
z
" id="DejaVuSans-110"/>
      <path d="M 44.28125 53.078125 
L 44.28125 44.578125 
Q 40.484375 46.53125 36.375 47.5 
Q 32.28125 48.484375 27.875 48.484375 
Q 21.1875 48.484375 17.84375 46.4375 
Q 14.5 44.390625 14.5 40.28125 
Q 14.5 37.15625 16.890625 35.375 
Q 19.28125 33.59375 26.515625 31.984375 
L 29.59375 31.296875 
Q 39.15625 29.25 43.1875 25.515625 
Q 47.21875 21.78125 47.21875 15.09375 
Q 47.21875 7.46875 41.1875 3.015625 
Q 35.15625 -1.421875 24.609375 -1.421875 
Q 20.21875 -1.421875 15.453125 -0.5625 
Q 10.6875 0.296875 5.421875 2 
L 5.421875 11.28125 
Q 10.40625 8.6875 15.234375 7.390625 
Q 20.0625 6.109375 24.8125 6.109375 
Q 31.15625 6.109375 34.5625 8.28125 
Q 37.984375 10.453125 37.984375 14.40625 
Q 37.984375 18.0625 35.515625 20.015625 
Q 33.0625 21.96875 24.703125 23.78125 
L 21.578125 24.515625 
Q 13.234375 26.265625 9.515625 29.90625 
Q 5.8125 33.546875 5.8125 39.890625 
Q 5.8125 47.609375 11.28125 51.796875 
Q 16.75 56 26.8125 56 
Q 31.78125 56 36.171875 55.265625 
Q 40.578125 54.546875 44.28125 53.078125 
z
" id="DejaVuSans-115"/>
     </defs>
     <g transform="translate(14.798438 234.342656)rotate(-90)scale(0.1 -0.1)">
      <use xlink:href="#DejaVuSans-80"/>
      <use x="60.287109" xlink:href="#DejaVuSans-114"/>
      <use x="101.369141" xlink:href="#DejaVuSans-111"/>
      <use x="162.550781" xlink:href="#DejaVuSans-98"/>
      <use x="226.027344" xlink:href="#DejaVuSans-97"/>
      <use x="287.306641" xlink:href="#DejaVuSans-98"/>
      <use x="350.783203" xlink:href="#DejaVuSans-105"/>
      <use x="378.566406" xlink:href="#DejaVuSans-108"/>
      <use x="406.349609" xlink:href="#DejaVuSans-105"/>
      <use x="434.132812" xlink:href="#DejaVuSans-116"/>
      <use x="473.341797" xlink:href="#DejaVuSans-121"/>
      <use x="532.521484" xlink:href="#DejaVuSans-32"/>
      <use x="564.308594" xlink:href="#DejaVuSans-68"/>
      <use x="641.310547" xlink:href="#DejaVuSans-101"/>
      <use x="702.833984" xlink:href="#DejaVuSans-110"/>
      <use x="766.212891" xlink:href="#DejaVuSans-115"/>
      <use x="818.3125" xlink:href="#DejaVuSans-105"/>
      <use x="846.095703" xlink:href="#DejaVuSans-116"/>
      <use x="885.304688" xlink:href="#DejaVuSans-121"/>
     </g>
    </g>
   </g>
   <g id="line2d_43">
    <path clip-path="url(#p8c1d280b4a)" d="M 64.039597 353.258756 
L 67.229888 352.952647 
L 70.420179 352.233125 
L 73.61047 350.70048 
L 76.800761 347.737253 
L 79.991052 342.533571 
L 83.181343 334.22701 
L 86.371634 322.16003 
L 89.561925 306.180065 
L 92.752216 286.843581 
L 102.323089 222.940365 
L 105.51338 205.084821 
L 108.703671 190.933006 
L 111.893962 181.001577 
L 115.084252 175.407082 
L 118.274543 173.900614 
L 121.464834 175.855279 
L 124.655125 180.246672 
L 127.845416 185.684436 
L 131.035707 190.537159 
L 134.225998 193.163985 
L 137.416289 192.229516 
L 140.60658 187.033793 
L 143.796871 177.749793 
L 146.987162 165.455466 
L 150.177453 151.900136 
L 153.367744 139.052115 
L 156.558035 128.587276 
L 159.748326 121.522315 
L 162.938616 118.126831 
L 166.128907 118.099751 
L 169.319198 120.864416 
L 172.509489 125.804263 
L 175.69978 132.333617 
L 182.080362 147.434069 
L 185.270653 154.133847 
L 188.460944 158.723764 
L 191.651235 160.121226 
L 194.841526 157.676866 
L 198.031817 151.471299 
L 201.222108 142.476079 
L 204.412399 132.487197 
L 207.60269 123.792847 
L 210.792981 118.639977 
L 213.983271 118.675946 
L 217.173562 124.577579 
L 220.363853 135.993052 
L 223.554144 151.766167 
L 226.744435 170.300591 
L 233.125017 209.125481 
L 236.315308 226.792644 
L 239.505599 242.211621 
L 242.69589 255.069889 
L 245.886181 265.335998 
L 249.076472 273.117383 
L 252.266763 278.565537 
L 255.457054 281.880788 
L 258.647345 283.401054 
L 261.837636 283.692009 
L 265.027926 283.543506 
L 268.218217 283.834175 
L 271.408508 285.312268 
L 274.598799 288.393762 
L 277.78909 293.067046 
L 280.979381 298.93693 
L 287.359963 311.753415 
L 290.550254 317.564026 
L 293.740545 322.566892 
L 296.930836 326.739602 
L 300.121127 330.180668 
L 303.311418 332.995507 
L 306.501709 335.238332 
L 309.692 336.9329 
L 312.882291 338.139018 
L 316.072581 339.003065 
L 322.453163 340.593003 
L 325.643454 341.677902 
L 332.024036 344.424297 
L 335.214327 345.783591 
L 338.404618 346.931581 
L 341.594909 347.806764 
L 344.7852 348.428915 
L 347.975491 348.861901 
L 354.356073 349.376284 
L 357.546364 349.478857 
L 360.736655 349.445095 
L 363.926946 349.250939 
L 370.307527 348.480247 
L 373.497818 348.0805 
L 376.688109 347.836381 
L 379.8784 347.843693 
L 383.068691 348.127866 
L 386.258982 348.637209 
L 395.829855 350.526406 
L 402.210437 351.487327 
L 408.591019 352.208913 
L 414.971601 352.767603 
L 421.352182 353.117605 
L 427.732764 353.239487 
L 453.255092 353.357024 
L 466.016255 353.413627 
L 469.206546 353.375744 
L 469.206546 353.375744 
" style="fill:none;stroke:#1f77b4;stroke-linecap:square;stroke-width:1.5;"/>
   </g>
   <g id="patch_63">
    <path d="M 43.78125 353.438437 
L 43.78125 20.798437 
" style="fill:none;stroke:#000000;stroke-linecap:square;stroke-linejoin:miter;stroke-width:0.8;"/>
   </g>
   <g id="patch_64">
    <path d="M 490.18125 353.438437 
L 490.18125 20.798437 
" style="fill:none;stroke:#000000;stroke-linecap:square;stroke-linejoin:miter;stroke-width:0.8;"/>
   </g>
   <g id="patch_65">
    <path d="M 43.78125 353.438437 
L 490.18125 353.438437 
" style="fill:none;stroke:#000000;stroke-linecap:square;stroke-linejoin:miter;stroke-width:0.8;"/>
   </g>
   <g id="patch_66">
    <path d="M 43.78125 20.798437 
L 490.18125 20.798437 
" style="fill:none;stroke:#000000;stroke-linecap:square;stroke-linejoin:miter;stroke-width:0.8;"/>
   </g>
   <g id="text_45">
    <!-- Kernel Density Plot - P00918 -->
    <defs>
     <path d="M 4.890625 31.390625 
L 31.203125 31.390625 
L 31.203125 23.390625 
L 4.890625 23.390625 
z
" id="DejaVuSans-45"/>
    </defs>
    <g transform="translate(195.427344 14.798437)scale(0.1 -0.1)">
     <use xlink:href="#DejaVuSans-75"/>
     <use x="65.498047" xlink:href="#DejaVuSans-101"/>
     <use x="127.021484" xlink:href="#DejaVuSans-114"/>
     <use x="168.119141" xlink:href="#DejaVuSans-110"/>
     <use x="231.498047" xlink:href="#DejaVuSans-101"/>
     <use x="293.021484" xlink:href="#DejaVuSans-108"/>
     <use x="320.804688" xlink:href="#DejaVuSans-32"/>
     <use x="352.591797" xlink:href="#DejaVuSans-68"/>
     <use x="429.59375" xlink:href="#DejaVuSans-101"/>
     <use x="491.117188" xlink:href="#DejaVuSans-110"/>
     <use x="554.496094" xlink:href="#DejaVuSans-115"/>
     <use x="606.595703" xlink:href="#DejaVuSans-105"/>
     <use x="634.378906" xlink:href="#DejaVuSans-116"/>
     <use x="673.587891" xlink:href="#DejaVuSans-121"/>
     <use x="732.767578" xlink:href="#DejaVuSans-32"/>
     <use x="764.554688" xlink:href="#DejaVuSans-80"/>
     <use x="824.857422" xlink:href="#DejaVuSans-108"/>
     <use x="852.640625" xlink:href="#DejaVuSans-111"/>
     <use x="913.822266" xlink:href="#DejaVuSans-116"/>
     <use x="953.03125" xlink:href="#DejaVuSans-32"/>
     <use x="984.818359" xlink:href="#DejaVuSans-45"/>
     <use x="1020.902344" xlink:href="#DejaVuSans-32"/>
     <use x="1052.689453" xlink:href="#DejaVuSans-80"/>
     <use x="1112.992188" xlink:href="#DejaVuSans-48"/>
     <use x="1176.615234" xlink:href="#DejaVuSans-48"/>
     <use x="1240.238281" xlink:href="#DejaVuSans-57"/>
     <use x="1303.861328" xlink:href="#DejaVuSans-49"/>
     <use x="1367.484375" xlink:href="#DejaVuSans-56"/>
    </g>
   </g>
  </g>
 </g>
 <defs>
  <clipPath id="p8c1d280b4a">
   <rect height="332.64" width="446.4" x="43.78125" y="20.798437"/>
  </clipPath>
 </defs>
</svg>
