<?xml version="1.0" encoding="utf-8" standalone="no"?>
<!DOCTYPE svg PUBLIC "-//W3C//DTD SVG 1.1//EN"
  "http://www.w3.org/Graphics/SVG/1.1/DTD/svg11.dtd">
<!-- Created with matplotlib (https://matplotlib.org/) -->
<svg height="345.6pt" version="1.1" viewBox="0 0 460.8 345.6" width="460.8pt" xmlns="http://www.w3.org/2000/svg" xmlns:xlink="http://www.w3.org/1999/xlink">
 <defs>
  <style type="text/css">
*{stroke-linecap:butt;stroke-linejoin:round;}
  </style>
 </defs>
 <g id="figure_1">
  <g id="patch_1">
   <path d="M 0 345.6 
L 460.8 345.6 
L 460.8 0 
L 0 0 
z
" style="fill:#ffffff;"/>
  </g>
  <g id="axes_1">
   <g id="LineCollection_1">
    <path clip-path="url(#pa022f54df2)" d="M 362.499791 53.403001 
L 291.763718 104.820857 
" style="fill:none;stroke:#fde725;"/>
    <path clip-path="url(#pa022f54df2)" d="M 22.241537 77.948629 
L 102.779729 114.810839 
" style="fill:none;stroke:#fde725;"/>
    <path clip-path="url(#pa022f54df2)" d="M 131.768287 219.299736 
L 205.691131 166.831428 
" style="fill:none;stroke:#21918c;"/>
    <path clip-path="url(#pa022f54df2)" d="M 131.768287 219.299736 
L 52.185806 213.33651 
" style="fill:none;stroke:#21918c;"/>
    <path clip-path="url(#pa022f54df2)" d="M 98.938888 170.688464 
L 205.691131 166.831428 
" style="fill:none;stroke:#21918c;"/>
    <path clip-path="url(#pa022f54df2)" d="M 98.938888 170.688464 
L 52.185806 213.33651 
" style="fill:none;stroke:#21918c;"/>
    <path clip-path="url(#pa022f54df2)" d="M 110.936174 196.282368 
L 205.691131 166.831428 
" style="fill:none;stroke:#21918c;"/>
    <path clip-path="url(#pa022f54df2)" d="M 110.936174 196.282368 
L 52.185806 213.33651 
" style="fill:none;stroke:#21918c;"/>
    <path clip-path="url(#pa022f54df2)" d="M 102.779729 114.810839 
L 205.691131 166.831428 
" style="fill:none;stroke:#21918c;"/>
    <path clip-path="url(#pa022f54df2)" d="M 300.058554 219.195939 
L 205.691131 166.831428 
" style="fill:none;stroke:#21918c;"/>
    <path clip-path="url(#pa022f54df2)" d="M 300.058554 219.195939 
L 373.299237 259.571696 
" style="fill:none;stroke:#21918c;"/>
    <path clip-path="url(#pa022f54df2)" d="M 438.558463 155.328753 
L 337.313278 161.007082 
" style="fill:none;stroke:#fde725;"/>
    <path clip-path="url(#pa022f54df2)" d="M 337.313278 161.007082 
L 205.691131 166.831428 
" style="fill:none;stroke:#21918c;"/>
    <path clip-path="url(#pa022f54df2)" d="M 205.691131 166.831428 
L 291.763718 104.820857 
" style="fill:none;stroke:#440154;"/>
    <path clip-path="url(#pa022f54df2)" d="M 205.691131 166.831428 
L 193.764551 83.281949 
" style="fill:none;stroke:#440154;"/>
    <path clip-path="url(#pa022f54df2)" d="M 205.691131 166.831428 
L 203.902926 260.001963 
" style="fill:none;stroke:#440154;"/>
    <path clip-path="url(#pa022f54df2)" d="M 203.902926 260.001963 
L 198.173215 328.810322 
" style="fill:none;stroke:#21918c;"/>
    <path clip-path="url(#pa022f54df2)" d="M 193.764551 83.281949 
L 181.510074 16.789678 
" style="fill:none;stroke:#21918c;"/>
   </g>
   <g id="PathCollection_1">
    <defs>
     <path d="M 0 1.581139 
C 0.419323 1.581139 0.821528 1.41454 1.118034 1.118034 
C 1.41454 0.821528 1.581139 0.419323 1.581139 0 
C 1.581139 -0.419323 1.41454 -0.821528 1.118034 -1.118034 
C 0.821528 -1.41454 0.419323 -1.581139 0 -1.581139 
C -0.419323 -1.581139 -0.821528 -1.41454 -1.118034 -1.118034 
C -1.41454 -0.821528 -1.581139 -0.419323 -1.581139 0 
C -1.581139 0.419323 -1.41454 0.821528 -1.118034 1.118034 
C -0.821528 1.41454 -0.419323 1.581139 0 1.581139 
z
" id="C0_0_3281ed47ff"/>
    </defs>
    <g clip-path="url(#pa022f54df2)">
     <use style="fill:#808080;stroke:#808080;" x="362.499791" xlink:href="#C0_0_3281ed47ff" y="53.403001"/>
    </g>
    <g clip-path="url(#pa022f54df2)">
     <use style="fill:#808080;stroke:#808080;" x="22.241537" xlink:href="#C0_0_3281ed47ff" y="77.948629"/>
    </g>
    <g clip-path="url(#pa022f54df2)">
     <use style="fill:#808080;stroke:#808080;" x="131.768287" xlink:href="#C0_0_3281ed47ff" y="219.299736"/>
    </g>
    <g clip-path="url(#pa022f54df2)">
     <use style="fill:#808080;stroke:#808080;" x="98.938888" xlink:href="#C0_0_3281ed47ff" y="170.688464"/>
    </g>
    <g clip-path="url(#pa022f54df2)">
     <use style="fill:#808080;stroke:#808080;" x="110.936174" xlink:href="#C0_0_3281ed47ff" y="196.282368"/>
    </g>
    <g clip-path="url(#pa022f54df2)">
     <use style="fill:#808080;stroke:#808080;" x="102.779729" xlink:href="#C0_0_3281ed47ff" y="114.810839"/>
    </g>
    <g clip-path="url(#pa022f54df2)">
     <use style="fill:#808080;stroke:#808080;" x="52.185806" xlink:href="#C0_0_3281ed47ff" y="213.33651"/>
    </g>
    <g clip-path="url(#pa022f54df2)">
     <use style="fill:#808080;stroke:#808080;" x="300.058554" xlink:href="#C0_0_3281ed47ff" y="219.195939"/>
    </g>
    <g clip-path="url(#pa022f54df2)">
     <use style="fill:#808080;stroke:#808080;" x="373.299237" xlink:href="#C0_0_3281ed47ff" y="259.571696"/>
    </g>
    <g clip-path="url(#pa022f54df2)">
     <use style="fill:#808080;stroke:#808080;" x="438.558463" xlink:href="#C0_0_3281ed47ff" y="155.328753"/>
    </g>
    <g clip-path="url(#pa022f54df2)">
     <use style="fill:#808080;stroke:#808080;" x="337.313278" xlink:href="#C0_0_3281ed47ff" y="161.007082"/>
    </g>
    <g clip-path="url(#pa022f54df2)">
     <use style="fill:#ff0000;stroke:#ff0000;" x="205.691131" xlink:href="#C0_0_3281ed47ff" y="166.831428"/>
    </g>
    <g clip-path="url(#pa022f54df2)">
     <use style="fill:#808080;stroke:#808080;" x="203.902926" xlink:href="#C0_0_3281ed47ff" y="260.001963"/>
    </g>
    <g clip-path="url(#pa022f54df2)">
     <use style="fill:#808080;stroke:#808080;" x="193.764551" xlink:href="#C0_0_3281ed47ff" y="83.281949"/>
    </g>
    <g clip-path="url(#pa022f54df2)">
     <use style="fill:#808080;stroke:#808080;" x="198.173215" xlink:href="#C0_0_3281ed47ff" y="328.810322"/>
    </g>
    <g clip-path="url(#pa022f54df2)">
     <use style="fill:#808080;stroke:#808080;" x="291.763718" xlink:href="#C0_0_3281ed47ff" y="104.820857"/>
    </g>
    <g clip-path="url(#pa022f54df2)">
     <use style="fill:#808080;stroke:#808080;" x="181.510074" xlink:href="#C0_0_3281ed47ff" y="16.789678"/>
    </g>
   </g>
   <g id="text_1">
    <g clip-path="url(#pa022f54df2)">
     <!-- 5UY -->
     <defs>
      <path d="M 10.59375 72.90625 
L 57.328125 72.90625 
L 57.328125 59.078125 
L 25.59375 59.078125 
L 25.59375 47.796875 
Q 27.734375 48.390625 29.90625 48.703125 
Q 32.078125 49.03125 34.421875 49.03125 
Q 47.75 49.03125 55.171875 42.359375 
Q 62.59375 35.6875 62.59375 23.78125 
Q 62.59375 11.96875 54.515625 5.265625 
Q 46.4375 -1.421875 32.078125 -1.421875 
Q 25.875 -1.421875 19.796875 -0.21875 
Q 13.71875 0.984375 7.71875 3.421875 
L 7.71875 18.21875 
Q 13.671875 14.796875 19.015625 13.078125 
Q 24.359375 11.375 29.109375 11.375 
Q 35.9375 11.375 39.859375 14.71875 
Q 43.796875 18.0625 43.796875 23.78125 
Q 43.796875 29.546875 39.859375 32.859375 
Q 35.9375 36.1875 29.109375 36.1875 
Q 25.046875 36.1875 20.453125 35.125 
Q 15.875 34.078125 10.59375 31.890625 
z
" id="DejaVuSans-Bold-53"/>
      <path d="M 9.1875 72.90625 
L 27.984375 72.90625 
L 27.984375 29.203125 
Q 27.984375 20.171875 30.9375 16.28125 
Q 33.890625 12.40625 40.578125 12.40625 
Q 47.3125 12.40625 50.265625 16.28125 
Q 53.21875 20.171875 53.21875 29.203125 
L 53.21875 72.90625 
L 72.015625 72.90625 
L 72.015625 29.203125 
Q 72.015625 13.71875 64.25 6.140625 
Q 56.5 -1.421875 40.578125 -1.421875 
Q 24.703125 -1.421875 16.9375 6.140625 
Q 9.1875 13.71875 9.1875 29.203125 
z
" id="DejaVuSans-Bold-85"/>
      <path d="M -0.984375 72.90625 
L 19.578125 72.90625 
L 36.1875 46.921875 
L 52.78125 72.90625 
L 73.390625 72.90625 
L 45.609375 30.71875 
L 45.609375 0 
L 26.8125 0 
L 26.8125 30.71875 
z
" id="DejaVuSans-Bold-89"/>
     </defs>
     <g transform="translate(359.151978 52.779094)scale(0.03 -0.03)">
      <use xlink:href="#DejaVuSans-Bold-53"/>
      <use x="69.580078" xlink:href="#DejaVuSans-Bold-85"/>
      <use x="150.78125" xlink:href="#DejaVuSans-Bold-89"/>
     </g>
    </g>
   </g>
   <g id="text_2">
    <g clip-path="url(#pa022f54df2)">
     <!-- A1K -->
     <defs>
      <path d="M 53.421875 13.28125 
L 24.03125 13.28125 
L 19.390625 0 
L 0.484375 0 
L 27.484375 72.90625 
L 49.90625 72.90625 
L 76.90625 0 
L 58.015625 0 
z
M 28.71875 26.8125 
L 48.6875 26.8125 
L 38.71875 55.8125 
z
" id="DejaVuSans-Bold-65"/>
      <path d="M 11.71875 12.984375 
L 28.328125 12.984375 
L 28.328125 60.109375 
L 11.28125 56.59375 
L 11.28125 69.390625 
L 28.21875 72.90625 
L 46.09375 72.90625 
L 46.09375 12.984375 
L 62.703125 12.984375 
L 62.703125 0 
L 11.71875 0 
z
" id="DejaVuSans-Bold-49"/>
      <path d="M 9.1875 72.90625 
L 27.984375 72.90625 
L 27.984375 46.296875 
L 55.078125 72.90625 
L 76.90625 72.90625 
L 41.796875 38.375 
L 80.515625 0 
L 56.984375 0 
L 27.984375 28.71875 
L 27.984375 0 
L 9.1875 0 
z
" id="DejaVuSans-Bold-75"/>
     </defs>
     <g transform="translate(18.87474 77.324723)scale(0.03 -0.03)">
      <use xlink:href="#DejaVuSans-Bold-65"/>
      <use x="77.392578" xlink:href="#DejaVuSans-Bold-49"/>
      <use x="146.972656" xlink:href="#DejaVuSans-Bold-75"/>
     </g>
    </g>
   </g>
   <g id="text_3">
    <g clip-path="url(#pa022f54df2)">
     <!-- 5OQ5 -->
     <defs>
      <path d="M 42.484375 60.59375 
Q 33.890625 60.59375 29.15625 54.25 
Q 24.421875 47.90625 24.421875 36.375 
Q 24.421875 24.90625 29.15625 18.546875 
Q 33.890625 12.203125 42.484375 12.203125 
Q 51.125 12.203125 55.859375 18.546875 
Q 60.59375 24.90625 60.59375 36.375 
Q 60.59375 47.90625 55.859375 54.25 
Q 51.125 60.59375 42.484375 60.59375 
z
M 42.484375 74.21875 
Q 60.0625 74.21875 70.015625 64.15625 
Q 79.984375 54.109375 79.984375 36.375 
Q 79.984375 18.703125 70.015625 8.640625 
Q 60.0625 -1.421875 42.484375 -1.421875 
Q 24.953125 -1.421875 14.96875 8.640625 
Q 4.984375 18.703125 4.984375 36.375 
Q 4.984375 54.109375 14.96875 64.15625 
Q 24.953125 74.21875 42.484375 74.21875 
z
" id="DejaVuSans-Bold-79"/>
      <path d="M 44.484375 -1.3125 
L 43.015625 -1.3125 
Q 25 -1.3125 14.984375 8.640625 
Q 4.984375 18.609375 4.984375 36.375 
Q 4.984375 54.109375 14.96875 64.15625 
Q 24.953125 74.21875 42.484375 74.21875 
Q 60.203125 74.21875 70.09375 64.25 
Q 79.984375 54.296875 79.984375 36.375 
Q 79.984375 24.078125 74.734375 15.1875 
Q 69.484375 6.296875 59.625 1.8125 
L 74.3125 -14.59375 
L 56.390625 -14.59375 
z
M 42.484375 60.59375 
Q 33.890625 60.59375 29.15625 54.25 
Q 24.421875 47.90625 24.421875 36.375 
Q 24.421875 24.65625 29.046875 18.421875 
Q 33.6875 12.203125 42.484375 12.203125 
Q 51.125 12.203125 55.859375 18.546875 
Q 60.59375 24.90625 60.59375 36.375 
Q 60.59375 47.90625 55.859375 54.25 
Q 51.125 60.59375 42.484375 60.59375 
z
" id="DejaVuSans-Bold-81"/>
     </defs>
     <g transform="translate(127.130474 218.67583)scale(0.03 -0.03)">
      <use xlink:href="#DejaVuSans-Bold-53"/>
      <use x="69.580078" xlink:href="#DejaVuSans-Bold-79"/>
      <use x="154.589844" xlink:href="#DejaVuSans-Bold-81"/>
      <use x="239.599609" xlink:href="#DejaVuSans-Bold-53"/>
     </g>
    </g>
   </g>
   <g id="text_4">
    <g clip-path="url(#pa022f54df2)">
     <!-- 5OOT -->
     <defs>
      <path d="M 0.484375 72.90625 
L 67.671875 72.90625 
L 67.671875 58.6875 
L 43.5 58.6875 
L 43.5 0 
L 24.703125 0 
L 24.703125 58.6875 
L 0.484375 58.6875 
z
" id="DejaVuSans-Bold-84"/>
     </defs>
     <g transform="translate(94.321466 170.064558)scale(0.03 -0.03)">
      <use xlink:href="#DejaVuSans-Bold-53"/>
      <use x="69.580078" xlink:href="#DejaVuSans-Bold-79"/>
      <use x="154.589844" xlink:href="#DejaVuSans-Bold-79"/>
      <use x="239.599609" xlink:href="#DejaVuSans-Bold-84"/>
     </g>
    </g>
   </g>
   <g id="text_5">
    <g clip-path="url(#pa022f54df2)">
     <!-- 5OQ6 -->
     <defs>
      <path d="M 36.1875 35.984375 
Q 31.25 35.984375 28.78125 32.78125 
Q 26.3125 29.59375 26.3125 23.1875 
Q 26.3125 16.796875 28.78125 13.59375 
Q 31.25 10.40625 36.1875 10.40625 
Q 41.15625 10.40625 43.625 13.59375 
Q 46.09375 16.796875 46.09375 23.1875 
Q 46.09375 29.59375 43.625 32.78125 
Q 41.15625 35.984375 36.1875 35.984375 
z
M 59.421875 71 
L 59.421875 57.515625 
Q 54.78125 59.71875 50.671875 60.765625 
Q 46.578125 61.8125 42.671875 61.8125 
Q 34.28125 61.8125 29.59375 57.140625 
Q 24.90625 52.484375 24.125 43.3125 
Q 27.34375 45.703125 31.09375 46.890625 
Q 34.859375 48.09375 39.3125 48.09375 
Q 50.484375 48.09375 57.34375 41.546875 
Q 64.203125 35.015625 64.203125 24.421875 
Q 64.203125 12.703125 56.53125 5.640625 
Q 48.875 -1.421875 35.984375 -1.421875 
Q 21.78125 -1.421875 13.984375 8.171875 
Q 6.203125 17.78125 6.203125 35.40625 
Q 6.203125 53.46875 15.3125 63.796875 
Q 24.421875 74.125 40.28125 74.125 
Q 45.3125 74.125 50.046875 73.34375 
Q 54.78125 72.5625 59.421875 71 
z
" id="DejaVuSans-Bold-54"/>
     </defs>
     <g transform="translate(106.298362 195.658462)scale(0.03 -0.03)">
      <use xlink:href="#DejaVuSans-Bold-53"/>
      <use x="69.580078" xlink:href="#DejaVuSans-Bold-79"/>
      <use x="154.589844" xlink:href="#DejaVuSans-Bold-81"/>
      <use x="239.599609" xlink:href="#DejaVuSans-Bold-54"/>
     </g>
    </g>
   </g>
   <g id="text_6">
    <g clip-path="url(#pa022f54df2)">
     <!-- 5OP7 -->
     <defs>
      <path d="M 9.1875 72.90625 
L 40.375 72.90625 
Q 54.296875 72.90625 61.734375 66.71875 
Q 69.1875 60.546875 69.1875 49.125 
Q 69.1875 37.640625 61.734375 31.46875 
Q 54.296875 25.296875 40.375 25.296875 
L 27.984375 25.296875 
L 27.984375 0 
L 9.1875 0 
z
M 27.984375 59.28125 
L 27.984375 38.921875 
L 38.375 38.921875 
Q 43.84375 38.921875 46.828125 41.578125 
Q 49.8125 44.234375 49.8125 49.125 
Q 49.8125 54 46.828125 56.640625 
Q 43.84375 59.28125 38.375 59.28125 
z
" id="DejaVuSans-Bold-80"/>
      <path d="M 6.6875 72.90625 
L 61.625 72.90625 
L 61.625 62.3125 
L 33.203125 0 
L 14.890625 0 
L 41.796875 59.078125 
L 6.6875 59.078125 
z
" id="DejaVuSans-Bold-55"/>
     </defs>
     <g transform="translate(98.317698 114.186933)scale(0.03 -0.03)">
      <use xlink:href="#DejaVuSans-Bold-53"/>
      <use x="69.580078" xlink:href="#DejaVuSans-Bold-79"/>
      <use x="154.589844" xlink:href="#DejaVuSans-Bold-80"/>
      <use x="227.880859" xlink:href="#DejaVuSans-Bold-55"/>
     </g>
    </g>
   </g>
   <g id="text_7">
    <g clip-path="url(#pa022f54df2)">
     <!-- 4K4 -->
     <defs>
      <path d="M 36.8125 57.421875 
L 16.21875 26.90625 
L 36.8125 26.90625 
z
M 33.6875 72.90625 
L 54.59375 72.90625 
L 54.59375 26.90625 
L 64.984375 26.90625 
L 64.984375 13.28125 
L 54.59375 13.28125 
L 54.59375 0 
L 36.8125 0 
L 36.8125 13.28125 
L 4.5 13.28125 
L 4.5 29.390625 
z
" id="DejaVuSans-Bold-52"/>
     </defs>
     <g transform="translate(48.936196 212.712603)scale(0.03 -0.03)">
      <use xlink:href="#DejaVuSans-Bold-52"/>
      <use x="69.580078" xlink:href="#DejaVuSans-Bold-75"/>
      <use x="147.070312" xlink:href="#DejaVuSans-Bold-52"/>
     </g>
    </g>
   </g>
   <g id="text_8">
    <g clip-path="url(#pa022f54df2)">
     <!-- 4FTU -->
     <defs>
      <path d="M 9.1875 72.90625 
L 59.90625 72.90625 
L 59.90625 58.6875 
L 27.984375 58.6875 
L 27.984375 45.125 
L 58.015625 45.125 
L 58.015625 30.90625 
L 27.984375 30.90625 
L 27.984375 0 
L 9.1875 0 
z
" id="DejaVuSans-Bold-70"/>
     </defs>
     <g transform="translate(295.748866 218.572032)scale(0.03 -0.03)">
      <use xlink:href="#DejaVuSans-Bold-52"/>
      <use x="69.580078" xlink:href="#DejaVuSans-Bold-70"/>
      <use x="137.890625" xlink:href="#DejaVuSans-Bold-84"/>
      <use x="206.103516" xlink:href="#DejaVuSans-Bold-85"/>
     </g>
    </g>
   </g>
   <g id="text_9">
    <g clip-path="url(#pa022f54df2)">
     <!-- 7HK -->
     <defs>
      <path d="M 9.1875 72.90625 
L 27.984375 72.90625 
L 27.984375 45.125 
L 55.71875 45.125 
L 55.71875 72.90625 
L 74.515625 72.90625 
L 74.515625 0 
L 55.71875 0 
L 55.71875 30.90625 
L 27.984375 30.90625 
L 27.984375 0 
L 9.1875 0 
z
" id="DejaVuSans-Bold-72"/>
     </defs>
     <g transform="translate(369.837987 258.94779)scale(0.03 -0.03)">
      <use xlink:href="#DejaVuSans-Bold-55"/>
      <use x="69.580078" xlink:href="#DejaVuSans-Bold-72"/>
      <use x="153.271484" xlink:href="#DejaVuSans-Bold-75"/>
     </g>
    </g>
   </g>
   <g id="text_10">
    <g clip-path="url(#pa022f54df2)">
     <!-- A0T -->
     <defs>
      <path d="M 46 36.53125 
Q 46 50.203125 43.4375 55.78125 
Q 40.875 61.375 34.8125 61.375 
Q 28.765625 61.375 26.171875 55.78125 
Q 23.578125 50.203125 23.578125 36.53125 
Q 23.578125 22.703125 26.171875 17.03125 
Q 28.765625 11.375 34.8125 11.375 
Q 40.828125 11.375 43.40625 17.03125 
Q 46 22.703125 46 36.53125 
z
M 64.796875 36.375 
Q 64.796875 18.265625 56.984375 8.421875 
Q 49.171875 -1.421875 34.8125 -1.421875 
Q 20.40625 -1.421875 12.59375 8.421875 
Q 4.78125 18.265625 4.78125 36.375 
Q 4.78125 54.546875 12.59375 64.375 
Q 20.40625 74.21875 34.8125 74.21875 
Q 49.171875 74.21875 56.984375 64.375 
Q 64.796875 54.546875 64.796875 36.375 
z
" id="DejaVuSans-Bold-48"/>
     </defs>
     <g transform="translate(435.33065 154.704847)scale(0.03 -0.03)">
      <use xlink:href="#DejaVuSans-Bold-65"/>
      <use x="77.392578" xlink:href="#DejaVuSans-Bold-48"/>
      <use x="146.972656" xlink:href="#DejaVuSans-Bold-84"/>
     </g>
    </g>
   </g>
   <g id="text_11">
    <g clip-path="url(#pa022f54df2)">
     <!-- 5OP4 -->
     <g transform="translate(332.851247 160.383176)scale(0.03 -0.03)">
      <use xlink:href="#DejaVuSans-Bold-53"/>
      <use x="69.580078" xlink:href="#DejaVuSans-Bold-79"/>
      <use x="154.589844" xlink:href="#DejaVuSans-Bold-80"/>
      <use x="227.880859" xlink:href="#DejaVuSans-Bold-52"/>
     </g>
    </g>
   </g>
   <g id="text_12">
    <g clip-path="url(#pa022f54df2)">
     <!-- Chk1 -->
     <defs>
      <path d="M 67 4 
Q 61.8125 1.3125 56.203125 -0.046875 
Q 50.59375 -1.421875 44.484375 -1.421875 
Q 26.265625 -1.421875 15.625 8.765625 
Q 4.984375 18.953125 4.984375 36.375 
Q 4.984375 53.859375 15.625 64.03125 
Q 26.265625 74.21875 44.484375 74.21875 
Q 50.59375 74.21875 56.203125 72.84375 
Q 61.8125 71.484375 67 68.796875 
L 67 53.71875 
Q 61.765625 57.28125 56.6875 58.9375 
Q 51.609375 60.59375 46 60.59375 
Q 35.9375 60.59375 30.171875 54.140625 
Q 24.421875 47.703125 24.421875 36.375 
Q 24.421875 25.09375 30.171875 18.640625 
Q 35.9375 12.203125 46 12.203125 
Q 51.609375 12.203125 56.6875 13.859375 
Q 61.765625 15.53125 67 19.09375 
z
" id="DejaVuSans-Bold-67"/>
      <path d="M 63.375 33.296875 
L 63.375 0 
L 45.796875 0 
L 45.796875 5.421875 
L 45.796875 25.390625 
Q 45.796875 32.5625 45.484375 35.25 
Q 45.171875 37.9375 44.390625 39.203125 
Q 43.359375 40.921875 41.59375 41.875 
Q 39.84375 42.828125 37.59375 42.828125 
Q 32.125 42.828125 29 38.59375 
Q 25.875 34.375 25.875 26.90625 
L 25.875 0 
L 8.40625 0 
L 8.40625 75.984375 
L 25.875 75.984375 
L 25.875 46.6875 
Q 29.828125 51.46875 34.265625 53.734375 
Q 38.71875 56 44.09375 56 
Q 53.5625 56 58.46875 50.1875 
Q 63.375 44.390625 63.375 33.296875 
z
" id="DejaVuSans-Bold-104"/>
      <path d="M 8.40625 75.984375 
L 25.875 75.984375 
L 25.875 34.625 
L 46 54.6875 
L 66.3125 54.6875 
L 39.59375 29.59375 
L 68.40625 0 
L 47.21875 0 
L 25.875 22.796875 
L 25.875 0 
L 8.40625 0 
z
" id="DejaVuSans-Bold-107"/>
     </defs>
     <g transform="translate(201.481288 166.207522)scale(0.03 -0.03)">
      <use xlink:href="#DejaVuSans-Bold-67"/>
      <use x="73.388672" xlink:href="#DejaVuSans-Bold-104"/>
      <use x="144.580078" xlink:href="#DejaVuSans-Bold-107"/>
      <use x="211.083984" xlink:href="#DejaVuSans-Bold-49"/>
     </g>
    </g>
   </g>
   <g id="text_13">
    <g clip-path="url(#pa022f54df2)">
     <!-- 2YM8 -->
     <defs>
      <path d="M 28.8125 13.8125 
L 60.890625 13.8125 
L 60.890625 0 
L 7.90625 0 
L 7.90625 13.8125 
L 34.515625 37.3125 
Q 38.09375 40.53125 39.796875 43.609375 
Q 41.5 46.6875 41.5 50 
Q 41.5 55.125 38.0625 58.25 
Q 34.625 61.375 28.90625 61.375 
Q 24.515625 61.375 19.28125 59.5 
Q 14.0625 57.625 8.109375 53.90625 
L 8.109375 69.921875 
Q 14.453125 72.015625 20.65625 73.109375 
Q 26.859375 74.21875 32.8125 74.21875 
Q 45.90625 74.21875 53.15625 68.453125 
Q 60.40625 62.703125 60.40625 52.390625 
Q 60.40625 46.4375 57.328125 41.28125 
Q 54.25 36.140625 44.390625 27.484375 
z
" id="DejaVuSans-Bold-50"/>
      <path d="M 9.1875 72.90625 
L 33.109375 72.90625 
L 49.703125 33.890625 
L 66.40625 72.90625 
L 90.28125 72.90625 
L 90.28125 0 
L 72.515625 0 
L 72.515625 53.328125 
L 55.71875 14.015625 
L 43.796875 14.015625 
L 27 53.328125 
L 27 0 
L 9.1875 0 
z
" id="DejaVuSans-Bold-77"/>
      <path d="M 34.8125 32.625 
Q 29.546875 32.625 26.703125 29.734375 
Q 23.875 26.859375 23.875 21.484375 
Q 23.875 16.109375 26.703125 13.25 
Q 29.546875 10.40625 34.8125 10.40625 
Q 40.046875 10.40625 42.828125 13.25 
Q 45.609375 16.109375 45.609375 21.484375 
Q 45.609375 26.90625 42.828125 29.765625 
Q 40.046875 32.625 34.8125 32.625 
z
M 21.09375 38.8125 
Q 14.453125 40.828125 11.078125 44.96875 
Q 7.71875 49.125 7.71875 55.328125 
Q 7.71875 64.546875 14.59375 69.375 
Q 21.484375 74.21875 34.8125 74.21875 
Q 48.046875 74.21875 54.921875 69.40625 
Q 61.8125 64.59375 61.8125 55.328125 
Q 61.8125 49.125 58.421875 44.96875 
Q 55.03125 40.828125 48.390625 38.8125 
Q 55.8125 36.765625 59.59375 32.15625 
Q 63.375 27.546875 63.375 20.515625 
Q 63.375 9.671875 56.171875 4.125 
Q 48.96875 -1.421875 34.8125 -1.421875 
Q 20.609375 -1.421875 13.359375 4.125 
Q 6.109375 9.671875 6.109375 20.515625 
Q 6.109375 27.546875 9.890625 32.15625 
Q 13.671875 36.765625 21.09375 38.8125 
z
M 25.484375 53.421875 
Q 25.484375 49.078125 27.90625 46.734375 
Q 30.328125 44.390625 34.8125 44.390625 
Q 39.203125 44.390625 41.59375 46.734375 
Q 44 49.078125 44 53.421875 
Q 44 57.765625 41.59375 60.078125 
Q 39.203125 62.40625 34.8125 62.40625 
Q 30.328125 62.40625 27.90625 60.0625 
Q 25.484375 57.71875 25.484375 53.421875 
z
" id="DejaVuSans-Bold-56"/>
     </defs>
     <g transform="translate(199.236754 259.378057)scale(0.03 -0.03)">
      <use xlink:href="#DejaVuSans-Bold-50"/>
      <use x="69.580078" xlink:href="#DejaVuSans-Bold-89"/>
      <use x="141.992188" xlink:href="#DejaVuSans-Bold-77"/>
      <use x="241.503906" xlink:href="#DejaVuSans-Bold-56"/>
     </g>
    </g>
   </g>
   <g id="text_14">
    <g clip-path="url(#pa022f54df2)">
     <!-- 2YM7 -->
     <g transform="translate(189.098379 82.658043)scale(0.03 -0.03)">
      <use xlink:href="#DejaVuSans-Bold-50"/>
      <use x="69.580078" xlink:href="#DejaVuSans-Bold-89"/>
      <use x="141.992188" xlink:href="#DejaVuSans-Bold-77"/>
      <use x="241.503906" xlink:href="#DejaVuSans-Bold-55"/>
     </g>
    </g>
   </g>
   <g id="text_15">
    <g clip-path="url(#pa022f54df2)">
     <!-- YM8 -->
     <g transform="translate(194.550715 328.186416)scale(0.03 -0.03)">
      <use xlink:href="#DejaVuSans-Bold-89"/>
      <use x="72.412109" xlink:href="#DejaVuSans-Bold-77"/>
      <use x="171.923828" xlink:href="#DejaVuSans-Bold-56"/>
     </g>
    </g>
   </g>
   <g id="text_16">
    <g clip-path="url(#pa022f54df2)">
     <!-- 5F4N -->
     <defs>
      <path d="M 9.1875 72.90625 
L 30.171875 72.90625 
L 56.6875 22.90625 
L 56.6875 72.90625 
L 74.515625 72.90625 
L 74.515625 0 
L 53.515625 0 
L 27 50 
L 27 0 
L 9.1875 0 
z
" id="DejaVuSans-Bold-78"/>
     </defs>
     <g transform="translate(287.396374 104.196951)scale(0.03 -0.03)">
      <use xlink:href="#DejaVuSans-Bold-53"/>
      <use x="69.580078" xlink:href="#DejaVuSans-Bold-70"/>
      <use x="137.890625" xlink:href="#DejaVuSans-Bold-52"/>
      <use x="207.470703" xlink:href="#DejaVuSans-Bold-78"/>
     </g>
    </g>
   </g>
   <g id="text_17">
    <g clip-path="url(#pa022f54df2)">
     <!-- YM7 -->
     <g transform="translate(177.887574 16.165771)scale(0.03 -0.03)">
      <use xlink:href="#DejaVuSans-Bold-89"/>
      <use x="72.412109" xlink:href="#DejaVuSans-Bold-77"/>
      <use x="171.923828" xlink:href="#DejaVuSans-Bold-55"/>
     </g>
    </g>
   </g>
  </g>
 </g>
 <defs>
  <clipPath id="pa022f54df2">
   <rect height="345.6" width="460.8" x="0" y="0"/>
  </clipPath>
 </defs>
</svg>
