<?xml version="1.0" encoding="utf-8" standalone="no"?>
<!DOCTYPE svg PUBLIC "-//W3C//DTD SVG 1.1//EN"
  "http://www.w3.org/Graphics/SVG/1.1/DTD/svg11.dtd">
<!-- Created with matplotlib (https://matplotlib.org/) -->
<svg height="345.6pt" version="1.1" viewBox="0 0 460.8 345.6" width="460.8pt" xmlns="http://www.w3.org/2000/svg" xmlns:xlink="http://www.w3.org/1999/xlink">
 <defs>
  <style type="text/css">
*{stroke-linecap:butt;stroke-linejoin:round;}
  </style>
 </defs>
 <g id="figure_1">
  <g id="patch_1">
   <path d="M 0 345.6 
L 460.8 345.6 
L 460.8 0 
L 0 0 
z
" style="fill:#ffffff;"/>
  </g>
  <g id="axes_1">
   <g id="LineCollection_1">
    <path clip-path="url(#p198cc80711)" d="M 213.852808 190.899694 
L 213.135923 205.595905 
" style="fill:none;stroke:#440154;"/>
    <path clip-path="url(#p198cc80711)" d="M 213.135923 205.595905 
L 212.363824 221.424006 
" style="fill:none;stroke:#fde725;"/>
   </g>
   <g id="LineCollection_2">
    <path clip-path="url(#p198cc80711)" d="M 195.645457 280.051166 
L 212.086286 274.436843 
" style="fill:none;stroke:#440154;"/>
    <path clip-path="url(#p198cc80711)" d="M 195.645457 280.051166 
L 178.937388 268.06025 
" style="fill:none;stroke:#440154;"/>
    <path clip-path="url(#p198cc80711)" d="M 195.645457 280.051166 
L 177.82195 292.333043 
" style="fill:none;stroke:#440154;"/>
    <path clip-path="url(#p198cc80711)" d="M 195.645457 280.051166 
L 193.809745 302.504295 
" style="fill:none;stroke:#440154;"/>
    <path clip-path="url(#p198cc80711)" d="M 195.645457 280.051166 
L 203.161874 302.027442 
" style="fill:none;stroke:#440154;"/>
    <path clip-path="url(#p198cc80711)" d="M 195.645457 280.051166 
L 175.496558 280.552872 
" style="fill:none;stroke:#440154;"/>
    <path clip-path="url(#p198cc80711)" d="M 195.645457 280.051166 
L 200.693543 254.355001 
" style="fill:none;stroke:#440154;"/>
    <path clip-path="url(#p198cc80711)" d="M 195.645457 280.051166 
L 215.656839 286.164611 
" style="fill:none;stroke:#440154;"/>
    <path clip-path="url(#p198cc80711)" d="M 195.645457 280.051166 
L 210.952616 295.290324 
" style="fill:none;stroke:#440154;"/>
    <path clip-path="url(#p198cc80711)" d="M 195.645457 280.051166 
L 184.349961 300.798897 
" style="fill:none;stroke:#440154;"/>
    <path clip-path="url(#p198cc80711)" d="M 195.645457 280.051166 
L 187.352467 259.351219 
" style="fill:none;stroke:#440154;"/>
    <path clip-path="url(#p198cc80711)" d="M 212.086286 274.436843 
L 225.877143 274.667713 
" style="fill:none;stroke:#21918c;"/>
    <path clip-path="url(#p198cc80711)" d="M 178.937388 268.06025 
L 164.375905 261.639637 
" style="fill:none;stroke:#21918c;"/>
    <path clip-path="url(#p198cc80711)" d="M 177.82195 292.333043 
L 164.16503 303.559923 
" style="fill:none;stroke:#21918c;"/>
    <path clip-path="url(#p198cc80711)" d="M 193.809745 302.504295 
L 192.167529 321.033617 
" style="fill:none;stroke:#21918c;"/>
    <path clip-path="url(#p198cc80711)" d="M 203.161874 302.027442 
L 207.72301 320.726004 
" style="fill:none;stroke:#21918c;"/>
    <path clip-path="url(#p198cc80711)" d="M 175.496558 280.552872 
L 159.356041 283.617526 
" style="fill:none;stroke:#21918c;"/>
    <path clip-path="url(#p198cc80711)" d="M 200.693543 254.355001 
L 204.845618 231.652624 
" style="fill:none;stroke:#21918c;"/>
    <path clip-path="url(#p198cc80711)" d="M 215.656839 286.164611 
L 230.088103 294.859266 
" style="fill:none;stroke:#21918c;"/>
    <path clip-path="url(#p198cc80711)" d="M 210.952616 295.290324 
L 221.400622 310.142925 
" style="fill:none;stroke:#21918c;"/>
    <path clip-path="url(#p198cc80711)" d="M 184.349961 300.798897 
L 175.857067 317.796744 
" style="fill:none;stroke:#21918c;"/>
    <path clip-path="url(#p198cc80711)" d="M 187.352467 259.351219 
L 179.455785 244.066688 
" style="fill:none;stroke:#21918c;"/>
    <path clip-path="url(#p198cc80711)" d="M 439.850118 163.253927 
L 427.92845 161.646175 
" style="fill:none;stroke:#440154;"/>
    <path clip-path="url(#p198cc80711)" d="M 427.92845 161.646175 
L 425.374381 152.281125 
" style="fill:none;stroke:#21918c;"/>
    <path clip-path="url(#p198cc80711)" d="M 365.19885 140.839162 
L 364.282074 130.621096 
" style="fill:none;stroke:#440154;"/>
    <path clip-path="url(#p198cc80711)" d="M 364.282074 130.621096 
L 367.917257 120.54858 
" style="fill:none;stroke:#21918c;"/>
    <path clip-path="url(#p198cc80711)" d="M 143.403088 15.820432 
L 135.957004 21.697906 
" style="fill:none;stroke:#440154;"/>
    <path clip-path="url(#p198cc80711)" d="M 135.957004 21.697906 
L 130.833661 30.343463 
" style="fill:none;stroke:#21918c;"/>
    <path clip-path="url(#p198cc80711)" d="M 59.728466 143.08389 
L 71.656234 140.778632 
" style="fill:none;stroke:#440154;"/>
    <path clip-path="url(#p198cc80711)" d="M 59.728466 143.08389 
L 44.945378 148.230386 
" style="fill:none;stroke:#440154;"/>
    <path clip-path="url(#p198cc80711)" d="M 59.728466 143.08389 
L 72.618978 150.296523 
" style="fill:none;stroke:#440154;"/>
    <path clip-path="url(#p198cc80711)" d="M 59.728466 143.08389 
L 46.265674 129.254953 
" style="fill:none;stroke:#440154;"/>
    <path clip-path="url(#p198cc80711)" d="M 71.656234 140.778632 
L 83.058899 148.45811 
" style="fill:none;stroke:#21918c;"/>
    <path clip-path="url(#p198cc80711)" d="M 83.058899 148.45811 
L 72.618978 150.296523 
" style="fill:none;stroke:#fde725;"/>
    <path clip-path="url(#p198cc80711)" d="M 44.945378 148.230386 
L 31.355728 149.02912 
" style="fill:none;stroke:#21918c;"/>
    <path clip-path="url(#p198cc80711)" d="M 46.265674 129.254953 
L 35.20743 119.188236 
" style="fill:none;stroke:#21918c;"/>
    <path clip-path="url(#p198cc80711)" d="M 267.864717 190.690941 
L 256.246377 172.731965 
" style="fill:none;stroke:#440154;"/>
    <path clip-path="url(#p198cc80711)" d="M 267.864717 190.690941 
L 278.756719 210.303745 
" style="fill:none;stroke:#440154;"/>
    <path clip-path="url(#p198cc80711)" d="M 267.864717 190.690941 
L 247.333151 194.47135 
" style="fill:none;stroke:#440154;"/>
    <path clip-path="url(#p198cc80711)" d="M 267.864717 190.690941 
L 250.279958 181.57701 
" style="fill:none;stroke:#440154;"/>
    <path clip-path="url(#p198cc80711)" d="M 267.864717 190.690941 
L 285.722853 179.816233 
" style="fill:none;stroke:#440154;"/>
    <path clip-path="url(#p198cc80711)" d="M 267.864717 190.690941 
L 268.304567 210.676557 
" style="fill:none;stroke:#440154;"/>
    <path clip-path="url(#p198cc80711)" d="M 267.864717 190.690941 
L 287.884918 191.816655 
" style="fill:none;stroke:#440154;"/>
    <path clip-path="url(#p198cc80711)" d="M 267.864717 190.690941 
L 277.385264 171.858882 
" style="fill:none;stroke:#440154;"/>
    <path clip-path="url(#p198cc80711)" d="M 267.864717 190.690941 
L 284.560832 202.642342 
" style="fill:none;stroke:#440154;"/>
    <path clip-path="url(#p198cc80711)" d="M 267.864717 190.690941 
L 266.71925 169.005632 
" style="fill:none;stroke:#440154;"/>
    <path clip-path="url(#p198cc80711)" d="M 256.246377 172.731965 
L 249.160193 156.89391 
" style="fill:none;stroke:#21918c;"/>
    <path clip-path="url(#p198cc80711)" d="M 278.756719 210.303745 
L 289.909873 223.694767 
" style="fill:none;stroke:#21918c;"/>
    <path clip-path="url(#p198cc80711)" d="M 247.333151 194.47135 
L 229.787536 195.727873 
" style="fill:none;stroke:#21918c;"/>
    <path clip-path="url(#p198cc80711)" d="M 250.279958 181.57701 
L 237.943413 171.520474 
" style="fill:none;stroke:#21918c;"/>
    <path clip-path="url(#p198cc80711)" d="M 285.722853 179.816233 
L 300.012418 170.809173 
" style="fill:none;stroke:#21918c;"/>
    <path clip-path="url(#p198cc80711)" d="M 268.304567 210.676557 
L 272.415566 225.949792 
" style="fill:none;stroke:#21918c;"/>
    <path clip-path="url(#p198cc80711)" d="M 287.884918 191.816655 
L 304.381597 191.749958 
" style="fill:none;stroke:#21918c;"/>
    <path clip-path="url(#p198cc80711)" d="M 277.385264 171.858882 
L 284.890562 156.904415 
" style="fill:none;stroke:#21918c;"/>
    <path clip-path="url(#p198cc80711)" d="M 284.560832 202.642342 
L 299.763444 210.12169 
" style="fill:none;stroke:#21918c;"/>
    <path clip-path="url(#p198cc80711)" d="M 266.71925 169.005632 
L 267.633779 151.046152 
" style="fill:none;stroke:#21918c;"/>
    <path clip-path="url(#p198cc80711)" d="M 35.573026 307.809639 
L 34.318678 295.811923 
" style="fill:none;stroke:#440154;"/>
    <path clip-path="url(#p198cc80711)" d="M 35.573026 307.809639 
L 25.25493 319.537667 
" style="fill:none;stroke:#440154;"/>
    <path clip-path="url(#p198cc80711)" d="M 34.318678 295.811923 
L 41.943875 285.566425 
" style="fill:none;stroke:#21918c;"/>
    <path clip-path="url(#p198cc80711)" d="M 25.25493 319.537667 
L 20.949882 329.779568 
" style="fill:none;stroke:#21918c;"/>
    <path clip-path="url(#p198cc80711)" d="M 375.378068 49.960888 
L 380.697787 38.677258 
" style="fill:none;stroke:#440154;"/>
    <path clip-path="url(#p198cc80711)" d="M 380.697787 38.677258 
L 377.177296 29.937696 
" style="fill:none;stroke:#21918c;"/>
   </g>
   <g id="PathCollection_1">
    <defs>
     <path d="M 0 1.581139 
C 0.419323 1.581139 0.821528 1.41454 1.118034 1.118034 
C 1.41454 0.821528 1.581139 0.419323 1.581139 0 
C 1.581139 -0.419323 1.41454 -0.821528 1.118034 -1.118034 
C 0.821528 -1.41454 0.419323 -1.581139 0 -1.581139 
C -0.419323 -1.581139 -0.821528 -1.41454 -1.118034 -1.118034 
C -1.41454 -0.821528 -1.581139 -0.419323 -1.581139 0 
C -1.581139 0.419323 -1.41454 0.821528 -1.118034 1.118034 
C -0.821528 1.41454 -0.419323 1.581139 0 1.581139 
z
" id="C0_0_41531fa0c8"/>
    </defs>
    <g clip-path="url(#p198cc80711)">
     <use style="fill:#808080;stroke:#808080;" x="213.852808" xlink:href="#C0_0_41531fa0c8" y="190.899694"/>
    </g>
    <g clip-path="url(#p198cc80711)">
     <use style="fill:#ff0000;stroke:#ff0000;" x="213.135923" xlink:href="#C0_0_41531fa0c8" y="205.595905"/>
    </g>
    <g clip-path="url(#p198cc80711)">
     <use style="fill:#ff0000;stroke:#ff0000;" x="212.363824" xlink:href="#C0_0_41531fa0c8" y="221.424006"/>
    </g>
   </g>
   <g id="PathCollection_2">
    <defs>
     <path d="M 0 1.581139 
C 0.419323 1.581139 0.821528 1.41454 1.118034 1.118034 
C 1.41454 0.821528 1.581139 0.419323 1.581139 0 
C 1.581139 -0.419323 1.41454 -0.821528 1.118034 -1.118034 
C 0.821528 -1.41454 0.419323 -1.581139 0 -1.581139 
C -0.419323 -1.581139 -0.821528 -1.41454 -1.118034 -1.118034 
C -1.41454 -0.821528 -1.581139 -0.419323 -1.581139 0 
C -1.581139 0.419323 -1.41454 0.821528 -1.118034 1.118034 
C -0.821528 1.41454 -0.419323 1.581139 0 1.581139 
z
" id="C1_0_3b37cbfb63"/>
    </defs>
    <g clip-path="url(#p198cc80711)">
     <use style="fill:#ff0000;stroke:#ff0000;" x="195.645457" xlink:href="#C1_0_3b37cbfb63" y="280.051166"/>
    </g>
    <g clip-path="url(#p198cc80711)">
     <use style="fill:#808080;stroke:#808080;" x="212.086286" xlink:href="#C1_0_3b37cbfb63" y="274.436843"/>
    </g>
    <g clip-path="url(#p198cc80711)">
     <use style="fill:#808080;stroke:#808080;" x="225.877143" xlink:href="#C1_0_3b37cbfb63" y="274.667713"/>
    </g>
    <g clip-path="url(#p198cc80711)">
     <use style="fill:#ff0000;stroke:#ff0000;" x="178.937388" xlink:href="#C1_0_3b37cbfb63" y="268.06025"/>
    </g>
    <g clip-path="url(#p198cc80711)">
     <use style="fill:#ff0000;stroke:#ff0000;" x="164.375905" xlink:href="#C1_0_3b37cbfb63" y="261.639637"/>
    </g>
    <g clip-path="url(#p198cc80711)">
     <use style="fill:#808080;stroke:#808080;" x="177.82195" xlink:href="#C1_0_3b37cbfb63" y="292.333043"/>
    </g>
    <g clip-path="url(#p198cc80711)">
     <use style="fill:#808080;stroke:#808080;" x="164.16503" xlink:href="#C1_0_3b37cbfb63" y="303.559923"/>
    </g>
    <g clip-path="url(#p198cc80711)">
     <use style="fill:#ff0000;stroke:#ff0000;" x="193.809745" xlink:href="#C1_0_3b37cbfb63" y="302.504295"/>
    </g>
    <g clip-path="url(#p198cc80711)">
     <use style="fill:#ff0000;stroke:#ff0000;" x="192.167529" xlink:href="#C1_0_3b37cbfb63" y="321.033617"/>
    </g>
    <g clip-path="url(#p198cc80711)">
     <use style="fill:#ff0000;stroke:#ff0000;" x="203.161874" xlink:href="#C1_0_3b37cbfb63" y="302.027442"/>
    </g>
    <g clip-path="url(#p198cc80711)">
     <use style="fill:#ff0000;stroke:#ff0000;" x="207.72301" xlink:href="#C1_0_3b37cbfb63" y="320.726004"/>
    </g>
    <g clip-path="url(#p198cc80711)">
     <use style="fill:#ff0000;stroke:#ff0000;" x="175.496558" xlink:href="#C1_0_3b37cbfb63" y="280.552872"/>
    </g>
    <g clip-path="url(#p198cc80711)">
     <use style="fill:#ff0000;stroke:#ff0000;" x="159.356041" xlink:href="#C1_0_3b37cbfb63" y="283.617526"/>
    </g>
    <g clip-path="url(#p198cc80711)">
     <use style="fill:#ff0000;stroke:#ff0000;" x="200.693543" xlink:href="#C1_0_3b37cbfb63" y="254.355001"/>
    </g>
    <g clip-path="url(#p198cc80711)">
     <use style="fill:#ff0000;stroke:#ff0000;" x="204.845618" xlink:href="#C1_0_3b37cbfb63" y="231.652624"/>
    </g>
    <g clip-path="url(#p198cc80711)">
     <use style="fill:#ff0000;stroke:#ff0000;" x="215.656839" xlink:href="#C1_0_3b37cbfb63" y="286.164611"/>
    </g>
    <g clip-path="url(#p198cc80711)">
     <use style="fill:#ff0000;stroke:#ff0000;" x="230.088103" xlink:href="#C1_0_3b37cbfb63" y="294.859266"/>
    </g>
    <g clip-path="url(#p198cc80711)">
     <use style="fill:#808080;stroke:#808080;" x="210.952616" xlink:href="#C1_0_3b37cbfb63" y="295.290324"/>
    </g>
    <g clip-path="url(#p198cc80711)">
     <use style="fill:#808080;stroke:#808080;" x="221.400622" xlink:href="#C1_0_3b37cbfb63" y="310.142925"/>
    </g>
    <g clip-path="url(#p198cc80711)">
     <use style="fill:#ff0000;stroke:#ff0000;" x="184.349961" xlink:href="#C1_0_3b37cbfb63" y="300.798897"/>
    </g>
    <g clip-path="url(#p198cc80711)">
     <use style="fill:#ff0000;stroke:#ff0000;" x="175.857067" xlink:href="#C1_0_3b37cbfb63" y="317.796744"/>
    </g>
    <g clip-path="url(#p198cc80711)">
     <use style="fill:#ff0000;stroke:#ff0000;" x="187.352467" xlink:href="#C1_0_3b37cbfb63" y="259.351219"/>
    </g>
    <g clip-path="url(#p198cc80711)">
     <use style="fill:#ff0000;stroke:#ff0000;" x="179.455785" xlink:href="#C1_0_3b37cbfb63" y="244.066688"/>
    </g>
    <g clip-path="url(#p198cc80711)">
     <use style="fill:#ff0000;stroke:#ff0000;" x="439.850118" xlink:href="#C1_0_3b37cbfb63" y="163.253927"/>
    </g>
    <g clip-path="url(#p198cc80711)">
     <use style="fill:#808080;stroke:#808080;" x="427.92845" xlink:href="#C1_0_3b37cbfb63" y="161.646175"/>
    </g>
    <g clip-path="url(#p198cc80711)">
     <use style="fill:#808080;stroke:#808080;" x="425.374381" xlink:href="#C1_0_3b37cbfb63" y="152.281125"/>
    </g>
    <g clip-path="url(#p198cc80711)">
     <use style="fill:#808080;stroke:#808080;" x="365.19885" xlink:href="#C1_0_3b37cbfb63" y="140.839162"/>
    </g>
    <g clip-path="url(#p198cc80711)">
     <use style="fill:#ff0000;stroke:#ff0000;" x="364.282074" xlink:href="#C1_0_3b37cbfb63" y="130.621096"/>
    </g>
    <g clip-path="url(#p198cc80711)">
     <use style="fill:#ff0000;stroke:#ff0000;" x="367.917257" xlink:href="#C1_0_3b37cbfb63" y="120.54858"/>
    </g>
    <g clip-path="url(#p198cc80711)">
     <use style="fill:#ff0000;stroke:#ff0000;" x="143.403088" xlink:href="#C1_0_3b37cbfb63" y="15.820432"/>
    </g>
    <g clip-path="url(#p198cc80711)">
     <use style="fill:#ff0000;stroke:#ff0000;" x="135.957004" xlink:href="#C1_0_3b37cbfb63" y="21.697906"/>
    </g>
    <g clip-path="url(#p198cc80711)">
     <use style="fill:#ff0000;stroke:#ff0000;" x="130.833661" xlink:href="#C1_0_3b37cbfb63" y="30.343463"/>
    </g>
    <g clip-path="url(#p198cc80711)">
     <use style="fill:#ff0000;stroke:#ff0000;" x="59.728466" xlink:href="#C1_0_3b37cbfb63" y="143.08389"/>
    </g>
    <g clip-path="url(#p198cc80711)">
     <use style="fill:#808080;stroke:#808080;" x="71.656234" xlink:href="#C1_0_3b37cbfb63" y="140.778632"/>
    </g>
    <g clip-path="url(#p198cc80711)">
     <use style="fill:#808080;stroke:#808080;" x="83.058899" xlink:href="#C1_0_3b37cbfb63" y="148.45811"/>
    </g>
    <g clip-path="url(#p198cc80711)">
     <use style="fill:#808080;stroke:#808080;" x="44.945378" xlink:href="#C1_0_3b37cbfb63" y="148.230386"/>
    </g>
    <g clip-path="url(#p198cc80711)">
     <use style="fill:#808080;stroke:#808080;" x="31.355728" xlink:href="#C1_0_3b37cbfb63" y="149.02912"/>
    </g>
    <g clip-path="url(#p198cc80711)">
     <use style="fill:#808080;stroke:#808080;" x="72.618978" xlink:href="#C1_0_3b37cbfb63" y="150.296523"/>
    </g>
    <g clip-path="url(#p198cc80711)">
     <use style="fill:#808080;stroke:#808080;" x="46.265674" xlink:href="#C1_0_3b37cbfb63" y="129.254953"/>
    </g>
    <g clip-path="url(#p198cc80711)">
     <use style="fill:#808080;stroke:#808080;" x="35.20743" xlink:href="#C1_0_3b37cbfb63" y="119.188236"/>
    </g>
    <g clip-path="url(#p198cc80711)">
     <use style="fill:#ff0000;stroke:#ff0000;" x="267.864717" xlink:href="#C1_0_3b37cbfb63" y="190.690941"/>
    </g>
    <g clip-path="url(#p198cc80711)">
     <use style="fill:#808080;stroke:#808080;" x="256.246377" xlink:href="#C1_0_3b37cbfb63" y="172.731965"/>
    </g>
    <g clip-path="url(#p198cc80711)">
     <use style="fill:#808080;stroke:#808080;" x="249.160193" xlink:href="#C1_0_3b37cbfb63" y="156.89391"/>
    </g>
    <g clip-path="url(#p198cc80711)">
     <use style="fill:#808080;stroke:#808080;" x="278.756719" xlink:href="#C1_0_3b37cbfb63" y="210.303745"/>
    </g>
    <g clip-path="url(#p198cc80711)">
     <use style="fill:#808080;stroke:#808080;" x="289.909873" xlink:href="#C1_0_3b37cbfb63" y="223.694767"/>
    </g>
    <g clip-path="url(#p198cc80711)">
     <use style="fill:#808080;stroke:#808080;" x="247.333151" xlink:href="#C1_0_3b37cbfb63" y="194.47135"/>
    </g>
    <g clip-path="url(#p198cc80711)">
     <use style="fill:#808080;stroke:#808080;" x="229.787536" xlink:href="#C1_0_3b37cbfb63" y="195.727873"/>
    </g>
    <g clip-path="url(#p198cc80711)">
     <use style="fill:#808080;stroke:#808080;" x="250.279958" xlink:href="#C1_0_3b37cbfb63" y="181.57701"/>
    </g>
    <g clip-path="url(#p198cc80711)">
     <use style="fill:#808080;stroke:#808080;" x="237.943413" xlink:href="#C1_0_3b37cbfb63" y="171.520474"/>
    </g>
    <g clip-path="url(#p198cc80711)">
     <use style="fill:#808080;stroke:#808080;" x="285.722853" xlink:href="#C1_0_3b37cbfb63" y="179.816233"/>
    </g>
    <g clip-path="url(#p198cc80711)">
     <use style="fill:#808080;stroke:#808080;" x="300.012418" xlink:href="#C1_0_3b37cbfb63" y="170.809173"/>
    </g>
    <g clip-path="url(#p198cc80711)">
     <use style="fill:#808080;stroke:#808080;" x="268.304567" xlink:href="#C1_0_3b37cbfb63" y="210.676557"/>
    </g>
    <g clip-path="url(#p198cc80711)">
     <use style="fill:#808080;stroke:#808080;" x="272.415566" xlink:href="#C1_0_3b37cbfb63" y="225.949792"/>
    </g>
    <g clip-path="url(#p198cc80711)">
     <use style="fill:#808080;stroke:#808080;" x="287.884918" xlink:href="#C1_0_3b37cbfb63" y="191.816655"/>
    </g>
    <g clip-path="url(#p198cc80711)">
     <use style="fill:#808080;stroke:#808080;" x="304.381597" xlink:href="#C1_0_3b37cbfb63" y="191.749958"/>
    </g>
    <g clip-path="url(#p198cc80711)">
     <use style="fill:#808080;stroke:#808080;" x="277.385264" xlink:href="#C1_0_3b37cbfb63" y="171.858882"/>
    </g>
    <g clip-path="url(#p198cc80711)">
     <use style="fill:#808080;stroke:#808080;" x="284.890562" xlink:href="#C1_0_3b37cbfb63" y="156.904415"/>
    </g>
    <g clip-path="url(#p198cc80711)">
     <use style="fill:#808080;stroke:#808080;" x="284.560832" xlink:href="#C1_0_3b37cbfb63" y="202.642342"/>
    </g>
    <g clip-path="url(#p198cc80711)">
     <use style="fill:#808080;stroke:#808080;" x="299.763444" xlink:href="#C1_0_3b37cbfb63" y="210.12169"/>
    </g>
    <g clip-path="url(#p198cc80711)">
     <use style="fill:#808080;stroke:#808080;" x="266.71925" xlink:href="#C1_0_3b37cbfb63" y="169.005632"/>
    </g>
    <g clip-path="url(#p198cc80711)">
     <use style="fill:#808080;stroke:#808080;" x="267.633779" xlink:href="#C1_0_3b37cbfb63" y="151.046152"/>
    </g>
    <g clip-path="url(#p198cc80711)">
     <use style="fill:#ff0000;stroke:#ff0000;" x="35.573026" xlink:href="#C1_0_3b37cbfb63" y="307.809639"/>
    </g>
    <g clip-path="url(#p198cc80711)">
     <use style="fill:#808080;stroke:#808080;" x="34.318678" xlink:href="#C1_0_3b37cbfb63" y="295.811923"/>
    </g>
    <g clip-path="url(#p198cc80711)">
     <use style="fill:#808080;stroke:#808080;" x="41.943875" xlink:href="#C1_0_3b37cbfb63" y="285.566425"/>
    </g>
    <g clip-path="url(#p198cc80711)">
     <use style="fill:#ff0000;stroke:#ff0000;" x="25.25493" xlink:href="#C1_0_3b37cbfb63" y="319.537667"/>
    </g>
    <g clip-path="url(#p198cc80711)">
     <use style="fill:#ff0000;stroke:#ff0000;" x="20.949882" xlink:href="#C1_0_3b37cbfb63" y="329.779568"/>
    </g>
    <g clip-path="url(#p198cc80711)">
     <use style="fill:#808080;stroke:#808080;" x="375.378068" xlink:href="#C1_0_3b37cbfb63" y="49.960888"/>
    </g>
    <g clip-path="url(#p198cc80711)">
     <use style="fill:#ff0000;stroke:#ff0000;" x="380.697787" xlink:href="#C1_0_3b37cbfb63" y="38.677258"/>
    </g>
    <g clip-path="url(#p198cc80711)">
     <use style="fill:#ff0000;stroke:#ff0000;" x="377.177296" xlink:href="#C1_0_3b37cbfb63" y="29.937696"/>
    </g>
   </g>
   <g id="text_1">
    <g clip-path="url(#p198cc80711)">
     <!-- Aoc3 -->
     <defs>
      <path d="M 53.421875 13.28125 
L 24.03125 13.28125 
L 19.390625 0 
L 0.484375 0 
L 27.484375 72.90625 
L 49.90625 72.90625 
L 76.90625 0 
L 58.015625 0 
z
M 28.71875 26.8125 
L 48.6875 26.8125 
L 38.71875 55.8125 
z
" id="DejaVuSans-Bold-65"/>
      <path d="M 34.421875 43.5 
Q 28.609375 43.5 25.5625 39.328125 
Q 22.515625 35.15625 22.515625 27.296875 
Q 22.515625 19.4375 25.5625 15.25 
Q 28.609375 11.078125 34.421875 11.078125 
Q 40.140625 11.078125 43.15625 15.25 
Q 46.1875 19.4375 46.1875 27.296875 
Q 46.1875 35.15625 43.15625 39.328125 
Q 40.140625 43.5 34.421875 43.5 
z
M 34.421875 56 
Q 48.53125 56 56.46875 48.375 
Q 64.40625 40.765625 64.40625 27.296875 
Q 64.40625 13.8125 56.46875 6.1875 
Q 48.53125 -1.421875 34.421875 -1.421875 
Q 20.265625 -1.421875 12.28125 6.1875 
Q 4.296875 13.8125 4.296875 27.296875 
Q 4.296875 40.765625 12.28125 48.375 
Q 20.265625 56 34.421875 56 
z
" id="DejaVuSans-Bold-111"/>
      <path d="M 52.59375 52.984375 
L 52.59375 38.71875 
Q 49.03125 41.15625 45.4375 42.328125 
Q 41.84375 43.5 37.984375 43.5 
Q 30.671875 43.5 26.59375 39.234375 
Q 22.515625 34.96875 22.515625 27.296875 
Q 22.515625 19.625 26.59375 15.34375 
Q 30.671875 11.078125 37.984375 11.078125 
Q 42.09375 11.078125 45.78125 12.296875 
Q 49.46875 13.53125 52.59375 15.921875 
L 52.59375 1.609375 
Q 48.484375 0.09375 44.265625 -0.65625 
Q 40.046875 -1.421875 35.796875 -1.421875 
Q 21 -1.421875 12.640625 6.171875 
Q 4.296875 13.765625 4.296875 27.296875 
Q 4.296875 40.828125 12.640625 48.40625 
Q 21 56 35.796875 56 
Q 40.09375 56 44.265625 55.25 
Q 48.4375 54.5 52.59375 52.984375 
z
" id="DejaVuSans-Bold-99"/>
      <path d="M 46.578125 39.3125 
Q 53.953125 37.40625 57.78125 32.6875 
Q 61.625 27.984375 61.625 20.703125 
Q 61.625 9.859375 53.3125 4.21875 
Q 45.015625 -1.421875 29.109375 -1.421875 
Q 23.484375 -1.421875 17.84375 -0.515625 
Q 12.203125 0.390625 6.6875 2.203125 
L 6.6875 16.703125 
Q 11.96875 14.0625 17.15625 12.71875 
Q 22.359375 11.375 27.390625 11.375 
Q 34.859375 11.375 38.84375 13.953125 
Q 42.828125 16.546875 42.828125 21.390625 
Q 42.828125 26.375 38.75 28.9375 
Q 34.671875 31.5 26.703125 31.5 
L 19.1875 31.5 
L 19.1875 43.609375 
L 27.09375 43.609375 
Q 34.1875 43.609375 37.640625 45.828125 
Q 41.109375 48.046875 41.109375 52.59375 
Q 41.109375 56.78125 37.734375 59.078125 
Q 34.375 61.375 28.21875 61.375 
Q 23.6875 61.375 19.046875 60.34375 
Q 14.40625 59.328125 9.8125 57.328125 
L 9.8125 71.09375 
Q 15.375 72.65625 20.84375 73.4375 
Q 26.3125 74.21875 31.59375 74.21875 
Q 45.796875 74.21875 52.84375 69.546875 
Q 59.90625 64.890625 59.90625 55.515625 
Q 59.90625 49.125 56.53125 45.046875 
Q 53.171875 40.96875 46.578125 39.3125 
z
" id="DejaVuSans-Bold-51"/>
     </defs>
     <g transform="translate(209.728511 190.275788)scale(0.03 -0.03)">
      <use xlink:href="#DejaVuSans-Bold-65"/>
      <use x="77.392578" xlink:href="#DejaVuSans-Bold-111"/>
      <use x="146.09375" xlink:href="#DejaVuSans-Bold-99"/>
      <use x="205.371094" xlink:href="#DejaVuSans-Bold-51"/>
     </g>
    </g>
   </g>
   <g id="text_2">
    <g clip-path="url(#p198cc80711)">
     <!-- 4BTY -->
     <defs>
      <path d="M 36.8125 57.421875 
L 16.21875 26.90625 
L 36.8125 26.90625 
z
M 33.6875 72.90625 
L 54.59375 72.90625 
L 54.59375 26.90625 
L 64.984375 26.90625 
L 64.984375 13.28125 
L 54.59375 13.28125 
L 54.59375 0 
L 36.8125 0 
L 36.8125 13.28125 
L 4.5 13.28125 
L 4.5 29.390625 
z
" id="DejaVuSans-Bold-52"/>
      <path d="M 38.375 44.671875 
Q 42.828125 44.671875 45.109375 46.625 
Q 47.40625 48.578125 47.40625 52.390625 
Q 47.40625 56.15625 45.109375 58.125 
Q 42.828125 60.109375 38.375 60.109375 
L 27.984375 60.109375 
L 27.984375 44.671875 
z
M 39.015625 12.796875 
Q 44.671875 12.796875 47.53125 15.1875 
Q 50.390625 17.578125 50.390625 22.40625 
Q 50.390625 27.15625 47.5625 29.515625 
Q 44.734375 31.890625 39.015625 31.890625 
L 27.984375 31.890625 
L 27.984375 12.796875 
z
M 56.5 39.015625 
Q 62.546875 37.25 65.859375 32.515625 
Q 69.1875 27.78125 69.1875 20.90625 
Q 69.1875 10.359375 62.0625 5.171875 
Q 54.9375 0 40.375 0 
L 9.1875 0 
L 9.1875 72.90625 
L 37.40625 72.90625 
Q 52.59375 72.90625 59.40625 68.3125 
Q 66.21875 63.71875 66.21875 53.609375 
Q 66.21875 48.296875 63.71875 44.5625 
Q 61.234375 40.828125 56.5 39.015625 
z
" id="DejaVuSans-Bold-66"/>
      <path d="M 0.484375 72.90625 
L 67.671875 72.90625 
L 67.671875 58.6875 
L 43.5 58.6875 
L 43.5 0 
L 24.703125 0 
L 24.703125 58.6875 
L 0.484375 58.6875 
z
" id="DejaVuSans-Bold-84"/>
      <path d="M -0.984375 72.90625 
L 19.578125 72.90625 
L 36.1875 46.921875 
L 52.78125 72.90625 
L 73.390625 72.90625 
L 45.609375 30.71875 
L 45.609375 0 
L 26.8125 0 
L 26.8125 30.71875 
z
" id="DejaVuSans-Bold-89"/>
     </defs>
     <g transform="translate(208.839594 204.971999)scale(0.03 -0.03)">
      <use xlink:href="#DejaVuSans-Bold-52"/>
      <use x="69.580078" xlink:href="#DejaVuSans-Bold-66"/>
      <use x="145.800781" xlink:href="#DejaVuSans-Bold-84"/>
      <use x="214.013672" xlink:href="#DejaVuSans-Bold-89"/>
     </g>
    </g>
   </g>
   <g id="text_3">
    <g clip-path="url(#p198cc80711)">
     <!-- JWF -->
     <defs>
      <path d="M 9.1875 72.90625 
L 27.984375 72.90625 
L 27.984375 7.078125 
Q 27.984375 -6.546875 20.578125 -13.28125 
Q 13.1875 -20.015625 -1.8125 -20.015625 
L -5.609375 -20.015625 
L -5.609375 -5.8125 
L -2.6875 -5.8125 
Q 3.171875 -5.8125 6.171875 -2.53125 
Q 9.1875 0.734375 9.1875 7.078125 
z
" id="DejaVuSans-Bold-74"/>
      <path d="M 2.984375 72.90625 
L 21 72.90625 
L 33.59375 19.921875 
L 46.09375 72.90625 
L 64.203125 72.90625 
L 76.703125 19.921875 
L 89.3125 72.90625 
L 107.171875 72.90625 
L 89.984375 0 
L 68.3125 0 
L 55.078125 55.421875 
L 42 0 
L 20.3125 0 
z
" id="DejaVuSans-Bold-87"/>
      <path d="M 9.1875 72.90625 
L 59.90625 72.90625 
L 59.90625 58.6875 
L 27.984375 58.6875 
L 27.984375 45.125 
L 58.015625 45.125 
L 58.015625 30.90625 
L 27.984375 30.90625 
L 27.984375 0 
L 9.1875 0 
z
" id="DejaVuSans-Bold-70"/>
     </defs>
     <g transform="translate(209.126636 220.8001)scale(0.03 -0.03)">
      <use xlink:href="#DejaVuSans-Bold-74"/>
      <use x="37.207031" xlink:href="#DejaVuSans-Bold-87"/>
      <use x="147.509766" xlink:href="#DejaVuSans-Bold-70"/>
     </g>
    </g>
   </g>
   <g id="text_4">
    <g clip-path="url(#p198cc80711)">
     <!-- BTK -->
     <defs>
      <path d="M 9.1875 72.90625 
L 27.984375 72.90625 
L 27.984375 46.296875 
L 55.078125 72.90625 
L 76.90625 72.90625 
L 41.796875 38.375 
L 80.515625 0 
L 56.984375 0 
L 27.984375 28.71875 
L 27.984375 0 
L 9.1875 0 
z
" id="DejaVuSans-Bold-75"/>
     </defs>
     <g transform="translate(192.316629 279.42726)scale(0.03 -0.03)">
      <use xlink:href="#DejaVuSans-Bold-66"/>
      <use x="76.220703" xlink:href="#DejaVuSans-Bold-84"/>
      <use x="144.433594" xlink:href="#DejaVuSans-Bold-75"/>
     </g>
    </g>
   </g>
   <g id="text_5">
    <g clip-path="url(#p198cc80711)">
     <!-- 5JRS -->
     <defs>
      <path d="M 10.59375 72.90625 
L 57.328125 72.90625 
L 57.328125 59.078125 
L 25.59375 59.078125 
L 25.59375 47.796875 
Q 27.734375 48.390625 29.90625 48.703125 
Q 32.078125 49.03125 34.421875 49.03125 
Q 47.75 49.03125 55.171875 42.359375 
Q 62.59375 35.6875 62.59375 23.78125 
Q 62.59375 11.96875 54.515625 5.265625 
Q 46.4375 -1.421875 32.078125 -1.421875 
Q 25.875 -1.421875 19.796875 -0.21875 
Q 13.71875 0.984375 7.71875 3.421875 
L 7.71875 18.21875 
Q 13.671875 14.796875 19.015625 13.078125 
Q 24.359375 11.375 29.109375 11.375 
Q 35.9375 11.375 39.859375 14.71875 
Q 43.796875 18.0625 43.796875 23.78125 
Q 43.796875 29.546875 39.859375 32.859375 
Q 35.9375 36.1875 29.109375 36.1875 
Q 25.046875 36.1875 20.453125 35.125 
Q 15.875 34.078125 10.59375 31.890625 
z
" id="DejaVuSans-Bold-53"/>
      <path d="M 35.890625 40.578125 
Q 41.796875 40.578125 44.359375 42.765625 
Q 46.921875 44.96875 46.921875 50 
Q 46.921875 54.984375 44.359375 57.125 
Q 41.796875 59.28125 35.890625 59.28125 
L 27.984375 59.28125 
L 27.984375 40.578125 
z
M 27.984375 27.59375 
L 27.984375 0 
L 9.1875 0 
L 9.1875 72.90625 
L 37.890625 72.90625 
Q 52.296875 72.90625 59 68.0625 
Q 65.71875 63.234375 65.71875 52.78125 
Q 65.71875 45.5625 62.21875 40.921875 
Q 58.734375 36.28125 51.703125 34.078125 
Q 55.5625 33.203125 58.609375 30.09375 
Q 61.671875 27 64.796875 20.703125 
L 75 0 
L 54.984375 0 
L 46.09375 18.109375 
Q 43.40625 23.578125 40.640625 25.578125 
Q 37.890625 27.59375 33.296875 27.59375 
z
" id="DejaVuSans-Bold-82"/>
      <path d="M 59.90625 70.609375 
L 59.90625 55.171875 
Q 53.90625 57.859375 48.1875 59.21875 
Q 42.484375 60.59375 37.40625 60.59375 
Q 30.671875 60.59375 27.4375 58.734375 
Q 24.21875 56.890625 24.21875 52.984375 
Q 24.21875 50.046875 26.390625 48.40625 
Q 28.5625 46.78125 34.28125 45.609375 
L 42.28125 44 
Q 54.4375 41.546875 59.5625 36.5625 
Q 64.703125 31.59375 64.703125 22.40625 
Q 64.703125 10.359375 57.546875 4.46875 
Q 50.390625 -1.421875 35.6875 -1.421875 
Q 28.765625 -1.421875 21.78125 -0.09375 
Q 14.796875 1.21875 7.8125 3.8125 
L 7.8125 19.671875 
Q 14.796875 15.96875 21.3125 14.078125 
Q 27.828125 12.203125 33.890625 12.203125 
Q 40.046875 12.203125 43.3125 14.25 
Q 46.578125 16.3125 46.578125 20.125 
Q 46.578125 23.53125 44.359375 25.390625 
Q 42.140625 27.25 35.5 28.71875 
L 28.21875 30.328125 
Q 17.28125 32.671875 12.21875 37.796875 
Q 7.171875 42.921875 7.171875 51.609375 
Q 7.171875 62.5 14.203125 68.359375 
Q 21.234375 74.21875 34.421875 74.21875 
Q 40.4375 74.21875 46.78125 73.3125 
Q 53.125 72.40625 59.90625 70.609375 
z
" id="DejaVuSans-Bold-83"/>
     </defs>
     <g transform="translate(208.249333 273.812937)scale(0.03 -0.03)">
      <use xlink:href="#DejaVuSans-Bold-53"/>
      <use x="69.580078" xlink:href="#DejaVuSans-Bold-74"/>
      <use x="106.787109" xlink:href="#DejaVuSans-Bold-82"/>
      <use x="183.789062" xlink:href="#DejaVuSans-Bold-83"/>
     </g>
    </g>
   </g>
   <g id="text_6">
    <g clip-path="url(#p198cc80711)">
     <!-- 6MV -->
     <defs>
      <path d="M 36.1875 35.984375 
Q 31.25 35.984375 28.78125 32.78125 
Q 26.3125 29.59375 26.3125 23.1875 
Q 26.3125 16.796875 28.78125 13.59375 
Q 31.25 10.40625 36.1875 10.40625 
Q 41.15625 10.40625 43.625 13.59375 
Q 46.09375 16.796875 46.09375 23.1875 
Q 46.09375 29.59375 43.625 32.78125 
Q 41.15625 35.984375 36.1875 35.984375 
z
M 59.421875 71 
L 59.421875 57.515625 
Q 54.78125 59.71875 50.671875 60.765625 
Q 46.578125 61.8125 42.671875 61.8125 
Q 34.28125 61.8125 29.59375 57.140625 
Q 24.90625 52.484375 24.125 43.3125 
Q 27.34375 45.703125 31.09375 46.890625 
Q 34.859375 48.09375 39.3125 48.09375 
Q 50.484375 48.09375 57.34375 41.546875 
Q 64.203125 35.015625 64.203125 24.421875 
Q 64.203125 12.703125 56.53125 5.640625 
Q 48.875 -1.421875 35.984375 -1.421875 
Q 21.78125 -1.421875 13.984375 8.171875 
Q 6.203125 17.78125 6.203125 35.40625 
Q 6.203125 53.46875 15.3125 63.796875 
Q 24.421875 74.125 40.28125 74.125 
Q 45.3125 74.125 50.046875 73.34375 
Q 54.78125 72.5625 59.421875 71 
z
" id="DejaVuSans-Bold-54"/>
      <path d="M 9.1875 72.90625 
L 33.109375 72.90625 
L 49.703125 33.890625 
L 66.40625 72.90625 
L 90.28125 72.90625 
L 90.28125 0 
L 72.515625 0 
L 72.515625 53.328125 
L 55.71875 14.015625 
L 43.796875 14.015625 
L 27 53.328125 
L 27 0 
L 9.1875 0 
z
" id="DejaVuSans-Bold-77"/>
      <path d="M 0.484375 72.90625 
L 19.390625 72.90625 
L 38.71875 19.09375 
L 58.015625 72.90625 
L 76.90625 72.90625 
L 49.90625 0 
L 27.484375 0 
z
" id="DejaVuSans-Bold-86"/>
     </defs>
     <g transform="translate(222.179878 274.043806)scale(0.03 -0.03)">
      <use xlink:href="#DejaVuSans-Bold-54"/>
      <use x="69.580078" xlink:href="#DejaVuSans-Bold-77"/>
      <use x="169.091797" xlink:href="#DejaVuSans-Bold-86"/>
     </g>
    </g>
   </g>
   <g id="text_7">
    <g clip-path="url(#p198cc80711)">
     <!-- 5P9H -->
     <defs>
      <path d="M 9.1875 72.90625 
L 40.375 72.90625 
Q 54.296875 72.90625 61.734375 66.71875 
Q 69.1875 60.546875 69.1875 49.125 
Q 69.1875 37.640625 61.734375 31.46875 
Q 54.296875 25.296875 40.375 25.296875 
L 27.984375 25.296875 
L 27.984375 0 
L 9.1875 0 
z
M 27.984375 59.28125 
L 27.984375 38.921875 
L 38.375 38.921875 
Q 43.84375 38.921875 46.828125 41.578125 
Q 49.8125 44.234375 49.8125 49.125 
Q 49.8125 54 46.828125 56.640625 
Q 43.84375 59.28125 38.375 59.28125 
z
" id="DejaVuSans-Bold-80"/>
      <path d="M 10.015625 1.609375 
L 10.015625 15.09375 
Q 14.5 12.984375 18.59375 11.9375 
Q 22.703125 10.890625 26.703125 10.890625 
Q 35.109375 10.890625 39.796875 15.546875 
Q 44.484375 20.21875 45.3125 29.390625 
Q 42 26.953125 38.234375 25.734375 
Q 34.46875 24.515625 30.078125 24.515625 
Q 18.890625 24.515625 12.03125 31.03125 
Q 5.171875 37.546875 5.171875 48.1875 
Q 5.171875 59.96875 12.8125 67.046875 
Q 20.453125 74.125 33.296875 74.125 
Q 47.5625 74.125 55.375 64.5 
Q 63.1875 54.890625 63.1875 37.3125 
Q 63.1875 19.234375 54.046875 8.90625 
Q 44.921875 -1.421875 29 -1.421875 
Q 23.875 -1.421875 19.1875 -0.65625 
Q 14.5 0.09375 10.015625 1.609375 
z
M 33.203125 36.71875 
Q 38.140625 36.71875 40.625 39.90625 
Q 43.109375 43.109375 43.109375 49.515625 
Q 43.109375 55.859375 40.625 59.078125 
Q 38.140625 62.3125 33.203125 62.3125 
Q 28.265625 62.3125 25.78125 59.078125 
Q 23.296875 55.859375 23.296875 49.515625 
Q 23.296875 43.109375 25.78125 39.90625 
Q 28.265625 36.71875 33.203125 36.71875 
z
" id="DejaVuSans-Bold-57"/>
      <path d="M 9.1875 72.90625 
L 27.984375 72.90625 
L 27.984375 45.125 
L 55.71875 45.125 
L 55.71875 72.90625 
L 74.515625 72.90625 
L 74.515625 0 
L 55.71875 0 
L 55.71875 30.90625 
L 27.984375 30.90625 
L 27.984375 0 
L 9.1875 0 
z
" id="DejaVuSans-Bold-72"/>
     </defs>
     <g transform="translate(174.495278 267.436344)scale(0.03 -0.03)">
      <use xlink:href="#DejaVuSans-Bold-53"/>
      <use x="69.580078" xlink:href="#DejaVuSans-Bold-80"/>
      <use x="142.871094" xlink:href="#DejaVuSans-Bold-57"/>
      <use x="212.451172" xlink:href="#DejaVuSans-Bold-72"/>
     </g>
    </g>
   </g>
   <g id="text_8">
    <g clip-path="url(#p198cc80711)">
     <!-- 7G7 -->
     <defs>
      <path d="M 6.6875 72.90625 
L 61.625 72.90625 
L 61.625 62.3125 
L 33.203125 0 
L 14.890625 0 
L 41.796875 59.078125 
L 6.6875 59.078125 
z
" id="DejaVuSans-Bold-55"/>
      <path d="M 74.703125 5.421875 
Q 67.671875 2 60.109375 0.28125 
Q 52.546875 -1.421875 44.484375 -1.421875 
Q 26.265625 -1.421875 15.625 8.765625 
Q 4.984375 18.953125 4.984375 36.375 
Q 4.984375 54 15.8125 64.109375 
Q 26.65625 74.21875 45.515625 74.21875 
Q 52.78125 74.21875 59.4375 72.84375 
Q 66.109375 71.484375 72.015625 68.796875 
L 72.015625 53.71875 
Q 65.921875 57.171875 59.890625 58.875 
Q 53.859375 60.59375 47.796875 60.59375 
Q 36.578125 60.59375 30.5 54.3125 
Q 24.421875 48.046875 24.421875 36.375 
Q 24.421875 24.8125 30.28125 18.5 
Q 36.140625 12.203125 46.921875 12.203125 
Q 49.859375 12.203125 52.375 12.5625 
Q 54.890625 12.9375 56.890625 13.71875 
L 56.890625 27.875 
L 45.40625 27.875 
L 45.40625 40.484375 
L 74.703125 40.484375 
z
" id="DejaVuSans-Bold-71"/>
     </defs>
     <g transform="translate(161.057389 261.01573)scale(0.03 -0.03)">
      <use xlink:href="#DejaVuSans-Bold-55"/>
      <use x="69.580078" xlink:href="#DejaVuSans-Bold-71"/>
      <use x="151.660156" xlink:href="#DejaVuSans-Bold-55"/>
     </g>
    </g>
   </g>
   <g id="text_9">
    <g clip-path="url(#p198cc80711)">
     <!-- 4OTQ -->
     <defs>
      <path d="M 42.484375 60.59375 
Q 33.890625 60.59375 29.15625 54.25 
Q 24.421875 47.90625 24.421875 36.375 
Q 24.421875 24.90625 29.15625 18.546875 
Q 33.890625 12.203125 42.484375 12.203125 
Q 51.125 12.203125 55.859375 18.546875 
Q 60.59375 24.90625 60.59375 36.375 
Q 60.59375 47.90625 55.859375 54.25 
Q 51.125 60.59375 42.484375 60.59375 
z
M 42.484375 74.21875 
Q 60.0625 74.21875 70.015625 64.15625 
Q 79.984375 54.109375 79.984375 36.375 
Q 79.984375 18.703125 70.015625 8.640625 
Q 60.0625 -1.421875 42.484375 -1.421875 
Q 24.953125 -1.421875 14.96875 8.640625 
Q 4.984375 18.703125 4.984375 36.375 
Q 4.984375 54.109375 14.96875 64.15625 
Q 24.953125 74.21875 42.484375 74.21875 
z
" id="DejaVuSans-Bold-79"/>
      <path d="M 44.484375 -1.3125 
L 43.015625 -1.3125 
Q 25 -1.3125 14.984375 8.640625 
Q 4.984375 18.609375 4.984375 36.375 
Q 4.984375 54.109375 14.96875 64.15625 
Q 24.953125 74.21875 42.484375 74.21875 
Q 60.203125 74.21875 70.09375 64.25 
Q 79.984375 54.296875 79.984375 36.375 
Q 79.984375 24.078125 74.734375 15.1875 
Q 69.484375 6.296875 59.625 1.8125 
L 74.3125 -14.59375 
L 56.390625 -14.59375 
z
M 42.484375 60.59375 
Q 33.890625 60.59375 29.15625 54.25 
Q 24.421875 47.90625 24.421875 36.375 
Q 24.421875 24.65625 29.046875 18.421875 
Q 33.6875 12.203125 42.484375 12.203125 
Q 51.125 12.203125 55.859375 18.546875 
Q 60.59375 24.90625 60.59375 36.375 
Q 60.59375 47.90625 55.859375 54.25 
Q 51.125 60.59375 42.484375 60.59375 
z
" id="DejaVuSans-Bold-81"/>
     </defs>
     <g transform="translate(173.204528 291.709137)scale(0.03 -0.03)">
      <use xlink:href="#DejaVuSans-Bold-52"/>
      <use x="69.580078" xlink:href="#DejaVuSans-Bold-79"/>
      <use x="154.589844" xlink:href="#DejaVuSans-Bold-84"/>
      <use x="222.802734" xlink:href="#DejaVuSans-Bold-81"/>
     </g>
    </g>
   </g>
   <g id="text_10">
    <g clip-path="url(#p198cc80711)">
     <!-- 2V2 -->
     <defs>
      <path d="M 28.8125 13.8125 
L 60.890625 13.8125 
L 60.890625 0 
L 7.90625 0 
L 7.90625 13.8125 
L 34.515625 37.3125 
Q 38.09375 40.53125 39.796875 43.609375 
Q 41.5 46.6875 41.5 50 
Q 41.5 55.125 38.0625 58.25 
Q 34.625 61.375 28.90625 61.375 
Q 24.515625 61.375 19.28125 59.5 
Q 14.0625 57.625 8.109375 53.90625 
L 8.109375 69.921875 
Q 14.453125 72.015625 20.65625 73.109375 
Q 26.859375 74.21875 32.8125 74.21875 
Q 45.90625 74.21875 53.15625 68.453125 
Q 60.40625 62.703125 60.40625 52.390625 
Q 60.40625 46.4375 57.328125 41.28125 
Q 54.25 36.140625 44.390625 27.484375 
z
" id="DejaVuSans-Bold-50"/>
     </defs>
     <g transform="translate(160.916827 302.936017)scale(0.03 -0.03)">
      <use xlink:href="#DejaVuSans-Bold-50"/>
      <use x="69.580078" xlink:href="#DejaVuSans-Bold-86"/>
      <use x="146.972656" xlink:href="#DejaVuSans-Bold-50"/>
     </g>
    </g>
   </g>
   <g id="text_11">
    <g clip-path="url(#p198cc80711)">
     <!-- 5KUP -->
     <defs>
      <path d="M 9.1875 72.90625 
L 27.984375 72.90625 
L 27.984375 29.203125 
Q 27.984375 20.171875 30.9375 16.28125 
Q 33.890625 12.40625 40.578125 12.40625 
Q 47.3125 12.40625 50.265625 16.28125 
Q 53.21875 20.171875 53.21875 29.203125 
L 53.21875 72.90625 
L 72.015625 72.90625 
L 72.015625 29.203125 
Q 72.015625 13.71875 64.25 6.140625 
Q 56.5 -1.421875 40.578125 -1.421875 
Q 24.703125 -1.421875 16.9375 6.140625 
Q 9.1875 13.71875 9.1875 29.203125 
z
" id="DejaVuSans-Bold-85"/>
     </defs>
     <g transform="translate(189.286542 301.880389)scale(0.03 -0.03)">
      <use xlink:href="#DejaVuSans-Bold-53"/>
      <use x="69.580078" xlink:href="#DejaVuSans-Bold-75"/>
      <use x="147.054688" xlink:href="#DejaVuSans-Bold-85"/>
      <use x="228.255859" xlink:href="#DejaVuSans-Bold-80"/>
     </g>
    </g>
   </g>
   <g id="text_12">
    <g clip-path="url(#p198cc80711)">
     <!-- 6XL -->
     <defs>
      <path d="M 49.8125 37.203125 
L 75.09375 0 
L 55.515625 0 
L 38.484375 24.90625 
L 21.578125 0 
L 1.90625 0 
L 27.203125 37.203125 
L 2.875 72.90625 
L 22.515625 72.90625 
L 38.484375 49.421875 
L 54.390625 72.90625 
L 74.125 72.90625 
z
" id="DejaVuSans-Bold-88"/>
      <path d="M 9.1875 72.90625 
L 27.984375 72.90625 
L 27.984375 14.203125 
L 60.984375 14.203125 
L 60.984375 0 
L 9.1875 0 
z
" id="DejaVuSans-Bold-76"/>
     </defs>
     <g transform="translate(189.01167 320.40971)scale(0.03 -0.03)">
      <use xlink:href="#DejaVuSans-Bold-54"/>
      <use x="69.580078" xlink:href="#DejaVuSans-Bold-88"/>
      <use x="146.679688" xlink:href="#DejaVuSans-Bold-76"/>
     </g>
    </g>
   </g>
   <g id="text_13">
    <g clip-path="url(#p198cc80711)">
     <!-- 5P9G -->
     <g transform="translate(198.743906 301.403536)scale(0.03 -0.03)">
      <use xlink:href="#DejaVuSans-Bold-53"/>
      <use x="69.580078" xlink:href="#DejaVuSans-Bold-80"/>
      <use x="142.871094" xlink:href="#DejaVuSans-Bold-57"/>
      <use x="212.451172" xlink:href="#DejaVuSans-Bold-71"/>
     </g>
    </g>
   </g>
   <g id="text_14">
    <g clip-path="url(#p198cc80711)">
     <!-- 7G6 -->
     <g transform="translate(204.404494 320.102098)scale(0.03 -0.03)">
      <use xlink:href="#DejaVuSans-Bold-55"/>
      <use x="69.580078" xlink:href="#DejaVuSans-Bold-71"/>
      <use x="151.660156" xlink:href="#DejaVuSans-Bold-54"/>
     </g>
    </g>
   </g>
   <g id="text_15">
    <g clip-path="url(#p198cc80711)">
     <!-- 4OTR -->
     <g transform="translate(170.99937 279.928965)scale(0.03 -0.03)">
      <use xlink:href="#DejaVuSans-Bold-52"/>
      <use x="69.580078" xlink:href="#DejaVuSans-Bold-79"/>
      <use x="154.589844" xlink:href="#DejaVuSans-Bold-84"/>
      <use x="222.802734" xlink:href="#DejaVuSans-Bold-82"/>
     </g>
    </g>
   </g>
   <g id="text_16">
    <g clip-path="url(#p198cc80711)">
     <!-- 2V3 -->
     <g transform="translate(156.107838 282.993619)scale(0.03 -0.03)">
      <use xlink:href="#DejaVuSans-Bold-50"/>
      <use x="69.580078" xlink:href="#DejaVuSans-Bold-86"/>
      <use x="146.972656" xlink:href="#DejaVuSans-Bold-51"/>
     </g>
    </g>
   </g>
   <g id="text_17">
    <g clip-path="url(#p198cc80711)">
     <!-- 6HRT -->
     <g transform="translate(196.217214 253.731095)scale(0.03 -0.03)">
      <use xlink:href="#DejaVuSans-Bold-54"/>
      <use x="69.580078" xlink:href="#DejaVuSans-Bold-72"/>
      <use x="153.271484" xlink:href="#DejaVuSans-Bold-82"/>
      <use x="230.210938" xlink:href="#DejaVuSans-Bold-84"/>
     </g>
    </g>
   </g>
   <g id="text_18">
    <g clip-path="url(#p198cc80711)">
     <!-- GMW -->
     <g transform="translate(200.467259 231.028718)scale(0.03 -0.03)">
      <use xlink:href="#DejaVuSans-Bold-71"/>
      <use x="82.080078" xlink:href="#DejaVuSans-Bold-77"/>
      <use x="181.591797" xlink:href="#DejaVuSans-Bold-87"/>
     </g>
    </g>
   </g>
   <g id="text_19">
    <g clip-path="url(#p198cc80711)">
     <!-- 4RFZ -->
     <defs>
      <path d="M 5.609375 72.90625 
L 66.890625 72.90625 
L 66.890625 61.53125 
L 27.78125 14.203125 
L 68.015625 14.203125 
L 68.015625 0 
L 4.5 0 
L 4.5 11.375 
L 43.609375 58.6875 
L 5.609375 58.6875 
z
" id="DejaVuSans-Bold-90"/>
     </defs>
     <g transform="translate(211.345745 285.540705)scale(0.03 -0.03)">
      <use xlink:href="#DejaVuSans-Bold-52"/>
      <use x="69.580078" xlink:href="#DejaVuSans-Bold-82"/>
      <use x="146.582031" xlink:href="#DejaVuSans-Bold-70"/>
      <use x="214.892578" xlink:href="#DejaVuSans-Bold-90"/>
     </g>
    </g>
   </g>
   <g id="text_20">
    <g clip-path="url(#p198cc80711)">
     <!-- 3OV -->
     <g transform="translate(226.608806 294.23536)scale(0.03 -0.03)">
      <use xlink:href="#DejaVuSans-Bold-51"/>
      <use x="69.580078" xlink:href="#DejaVuSans-Bold-79"/>
      <use x="154.558594" xlink:href="#DejaVuSans-Bold-86"/>
     </g>
    </g>
   </g>
   <g id="text_21">
    <g clip-path="url(#p198cc80711)">
     <!-- 5T18 -->
     <defs>
      <path d="M 11.71875 12.984375 
L 28.328125 12.984375 
L 28.328125 60.109375 
L 11.28125 56.59375 
L 11.28125 69.390625 
L 28.21875 72.90625 
L 46.09375 72.90625 
L 46.09375 12.984375 
L 62.703125 12.984375 
L 62.703125 0 
L 11.71875 0 
z
" id="DejaVuSans-Bold-49"/>
      <path d="M 34.8125 32.625 
Q 29.546875 32.625 26.703125 29.734375 
Q 23.875 26.859375 23.875 21.484375 
Q 23.875 16.109375 26.703125 13.25 
Q 29.546875 10.40625 34.8125 10.40625 
Q 40.046875 10.40625 42.828125 13.25 
Q 45.609375 16.109375 45.609375 21.484375 
Q 45.609375 26.90625 42.828125 29.765625 
Q 40.046875 32.625 34.8125 32.625 
z
M 21.09375 38.8125 
Q 14.453125 40.828125 11.078125 44.96875 
Q 7.71875 49.125 7.71875 55.328125 
Q 7.71875 64.546875 14.59375 69.375 
Q 21.484375 74.21875 34.8125 74.21875 
Q 48.046875 74.21875 54.921875 69.40625 
Q 61.8125 64.59375 61.8125 55.328125 
Q 61.8125 49.125 58.421875 44.96875 
Q 55.03125 40.828125 48.390625 38.8125 
Q 55.8125 36.765625 59.59375 32.15625 
Q 63.375 27.546875 63.375 20.515625 
Q 63.375 9.671875 56.171875 4.125 
Q 48.96875 -1.421875 34.8125 -1.421875 
Q 20.609375 -1.421875 13.359375 4.125 
Q 6.109375 9.671875 6.109375 20.515625 
Q 6.109375 27.546875 9.890625 32.15625 
Q 13.671875 36.765625 21.09375 38.8125 
z
M 25.484375 53.421875 
Q 25.484375 49.078125 27.90625 46.734375 
Q 30.328125 44.390625 34.8125 44.390625 
Q 39.203125 44.390625 41.59375 46.734375 
Q 44 49.078125 44 53.421875 
Q 44 57.765625 41.59375 60.078125 
Q 39.203125 62.40625 34.8125 62.40625 
Q 30.328125 62.40625 27.90625 60.0625 
Q 25.484375 57.71875 25.484375 53.421875 
z
" id="DejaVuSans-Bold-56"/>
     </defs>
     <g transform="translate(206.798319 294.666418)scale(0.03 -0.03)">
      <use xlink:href="#DejaVuSans-Bold-53"/>
      <use x="69.580078" xlink:href="#DejaVuSans-Bold-84"/>
      <use x="137.792969" xlink:href="#DejaVuSans-Bold-49"/>
      <use x="207.373047" xlink:href="#DejaVuSans-Bold-56"/>
     </g>
    </g>
   </g>
   <g id="text_22">
    <g clip-path="url(#p198cc80711)">
     <!-- 73T -->
     <g transform="translate(218.289997 309.519019)scale(0.03 -0.03)">
      <use xlink:href="#DejaVuSans-Bold-55"/>
      <use x="69.580078" xlink:href="#DejaVuSans-Bold-51"/>
      <use x="139.160156" xlink:href="#DejaVuSans-Bold-84"/>
     </g>
    </g>
   </g>
   <g id="text_23">
    <g clip-path="url(#p198cc80711)">
     <!-- 6HRP -->
     <g transform="translate(179.796524 300.174991)scale(0.03 -0.03)">
      <use xlink:href="#DejaVuSans-Bold-54"/>
      <use x="69.580078" xlink:href="#DejaVuSans-Bold-72"/>
      <use x="153.271484" xlink:href="#DejaVuSans-Bold-82"/>
      <use x="230.273438" xlink:href="#DejaVuSans-Bold-80"/>
     </g>
    </g>
   </g>
   <g id="text_24">
    <g clip-path="url(#p198cc80711)">
     <!-- GMQ -->
     <g transform="translate(171.857926 317.172837)scale(0.03 -0.03)">
      <use xlink:href="#DejaVuSans-Bold-71"/>
      <use x="82.080078" xlink:href="#DejaVuSans-Bold-77"/>
      <use x="181.591797" xlink:href="#DejaVuSans-Bold-81"/>
     </g>
    </g>
   </g>
   <g id="text_25">
    <g clip-path="url(#p198cc80711)">
     <!-- 6NFH -->
     <defs>
      <path d="M 9.1875 72.90625 
L 30.171875 72.90625 
L 56.6875 22.90625 
L 56.6875 72.90625 
L 74.515625 72.90625 
L 74.515625 0 
L 53.515625 0 
L 27 50 
L 27 0 
L 9.1875 0 
z
" id="DejaVuSans-Bold-78"/>
     </defs>
     <g transform="translate(182.773482 258.727313)scale(0.03 -0.03)">
      <use xlink:href="#DejaVuSans-Bold-54"/>
      <use x="69.580078" xlink:href="#DejaVuSans-Bold-78"/>
      <use x="153.271484" xlink:href="#DejaVuSans-Bold-70"/>
      <use x="221.582031" xlink:href="#DejaVuSans-Bold-72"/>
     </g>
    </g>
   </g>
   <g id="text_26">
    <g clip-path="url(#p198cc80711)">
     <!-- KLM -->
     <g transform="translate(175.845004 243.442782)scale(0.03 -0.03)">
      <use xlink:href="#DejaVuSans-Bold-75"/>
      <use x="77.490234" xlink:href="#DejaVuSans-Bold-76"/>
      <use x="141.210938" xlink:href="#DejaVuSans-Bold-77"/>
     </g>
    </g>
   </g>
   <g id="text_27">
    <g clip-path="url(#p198cc80711)">
     <!-- Chk1 -->
     <defs>
      <path d="M 67 4 
Q 61.8125 1.3125 56.203125 -0.046875 
Q 50.59375 -1.421875 44.484375 -1.421875 
Q 26.265625 -1.421875 15.625 8.765625 
Q 4.984375 18.953125 4.984375 36.375 
Q 4.984375 53.859375 15.625 64.03125 
Q 26.265625 74.21875 44.484375 74.21875 
Q 50.59375 74.21875 56.203125 72.84375 
Q 61.8125 71.484375 67 68.796875 
L 67 53.71875 
Q 61.765625 57.28125 56.6875 58.9375 
Q 51.609375 60.59375 46 60.59375 
Q 35.9375 60.59375 30.171875 54.140625 
Q 24.421875 47.703125 24.421875 36.375 
Q 24.421875 25.09375 30.171875 18.640625 
Q 35.9375 12.203125 46 12.203125 
Q 51.609375 12.203125 56.6875 13.859375 
Q 61.765625 15.53125 67 19.09375 
z
" id="DejaVuSans-Bold-67"/>
      <path d="M 63.375 33.296875 
L 63.375 0 
L 45.796875 0 
L 45.796875 5.421875 
L 45.796875 25.390625 
Q 45.796875 32.5625 45.484375 35.25 
Q 45.171875 37.9375 44.390625 39.203125 
Q 43.359375 40.921875 41.59375 41.875 
Q 39.84375 42.828125 37.59375 42.828125 
Q 32.125 42.828125 29 38.59375 
Q 25.875 34.375 25.875 26.90625 
L 25.875 0 
L 8.40625 0 
L 8.40625 75.984375 
L 25.875 75.984375 
L 25.875 46.6875 
Q 29.828125 51.46875 34.265625 53.734375 
Q 38.71875 56 44.09375 56 
Q 53.5625 56 58.46875 50.1875 
Q 63.375 44.390625 63.375 33.296875 
z
" id="DejaVuSans-Bold-104"/>
      <path d="M 8.40625 75.984375 
L 25.875 75.984375 
L 25.875 34.625 
L 46 54.6875 
L 66.3125 54.6875 
L 39.59375 29.59375 
L 68.40625 0 
L 47.21875 0 
L 25.875 22.796875 
L 25.875 0 
L 8.40625 0 
z
" id="DejaVuSans-Bold-107"/>
     </defs>
     <g transform="translate(435.640275 162.630021)scale(0.03 -0.03)">
      <use xlink:href="#DejaVuSans-Bold-67"/>
      <use x="73.388672" xlink:href="#DejaVuSans-Bold-104"/>
      <use x="144.580078" xlink:href="#DejaVuSans-Bold-107"/>
      <use x="211.083984" xlink:href="#DejaVuSans-Bold-49"/>
     </g>
    </g>
   </g>
   <g id="text_28">
    <g clip-path="url(#p198cc80711)">
     <!-- 3F9N -->
     <g transform="translate(423.561106 161.022268)scale(0.03 -0.03)">
      <use xlink:href="#DejaVuSans-Bold-51"/>
      <use x="69.580078" xlink:href="#DejaVuSans-Bold-70"/>
      <use x="137.890625" xlink:href="#DejaVuSans-Bold-57"/>
      <use x="207.470703" xlink:href="#DejaVuSans-Bold-78"/>
     </g>
    </g>
   </g>
   <g id="text_29">
    <g clip-path="url(#p198cc80711)">
     <!-- 38M -->
     <g transform="translate(421.794303 151.657219)scale(0.03 -0.03)">
      <use xlink:href="#DejaVuSans-Bold-51"/>
      <use x="69.580078" xlink:href="#DejaVuSans-Bold-56"/>
      <use x="139.160156" xlink:href="#DejaVuSans-Bold-77"/>
     </g>
    </g>
   </g>
   <g id="text_30">
    <g clip-path="url(#p198cc80711)">
     <!-- EGFR T790M -->
     <defs>
      <path d="M 9.1875 72.90625 
L 59.90625 72.90625 
L 59.90625 58.6875 
L 27.984375 58.6875 
L 27.984375 45.125 
L 58.015625 45.125 
L 58.015625 30.90625 
L 27.984375 30.90625 
L 27.984375 14.203125 
L 60.984375 14.203125 
L 60.984375 0 
L 9.1875 0 
z
" id="DejaVuSans-Bold-69"/>
      <path id="DejaVuSans-Bold-32"/>
      <path d="M 46 36.53125 
Q 46 50.203125 43.4375 55.78125 
Q 40.875 61.375 34.8125 61.375 
Q 28.765625 61.375 26.171875 55.78125 
Q 23.578125 50.203125 23.578125 36.53125 
Q 23.578125 22.703125 26.171875 17.03125 
Q 28.765625 11.375 34.8125 11.375 
Q 40.828125 11.375 43.40625 17.03125 
Q 46 22.703125 46 36.53125 
z
M 64.796875 36.375 
Q 64.796875 18.265625 56.984375 8.421875 
Q 49.171875 -1.421875 34.8125 -1.421875 
Q 20.40625 -1.421875 12.59375 8.421875 
Q 4.78125 18.265625 4.78125 36.375 
Q 4.78125 54.546875 12.59375 64.375 
Q 20.40625 74.21875 34.8125 74.21875 
Q 49.171875 74.21875 56.984375 64.375 
Q 64.796875 54.546875 64.796875 36.375 
z
" id="DejaVuSans-Bold-48"/>
     </defs>
     <g transform="translate(354.594085 140.215256)scale(0.03 -0.03)">
      <use xlink:href="#DejaVuSans-Bold-69"/>
      <use x="68.310547" xlink:href="#DejaVuSans-Bold-71"/>
      <use x="150.390625" xlink:href="#DejaVuSans-Bold-70"/>
      <use x="218.701172" xlink:href="#DejaVuSans-Bold-82"/>
      <use x="295.703125" xlink:href="#DejaVuSans-Bold-32"/>
      <use x="330.517578" xlink:href="#DejaVuSans-Bold-84"/>
      <use x="398.730469" xlink:href="#DejaVuSans-Bold-55"/>
      <use x="468.310547" xlink:href="#DejaVuSans-Bold-57"/>
      <use x="537.890625" xlink:href="#DejaVuSans-Bold-48"/>
      <use x="607.470703" xlink:href="#DejaVuSans-Bold-77"/>
     </g>
    </g>
   </g>
   <g id="text_31">
    <g clip-path="url(#p198cc80711)">
     <!-- 5GMP -->
     <g transform="translate(359.415043 129.997189)scale(0.03 -0.03)">
      <use xlink:href="#DejaVuSans-Bold-53"/>
      <use x="69.580078" xlink:href="#DejaVuSans-Bold-71"/>
      <use x="151.660156" xlink:href="#DejaVuSans-Bold-77"/>
      <use x="251.171875" xlink:href="#DejaVuSans-Bold-80"/>
     </g>
    </g>
   </g>
   <g id="text_32">
    <g clip-path="url(#p198cc80711)">
     <!-- F62 -->
     <g transform="translate(364.805226 119.924674)scale(0.03 -0.03)">
      <use xlink:href="#DejaVuSans-Bold-70"/>
      <use x="68.310547" xlink:href="#DejaVuSans-Bold-54"/>
      <use x="137.890625" xlink:href="#DejaVuSans-Bold-50"/>
     </g>
    </g>
   </g>
   <g id="text_33">
    <g clip-path="url(#p198cc80711)">
     <!-- Lck -->
     <g transform="translate(140.560588 15.196525)scale(0.03 -0.03)">
      <use xlink:href="#DejaVuSans-Bold-76"/>
      <use x="63.720703" xlink:href="#DejaVuSans-Bold-99"/>
      <use x="122.998047" xlink:href="#DejaVuSans-Bold-107"/>
     </g>
    </g>
   </g>
   <g id="text_34">
    <g clip-path="url(#p198cc80711)">
     <!-- 3BYO -->
     <g transform="translate(131.410598 21.074)scale(0.03 -0.03)">
      <use xlink:href="#DejaVuSans-Bold-51"/>
      <use x="69.580078" xlink:href="#DejaVuSans-Bold-66"/>
      <use x="145.722656" xlink:href="#DejaVuSans-Bold-89"/>
      <use x="218.087891" xlink:href="#DejaVuSans-Bold-79"/>
     </g>
    </g>
   </g>
   <g id="text_35">
    <g clip-path="url(#p198cc80711)">
     <!-- AM9 -->
     <g transform="translate(127.136395 29.719557)scale(0.03 -0.03)">
      <use xlink:href="#DejaVuSans-Bold-65"/>
      <use x="77.392578" xlink:href="#DejaVuSans-Bold-77"/>
      <use x="176.904297" xlink:href="#DejaVuSans-Bold-57"/>
     </g>
    </g>
   </g>
   <g id="text_36">
    <g clip-path="url(#p198cc80711)">
     <!-- Met -->
     <defs>
      <path d="M 62.984375 27.484375 
L 62.984375 22.515625 
L 22.125 22.515625 
Q 22.75 16.359375 26.5625 13.28125 
Q 30.375 10.203125 37.203125 10.203125 
Q 42.71875 10.203125 48.5 11.84375 
Q 54.296875 13.484375 60.40625 16.796875 
L 60.40625 3.328125 
Q 54.203125 0.984375 48 -0.21875 
Q 41.796875 -1.421875 35.59375 -1.421875 
Q 20.75 -1.421875 12.515625 6.125 
Q 4.296875 13.671875 4.296875 27.296875 
Q 4.296875 40.671875 12.375 48.328125 
Q 20.453125 56 34.625 56 
Q 47.515625 56 55.25 48.234375 
Q 62.984375 40.484375 62.984375 27.484375 
z
M 45.015625 33.296875 
Q 45.015625 38.28125 42.109375 41.328125 
Q 39.203125 44.390625 34.515625 44.390625 
Q 29.4375 44.390625 26.265625 41.53125 
Q 23.09375 38.671875 22.3125 33.296875 
z
" id="DejaVuSans-Bold-101"/>
      <path d="M 27.484375 70.21875 
L 27.484375 54.6875 
L 45.515625 54.6875 
L 45.515625 42.1875 
L 27.484375 42.1875 
L 27.484375 19 
Q 27.484375 15.1875 29 13.84375 
Q 30.515625 12.5 35.015625 12.5 
L 44 12.5 
L 44 0 
L 29 0 
Q 18.65625 0 14.328125 4.3125 
Q 10.015625 8.640625 10.015625 19 
L 10.015625 42.1875 
L 1.3125 42.1875 
L 1.3125 54.6875 
L 10.015625 54.6875 
L 10.015625 70.21875 
z
" id="DejaVuSans-Bold-116"/>
     </defs>
     <g transform="translate(56.501356 142.459983)scale(0.03 -0.03)">
      <use xlink:href="#DejaVuSans-Bold-77"/>
      <use x="99.511719" xlink:href="#DejaVuSans-Bold-101"/>
      <use x="167.333984" xlink:href="#DejaVuSans-Bold-116"/>
     </g>
    </g>
   </g>
   <g id="text_37">
    <g clip-path="url(#p198cc80711)">
     <!-- 6SDD -->
     <defs>
      <path d="M 27.984375 58.6875 
L 27.984375 14.203125 
L 34.71875 14.203125 
Q 46.234375 14.203125 52.3125 19.921875 
Q 58.40625 25.640625 58.40625 36.53125 
Q 58.40625 47.359375 52.34375 53.015625 
Q 46.296875 58.6875 34.71875 58.6875 
z
M 9.1875 72.90625 
L 29 72.90625 
Q 45.609375 72.90625 53.734375 70.53125 
Q 61.859375 68.171875 67.671875 62.5 
Q 72.796875 57.5625 75.28125 51.109375 
Q 77.78125 44.671875 77.78125 36.53125 
Q 77.78125 28.265625 75.28125 21.796875 
Q 72.796875 15.328125 67.671875 10.40625 
Q 61.8125 4.734375 53.609375 2.359375 
Q 45.40625 0 29 0 
L 9.1875 0 
z
" id="DejaVuSans-Bold-68"/>
     </defs>
     <g transform="translate(67.041859 140.154726)scale(0.03 -0.03)">
      <use xlink:href="#DejaVuSans-Bold-54"/>
      <use x="69.580078" xlink:href="#DejaVuSans-Bold-83"/>
      <use x="141.601562" xlink:href="#DejaVuSans-Bold-68"/>
      <use x="224.609375" xlink:href="#DejaVuSans-Bold-68"/>
     </g>
    </g>
   </g>
   <g id="text_38">
    <g clip-path="url(#p198cc80711)">
     <!-- 353 -->
     <g transform="translate(79.927883 147.834204)scale(0.03 -0.03)">
      <use xlink:href="#DejaVuSans-Bold-51"/>
      <use x="69.580078" xlink:href="#DejaVuSans-Bold-53"/>
      <use x="139.160156" xlink:href="#DejaVuSans-Bold-51"/>
     </g>
    </g>
   </g>
   <g id="text_39">
    <g clip-path="url(#p198cc80711)">
     <!-- 3CE3 -->
     <g transform="translate(40.732488 147.606479)scale(0.03 -0.03)">
      <use xlink:href="#DejaVuSans-Bold-51"/>
      <use x="69.580078" xlink:href="#DejaVuSans-Bold-67"/>
      <use x="142.96875" xlink:href="#DejaVuSans-Bold-69"/>
      <use x="211.279297" xlink:href="#DejaVuSans-Bold-51"/>
     </g>
    </g>
   </g>
   <g id="text_40">
    <g clip-path="url(#p198cc80711)">
     <!-- 1FN -->
     <g transform="translate(28.032056 148.405214)scale(0.03 -0.03)">
      <use xlink:href="#DejaVuSans-Bold-49"/>
      <use x="69.580078" xlink:href="#DejaVuSans-Bold-70"/>
      <use x="137.890625" xlink:href="#DejaVuSans-Bold-78"/>
     </g>
    </g>
   </g>
   <g id="text_41">
    <g clip-path="url(#p198cc80711)">
     <!-- 3F82 -->
     <g transform="translate(68.463275 149.672616)scale(0.03 -0.03)">
      <use xlink:href="#DejaVuSans-Bold-51"/>
      <use x="69.580078" xlink:href="#DejaVuSans-Bold-70"/>
      <use x="137.890625" xlink:href="#DejaVuSans-Bold-56"/>
      <use x="207.470703" xlink:href="#DejaVuSans-Bold-50"/>
     </g>
    </g>
   </g>
   <g id="text_42">
    <g clip-path="url(#p198cc80711)">
     <!-- 4EEV -->
     <g transform="translate(42.011768 128.631046)scale(0.03 -0.03)">
      <use xlink:href="#DejaVuSans-Bold-52"/>
      <use x="69.580078" xlink:href="#DejaVuSans-Bold-69"/>
      <use x="137.890625" xlink:href="#DejaVuSans-Bold-69"/>
      <use x="206.201172" xlink:href="#DejaVuSans-Bold-86"/>
     </g>
    </g>
   </g>
   <g id="text_43">
    <g clip-path="url(#p198cc80711)">
     <!-- L1X -->
     <g transform="translate(32.051571 118.56433)scale(0.03 -0.03)">
      <use xlink:href="#DejaVuSans-Bold-76"/>
      <use x="63.720703" xlink:href="#DejaVuSans-Bold-49"/>
      <use x="133.300781" xlink:href="#DejaVuSans-Bold-88"/>
     </g>
    </g>
   </g>
   <g id="text_44">
    <g clip-path="url(#p198cc80711)">
     <!-- p38a -->
     <defs>
      <path d="M 25.875 7.90625 
L 25.875 -20.796875 
L 8.40625 -20.796875 
L 8.40625 54.6875 
L 25.875 54.6875 
L 25.875 46.6875 
Q 29.5 51.46875 33.890625 53.734375 
Q 38.28125 56 44 56 
Q 54.109375 56 60.59375 47.96875 
Q 67.09375 39.9375 67.09375 27.296875 
Q 67.09375 14.65625 60.59375 6.609375 
Q 54.109375 -1.421875 44 -1.421875 
Q 38.28125 -1.421875 33.890625 0.84375 
Q 29.5 3.125 25.875 7.90625 
z
M 37.5 43.3125 
Q 31.890625 43.3125 28.875 39.1875 
Q 25.875 35.0625 25.875 27.296875 
Q 25.875 19.53125 28.875 15.40625 
Q 31.890625 11.28125 37.5 11.28125 
Q 43.109375 11.28125 46.0625 15.375 
Q 49.03125 19.484375 49.03125 27.296875 
Q 49.03125 35.109375 46.0625 39.203125 
Q 43.109375 43.3125 37.5 43.3125 
z
" id="DejaVuSans-Bold-112"/>
      <path d="M 32.90625 24.609375 
Q 27.4375 24.609375 24.671875 22.75 
Q 21.921875 20.90625 21.921875 17.28125 
Q 21.921875 13.96875 24.140625 12.078125 
Q 26.375 10.203125 30.328125 10.203125 
Q 35.25 10.203125 38.625 13.734375 
Q 42 17.28125 42 22.609375 
L 42 24.609375 
z
M 59.625 31.203125 
L 59.625 0 
L 42 0 
L 42 8.109375 
Q 38.484375 3.125 34.078125 0.84375 
Q 29.6875 -1.421875 23.390625 -1.421875 
Q 14.890625 -1.421875 9.59375 3.53125 
Q 4.296875 8.5 4.296875 16.40625 
Q 4.296875 26.03125 10.90625 30.515625 
Q 17.53125 35.015625 31.6875 35.015625 
L 42 35.015625 
L 42 36.375 
Q 42 40.53125 38.71875 42.453125 
Q 35.453125 44.390625 28.515625 44.390625 
Q 22.90625 44.390625 18.0625 43.265625 
Q 13.234375 42.140625 9.078125 39.890625 
L 9.078125 53.21875 
Q 14.703125 54.59375 20.359375 55.296875 
Q 26.03125 56 31.6875 56 
Q 46.484375 56 53.046875 50.171875 
Q 59.625 44.34375 59.625 31.203125 
z
" id="DejaVuSans-Bold-97"/>
     </defs>
     <g transform="translate(263.691436 190.067035)scale(0.03 -0.03)">
      <use xlink:href="#DejaVuSans-Bold-112"/>
      <use x="71.582031" xlink:href="#DejaVuSans-Bold-51"/>
      <use x="141.162109" xlink:href="#DejaVuSans-Bold-56"/>
      <use x="210.742188" xlink:href="#DejaVuSans-Bold-97"/>
     </g>
    </g>
   </g>
   <g id="text_45">
    <g clip-path="url(#p198cc80711)">
     <!-- 3KWB -->
     <g transform="translate(251.242705 172.108059)scale(0.03 -0.03)">
      <use xlink:href="#DejaVuSans-Bold-51"/>
      <use x="69.580078" xlink:href="#DejaVuSans-Bold-75"/>
      <use x="147.070312" xlink:href="#DejaVuSans-Bold-87"/>
      <use x="257.373047" xlink:href="#DejaVuSans-Bold-66"/>
     </g>
    </g>
   </g>
   <g id="text_46">
    <g clip-path="url(#p198cc80711)">
     <!-- ORH -->
     <g transform="translate(245.474647 156.270004)scale(0.03 -0.03)">
      <use xlink:href="#DejaVuSans-Bold-79"/>
      <use x="85.009766" xlink:href="#DejaVuSans-Bold-82"/>
      <use x="162.011719" xlink:href="#DejaVuSans-Bold-72"/>
     </g>
    </g>
   </g>
   <g id="text_47">
    <g clip-path="url(#p198cc80711)">
     <!-- 4AA0 -->
     <g transform="translate(274.347657 209.679839)scale(0.03 -0.03)">
      <use xlink:href="#DejaVuSans-Bold-52"/>
      <use x="69.580078" xlink:href="#DejaVuSans-Bold-65"/>
      <use x="146.972656" xlink:href="#DejaVuSans-Bold-65"/>
      <use x="224.365234" xlink:href="#DejaVuSans-Bold-48"/>
     </g>
    </g>
   </g>
   <g id="text_48">
    <g clip-path="url(#p198cc80711)">
     <!-- AA0 -->
     <g transform="translate(286.544482 223.070861)scale(0.03 -0.03)">
      <use xlink:href="#DejaVuSans-Bold-65"/>
      <use x="77.392578" xlink:href="#DejaVuSans-Bold-65"/>
      <use x="154.785156" xlink:href="#DejaVuSans-Bold-48"/>
     </g>
    </g>
   </g>
   <g id="text_49">
    <g clip-path="url(#p198cc80711)">
     <!-- 4AA4 -->
     <g transform="translate(242.924089 193.847444)scale(0.03 -0.03)">
      <use xlink:href="#DejaVuSans-Bold-52"/>
      <use x="69.580078" xlink:href="#DejaVuSans-Bold-65"/>
      <use x="146.972656" xlink:href="#DejaVuSans-Bold-65"/>
      <use x="224.365234" xlink:href="#DejaVuSans-Bold-52"/>
     </g>
    </g>
   </g>
   <g id="text_50">
    <g clip-path="url(#p198cc80711)">
     <!-- QC0 -->
     <g transform="translate(226.367771 195.103967)scale(0.03 -0.03)">
      <use xlink:href="#DejaVuSans-Bold-81"/>
      <use x="85.009766" xlink:href="#DejaVuSans-Bold-67"/>
      <use x="158.398438" xlink:href="#DejaVuSans-Bold-48"/>
     </g>
    </g>
   </g>
   <g id="text_51">
    <g clip-path="url(#p198cc80711)">
     <!-- 4AAC -->
     <g transform="translate(245.813708 180.953103)scale(0.03 -0.03)">
      <use xlink:href="#DejaVuSans-Bold-52"/>
      <use x="69.580078" xlink:href="#DejaVuSans-Bold-65"/>
      <use x="146.972656" xlink:href="#DejaVuSans-Bold-65"/>
      <use x="224.365234" xlink:href="#DejaVuSans-Bold-67"/>
     </g>
    </g>
   </g>
   <g id="text_52">
    <g clip-path="url(#p198cc80711)">
     <!-- AAV -->
     <g transform="translate(234.462241 170.896568)scale(0.03 -0.03)">
      <use xlink:href="#DejaVuSans-Bold-65"/>
      <use x="77.392578" xlink:href="#DejaVuSans-Bold-65"/>
      <use x="154.691406" xlink:href="#DejaVuSans-Bold-86"/>
     </g>
    </g>
   </g>
   <g id="text_53">
    <g clip-path="url(#p198cc80711)">
     <!-- 4AA5 -->
     <g transform="translate(281.31379 179.192327)scale(0.03 -0.03)">
      <use xlink:href="#DejaVuSans-Bold-52"/>
      <use x="69.580078" xlink:href="#DejaVuSans-Bold-65"/>
      <use x="146.972656" xlink:href="#DejaVuSans-Bold-65"/>
      <use x="224.365234" xlink:href="#DejaVuSans-Bold-53"/>
     </g>
    </g>
   </g>
   <g id="text_54">
    <g clip-path="url(#p198cc80711)">
     <!-- NQB -->
     <g transform="translate(296.33859 170.185267)scale(0.03 -0.03)">
      <use xlink:href="#DejaVuSans-Bold-78"/>
      <use x="83.691406" xlink:href="#DejaVuSans-Bold-81"/>
      <use x="168.701172" xlink:href="#DejaVuSans-Bold-66"/>
     </g>
    </g>
   </g>
   <g id="text_55">
    <g clip-path="url(#p198cc80711)">
     <!-- 2I0H -->
     <defs>
      <path d="M 9.1875 72.90625 
L 27.984375 72.90625 
L 27.984375 0 
L 9.1875 0 
z
" id="DejaVuSans-Bold-73"/>
     </defs>
     <g transform="translate(264.403864 210.052651)scale(0.03 -0.03)">
      <use xlink:href="#DejaVuSans-Bold-50"/>
      <use x="69.580078" xlink:href="#DejaVuSans-Bold-73"/>
      <use x="106.787109" xlink:href="#DejaVuSans-Bold-48"/>
      <use x="176.367188" xlink:href="#DejaVuSans-Bold-72"/>
     </g>
    </g>
   </g>
   <g id="text_56">
    <g clip-path="url(#p198cc80711)">
     <!-- 222 -->
     <g transform="translate(269.28455 225.325886)scale(0.03 -0.03)">
      <use xlink:href="#DejaVuSans-Bold-50"/>
      <use x="69.580078" xlink:href="#DejaVuSans-Bold-50"/>
      <use x="139.160156" xlink:href="#DejaVuSans-Bold-50"/>
     </g>
    </g>
   </g>
   <g id="text_57">
    <g clip-path="url(#p198cc80711)">
     <!-- 3K3J -->
     <g transform="translate(284.077261 191.192749)scale(0.03 -0.03)">
      <use xlink:href="#DejaVuSans-Bold-51"/>
      <use x="69.580078" xlink:href="#DejaVuSans-Bold-75"/>
      <use x="147.070312" xlink:href="#DejaVuSans-Bold-51"/>
      <use x="216.650391" xlink:href="#DejaVuSans-Bold-74"/>
     </g>
    </g>
   </g>
   <g id="text_58">
    <g clip-path="url(#p198cc80711)">
     <!-- F4C -->
     <g transform="translate(301.212378 191.126052)scale(0.03 -0.03)">
      <use xlink:href="#DejaVuSans-Bold-70"/>
      <use x="68.310547" xlink:href="#DejaVuSans-Bold-52"/>
      <use x="137.890625" xlink:href="#DejaVuSans-Bold-67"/>
     </g>
    </g>
   </g>
   <g id="text_59">
    <g clip-path="url(#p198cc80711)">
     <!-- 4EH2 -->
     <g transform="translate(273.017921 171.234976)scale(0.03 -0.03)">
      <use xlink:href="#DejaVuSans-Bold-52"/>
      <use x="69.580078" xlink:href="#DejaVuSans-Bold-69"/>
      <use x="137.890625" xlink:href="#DejaVuSans-Bold-72"/>
      <use x="221.582031" xlink:href="#DejaVuSans-Bold-50"/>
     </g>
    </g>
   </g>
   <g id="text_60">
    <g clip-path="url(#p198cc80711)">
     <!-- 0OK -->
     <g transform="translate(281.40939 156.280509)scale(0.03 -0.03)">
      <use xlink:href="#DejaVuSans-Bold-48"/>
      <use x="69.580078" xlink:href="#DejaVuSans-Bold-79"/>
      <use x="154.589844" xlink:href="#DejaVuSans-Bold-75"/>
     </g>
    </g>
   </g>
   <g id="text_61">
    <g clip-path="url(#p198cc80711)">
     <!-- 3HLL -->
     <g transform="translate(280.350285 202.018436)scale(0.03 -0.03)">
      <use xlink:href="#DejaVuSans-Bold-51"/>
      <use x="69.580078" xlink:href="#DejaVuSans-Bold-72"/>
      <use x="153.271484" xlink:href="#DejaVuSans-Bold-76"/>
      <use x="216.992188" xlink:href="#DejaVuSans-Bold-76"/>
     </g>
    </g>
   </g>
   <g id="text_62">
    <g clip-path="url(#p198cc80711)">
     <!-- I45 -->
     <g transform="translate(297.118053 209.497784)scale(0.03 -0.03)">
      <use xlink:href="#DejaVuSans-Bold-73"/>
      <use x="37.207031" xlink:href="#DejaVuSans-Bold-52"/>
      <use x="106.787109" xlink:href="#DejaVuSans-Bold-53"/>
     </g>
    </g>
   </g>
   <g id="text_63">
    <g clip-path="url(#p198cc80711)">
     <!-- 3ROC -->
     <g transform="translate(262.144485 168.381726)scale(0.03 -0.03)">
      <use xlink:href="#DejaVuSans-Bold-51"/>
      <use x="69.580078" xlink:href="#DejaVuSans-Bold-82"/>
      <use x="146.582031" xlink:href="#DejaVuSans-Bold-79"/>
      <use x="231.591797" xlink:href="#DejaVuSans-Bold-67"/>
     </g>
    </g>
   </g>
   <g id="text_64">
    <g clip-path="url(#p198cc80711)">
     <!-- 29A -->
     <g transform="translate(264.385576 150.422245)scale(0.03 -0.03)">
      <use xlink:href="#DejaVuSans-Bold-50"/>
      <use x="69.580078" xlink:href="#DejaVuSans-Bold-57"/>
      <use x="139.160156" xlink:href="#DejaVuSans-Bold-65"/>
     </g>
    </g>
   </g>
   <g id="text_65">
    <g clip-path="url(#p198cc80711)">
     <!-- Tyk2 -->
     <defs>
      <path d="M 1.21875 54.6875 
L 18.703125 54.6875 
L 33.40625 17.578125 
L 45.90625 54.6875 
L 63.375 54.6875 
L 40.375 -5.171875 
Q 36.921875 -14.3125 32.296875 -17.9375 
Q 27.6875 -21.578125 20.125 -21.578125 
L 10.015625 -21.578125 
L 10.015625 -10.109375 
L 15.484375 -10.109375 
Q 19.921875 -10.109375 21.9375 -8.6875 
Q 23.96875 -7.28125 25.09375 -3.609375 
L 25.59375 -2.09375 
z
" id="DejaVuSans-Bold-121"/>
     </defs>
     <g transform="translate(31.533338 307.162295)scale(0.03 -0.03)">
      <use xlink:href="#DejaVuSans-Bold-84"/>
      <use x="68.041016" xlink:href="#DejaVuSans-Bold-121"/>
      <use x="133.226562" xlink:href="#DejaVuSans-Bold-107"/>
      <use x="199.730469" xlink:href="#DejaVuSans-Bold-50"/>
     </g>
    </g>
   </g>
   <g id="text_66">
    <g clip-path="url(#p198cc80711)">
     <!-- 5F20 -->
     <g transform="translate(30.162975 295.188017)scale(0.03 -0.03)">
      <use xlink:href="#DejaVuSans-Bold-53"/>
      <use x="69.580078" xlink:href="#DejaVuSans-Bold-70"/>
      <use x="137.890625" xlink:href="#DejaVuSans-Bold-50"/>
      <use x="207.470703" xlink:href="#DejaVuSans-Bold-48"/>
     </g>
    </g>
   </g>
   <g id="text_67">
    <g clip-path="url(#p198cc80711)">
     <!-- 5U4 -->
     <g transform="translate(38.638484 284.942518)scale(0.03 -0.03)">
      <use xlink:href="#DejaVuSans-Bold-53"/>
      <use x="69.580078" xlink:href="#DejaVuSans-Bold-85"/>
      <use x="150.78125" xlink:href="#DejaVuSans-Bold-52"/>
     </g>
    </g>
   </g>
   <g id="text_68">
    <g clip-path="url(#p198cc80711)">
     <!-- 6NSL -->
     <g transform="translate(20.91993 318.913761)scale(0.03 -0.03)">
      <use xlink:href="#DejaVuSans-Bold-54"/>
      <use x="69.580078" xlink:href="#DejaVuSans-Bold-78"/>
      <use x="153.271484" xlink:href="#DejaVuSans-Bold-83"/>
      <use x="225.292969" xlink:href="#DejaVuSans-Bold-76"/>
     </g>
    </g>
   </g>
   <g id="text_69">
    <g clip-path="url(#p198cc80711)">
     <!-- KZJ -->
     <g transform="translate(18.141835 329.155662)scale(0.03 -0.03)">
      <use xlink:href="#DejaVuSans-Bold-75"/>
      <use x="77.490234" xlink:href="#DejaVuSans-Bold-90"/>
      <use x="150" xlink:href="#DejaVuSans-Bold-74"/>
     </g>
    </g>
   </g>
   <g id="text_70">
    <g clip-path="url(#p198cc80711)">
     <!-- VAP1 -->
     <g transform="translate(370.91463 49.336982)scale(0.03 -0.03)">
      <use xlink:href="#DejaVuSans-Bold-86"/>
      <use x="77.298828" xlink:href="#DejaVuSans-Bold-65"/>
      <use x="154.691406" xlink:href="#DejaVuSans-Bold-80"/>
      <use x="227.982422" xlink:href="#DejaVuSans-Bold-49"/>
     </g>
    </g>
   </g>
   <g id="text_71">
    <g clip-path="url(#p198cc80711)">
     <!-- 4BTY -->
     <g transform="translate(376.401459 38.053352)scale(0.03 -0.03)">
      <use xlink:href="#DejaVuSans-Bold-52"/>
      <use x="69.580078" xlink:href="#DejaVuSans-Bold-66"/>
      <use x="145.800781" xlink:href="#DejaVuSans-Bold-84"/>
      <use x="214.013672" xlink:href="#DejaVuSans-Bold-89"/>
     </g>
    </g>
   </g>
   <g id="text_72">
    <g clip-path="url(#p198cc80711)">
     <!-- JWF -->
     <g transform="translate(373.940108 29.31379)scale(0.03 -0.03)">
      <use xlink:href="#DejaVuSans-Bold-74"/>
      <use x="37.207031" xlink:href="#DejaVuSans-Bold-87"/>
      <use x="147.509766" xlink:href="#DejaVuSans-Bold-70"/>
     </g>
    </g>
   </g>
  </g>
 </g>
 <defs>
  <clipPath id="p198cc80711">
   <rect height="345.6" width="460.8" x="0" y="0"/>
  </clipPath>
 </defs>
</svg>
