<?xml version="1.0" encoding="utf-8" standalone="no"?>
<!DOCTYPE svg PUBLIC "-//W3C//DTD SVG 1.1//EN"
  "http://www.w3.org/Graphics/SVG/1.1/DTD/svg11.dtd">
<!-- Created with matplotlib (https://matplotlib.org/) -->
<svg height="345.6pt" version="1.1" viewBox="0 0 460.8 345.6" width="460.8pt" xmlns="http://www.w3.org/2000/svg" xmlns:xlink="http://www.w3.org/1999/xlink">
 <defs>
  <style type="text/css">
*{stroke-linecap:butt;stroke-linejoin:round;}
  </style>
 </defs>
 <g id="figure_1">
  <g id="patch_1">
   <path d="M 0 345.6 
L 460.8 345.6 
L 460.8 0 
L 0 0 
z
" style="fill:#ffffff;"/>
  </g>
  <g id="axes_1">
   <g id="LineCollection_1">
    <path clip-path="url(#p2b63e034b5)" d="M 231.483811 174.153658 
L 113.276734 194.67666 
" style="fill:none;stroke:#440154;stroke-width:0.5;"/>
    <path clip-path="url(#p2b63e034b5)" d="M 231.483811 174.153658 
L 220.045788 261.183556 
" style="fill:none;stroke:#440154;stroke-width:0.5;"/>
    <path clip-path="url(#p2b63e034b5)" d="M 231.483811 174.153658 
L 309.226944 105.780254 
" style="fill:none;stroke:#440154;stroke-width:0.5;"/>
    <path clip-path="url(#p2b63e034b5)" d="M 231.483811 174.153658 
L 146.69829 244.791222 
" style="fill:none;stroke:#440154;stroke-width:0.5;"/>
    <path clip-path="url(#p2b63e034b5)" d="M 231.483811 174.153658 
L 120.506095 140.759185 
" style="fill:none;stroke:#440154;stroke-width:0.5;"/>
    <path clip-path="url(#p2b63e034b5)" d="M 231.483811 174.153658 
L 164.074891 96.718398 
" style="fill:none;stroke:#440154;stroke-width:0.5;"/>
    <path clip-path="url(#p2b63e034b5)" d="M 231.483811 174.153658 
L 238.726181 84.752453 
" style="fill:none;stroke:#440154;stroke-width:0.5;"/>
    <path clip-path="url(#p2b63e034b5)" d="M 231.483811 174.153658 
L 292.70515 248.970199 
" style="fill:none;stroke:#440154;stroke-width:0.5;"/>
    <path clip-path="url(#p2b63e034b5)" d="M 231.483811 174.153658 
L 349.155856 208.713898 
" style="fill:none;stroke:#440154;stroke-width:0.5;"/>
    <path clip-path="url(#p2b63e034b5)" d="M 231.483811 174.153658 
L 346.412412 153.61462 
" style="fill:none;stroke:#440154;stroke-width:0.5;"/>
    <path clip-path="url(#p2b63e034b5)" d="M 238.726181 84.752453 
L 245.132917 15.836714 
" style="fill:none;stroke:#21918c;stroke-width:0.5;"/>
    <path clip-path="url(#p2b63e034b5)" d="M 32.756462 114.842763 
L 120.506095 140.759185 
" style="fill:none;stroke:#fde725;stroke-width:0.5;"/>
    <path clip-path="url(#p2b63e034b5)" d="M 371.58932 51.932494 
L 309.226944 105.780254 
" style="fill:none;stroke:#fde725;stroke-width:0.5;"/>
    <path clip-path="url(#p2b63e034b5)" d="M 439.72283 235.566304 
L 349.155856 208.713898 
" style="fill:none;stroke:#fde725;stroke-width:0.5;"/>
    <path clip-path="url(#p2b63e034b5)" d="M 82.933195 299.088126 
L 146.69829 244.791222 
" style="fill:none;stroke:#fde725;stroke-width:0.5;"/>
    <path clip-path="url(#p2b63e034b5)" d="M 164.074891 96.718398 
L 111.894218 36.437437 
" style="fill:none;stroke:#21918c;stroke-width:0.5;"/>
    <path clip-path="url(#p2b63e034b5)" d="M 21.07717 210.427399 
L 113.276734 194.67666 
" style="fill:none;stroke:#fde725;stroke-width:0.5;"/>
    <path clip-path="url(#p2b63e034b5)" d="M 346.412412 153.61462 
L 438.555083 136.725918 
" style="fill:none;stroke:#21918c;stroke-width:0.5;"/>
    <path clip-path="url(#p2b63e034b5)" d="M 342.825716 309.410193 
L 292.70515 248.970199 
" style="fill:none;stroke:#fde725;stroke-width:0.5;"/>
    <path clip-path="url(#p2b63e034b5)" d="M 212.446779 329.763286 
L 220.045788 261.183556 
" style="fill:none;stroke:#fde725;stroke-width:0.5;"/>
   </g>
   <g id="PathCollection_1">
    <defs>
     <path d="M 0 3.872983 
C 1.027127 3.872983 2.012324 3.464901 2.738613 2.738613 
C 3.464901 2.012324 3.872983 1.027127 3.872983 0 
C 3.872983 -1.027127 3.464901 -2.012324 2.738613 -2.738613 
C 2.012324 -3.464901 1.027127 -3.872983 0 -3.872983 
C -1.027127 -3.872983 -2.012324 -3.464901 -2.738613 -2.738613 
C -3.464901 -2.012324 -3.872983 -1.027127 -3.872983 0 
C -3.872983 1.027127 -3.464901 2.012324 -2.738613 2.738613 
C -2.012324 3.464901 -1.027127 3.872983 0 3.872983 
z
" id="m13e98029f8" style="stroke:#1f78b4;"/>
    </defs>
    <g clip-path="url(#p2b63e034b5)">
     <use style="fill:#1f78b4;stroke:#1f78b4;" x="231.483811" xlink:href="#m13e98029f8" y="174.153658"/>
     <use style="fill:#1f78b4;stroke:#1f78b4;" x="238.726181" xlink:href="#m13e98029f8" y="84.752453"/>
     <use style="fill:#1f78b4;stroke:#1f78b4;" x="32.756462" xlink:href="#m13e98029f8" y="114.842763"/>
     <use style="fill:#1f78b4;stroke:#1f78b4;" x="371.58932" xlink:href="#m13e98029f8" y="51.932494"/>
     <use style="fill:#1f78b4;stroke:#1f78b4;" x="245.132917" xlink:href="#m13e98029f8" y="15.836714"/>
     <use style="fill:#1f78b4;stroke:#1f78b4;" x="439.72283" xlink:href="#m13e98029f8" y="235.566304"/>
     <use style="fill:#1f78b4;stroke:#1f78b4;" x="82.933195" xlink:href="#m13e98029f8" y="299.088126"/>
     <use style="fill:#1f78b4;stroke:#1f78b4;" x="309.226944" xlink:href="#m13e98029f8" y="105.780254"/>
     <use style="fill:#1f78b4;stroke:#1f78b4;" x="164.074891" xlink:href="#m13e98029f8" y="96.718398"/>
     <use style="fill:#1f78b4;stroke:#1f78b4;" x="21.07717" xlink:href="#m13e98029f8" y="210.427399"/>
     <use style="fill:#1f78b4;stroke:#1f78b4;" x="111.894218" xlink:href="#m13e98029f8" y="36.437437"/>
     <use style="fill:#1f78b4;stroke:#1f78b4;" x="346.412412" xlink:href="#m13e98029f8" y="153.61462"/>
     <use style="fill:#1f78b4;stroke:#1f78b4;" x="342.825716" xlink:href="#m13e98029f8" y="309.410193"/>
     <use style="fill:#1f78b4;stroke:#1f78b4;" x="292.70515" xlink:href="#m13e98029f8" y="248.970199"/>
     <use style="fill:#1f78b4;stroke:#1f78b4;" x="349.155856" xlink:href="#m13e98029f8" y="208.713898"/>
     <use style="fill:#1f78b4;stroke:#1f78b4;" x="438.555083" xlink:href="#m13e98029f8" y="136.725918"/>
     <use style="fill:#1f78b4;stroke:#1f78b4;" x="120.506095" xlink:href="#m13e98029f8" y="140.759185"/>
     <use style="fill:#1f78b4;stroke:#1f78b4;" x="212.446779" xlink:href="#m13e98029f8" y="329.763286"/>
     <use style="fill:#1f78b4;stroke:#1f78b4;" x="113.276734" xlink:href="#m13e98029f8" y="194.67666"/>
     <use style="fill:#1f78b4;stroke:#1f78b4;" x="220.045788" xlink:href="#m13e98029f8" y="261.183556"/>
     <use style="fill:#1f78b4;stroke:#1f78b4;" x="146.69829" xlink:href="#m13e98029f8" y="244.791222"/>
    </g>
   </g>
   <g id="text_1">
    <g clip-path="url(#p2b63e034b5)">
     <!-- p38a -->
     <defs>
      <path d="M 25.875 7.90625 
L 25.875 -20.796875 
L 8.40625 -20.796875 
L 8.40625 54.6875 
L 25.875 54.6875 
L 25.875 46.6875 
Q 29.5 51.46875 33.890625 53.734375 
Q 38.28125 56 44 56 
Q 54.109375 56 60.59375 47.96875 
Q 67.09375 39.9375 67.09375 27.296875 
Q 67.09375 14.65625 60.59375 6.609375 
Q 54.109375 -1.421875 44 -1.421875 
Q 38.28125 -1.421875 33.890625 0.84375 
Q 29.5 3.125 25.875 7.90625 
z
M 37.5 43.3125 
Q 31.890625 43.3125 28.875 39.1875 
Q 25.875 35.0625 25.875 27.296875 
Q 25.875 19.53125 28.875 15.40625 
Q 31.890625 11.28125 37.5 11.28125 
Q 43.109375 11.28125 46.0625 15.375 
Q 49.03125 19.484375 49.03125 27.296875 
Q 49.03125 35.109375 46.0625 39.203125 
Q 43.109375 43.3125 37.5 43.3125 
z
" id="DejaVuSans-Bold-112"/>
      <path d="M 46.578125 39.3125 
Q 53.953125 37.40625 57.78125 32.6875 
Q 61.625 27.984375 61.625 20.703125 
Q 61.625 9.859375 53.3125 4.21875 
Q 45.015625 -1.421875 29.109375 -1.421875 
Q 23.484375 -1.421875 17.84375 -0.515625 
Q 12.203125 0.390625 6.6875 2.203125 
L 6.6875 16.703125 
Q 11.96875 14.0625 17.15625 12.71875 
Q 22.359375 11.375 27.390625 11.375 
Q 34.859375 11.375 38.84375 13.953125 
Q 42.828125 16.546875 42.828125 21.390625 
Q 42.828125 26.375 38.75 28.9375 
Q 34.671875 31.5 26.703125 31.5 
L 19.1875 31.5 
L 19.1875 43.609375 
L 27.09375 43.609375 
Q 34.1875 43.609375 37.640625 45.828125 
Q 41.109375 48.046875 41.109375 52.59375 
Q 41.109375 56.78125 37.734375 59.078125 
Q 34.375 61.375 28.21875 61.375 
Q 23.6875 61.375 19.046875 60.34375 
Q 14.40625 59.328125 9.8125 57.328125 
L 9.8125 71.09375 
Q 15.375 72.65625 20.84375 73.4375 
Q 26.3125 74.21875 31.59375 74.21875 
Q 45.796875 74.21875 52.84375 69.546875 
Q 59.90625 64.890625 59.90625 55.515625 
Q 59.90625 49.125 56.53125 45.046875 
Q 53.171875 40.96875 46.578125 39.3125 
z
" id="DejaVuSans-Bold-51"/>
      <path d="M 34.8125 32.625 
Q 29.546875 32.625 26.703125 29.734375 
Q 23.875 26.859375 23.875 21.484375 
Q 23.875 16.109375 26.703125 13.25 
Q 29.546875 10.40625 34.8125 10.40625 
Q 40.046875 10.40625 42.828125 13.25 
Q 45.609375 16.109375 45.609375 21.484375 
Q 45.609375 26.90625 42.828125 29.765625 
Q 40.046875 32.625 34.8125 32.625 
z
M 21.09375 38.8125 
Q 14.453125 40.828125 11.078125 44.96875 
Q 7.71875 49.125 7.71875 55.328125 
Q 7.71875 64.546875 14.59375 69.375 
Q 21.484375 74.21875 34.8125 74.21875 
Q 48.046875 74.21875 54.921875 69.40625 
Q 61.8125 64.59375 61.8125 55.328125 
Q 61.8125 49.125 58.421875 44.96875 
Q 55.03125 40.828125 48.390625 38.8125 
Q 55.8125 36.765625 59.59375 32.15625 
Q 63.375 27.546875 63.375 20.515625 
Q 63.375 9.671875 56.171875 4.125 
Q 48.96875 -1.421875 34.8125 -1.421875 
Q 20.609375 -1.421875 13.359375 4.125 
Q 6.109375 9.671875 6.109375 20.515625 
Q 6.109375 27.546875 9.890625 32.15625 
Q 13.671875 36.765625 21.09375 38.8125 
z
M 25.484375 53.421875 
Q 25.484375 49.078125 27.90625 46.734375 
Q 30.328125 44.390625 34.8125 44.390625 
Q 39.203125 44.390625 41.59375 46.734375 
Q 44 49.078125 44 53.421875 
Q 44 57.765625 41.59375 60.078125 
Q 39.203125 62.40625 34.8125 62.40625 
Q 30.328125 62.40625 27.90625 60.0625 
Q 25.484375 57.71875 25.484375 53.421875 
z
" id="DejaVuSans-Bold-56"/>
      <path d="M 32.90625 24.609375 
Q 27.4375 24.609375 24.671875 22.75 
Q 21.921875 20.90625 21.921875 17.28125 
Q 21.921875 13.96875 24.140625 12.078125 
Q 26.375 10.203125 30.328125 10.203125 
Q 35.25 10.203125 38.625 13.734375 
Q 42 17.28125 42 22.609375 
L 42 24.609375 
z
M 59.625 31.203125 
L 59.625 0 
L 42 0 
L 42 8.109375 
Q 38.484375 3.125 34.078125 0.84375 
Q 29.6875 -1.421875 23.390625 -1.421875 
Q 14.890625 -1.421875 9.59375 3.53125 
Q 4.296875 8.5 4.296875 16.40625 
Q 4.296875 26.03125 10.90625 30.515625 
Q 17.53125 35.015625 31.6875 35.015625 
L 42 35.015625 
L 42 36.375 
Q 42 40.53125 38.71875 42.453125 
Q 35.453125 44.390625 28.515625 44.390625 
Q 22.90625 44.390625 18.0625 43.265625 
Q 13.234375 42.140625 9.078125 39.890625 
L 9.078125 53.21875 
Q 14.703125 54.59375 20.359375 55.296875 
Q 26.03125 56 31.6875 56 
Q 46.484375 56 53.046875 50.171875 
Q 59.625 44.34375 59.625 31.203125 
z
" id="DejaVuSans-Bold-97"/>
     </defs>
     <g transform="translate(225.919436 175.257408)scale(0.04 -0.04)">
      <use xlink:href="#DejaVuSans-Bold-112"/>
      <use x="71.582031" xlink:href="#DejaVuSans-Bold-51"/>
      <use x="141.162109" xlink:href="#DejaVuSans-Bold-56"/>
      <use x="210.742188" xlink:href="#DejaVuSans-Bold-97"/>
     </g>
    </g>
   </g>
   <g id="text_2">
    <g clip-path="url(#p2b63e034b5)">
     <!-- 3K3J -->
     <defs>
      <path d="M 9.1875 72.90625 
L 27.984375 72.90625 
L 27.984375 46.296875 
L 55.078125 72.90625 
L 76.90625 72.90625 
L 41.796875 38.375 
L 80.515625 0 
L 56.984375 0 
L 27.984375 28.71875 
L 27.984375 0 
L 9.1875 0 
z
" id="DejaVuSans-Bold-75"/>
      <path d="M 9.1875 72.90625 
L 27.984375 72.90625 
L 27.984375 7.078125 
Q 27.984375 -6.546875 20.578125 -13.28125 
Q 13.1875 -20.015625 -1.8125 -20.015625 
L -5.609375 -20.015625 
L -5.609375 -5.8125 
L -2.6875 -5.8125 
Q 3.171875 -5.8125 6.171875 -2.53125 
Q 9.1875 0.734375 9.1875 7.078125 
z
" id="DejaVuSans-Bold-74"/>
     </defs>
     <g transform="translate(233.649306 85.856203)scale(0.04 -0.04)">
      <use xlink:href="#DejaVuSans-Bold-51"/>
      <use x="69.580078" xlink:href="#DejaVuSans-Bold-75"/>
      <use x="147.070312" xlink:href="#DejaVuSans-Bold-51"/>
      <use x="216.650391" xlink:href="#DejaVuSans-Bold-74"/>
     </g>
    </g>
   </g>
   <g id="text_3">
    <g clip-path="url(#p2b63e034b5)">
     <!-- NQB -->
     <defs>
      <path d="M 9.1875 72.90625 
L 30.171875 72.90625 
L 56.6875 22.90625 
L 56.6875 72.90625 
L 74.515625 72.90625 
L 74.515625 0 
L 53.515625 0 
L 27 50 
L 27 0 
L 9.1875 0 
z
" id="DejaVuSans-Bold-78"/>
      <path d="M 44.484375 -1.3125 
L 43.015625 -1.3125 
Q 25 -1.3125 14.984375 8.640625 
Q 4.984375 18.609375 4.984375 36.375 
Q 4.984375 54.109375 14.96875 64.15625 
Q 24.953125 74.21875 42.484375 74.21875 
Q 60.203125 74.21875 70.09375 64.25 
Q 79.984375 54.296875 79.984375 36.375 
Q 79.984375 24.078125 74.734375 15.1875 
Q 69.484375 6.296875 59.625 1.8125 
L 74.3125 -14.59375 
L 56.390625 -14.59375 
z
M 42.484375 60.59375 
Q 33.890625 60.59375 29.15625 54.25 
Q 24.421875 47.90625 24.421875 36.375 
Q 24.421875 24.65625 29.046875 18.421875 
Q 33.6875 12.203125 42.484375 12.203125 
Q 51.125 12.203125 55.859375 18.546875 
Q 60.59375 24.90625 60.59375 36.375 
Q 60.59375 47.90625 55.859375 54.25 
Q 51.125 60.59375 42.484375 60.59375 
z
" id="DejaVuSans-Bold-81"/>
      <path d="M 38.375 44.671875 
Q 42.828125 44.671875 45.109375 46.625 
Q 47.40625 48.578125 47.40625 52.390625 
Q 47.40625 56.15625 45.109375 58.125 
Q 42.828125 60.109375 38.375 60.109375 
L 27.984375 60.109375 
L 27.984375 44.671875 
z
M 39.015625 12.796875 
Q 44.671875 12.796875 47.53125 15.1875 
Q 50.390625 17.578125 50.390625 22.40625 
Q 50.390625 27.15625 47.5625 29.515625 
Q 44.734375 31.890625 39.015625 31.890625 
L 27.984375 31.890625 
L 27.984375 12.796875 
z
M 56.5 39.015625 
Q 62.546875 37.25 65.859375 32.515625 
Q 69.1875 27.78125 69.1875 20.90625 
Q 69.1875 10.359375 62.0625 5.171875 
Q 54.9375 0 40.375 0 
L 9.1875 0 
L 9.1875 72.90625 
L 37.40625 72.90625 
Q 52.59375 72.90625 59.40625 68.3125 
Q 66.21875 63.71875 66.21875 53.609375 
Q 66.21875 48.296875 63.71875 44.5625 
Q 61.234375 40.828125 56.5 39.015625 
z
" id="DejaVuSans-Bold-66"/>
     </defs>
     <g transform="translate(27.858025 115.946513)scale(0.04 -0.04)">
      <use xlink:href="#DejaVuSans-Bold-78"/>
      <use x="83.691406" xlink:href="#DejaVuSans-Bold-81"/>
      <use x="168.701172" xlink:href="#DejaVuSans-Bold-66"/>
     </g>
    </g>
   </g>
   <g id="text_4">
    <g clip-path="url(#p2b63e034b5)">
     <!-- QC0 -->
     <defs>
      <path d="M 67 4 
Q 61.8125 1.3125 56.203125 -0.046875 
Q 50.59375 -1.421875 44.484375 -1.421875 
Q 26.265625 -1.421875 15.625 8.765625 
Q 4.984375 18.953125 4.984375 36.375 
Q 4.984375 53.859375 15.625 64.03125 
Q 26.265625 74.21875 44.484375 74.21875 
Q 50.59375 74.21875 56.203125 72.84375 
Q 61.8125 71.484375 67 68.796875 
L 67 53.71875 
Q 61.765625 57.28125 56.6875 58.9375 
Q 51.609375 60.59375 46 60.59375 
Q 35.9375 60.59375 30.171875 54.140625 
Q 24.421875 47.703125 24.421875 36.375 
Q 24.421875 25.09375 30.171875 18.640625 
Q 35.9375 12.203125 46 12.203125 
Q 51.609375 12.203125 56.6875 13.859375 
Q 61.765625 15.53125 67 19.09375 
z
" id="DejaVuSans-Bold-67"/>
      <path d="M 46 36.53125 
Q 46 50.203125 43.4375 55.78125 
Q 40.875 61.375 34.8125 61.375 
Q 28.765625 61.375 26.171875 55.78125 
Q 23.578125 50.203125 23.578125 36.53125 
Q 23.578125 22.703125 26.171875 17.03125 
Q 28.765625 11.375 34.8125 11.375 
Q 40.828125 11.375 43.40625 17.03125 
Q 46 22.703125 46 36.53125 
z
M 64.796875 36.375 
Q 64.796875 18.265625 56.984375 8.421875 
Q 49.171875 -1.421875 34.8125 -1.421875 
Q 20.40625 -1.421875 12.59375 8.421875 
Q 4.78125 18.265625 4.78125 36.375 
Q 4.78125 54.546875 12.59375 64.375 
Q 20.40625 74.21875 34.8125 74.21875 
Q 49.171875 74.21875 56.984375 64.375 
Q 64.796875 54.546875 64.796875 36.375 
z
" id="DejaVuSans-Bold-48"/>
     </defs>
     <g transform="translate(367.029633 53.036244)scale(0.04 -0.04)">
      <use xlink:href="#DejaVuSans-Bold-81"/>
      <use x="85.009766" xlink:href="#DejaVuSans-Bold-67"/>
      <use x="158.398438" xlink:href="#DejaVuSans-Bold-48"/>
     </g>
    </g>
   </g>
   <g id="text_5">
    <g clip-path="url(#p2b63e034b5)">
     <!-- F4C -->
     <defs>
      <path d="M 9.1875 72.90625 
L 59.90625 72.90625 
L 59.90625 58.6875 
L 27.984375 58.6875 
L 27.984375 45.125 
L 58.015625 45.125 
L 58.015625 30.90625 
L 27.984375 30.90625 
L 27.984375 0 
L 9.1875 0 
z
" id="DejaVuSans-Bold-70"/>
      <path d="M 36.8125 57.421875 
L 16.21875 26.90625 
L 36.8125 26.90625 
z
M 33.6875 72.90625 
L 54.59375 72.90625 
L 54.59375 26.90625 
L 64.984375 26.90625 
L 64.984375 13.28125 
L 54.59375 13.28125 
L 54.59375 0 
L 36.8125 0 
L 36.8125 13.28125 
L 4.5 13.28125 
L 4.5 29.390625 
z
" id="DejaVuSans-Bold-52"/>
     </defs>
     <g transform="translate(240.907292 16.940464)scale(0.04 -0.04)">
      <use xlink:href="#DejaVuSans-Bold-70"/>
      <use x="68.310547" xlink:href="#DejaVuSans-Bold-52"/>
      <use x="137.890625" xlink:href="#DejaVuSans-Bold-67"/>
     </g>
    </g>
   </g>
   <g id="text_6">
    <g clip-path="url(#p2b63e034b5)">
     <!-- I45 -->
     <defs>
      <path d="M 9.1875 72.90625 
L 27.984375 72.90625 
L 27.984375 0 
L 9.1875 0 
z
" id="DejaVuSans-Bold-73"/>
      <path d="M 10.59375 72.90625 
L 57.328125 72.90625 
L 57.328125 59.078125 
L 25.59375 59.078125 
L 25.59375 47.796875 
Q 27.734375 48.390625 29.90625 48.703125 
Q 32.078125 49.03125 34.421875 49.03125 
Q 47.75 49.03125 55.171875 42.359375 
Q 62.59375 35.6875 62.59375 23.78125 
Q 62.59375 11.96875 54.515625 5.265625 
Q 46.4375 -1.421875 32.078125 -1.421875 
Q 25.875 -1.421875 19.796875 -0.21875 
Q 13.71875 0.984375 7.71875 3.421875 
L 7.71875 18.21875 
Q 13.671875 14.796875 19.015625 13.078125 
Q 24.359375 11.375 29.109375 11.375 
Q 35.9375 11.375 39.859375 14.71875 
Q 43.796875 18.0625 43.796875 23.78125 
Q 43.796875 29.546875 39.859375 32.859375 
Q 35.9375 36.1875 29.109375 36.1875 
Q 25.046875 36.1875 20.453125 35.125 
Q 15.875 34.078125 10.59375 31.890625 
z
" id="DejaVuSans-Bold-53"/>
     </defs>
     <g transform="translate(436.195643 236.670054)scale(0.04 -0.04)">
      <use xlink:href="#DejaVuSans-Bold-73"/>
      <use x="37.207031" xlink:href="#DejaVuSans-Bold-52"/>
      <use x="106.787109" xlink:href="#DejaVuSans-Bold-53"/>
     </g>
    </g>
   </g>
   <g id="text_7">
    <g clip-path="url(#p2b63e034b5)">
     <!-- AAV -->
     <defs>
      <path d="M 53.421875 13.28125 
L 24.03125 13.28125 
L 19.390625 0 
L 0.484375 0 
L 27.484375 72.90625 
L 49.90625 72.90625 
L 76.90625 0 
L 58.015625 0 
z
M 28.71875 26.8125 
L 48.6875 26.8125 
L 38.71875 55.8125 
z
" id="DejaVuSans-Bold-65"/>
      <path d="M 0.484375 72.90625 
L 19.390625 72.90625 
L 38.71875 19.09375 
L 58.015625 72.90625 
L 76.90625 72.90625 
L 49.90625 0 
L 27.484375 0 
z
" id="DejaVuSans-Bold-86"/>
     </defs>
     <g transform="translate(78.291632 300.191876)scale(0.04 -0.04)">
      <use xlink:href="#DejaVuSans-Bold-65"/>
      <use x="77.392578" xlink:href="#DejaVuSans-Bold-65"/>
      <use x="154.691406" xlink:href="#DejaVuSans-Bold-86"/>
     </g>
    </g>
   </g>
   <g id="text_8">
    <g clip-path="url(#p2b63e034b5)">
     <!-- 4AA4 -->
     <g transform="translate(303.348194 106.884004)scale(0.04 -0.04)">
      <use xlink:href="#DejaVuSans-Bold-52"/>
      <use x="69.580078" xlink:href="#DejaVuSans-Bold-65"/>
      <use x="146.972656" xlink:href="#DejaVuSans-Bold-65"/>
      <use x="224.365234" xlink:href="#DejaVuSans-Bold-52"/>
     </g>
    </g>
   </g>
   <g id="text_9">
    <g clip-path="url(#p2b63e034b5)">
     <!-- 2I0H -->
     <defs>
      <path d="M 28.8125 13.8125 
L 60.890625 13.8125 
L 60.890625 0 
L 7.90625 0 
L 7.90625 13.8125 
L 34.515625 37.3125 
Q 38.09375 40.53125 39.796875 43.609375 
Q 41.5 46.6875 41.5 50 
Q 41.5 55.125 38.0625 58.25 
Q 34.625 61.375 28.90625 61.375 
Q 24.515625 61.375 19.28125 59.5 
Q 14.0625 57.625 8.109375 53.90625 
L 8.109375 69.921875 
Q 14.453125 72.015625 20.65625 73.109375 
Q 26.859375 74.21875 32.8125 74.21875 
Q 45.90625 74.21875 53.15625 68.453125 
Q 60.40625 62.703125 60.40625 52.390625 
Q 60.40625 46.4375 57.328125 41.28125 
Q 54.25 36.140625 44.390625 27.484375 
z
" id="DejaVuSans-Bold-50"/>
      <path d="M 9.1875 72.90625 
L 27.984375 72.90625 
L 27.984375 45.125 
L 55.71875 45.125 
L 55.71875 72.90625 
L 74.515625 72.90625 
L 74.515625 0 
L 55.71875 0 
L 55.71875 30.90625 
L 27.984375 30.90625 
L 27.984375 0 
L 9.1875 0 
z
" id="DejaVuSans-Bold-72"/>
     </defs>
     <g transform="translate(158.873953 97.822148)scale(0.04 -0.04)">
      <use xlink:href="#DejaVuSans-Bold-50"/>
      <use x="69.580078" xlink:href="#DejaVuSans-Bold-73"/>
      <use x="106.787109" xlink:href="#DejaVuSans-Bold-48"/>
      <use x="176.367188" xlink:href="#DejaVuSans-Bold-72"/>
     </g>
    </g>
   </g>
   <g id="text_10">
    <g clip-path="url(#p2b63e034b5)">
     <!-- ORH -->
     <defs>
      <path d="M 42.484375 60.59375 
Q 33.890625 60.59375 29.15625 54.25 
Q 24.421875 47.90625 24.421875 36.375 
Q 24.421875 24.90625 29.15625 18.546875 
Q 33.890625 12.203125 42.484375 12.203125 
Q 51.125 12.203125 55.859375 18.546875 
Q 60.59375 24.90625 60.59375 36.375 
Q 60.59375 47.90625 55.859375 54.25 
Q 51.125 60.59375 42.484375 60.59375 
z
M 42.484375 74.21875 
Q 60.0625 74.21875 70.015625 64.15625 
Q 79.984375 54.109375 79.984375 36.375 
Q 79.984375 18.703125 70.015625 8.640625 
Q 60.0625 -1.421875 42.484375 -1.421875 
Q 24.953125 -1.421875 14.96875 8.640625 
Q 4.984375 18.703125 4.984375 36.375 
Q 4.984375 54.109375 14.96875 64.15625 
Q 24.953125 74.21875 42.484375 74.21875 
z
" id="DejaVuSans-Bold-79"/>
      <path d="M 35.890625 40.578125 
Q 41.796875 40.578125 44.359375 42.765625 
Q 46.921875 44.96875 46.921875 50 
Q 46.921875 54.984375 44.359375 57.125 
Q 41.796875 59.28125 35.890625 59.28125 
L 27.984375 59.28125 
L 27.984375 40.578125 
z
M 27.984375 27.59375 
L 27.984375 0 
L 9.1875 0 
L 9.1875 72.90625 
L 37.890625 72.90625 
Q 52.296875 72.90625 59 68.0625 
Q 65.71875 63.234375 65.71875 52.78125 
Q 65.71875 45.5625 62.21875 40.921875 
Q 58.734375 36.28125 51.703125 34.078125 
Q 55.5625 33.203125 58.609375 30.09375 
Q 61.671875 27 64.796875 20.703125 
L 75 0 
L 54.984375 0 
L 46.09375 18.109375 
Q 43.40625 23.578125 40.640625 25.578125 
Q 37.890625 27.59375 33.296875 27.59375 
z
" id="DejaVuSans-Bold-82"/>
     </defs>
     <g transform="translate(16.163107 211.531149)scale(0.04 -0.04)">
      <use xlink:href="#DejaVuSans-Bold-79"/>
      <use x="85.009766" xlink:href="#DejaVuSans-Bold-82"/>
      <use x="162.011719" xlink:href="#DejaVuSans-Bold-72"/>
     </g>
    </g>
   </g>
   <g id="text_11">
    <g clip-path="url(#p2b63e034b5)">
     <!-- 222 -->
     <g transform="translate(107.719531 37.541187)scale(0.04 -0.04)">
      <use xlink:href="#DejaVuSans-Bold-50"/>
      <use x="69.580078" xlink:href="#DejaVuSans-Bold-50"/>
      <use x="139.160156" xlink:href="#DejaVuSans-Bold-50"/>
     </g>
    </g>
   </g>
   <g id="text_12">
    <g clip-path="url(#p2b63e034b5)">
     <!-- 3ROC -->
     <g transform="translate(340.312725 154.71837)scale(0.04 -0.04)">
      <use xlink:href="#DejaVuSans-Bold-51"/>
      <use x="69.580078" xlink:href="#DejaVuSans-Bold-82"/>
      <use x="146.582031" xlink:href="#DejaVuSans-Bold-79"/>
      <use x="231.591797" xlink:href="#DejaVuSans-Bold-67"/>
     </g>
    </g>
   </g>
   <g id="text_13">
    <g clip-path="url(#p2b63e034b5)">
     <!-- 0OK -->
     <g transform="translate(338.184154 310.513943)scale(0.04 -0.04)">
      <use xlink:href="#DejaVuSans-Bold-48"/>
      <use x="69.580078" xlink:href="#DejaVuSans-Bold-79"/>
      <use x="154.589844" xlink:href="#DejaVuSans-Bold-75"/>
     </g>
    </g>
   </g>
   <g id="text_14">
    <g clip-path="url(#p2b63e034b5)">
     <!-- 4EH2 -->
     <defs>
      <path d="M 9.1875 72.90625 
L 59.90625 72.90625 
L 59.90625 58.6875 
L 27.984375 58.6875 
L 27.984375 45.125 
L 58.015625 45.125 
L 58.015625 30.90625 
L 27.984375 30.90625 
L 27.984375 14.203125 
L 60.984375 14.203125 
L 60.984375 0 
L 9.1875 0 
z
" id="DejaVuSans-Bold-69"/>
     </defs>
     <g transform="translate(286.882025 250.073949)scale(0.04 -0.04)">
      <use xlink:href="#DejaVuSans-Bold-52"/>
      <use x="69.580078" xlink:href="#DejaVuSans-Bold-69"/>
      <use x="137.890625" xlink:href="#DejaVuSans-Bold-72"/>
      <use x="221.582031" xlink:href="#DejaVuSans-Bold-50"/>
     </g>
    </g>
   </g>
   <g id="text_15">
    <g clip-path="url(#p2b63e034b5)">
     <!-- 3HLL -->
     <defs>
      <path d="M 9.1875 72.90625 
L 27.984375 72.90625 
L 27.984375 14.203125 
L 60.984375 14.203125 
L 60.984375 0 
L 9.1875 0 
z
" id="DejaVuSans-Bold-76"/>
     </defs>
     <g transform="translate(343.541794 209.817648)scale(0.04 -0.04)">
      <use xlink:href="#DejaVuSans-Bold-51"/>
      <use x="69.580078" xlink:href="#DejaVuSans-Bold-72"/>
      <use x="153.271484" xlink:href="#DejaVuSans-Bold-76"/>
      <use x="216.992188" xlink:href="#DejaVuSans-Bold-76"/>
     </g>
    </g>
   </g>
   <g id="text_16">
    <g clip-path="url(#p2b63e034b5)">
     <!-- 29A -->
     <defs>
      <path d="M 10.015625 1.609375 
L 10.015625 15.09375 
Q 14.5 12.984375 18.59375 11.9375 
Q 22.703125 10.890625 26.703125 10.890625 
Q 35.109375 10.890625 39.796875 15.546875 
Q 44.484375 20.21875 45.3125 29.390625 
Q 42 26.953125 38.234375 25.734375 
Q 34.46875 24.515625 30.078125 24.515625 
Q 18.890625 24.515625 12.03125 31.03125 
Q 5.171875 37.546875 5.171875 48.1875 
Q 5.171875 59.96875 12.8125 67.046875 
Q 20.453125 74.125 33.296875 74.125 
Q 47.5625 74.125 55.375 64.5 
Q 63.1875 54.890625 63.1875 37.3125 
Q 63.1875 19.234375 54.046875 8.90625 
Q 44.921875 -1.421875 29 -1.421875 
Q 23.875 -1.421875 19.1875 -0.65625 
Q 14.5 0.09375 10.015625 1.609375 
z
M 33.203125 36.71875 
Q 38.140625 36.71875 40.625 39.90625 
Q 43.109375 43.109375 43.109375 49.515625 
Q 43.109375 55.859375 40.625 59.078125 
Q 38.140625 62.3125 33.203125 62.3125 
Q 28.265625 62.3125 25.78125 59.078125 
Q 23.296875 55.859375 23.296875 49.515625 
Q 23.296875 43.109375 25.78125 39.90625 
Q 28.265625 36.71875 33.203125 36.71875 
z
" id="DejaVuSans-Bold-57"/>
     </defs>
     <g transform="translate(434.224145 137.829668)scale(0.04 -0.04)">
      <use xlink:href="#DejaVuSans-Bold-50"/>
      <use x="69.580078" xlink:href="#DejaVuSans-Bold-57"/>
      <use x="139.160156" xlink:href="#DejaVuSans-Bold-65"/>
     </g>
    </g>
   </g>
   <g id="text_17">
    <g clip-path="url(#p2b63e034b5)">
     <!-- 4AA5 -->
     <g transform="translate(114.627345 141.862935)scale(0.04 -0.04)">
      <use xlink:href="#DejaVuSans-Bold-52"/>
      <use x="69.580078" xlink:href="#DejaVuSans-Bold-65"/>
      <use x="146.972656" xlink:href="#DejaVuSans-Bold-65"/>
      <use x="224.365234" xlink:href="#DejaVuSans-Bold-53"/>
     </g>
    </g>
   </g>
   <g id="text_18">
    <g clip-path="url(#p2b63e034b5)">
     <!-- AA0 -->
     <g transform="translate(207.959591 330.867036)scale(0.04 -0.04)">
      <use xlink:href="#DejaVuSans-Bold-65"/>
      <use x="77.392578" xlink:href="#DejaVuSans-Bold-65"/>
      <use x="154.785156" xlink:href="#DejaVuSans-Bold-48"/>
     </g>
    </g>
   </g>
   <g id="text_19">
    <g clip-path="url(#p2b63e034b5)">
     <!-- 3KWB -->
     <defs>
      <path d="M 2.984375 72.90625 
L 21 72.90625 
L 33.59375 19.921875 
L 46.09375 72.90625 
L 64.203125 72.90625 
L 76.703125 19.921875 
L 89.3125 72.90625 
L 107.171875 72.90625 
L 89.984375 0 
L 68.3125 0 
L 55.078125 55.421875 
L 42 0 
L 20.3125 0 
z
" id="DejaVuSans-Bold-87"/>
     </defs>
     <g transform="translate(106.605172 195.78041)scale(0.04 -0.04)">
      <use xlink:href="#DejaVuSans-Bold-51"/>
      <use x="69.580078" xlink:href="#DejaVuSans-Bold-75"/>
      <use x="147.070312" xlink:href="#DejaVuSans-Bold-87"/>
      <use x="257.373047" xlink:href="#DejaVuSans-Bold-66"/>
     </g>
    </g>
   </g>
   <g id="text_20">
    <g clip-path="url(#p2b63e034b5)">
     <!-- 4AA0 -->
     <g transform="translate(214.167038 262.287306)scale(0.04 -0.04)">
      <use xlink:href="#DejaVuSans-Bold-52"/>
      <use x="69.580078" xlink:href="#DejaVuSans-Bold-65"/>
      <use x="146.972656" xlink:href="#DejaVuSans-Bold-65"/>
      <use x="224.365234" xlink:href="#DejaVuSans-Bold-48"/>
     </g>
    </g>
   </g>
   <g id="text_21">
    <g clip-path="url(#p2b63e034b5)">
     <!-- 4AAC -->
     <g transform="translate(140.74329 245.894972)scale(0.04 -0.04)">
      <use xlink:href="#DejaVuSans-Bold-52"/>
      <use x="69.580078" xlink:href="#DejaVuSans-Bold-65"/>
      <use x="146.972656" xlink:href="#DejaVuSans-Bold-65"/>
      <use x="224.365234" xlink:href="#DejaVuSans-Bold-67"/>
     </g>
    </g>
   </g>
  </g>
 </g>
 <defs>
  <clipPath id="p2b63e034b5">
   <rect height="345.6" width="460.8" x="0" y="0"/>
  </clipPath>
 </defs>
</svg>
