<?xml version="1.0" encoding="utf-8" standalone="no"?>
<!DOCTYPE svg PUBLIC "-//W3C//DTD SVG 1.1//EN"
  "http://www.w3.org/Graphics/SVG/1.1/DTD/svg11.dtd">
<!-- Created with matplotlib (https://matplotlib.org/) -->
<svg height="576pt" version="1.1" viewBox="0 0 864 576" width="864pt" xmlns="http://www.w3.org/2000/svg" xmlns:xlink="http://www.w3.org/1999/xlink">
 <defs>
  <style type="text/css">
*{stroke-linecap:butt;stroke-linejoin:round;}
  </style>
 </defs>
 <g id="figure_1">
  <g id="patch_1">
   <path d="M 0 576 
L 864 576 
L 864 0 
L 0 0 
z
" style="fill:#ffffff;"/>
  </g>
  <g id="axes_1">
   <g id="LineCollection_1">
    <path clip-path="url(#p296f7893f5)" d="M 371.95931 102.574199 
L 355.962072 144.647757 
" style="fill:none;stroke:#000000;stroke-width:0.5;"/>
    <path clip-path="url(#p296f7893f5)" d="M 208.773223 237.749736 
L 181.421949 223.293042 
" style="fill:none;stroke:#000000;stroke-width:0.5;"/>
    <path clip-path="url(#p296f7893f5)" d="M 208.773223 237.749736 
L 240.906969 223.413494 
" style="fill:none;stroke:#000000;stroke-width:0.5;"/>
    <path clip-path="url(#p296f7893f5)" d="M 329.978634 268.766495 
L 338.634721 199.424722 
" style="fill:none;stroke:#000000;stroke-width:0.5;"/>
    <path clip-path="url(#p296f7893f5)" d="M 329.978634 268.766495 
L 332.253582 323.400806 
" style="fill:none;stroke:#000000;stroke-width:0.5;"/>
    <path clip-path="url(#p296f7893f5)" d="M 210.967077 214.767622 
L 181.421949 223.293042 
" style="fill:none;stroke:#000000;stroke-width:0.5;"/>
    <path clip-path="url(#p296f7893f5)" d="M 210.967077 214.767622 
L 240.906969 223.413494 
" style="fill:none;stroke:#000000;stroke-width:0.5;"/>
    <path clip-path="url(#p296f7893f5)" d="M 328.284887 83.639194 
L 331.511379 134.873078 
" style="fill:none;stroke:#000000;stroke-width:0.5;"/>
    <path clip-path="url(#p296f7893f5)" d="M 355.962072 144.647757 
L 338.634721 199.424722 
" style="fill:none;stroke:#000000;stroke-width:0.5;"/>
    <path clip-path="url(#p296f7893f5)" d="M 371.631205 172.635477 
L 338.634721 199.424722 
" style="fill:none;stroke:#000000;stroke-width:0.5;"/>
    <path clip-path="url(#p296f7893f5)" d="M 371.631205 172.635477 
L 397.159372 171.356939 
" style="fill:none;stroke:#000000;stroke-width:0.5;"/>
    <path clip-path="url(#p296f7893f5)" d="M 338.634721 199.424722 
L 288.768119 214.277566 
" style="fill:none;stroke:#000000;stroke-width:0.5;"/>
    <path clip-path="url(#p296f7893f5)" d="M 338.634721 199.424722 
L 368.83036 221.963609 
" style="fill:none;stroke:#000000;stroke-width:0.5;"/>
    <path clip-path="url(#p296f7893f5)" d="M 338.634721 199.424722 
L 362.307153 237.937193 
" style="fill:none;stroke:#000000;stroke-width:0.5;"/>
    <path clip-path="url(#p296f7893f5)" d="M 338.634721 199.424722 
L 331.511379 134.873078 
" style="fill:none;stroke:#000000;stroke-width:0.5;"/>
    <path clip-path="url(#p296f7893f5)" d="M 338.634721 199.424722 
L 346.601433 259.486375 
" style="fill:none;stroke:#000000;stroke-width:0.5;"/>
    <path clip-path="url(#p296f7893f5)" d="M 338.634721 199.424722 
L 307.233061 156.295501 
" style="fill:none;stroke:#000000;stroke-width:0.5;"/>
    <path clip-path="url(#p296f7893f5)" d="M 338.634721 199.424722 
L 373.827197 190.540789 
" style="fill:none;stroke:#000000;stroke-width:0.5;"/>
    <path clip-path="url(#p296f7893f5)" d="M 346.601433 259.486375 
L 359.172953 303.869899 
" style="fill:none;stroke:#000000;stroke-width:0.5;"/>
    <path clip-path="url(#p296f7893f5)" d="M 285.724501 118.359285 
L 307.233061 156.295501 
" style="fill:none;stroke:#000000;stroke-width:0.5;"/>
    <path clip-path="url(#p296f7893f5)" d="M 397.159372 171.356939 
L 373.827197 190.540789 
" style="fill:none;stroke:#000000;stroke-width:0.5;"/>
    <path clip-path="url(#p296f7893f5)" d="M 368.83036 221.963609 
L 386.765565 248.437446 
" style="fill:none;stroke:#000000;stroke-width:0.5;"/>
    <path clip-path="url(#p296f7893f5)" d="M 288.768119 214.277566 
L 240.906969 223.413494 
" style="fill:none;stroke:#000000;stroke-width:0.5;"/>
    <path clip-path="url(#p296f7893f5)" d="M 386.765565 248.437446 
L 362.307153 237.937193 
" style="fill:none;stroke:#000000;stroke-width:0.5;"/>
    <path clip-path="url(#p296f7893f5)" d="M 148.926878 215.200285 
L 181.421949 223.293042 
" style="fill:none;stroke:#000000;stroke-width:0.5;"/>
    <path clip-path="url(#p296f7893f5)" d="M 148.926878 215.200285 
L 123.204264 207.211865 
" style="fill:none;stroke:#000000;stroke-width:0.5;"/>
   </g>
   <g id="PathCollection_1">
    <defs>
     <path d="M 0 1.581139 
C 0.419323 1.581139 0.821528 1.41454 1.118034 1.118034 
C 1.41454 0.821528 1.581139 0.419323 1.581139 0 
C 1.581139 -0.419323 1.41454 -0.821528 1.118034 -1.118034 
C 0.821528 -1.41454 0.419323 -1.581139 0 -1.581139 
C -0.419323 -1.581139 -0.821528 -1.41454 -1.118034 -1.118034 
C -1.41454 -0.821528 -1.581139 -0.419323 -1.581139 0 
C -1.581139 0.419323 -1.41454 0.821528 -1.118034 1.118034 
C -0.821528 1.41454 -0.419323 1.581139 0 1.581139 
z
" id="C0_0_caabeaaf8c"/>
    </defs>
    <g clip-path="url(#p296f7893f5)">
     <use style="fill:#808080;stroke:#808080;" x="371.95931" xlink:href="#C0_0_caabeaaf8c" y="102.574199"/>
    </g>
    <g clip-path="url(#p296f7893f5)">
     <use style="fill:#808080;stroke:#808080;" x="208.773223" xlink:href="#C0_0_caabeaaf8c" y="237.749736"/>
    </g>
    <g clip-path="url(#p296f7893f5)">
     <use style="fill:#808080;stroke:#808080;" x="329.978634" xlink:href="#C0_0_caabeaaf8c" y="268.766495"/>
    </g>
    <g clip-path="url(#p296f7893f5)">
     <use style="fill:#808080;stroke:#808080;" x="210.967077" xlink:href="#C0_0_caabeaaf8c" y="214.767622"/>
    </g>
    <g clip-path="url(#p296f7893f5)">
     <use style="fill:#808080;stroke:#808080;" x="328.284887" xlink:href="#C0_0_caabeaaf8c" y="83.639194"/>
    </g>
    <g clip-path="url(#p296f7893f5)">
     <use style="fill:#808080;stroke:#808080;" x="355.962072" xlink:href="#C0_0_caabeaaf8c" y="144.647757"/>
    </g>
    <g clip-path="url(#p296f7893f5)">
     <use style="fill:#808080;stroke:#808080;" x="371.631205" xlink:href="#C0_0_caabeaaf8c" y="172.635477"/>
    </g>
    <g clip-path="url(#p296f7893f5)">
     <use style="fill:#808080;stroke:#808080;" x="338.634721" xlink:href="#C0_0_caabeaaf8c" y="199.424722"/>
    </g>
    <g clip-path="url(#p296f7893f5)">
     <use style="fill:#808080;stroke:#808080;" x="346.601433" xlink:href="#C0_0_caabeaaf8c" y="259.486375"/>
    </g>
    <g clip-path="url(#p296f7893f5)">
     <use style="fill:#808080;stroke:#808080;" x="285.724501" xlink:href="#C0_0_caabeaaf8c" y="118.359285"/>
    </g>
    <g clip-path="url(#p296f7893f5)">
     <use style="fill:#808080;stroke:#808080;" x="332.253582" xlink:href="#C0_0_caabeaaf8c" y="323.400806"/>
    </g>
    <g clip-path="url(#p296f7893f5)">
     <use style="fill:#808080;stroke:#808080;" x="331.511379" xlink:href="#C0_0_caabeaaf8c" y="134.873078"/>
    </g>
    <g clip-path="url(#p296f7893f5)">
     <use style="fill:#808080;stroke:#808080;" x="397.159372" xlink:href="#C0_0_caabeaaf8c" y="171.356939"/>
    </g>
    <g clip-path="url(#p296f7893f5)">
     <use style="fill:#808080;stroke:#808080;" x="368.83036" xlink:href="#C0_0_caabeaaf8c" y="221.963609"/>
    </g>
    <g clip-path="url(#p296f7893f5)">
     <use style="fill:#808080;stroke:#808080;" x="288.768119" xlink:href="#C0_0_caabeaaf8c" y="214.277566"/>
    </g>
    <g clip-path="url(#p296f7893f5)">
     <use style="fill:#808080;stroke:#808080;" x="240.906969" xlink:href="#C0_0_caabeaaf8c" y="223.413494"/>
    </g>
    <g clip-path="url(#p296f7893f5)">
     <use style="fill:#808080;stroke:#808080;" x="359.172953" xlink:href="#C0_0_caabeaaf8c" y="303.869899"/>
    </g>
    <g clip-path="url(#p296f7893f5)">
     <use style="fill:#808080;stroke:#808080;" x="307.233061" xlink:href="#C0_0_caabeaaf8c" y="156.295501"/>
    </g>
    <g clip-path="url(#p296f7893f5)">
     <use style="fill:#808080;stroke:#808080;" x="386.765565" xlink:href="#C0_0_caabeaaf8c" y="248.437446"/>
    </g>
    <g clip-path="url(#p296f7893f5)">
     <use style="fill:#808080;stroke:#808080;" x="148.926878" xlink:href="#C0_0_caabeaaf8c" y="215.200285"/>
    </g>
    <g clip-path="url(#p296f7893f5)">
     <use style="fill:#808080;stroke:#808080;" x="362.307153" xlink:href="#C0_0_caabeaaf8c" y="237.937193"/>
    </g>
    <g clip-path="url(#p296f7893f5)">
     <use style="fill:#808080;stroke:#808080;" x="181.421949" xlink:href="#C0_0_caabeaaf8c" y="223.293042"/>
    </g>
    <g clip-path="url(#p296f7893f5)">
     <use style="fill:#808080;stroke:#808080;" x="123.204264" xlink:href="#C0_0_caabeaaf8c" y="207.211865"/>
    </g>
    <g clip-path="url(#p296f7893f5)">
     <use style="fill:#808080;stroke:#808080;" x="373.827197" xlink:href="#C0_0_caabeaaf8c" y="190.540789"/>
    </g>
   </g>
   <g id="text_1">
    <g clip-path="url(#p296f7893f5)">
     <!-- Pff0160C -->
     <defs>
      <path d="M 9.1875 72.90625 
L 40.375 72.90625 
Q 54.296875 72.90625 61.734375 66.71875 
Q 69.1875 60.546875 69.1875 49.125 
Q 69.1875 37.640625 61.734375 31.46875 
Q 54.296875 25.296875 40.375 25.296875 
L 27.984375 25.296875 
L 27.984375 0 
L 9.1875 0 
z
M 27.984375 59.28125 
L 27.984375 38.921875 
L 38.375 38.921875 
Q 43.84375 38.921875 46.828125 41.578125 
Q 49.8125 44.234375 49.8125 49.125 
Q 49.8125 54 46.828125 56.640625 
Q 43.84375 59.28125 38.375 59.28125 
z
" id="DejaVuSans-Bold-80"/>
      <path d="M 44.390625 75.984375 
L 44.390625 64.5 
L 34.71875 64.5 
Q 31 64.5 29.53125 63.15625 
Q 28.078125 61.8125 28.078125 58.5 
L 28.078125 54.6875 
L 43.015625 54.6875 
L 43.015625 42.1875 
L 28.078125 42.1875 
L 28.078125 0 
L 10.59375 0 
L 10.59375 42.1875 
L 1.90625 42.1875 
L 1.90625 54.6875 
L 10.59375 54.6875 
L 10.59375 58.5 
Q 10.59375 67.4375 15.578125 71.703125 
Q 20.5625 75.984375 31 75.984375 
z
" id="DejaVuSans-Bold-102"/>
      <path d="M 46 36.53125 
Q 46 50.203125 43.4375 55.78125 
Q 40.875 61.375 34.8125 61.375 
Q 28.765625 61.375 26.171875 55.78125 
Q 23.578125 50.203125 23.578125 36.53125 
Q 23.578125 22.703125 26.171875 17.03125 
Q 28.765625 11.375 34.8125 11.375 
Q 40.828125 11.375 43.40625 17.03125 
Q 46 22.703125 46 36.53125 
z
M 64.796875 36.375 
Q 64.796875 18.265625 56.984375 8.421875 
Q 49.171875 -1.421875 34.8125 -1.421875 
Q 20.40625 -1.421875 12.59375 8.421875 
Q 4.78125 18.265625 4.78125 36.375 
Q 4.78125 54.546875 12.59375 64.375 
Q 20.40625 74.21875 34.8125 74.21875 
Q 49.171875 74.21875 56.984375 64.375 
Q 64.796875 54.546875 64.796875 36.375 
z
" id="DejaVuSans-Bold-48"/>
      <path d="M 11.71875 12.984375 
L 28.328125 12.984375 
L 28.328125 60.109375 
L 11.28125 56.59375 
L 11.28125 69.390625 
L 28.21875 72.90625 
L 46.09375 72.90625 
L 46.09375 12.984375 
L 62.703125 12.984375 
L 62.703125 0 
L 11.71875 0 
z
" id="DejaVuSans-Bold-49"/>
      <path d="M 36.1875 35.984375 
Q 31.25 35.984375 28.78125 32.78125 
Q 26.3125 29.59375 26.3125 23.1875 
Q 26.3125 16.796875 28.78125 13.59375 
Q 31.25 10.40625 36.1875 10.40625 
Q 41.15625 10.40625 43.625 13.59375 
Q 46.09375 16.796875 46.09375 23.1875 
Q 46.09375 29.59375 43.625 32.78125 
Q 41.15625 35.984375 36.1875 35.984375 
z
M 59.421875 71 
L 59.421875 57.515625 
Q 54.78125 59.71875 50.671875 60.765625 
Q 46.578125 61.8125 42.671875 61.8125 
Q 34.28125 61.8125 29.59375 57.140625 
Q 24.90625 52.484375 24.125 43.3125 
Q 27.34375 45.703125 31.09375 46.890625 
Q 34.859375 48.09375 39.3125 48.09375 
Q 50.484375 48.09375 57.34375 41.546875 
Q 64.203125 35.015625 64.203125 24.421875 
Q 64.203125 12.703125 56.53125 5.640625 
Q 48.875 -1.421875 35.984375 -1.421875 
Q 21.78125 -1.421875 13.984375 8.171875 
Q 6.203125 17.78125 6.203125 35.40625 
Q 6.203125 53.46875 15.3125 63.796875 
Q 24.421875 74.125 40.28125 74.125 
Q 45.3125 74.125 50.046875 73.34375 
Q 54.78125 72.5625 59.421875 71 
z
" id="DejaVuSans-Bold-54"/>
      <path d="M 67 4 
Q 61.8125 1.3125 56.203125 -0.046875 
Q 50.59375 -1.421875 44.484375 -1.421875 
Q 26.265625 -1.421875 15.625 8.765625 
Q 4.984375 18.953125 4.984375 36.375 
Q 4.984375 53.859375 15.625 64.03125 
Q 26.265625 74.21875 44.484375 74.21875 
Q 50.59375 74.21875 56.203125 72.84375 
Q 61.8125 71.484375 67 68.796875 
L 67 53.71875 
Q 61.765625 57.28125 56.6875 58.9375 
Q 51.609375 60.59375 46 60.59375 
Q 35.9375 60.59375 30.171875 54.140625 
Q 24.421875 47.703125 24.421875 36.375 
Q 24.421875 25.09375 30.171875 18.640625 
Q 35.9375 12.203125 46 12.203125 
Q 51.609375 12.203125 56.6875 13.859375 
Q 61.765625 15.53125 67 19.09375 
z
" id="DejaVuSans-Bold-67"/>
     </defs>
     <g transform="translate(318.154721 197.760972)scale(0.08 -0.08)">
      <use xlink:href="#DejaVuSans-Bold-80"/>
      <use x="73.291016" xlink:href="#DejaVuSans-Bold-102"/>
      <use x="116.796875" xlink:href="#DejaVuSans-Bold-102"/>
      <use x="160.302734" xlink:href="#DejaVuSans-Bold-48"/>
      <use x="229.882812" xlink:href="#DejaVuSans-Bold-49"/>
      <use x="299.462891" xlink:href="#DejaVuSans-Bold-54"/>
      <use x="369.042969" xlink:href="#DejaVuSans-Bold-48"/>
      <use x="438.623047" xlink:href="#DejaVuSans-Bold-67"/>
     </g>
    </g>
   </g>
   <g id="text_2">
    <g clip-path="url(#p296f7893f5)">
     <!-- Dhodh -->
     <defs>
      <path d="M 27.984375 58.6875 
L 27.984375 14.203125 
L 34.71875 14.203125 
Q 46.234375 14.203125 52.3125 19.921875 
Q 58.40625 25.640625 58.40625 36.53125 
Q 58.40625 47.359375 52.34375 53.015625 
Q 46.296875 58.6875 34.71875 58.6875 
z
M 9.1875 72.90625 
L 29 72.90625 
Q 45.609375 72.90625 53.734375 70.53125 
Q 61.859375 68.171875 67.671875 62.5 
Q 72.796875 57.5625 75.28125 51.109375 
Q 77.78125 44.671875 77.78125 36.53125 
Q 77.78125 28.265625 75.28125 21.796875 
Q 72.796875 15.328125 67.671875 10.40625 
Q 61.8125 4.734375 53.609375 2.359375 
Q 45.40625 0 29 0 
L 9.1875 0 
z
" id="DejaVuSans-Bold-68"/>
      <path d="M 63.375 33.296875 
L 63.375 0 
L 45.796875 0 
L 45.796875 5.421875 
L 45.796875 25.390625 
Q 45.796875 32.5625 45.484375 35.25 
Q 45.171875 37.9375 44.390625 39.203125 
Q 43.359375 40.921875 41.59375 41.875 
Q 39.84375 42.828125 37.59375 42.828125 
Q 32.125 42.828125 29 38.59375 
Q 25.875 34.375 25.875 26.90625 
L 25.875 0 
L 8.40625 0 
L 8.40625 75.984375 
L 25.875 75.984375 
L 25.875 46.6875 
Q 29.828125 51.46875 34.265625 53.734375 
Q 38.71875 56 44.09375 56 
Q 53.5625 56 58.46875 50.1875 
Q 63.375 44.390625 63.375 33.296875 
z
" id="DejaVuSans-Bold-104"/>
      <path d="M 34.421875 43.5 
Q 28.609375 43.5 25.5625 39.328125 
Q 22.515625 35.15625 22.515625 27.296875 
Q 22.515625 19.4375 25.5625 15.25 
Q 28.609375 11.078125 34.421875 11.078125 
Q 40.140625 11.078125 43.15625 15.25 
Q 46.1875 19.4375 46.1875 27.296875 
Q 46.1875 35.15625 43.15625 39.328125 
Q 40.140625 43.5 34.421875 43.5 
z
M 34.421875 56 
Q 48.53125 56 56.46875 48.375 
Q 64.40625 40.765625 64.40625 27.296875 
Q 64.40625 13.8125 56.46875 6.1875 
Q 48.53125 -1.421875 34.421875 -1.421875 
Q 20.265625 -1.421875 12.28125 6.1875 
Q 4.296875 13.8125 4.296875 27.296875 
Q 4.296875 40.765625 12.28125 48.375 
Q 20.265625 56 34.421875 56 
z
" id="DejaVuSans-Bold-111"/>
      <path d="M 45.609375 46.6875 
L 45.609375 75.984375 
L 63.1875 75.984375 
L 63.1875 0 
L 45.609375 0 
L 45.609375 7.90625 
Q 42 3.078125 37.640625 0.828125 
Q 33.296875 -1.421875 27.59375 -1.421875 
Q 17.484375 -1.421875 10.984375 6.609375 
Q 4.5 14.65625 4.5 27.296875 
Q 4.5 39.9375 10.984375 47.96875 
Q 17.484375 56 27.59375 56 
Q 33.25 56 37.625 53.734375 
Q 42 51.46875 45.609375 46.6875 
z
M 34.078125 11.28125 
Q 39.703125 11.28125 42.65625 15.375 
Q 45.609375 19.484375 45.609375 27.296875 
Q 45.609375 35.109375 42.65625 39.203125 
Q 39.703125 43.3125 34.078125 43.3125 
Q 28.515625 43.3125 25.5625 39.203125 
Q 22.609375 35.109375 22.609375 27.296875 
Q 22.609375 19.484375 25.5625 15.375 
Q 28.515625 11.28125 34.078125 11.28125 
z
" id="DejaVuSans-Bold-100"/>
     </defs>
     <g transform="translate(166.795074 221.629292)scale(0.08 -0.08)">
      <use xlink:href="#DejaVuSans-Bold-68"/>
      <use x="83.007812" xlink:href="#DejaVuSans-Bold-104"/>
      <use x="154.199219" xlink:href="#DejaVuSans-Bold-111"/>
      <use x="222.900391" xlink:href="#DejaVuSans-Bold-100"/>
      <use x="294.482422" xlink:href="#DejaVuSans-Bold-104"/>
     </g>
    </g>
   </g>
   <g id="text_3">
    <g clip-path="url(#p296f7893f5)">
     <!-- 4ORI -->
     <defs>
      <path d="M 36.8125 57.421875 
L 16.21875 26.90625 
L 36.8125 26.90625 
z
M 33.6875 72.90625 
L 54.59375 72.90625 
L 54.59375 26.90625 
L 64.984375 26.90625 
L 64.984375 13.28125 
L 54.59375 13.28125 
L 54.59375 0 
L 36.8125 0 
L 36.8125 13.28125 
L 4.5 13.28125 
L 4.5 29.390625 
z
" id="DejaVuSans-Bold-52"/>
      <path d="M 42.484375 60.59375 
Q 33.890625 60.59375 29.15625 54.25 
Q 24.421875 47.90625 24.421875 36.375 
Q 24.421875 24.90625 29.15625 18.546875 
Q 33.890625 12.203125 42.484375 12.203125 
Q 51.125 12.203125 55.859375 18.546875 
Q 60.59375 24.90625 60.59375 36.375 
Q 60.59375 47.90625 55.859375 54.25 
Q 51.125 60.59375 42.484375 60.59375 
z
M 42.484375 74.21875 
Q 60.0625 74.21875 70.015625 64.15625 
Q 79.984375 54.109375 79.984375 36.375 
Q 79.984375 18.703125 70.015625 8.640625 
Q 60.0625 -1.421875 42.484375 -1.421875 
Q 24.953125 -1.421875 14.96875 8.640625 
Q 4.984375 18.703125 4.984375 36.375 
Q 4.984375 54.109375 14.96875 64.15625 
Q 24.953125 74.21875 42.484375 74.21875 
z
" id="DejaVuSans-Bold-79"/>
      <path d="M 35.890625 40.578125 
Q 41.796875 40.578125 44.359375 42.765625 
Q 46.921875 44.96875 46.921875 50 
Q 46.921875 54.984375 44.359375 57.125 
Q 41.796875 59.28125 35.890625 59.28125 
L 27.984375 59.28125 
L 27.984375 40.578125 
z
M 27.984375 27.59375 
L 27.984375 0 
L 9.1875 0 
L 9.1875 72.90625 
L 37.890625 72.90625 
Q 52.296875 72.90625 59 68.0625 
Q 65.71875 63.234375 65.71875 52.78125 
Q 65.71875 45.5625 62.21875 40.921875 
Q 58.734375 36.28125 51.703125 34.078125 
Q 55.5625 33.203125 58.609375 30.09375 
Q 61.671875 27 64.796875 20.703125 
L 75 0 
L 54.984375 0 
L 46.09375 18.109375 
Q 43.40625 23.578125 40.640625 25.578125 
Q 37.890625 27.59375 33.296875 27.59375 
z
" id="DejaVuSans-Bold-82"/>
      <path d="M 9.1875 72.90625 
L 27.984375 72.90625 
L 27.984375 0 
L 9.1875 0 
z
" id="DejaVuSans-Bold-73"/>
     </defs>
     <g style="fill:#008000;" transform="translate(202.053301 236.709892)scale(0.05 -0.05)">
      <use xlink:href="#DejaVuSans-Bold-52"/>
      <use x="69.580078" xlink:href="#DejaVuSans-Bold-79"/>
      <use x="154.589844" xlink:href="#DejaVuSans-Bold-82"/>
      <use x="231.591797" xlink:href="#DejaVuSans-Bold-73"/>
     </g>
    </g>
   </g>
   <g id="text_4">
    <g clip-path="url(#p296f7893f5)">
     <!-- 6GJG -->
     <defs>
      <path d="M 74.703125 5.421875 
Q 67.671875 2 60.109375 0.28125 
Q 52.546875 -1.421875 44.484375 -1.421875 
Q 26.265625 -1.421875 15.625 8.765625 
Q 4.984375 18.953125 4.984375 36.375 
Q 4.984375 54 15.8125 64.109375 
Q 26.65625 74.21875 45.515625 74.21875 
Q 52.78125 74.21875 59.4375 72.84375 
Q 66.109375 71.484375 72.015625 68.796875 
L 72.015625 53.71875 
Q 65.921875 57.171875 59.890625 58.875 
Q 53.859375 60.59375 47.796875 60.59375 
Q 36.578125 60.59375 30.5 54.3125 
Q 24.421875 48.046875 24.421875 36.375 
Q 24.421875 24.8125 30.28125 18.5 
Q 36.140625 12.203125 46.921875 12.203125 
Q 49.859375 12.203125 52.375 12.5625 
Q 54.890625 12.9375 56.890625 13.71875 
L 56.890625 27.875 
L 45.40625 27.875 
L 45.40625 40.484375 
L 74.703125 40.484375 
z
" id="DejaVuSans-Bold-71"/>
      <path d="M 9.1875 72.90625 
L 27.984375 72.90625 
L 27.984375 7.078125 
Q 27.984375 -6.546875 20.578125 -13.28125 
Q 13.1875 -20.015625 -1.8125 -20.015625 
L -5.609375 -20.015625 
L -5.609375 -5.8125 
L -2.6875 -5.8125 
Q 3.171875 -5.8125 6.171875 -2.53125 
Q 9.1875 0.734375 9.1875 7.078125 
z
" id="DejaVuSans-Bold-74"/>
     </defs>
     <g style="fill:#008000;" transform="translate(323.205196 267.726651)scale(0.05 -0.05)">
      <use xlink:href="#DejaVuSans-Bold-54"/>
      <use x="69.580078" xlink:href="#DejaVuSans-Bold-71"/>
      <use x="151.660156" xlink:href="#DejaVuSans-Bold-74"/>
      <use x="188.867188" xlink:href="#DejaVuSans-Bold-71"/>
     </g>
    </g>
   </g>
   <g id="text_5">
    <g clip-path="url(#p296f7893f5)">
     <!-- 4OQV -->
     <defs>
      <path d="M 44.484375 -1.3125 
L 43.015625 -1.3125 
Q 25 -1.3125 14.984375 8.640625 
Q 4.984375 18.609375 4.984375 36.375 
Q 4.984375 54.109375 14.96875 64.15625 
Q 24.953125 74.21875 42.484375 74.21875 
Q 60.203125 74.21875 70.09375 64.25 
Q 79.984375 54.296875 79.984375 36.375 
Q 79.984375 24.078125 74.734375 15.1875 
Q 69.484375 6.296875 59.625 1.8125 
L 74.3125 -14.59375 
L 56.390625 -14.59375 
z
M 42.484375 60.59375 
Q 33.890625 60.59375 29.15625 54.25 
Q 24.421875 47.90625 24.421875 36.375 
Q 24.421875 24.65625 29.046875 18.421875 
Q 33.6875 12.203125 42.484375 12.203125 
Q 51.125 12.203125 55.859375 18.546875 
Q 60.59375 24.90625 60.59375 36.375 
Q 60.59375 47.90625 55.859375 54.25 
Q 51.125 60.59375 42.484375 60.59375 
z
" id="DejaVuSans-Bold-81"/>
      <path d="M 0.484375 72.90625 
L 19.390625 72.90625 
L 38.71875 19.09375 
L 58.015625 72.90625 
L 76.90625 72.90625 
L 49.90625 0 
L 27.484375 0 
z
" id="DejaVuSans-Bold-86"/>
     </defs>
     <g style="fill:#008000;" transform="translate(203.042077 213.727778)scale(0.05 -0.05)">
      <use xlink:href="#DejaVuSans-Bold-52"/>
      <use x="69.580078" xlink:href="#DejaVuSans-Bold-79"/>
      <use x="154.589844" xlink:href="#DejaVuSans-Bold-81"/>
      <use x="239.599609" xlink:href="#DejaVuSans-Bold-86"/>
     </g>
    </g>
   </g>
   <g id="text_6">
    <g clip-path="url(#p296f7893f5)">
     <!-- 5TBO -->
     <defs>
      <path d="M 10.59375 72.90625 
L 57.328125 72.90625 
L 57.328125 59.078125 
L 25.59375 59.078125 
L 25.59375 47.796875 
Q 27.734375 48.390625 29.90625 48.703125 
Q 32.078125 49.03125 34.421875 49.03125 
Q 47.75 49.03125 55.171875 42.359375 
Q 62.59375 35.6875 62.59375 23.78125 
Q 62.59375 11.96875 54.515625 5.265625 
Q 46.4375 -1.421875 32.078125 -1.421875 
Q 25.875 -1.421875 19.796875 -0.21875 
Q 13.71875 0.984375 7.71875 3.421875 
L 7.71875 18.21875 
Q 13.671875 14.796875 19.015625 13.078125 
Q 24.359375 11.375 29.109375 11.375 
Q 35.9375 11.375 39.859375 14.71875 
Q 43.796875 18.0625 43.796875 23.78125 
Q 43.796875 29.546875 39.859375 32.859375 
Q 35.9375 36.1875 29.109375 36.1875 
Q 25.046875 36.1875 20.453125 35.125 
Q 15.875 34.078125 10.59375 31.890625 
z
" id="DejaVuSans-Bold-53"/>
      <path d="M 0.484375 72.90625 
L 67.671875 72.90625 
L 67.671875 58.6875 
L 43.5 58.6875 
L 43.5 0 
L 24.703125 0 
L 24.703125 58.6875 
L 0.484375 58.6875 
z
" id="DejaVuSans-Bold-84"/>
      <path d="M 38.375 44.671875 
Q 42.828125 44.671875 45.109375 46.625 
Q 47.40625 48.578125 47.40625 52.390625 
Q 47.40625 56.15625 45.109375 58.125 
Q 42.828125 60.109375 38.375 60.109375 
L 27.984375 60.109375 
L 27.984375 44.671875 
z
M 39.015625 12.796875 
Q 44.671875 12.796875 47.53125 15.1875 
Q 50.390625 17.578125 50.390625 22.40625 
Q 50.390625 27.15625 47.5625 29.515625 
Q 44.734375 31.890625 39.015625 31.890625 
L 27.984375 31.890625 
L 27.984375 12.796875 
z
M 56.5 39.015625 
Q 62.546875 37.25 65.859375 32.515625 
Q 69.1875 27.78125 69.1875 20.90625 
Q 69.1875 10.359375 62.0625 5.171875 
Q 54.9375 0 40.375 0 
L 9.1875 0 
L 9.1875 72.90625 
L 37.40625 72.90625 
Q 52.59375 72.90625 59.40625 68.3125 
Q 66.21875 63.71875 66.21875 53.609375 
Q 66.21875 48.296875 63.71875 44.5625 
Q 61.234375 40.828125 56.5 39.015625 
z
" id="DejaVuSans-Bold-66"/>
     </defs>
     <g style="fill:#008000;" transform="translate(348.486291 143.607913)scale(0.05 -0.05)">
      <use xlink:href="#DejaVuSans-Bold-53"/>
      <use x="69.580078" xlink:href="#DejaVuSans-Bold-84"/>
      <use x="137.792969" xlink:href="#DejaVuSans-Bold-66"/>
      <use x="214.013672" xlink:href="#DejaVuSans-Bold-79"/>
     </g>
    </g>
   </g>
   <g id="text_7">
    <g clip-path="url(#p296f7893f5)">
     <!-- 6E0B -->
     <defs>
      <path d="M 9.1875 72.90625 
L 59.90625 72.90625 
L 59.90625 58.6875 
L 27.984375 58.6875 
L 27.984375 45.125 
L 58.015625 45.125 
L 58.015625 30.90625 
L 27.984375 30.90625 
L 27.984375 14.203125 
L 60.984375 14.203125 
L 60.984375 0 
L 9.1875 0 
z
" id="DejaVuSans-Bold-69"/>
     </defs>
     <g style="fill:#008000;" transform="translate(364.539017 171.595634)scale(0.05 -0.05)">
      <use xlink:href="#DejaVuSans-Bold-54"/>
      <use x="69.580078" xlink:href="#DejaVuSans-Bold-69"/>
      <use x="137.890625" xlink:href="#DejaVuSans-Bold-48"/>
      <use x="207.470703" xlink:href="#DejaVuSans-Bold-66"/>
     </g>
    </g>
   </g>
   <g id="text_8">
    <g clip-path="url(#p296f7893f5)">
     <!-- 3I68 -->
     <defs>
      <path d="M 46.578125 39.3125 
Q 53.953125 37.40625 57.78125 32.6875 
Q 61.625 27.984375 61.625 20.703125 
Q 61.625 9.859375 53.3125 4.21875 
Q 45.015625 -1.421875 29.109375 -1.421875 
Q 23.484375 -1.421875 17.84375 -0.515625 
Q 12.203125 0.390625 6.6875 2.203125 
L 6.6875 16.703125 
Q 11.96875 14.0625 17.15625 12.71875 
Q 22.359375 11.375 27.390625 11.375 
Q 34.859375 11.375 38.84375 13.953125 
Q 42.828125 16.546875 42.828125 21.390625 
Q 42.828125 26.375 38.75 28.9375 
Q 34.671875 31.5 26.703125 31.5 
L 19.1875 31.5 
L 19.1875 43.609375 
L 27.09375 43.609375 
Q 34.1875 43.609375 37.640625 45.828125 
Q 41.109375 48.046875 41.109375 52.59375 
Q 41.109375 56.78125 37.734375 59.078125 
Q 34.375 61.375 28.21875 61.375 
Q 23.6875 61.375 19.046875 60.34375 
Q 14.40625 59.328125 9.8125 57.328125 
L 9.8125 71.09375 
Q 15.375 72.65625 20.84375 73.4375 
Q 26.3125 74.21875 31.59375 74.21875 
Q 45.796875 74.21875 52.84375 69.546875 
Q 59.90625 64.890625 59.90625 55.515625 
Q 59.90625 49.125 56.53125 45.046875 
Q 53.171875 40.96875 46.578125 39.3125 
z
" id="DejaVuSans-Bold-51"/>
      <path d="M 34.8125 32.625 
Q 29.546875 32.625 26.703125 29.734375 
Q 23.875 26.859375 23.875 21.484375 
Q 23.875 16.109375 26.703125 13.25 
Q 29.546875 10.40625 34.8125 10.40625 
Q 40.046875 10.40625 42.828125 13.25 
Q 45.609375 16.109375 45.609375 21.484375 
Q 45.609375 26.90625 42.828125 29.765625 
Q 40.046875 32.625 34.8125 32.625 
z
M 21.09375 38.8125 
Q 14.453125 40.828125 11.078125 44.96875 
Q 7.71875 49.125 7.71875 55.328125 
Q 7.71875 64.546875 14.59375 69.375 
Q 21.484375 74.21875 34.8125 74.21875 
Q 48.046875 74.21875 54.921875 69.40625 
Q 61.8125 64.59375 61.8125 55.328125 
Q 61.8125 49.125 58.421875 44.96875 
Q 55.03125 40.828125 48.390625 38.8125 
Q 55.8125 36.765625 59.59375 32.15625 
Q 63.375 27.546875 63.375 20.515625 
Q 63.375 9.671875 56.171875 4.125 
Q 48.96875 -1.421875 34.8125 -1.421875 
Q 20.609375 -1.421875 13.359375 4.125 
Q 6.109375 9.671875 6.109375 20.515625 
Q 6.109375 27.546875 9.890625 32.15625 
Q 13.671875 36.765625 21.09375 38.8125 
z
M 25.484375 53.421875 
Q 25.484375 49.078125 27.90625 46.734375 
Q 30.328125 44.390625 34.8125 44.390625 
Q 39.203125 44.390625 41.59375 46.734375 
Q 44 49.078125 44 53.421875 
Q 44 57.765625 41.59375 60.078125 
Q 39.203125 62.40625 34.8125 62.40625 
Q 30.328125 62.40625 27.90625 60.0625 
Q 25.484375 57.71875 25.484375 53.421875 
z
" id="DejaVuSans-Bold-56"/>
     </defs>
     <g style="fill:#008000;" transform="translate(340.452996 258.446531)scale(0.05 -0.05)">
      <use xlink:href="#DejaVuSans-Bold-51"/>
      <use x="69.580078" xlink:href="#DejaVuSans-Bold-73"/>
      <use x="106.787109" xlink:href="#DejaVuSans-Bold-54"/>
      <use x="176.367188" xlink:href="#DejaVuSans-Bold-56"/>
     </g>
    </g>
   </g>
   <g id="text_9">
    <g clip-path="url(#p296f7893f5)">
     <!-- 3SFK -->
     <defs>
      <path d="M 59.90625 70.609375 
L 59.90625 55.171875 
Q 53.90625 57.859375 48.1875 59.21875 
Q 42.484375 60.59375 37.40625 60.59375 
Q 30.671875 60.59375 27.4375 58.734375 
Q 24.21875 56.890625 24.21875 52.984375 
Q 24.21875 50.046875 26.390625 48.40625 
Q 28.5625 46.78125 34.28125 45.609375 
L 42.28125 44 
Q 54.4375 41.546875 59.5625 36.5625 
Q 64.703125 31.59375 64.703125 22.40625 
Q 64.703125 10.359375 57.546875 4.46875 
Q 50.390625 -1.421875 35.6875 -1.421875 
Q 28.765625 -1.421875 21.78125 -0.09375 
Q 14.796875 1.21875 7.8125 3.8125 
L 7.8125 19.671875 
Q 14.796875 15.96875 21.3125 14.078125 
Q 27.828125 12.203125 33.890625 12.203125 
Q 40.046875 12.203125 43.3125 14.25 
Q 46.578125 16.3125 46.578125 20.125 
Q 46.578125 23.53125 44.359375 25.390625 
Q 42.140625 27.25 35.5 28.71875 
L 28.21875 30.328125 
Q 17.28125 32.671875 12.21875 37.796875 
Q 7.171875 42.921875 7.171875 51.609375 
Q 7.171875 62.5 14.203125 68.359375 
Q 21.234375 74.21875 34.421875 74.21875 
Q 40.4375 74.21875 46.78125 73.3125 
Q 53.125 72.40625 59.90625 70.609375 
z
" id="DejaVuSans-Bold-83"/>
      <path d="M 9.1875 72.90625 
L 59.90625 72.90625 
L 59.90625 58.6875 
L 27.984375 58.6875 
L 27.984375 45.125 
L 58.015625 45.125 
L 58.015625 30.90625 
L 27.984375 30.90625 
L 27.984375 0 
L 9.1875 0 
z
" id="DejaVuSans-Bold-70"/>
      <path d="M 9.1875 72.90625 
L 27.984375 72.90625 
L 27.984375 46.296875 
L 55.078125 72.90625 
L 76.90625 72.90625 
L 41.796875 38.375 
L 80.515625 0 
L 56.984375 0 
L 27.984375 28.71875 
L 27.984375 0 
L 9.1875 0 
z
" id="DejaVuSans-Bold-75"/>
     </defs>
     <g style="fill:#008000;" transform="translate(324.326613 133.833234)scale(0.05 -0.05)">
      <use xlink:href="#DejaVuSans-Bold-51"/>
      <use x="69.580078" xlink:href="#DejaVuSans-Bold-83"/>
      <use x="141.601562" xlink:href="#DejaVuSans-Bold-70"/>
      <use x="209.912109" xlink:href="#DejaVuSans-Bold-75"/>
     </g>
    </g>
   </g>
   <g id="text_10">
    <g clip-path="url(#p296f7893f5)">
     <!-- 5BOO -->
     <g style="fill:#008000;" transform="translate(360.934657 220.923765)scale(0.05 -0.05)">
      <use xlink:href="#DejaVuSans-Bold-53"/>
      <use x="69.580078" xlink:href="#DejaVuSans-Bold-66"/>
      <use x="145.800781" xlink:href="#DejaVuSans-Bold-79"/>
      <use x="230.810547" xlink:href="#DejaVuSans-Bold-79"/>
     </g>
    </g>
   </g>
   <g id="text_11">
    <g clip-path="url(#p296f7893f5)">
     <!-- 4ORM -->
     <defs>
      <path d="M 9.1875 72.90625 
L 33.109375 72.90625 
L 49.703125 33.890625 
L 66.40625 72.90625 
L 90.28125 72.90625 
L 90.28125 0 
L 72.515625 0 
L 72.515625 53.328125 
L 55.71875 14.015625 
L 43.796875 14.015625 
L 27 53.328125 
L 27 0 
L 9.1875 0 
z
" id="DejaVuSans-Bold-77"/>
     </defs>
     <g style="fill:#008000;" transform="translate(280.490384 213.237723)scale(0.05 -0.05)">
      <use xlink:href="#DejaVuSans-Bold-52"/>
      <use x="69.580078" xlink:href="#DejaVuSans-Bold-79"/>
      <use x="154.589844" xlink:href="#DejaVuSans-Bold-82"/>
      <use x="231.591797" xlink:href="#DejaVuSans-Bold-77"/>
     </g>
    </g>
   </g>
   <g id="text_12">
    <g clip-path="url(#p296f7893f5)">
     <!-- 3I6R -->
     <g style="fill:#008000;" transform="translate(300.899077 155.255658)scale(0.05 -0.05)">
      <use xlink:href="#DejaVuSans-Bold-51"/>
      <use x="69.580078" xlink:href="#DejaVuSans-Bold-73"/>
      <use x="106.787109" xlink:href="#DejaVuSans-Bold-54"/>
      <use x="176.367188" xlink:href="#DejaVuSans-Bold-82"/>
     </g>
    </g>
   </g>
   <g id="text_13">
    <g clip-path="url(#p296f7893f5)">
     <!-- 2PRL -->
     <defs>
      <path d="M 28.8125 13.8125 
L 60.890625 13.8125 
L 60.890625 0 
L 7.90625 0 
L 7.90625 13.8125 
L 34.515625 37.3125 
Q 38.09375 40.53125 39.796875 43.609375 
Q 41.5 46.6875 41.5 50 
Q 41.5 55.125 38.0625 58.25 
Q 34.625 61.375 28.90625 61.375 
Q 24.515625 61.375 19.28125 59.5 
Q 14.0625 57.625 8.109375 53.90625 
L 8.109375 69.921875 
Q 14.453125 72.015625 20.65625 73.109375 
Q 26.859375 74.21875 32.8125 74.21875 
Q 45.90625 74.21875 53.15625 68.453125 
Q 60.40625 62.703125 60.40625 52.390625 
Q 60.40625 46.4375 57.328125 41.28125 
Q 54.25 36.140625 44.390625 27.484375 
z
" id="DejaVuSans-Bold-50"/>
      <path d="M 9.1875 72.90625 
L 27.984375 72.90625 
L 27.984375 14.203125 
L 60.984375 14.203125 
L 60.984375 0 
L 9.1875 0 
z
" id="DejaVuSans-Bold-76"/>
     </defs>
     <g style="fill:#008000;" transform="translate(141.837034 214.160441)scale(0.05 -0.05)">
      <use xlink:href="#DejaVuSans-Bold-50"/>
      <use x="69.580078" xlink:href="#DejaVuSans-Bold-80"/>
      <use x="142.871094" xlink:href="#DejaVuSans-Bold-82"/>
      <use x="219.873047" xlink:href="#DejaVuSans-Bold-76"/>
     </g>
    </g>
   </g>
   <g id="text_14">
    <g clip-path="url(#p296f7893f5)">
     <!-- 4RX0 -->
     <defs>
      <path d="M 49.8125 37.203125 
L 75.09375 0 
L 55.515625 0 
L 38.484375 24.90625 
L 21.578125 0 
L 1.90625 0 
L 27.203125 37.203125 
L 2.875 72.90625 
L 22.515625 72.90625 
L 38.484375 49.421875 
L 54.390625 72.90625 
L 74.125 72.90625 
z
" id="DejaVuSans-Bold-88"/>
     </defs>
     <g style="fill:#008000;" transform="translate(354.975903 236.897349)scale(0.05 -0.05)">
      <use xlink:href="#DejaVuSans-Bold-52"/>
      <use x="69.580078" xlink:href="#DejaVuSans-Bold-82"/>
      <use x="146.582031" xlink:href="#DejaVuSans-Bold-88"/>
      <use x="223.681641" xlink:href="#DejaVuSans-Bold-48"/>
     </g>
    </g>
   </g>
   <g id="text_15">
    <g clip-path="url(#p296f7893f5)">
     <!-- 3I65 -->
     <g style="fill:#008000;" transform="translate(367.67876 189.500945)scale(0.05 -0.05)">
      <use xlink:href="#DejaVuSans-Bold-51"/>
      <use x="69.580078" xlink:href="#DejaVuSans-Bold-73"/>
      <use x="106.787109" xlink:href="#DejaVuSans-Bold-54"/>
      <use x="176.367188" xlink:href="#DejaVuSans-Bold-53"/>
     </g>
    </g>
   </g>
   <g id="text_16">
    <g clip-path="url(#p296f7893f5)">
     <!-- 78Z -->
     <defs>
      <path d="M 6.6875 72.90625 
L 61.625 72.90625 
L 61.625 62.3125 
L 33.203125 0 
L 14.890625 0 
L 41.796875 59.078125 
L 6.6875 59.078125 
z
" id="DejaVuSans-Bold-55"/>
      <path d="M 5.609375 72.90625 
L 66.890625 72.90625 
L 66.890625 61.53125 
L 27.78125 14.203125 
L 68.015625 14.203125 
L 68.015625 0 
L 4.5 0 
L 4.5 11.375 
L 43.609375 58.6875 
L 5.609375 58.6875 
z
" id="DejaVuSans-Bold-90"/>
     </defs>
     <g style="fill:#800080;" transform="translate(366.667513 101.534356)scale(0.05 -0.05)">
      <use xlink:href="#DejaVuSans-Bold-55"/>
      <use x="69.580078" xlink:href="#DejaVuSans-Bold-56"/>
      <use x="139.160156" xlink:href="#DejaVuSans-Bold-90"/>
     </g>
    </g>
   </g>
   <g id="text_17">
    <g clip-path="url(#p296f7893f5)">
     <!-- D67 -->
     <g style="fill:#800080;" transform="translate(322.730591 82.59935)scale(0.05 -0.05)">
      <use xlink:href="#DejaVuSans-Bold-68"/>
      <use x="83.007812" xlink:href="#DejaVuSans-Bold-54"/>
      <use x="152.587891" xlink:href="#DejaVuSans-Bold-55"/>
     </g>
    </g>
   </g>
   <g id="text_18">
    <g clip-path="url(#p296f7893f5)">
     <!-- J5Z -->
     <g style="fill:#800080;" transform="translate(281.24208 117.319442)scale(0.05 -0.05)">
      <use xlink:href="#DejaVuSans-Bold-74"/>
      <use x="37.207031" xlink:href="#DejaVuSans-Bold-53"/>
      <use x="106.787109" xlink:href="#DejaVuSans-Bold-90"/>
     </g>
    </g>
   </g>
   <g id="text_19">
    <g clip-path="url(#p296f7893f5)">
     <!-- F1T -->
     <g style="fill:#800080;" transform="translate(327.100847 322.360962)scale(0.05 -0.05)">
      <use xlink:href="#DejaVuSans-Bold-70"/>
      <use x="68.310547" xlink:href="#DejaVuSans-Bold-49"/>
      <use x="137.890625" xlink:href="#DejaVuSans-Bold-84"/>
     </g>
    </g>
   </g>
   <g id="text_20">
    <g clip-path="url(#p296f7893f5)">
     <!-- JZ8 -->
     <g style="fill:#800080;" transform="translate(392.67695 170.317095)scale(0.05 -0.05)">
      <use xlink:href="#DejaVuSans-Bold-74"/>
      <use x="37.207031" xlink:href="#DejaVuSans-Bold-90"/>
      <use x="109.716797" xlink:href="#DejaVuSans-Bold-56"/>
     </g>
    </g>
   </g>
   <g id="text_21">
    <g clip-path="url(#p296f7893f5)">
     <!-- 2V6 -->
     <g style="fill:#800080;" transform="translate(235.493297 222.37365)scale(0.05 -0.05)">
      <use xlink:href="#DejaVuSans-Bold-50"/>
      <use x="69.580078" xlink:href="#DejaVuSans-Bold-86"/>
      <use x="146.972656" xlink:href="#DejaVuSans-Bold-54"/>
     </g>
    </g>
   </g>
   <g id="text_22">
    <g clip-path="url(#p296f7893f5)">
     <!-- J4Z -->
     <g style="fill:#800080;" transform="translate(354.690531 302.830055)scale(0.05 -0.05)">
      <use xlink:href="#DejaVuSans-Bold-74"/>
      <use x="37.207031" xlink:href="#DejaVuSans-Bold-52"/>
      <use x="106.787109" xlink:href="#DejaVuSans-Bold-90"/>
     </g>
    </g>
   </g>
   <g id="text_23">
    <g clip-path="url(#p296f7893f5)">
     <!-- D65 -->
     <g style="fill:#800080;" transform="translate(381.211268 247.397602)scale(0.05 -0.05)">
      <use xlink:href="#DejaVuSans-Bold-68"/>
      <use x="83.007812" xlink:href="#DejaVuSans-Bold-54"/>
      <use x="152.587891" xlink:href="#DejaVuSans-Bold-53"/>
     </g>
    </g>
   </g>
   <g id="text_24">
    <g clip-path="url(#p296f7893f5)">
     <!-- R2C -->
     <g style="fill:#800080;" transform="translate(117.705046 206.172021)scale(0.05 -0.05)">
      <use xlink:href="#DejaVuSans-Bold-82"/>
      <use x="77.001953" xlink:href="#DejaVuSans-Bold-50"/>
      <use x="146.582031" xlink:href="#DejaVuSans-Bold-67"/>
     </g>
    </g>
   </g>
  </g>
  <g id="axes_2">
   <g id="patch_2">
    <path d="M 473.236364 337.92 
L 777.6 337.92 
L 777.6 69.12 
L 473.236364 69.12 
z
" style="fill:#ffffff;"/>
   </g>
   <g id="matplotlib.axis_1">
    <g id="xtick_1">
     <g id="line2d_1">
      <defs>
       <path d="M 0 0 
L 0 3.5 
" id="mb1335d1dc9" style="stroke:#000000;stroke-width:0.8;"/>
      </defs>
      <g>
       <use style="stroke:#000000;stroke-width:0.8;" x="487.071074" xlink:href="#mb1335d1dc9" y="337.92"/>
      </g>
     </g>
     <g id="text_25">
      <!-- 0 -->
      <defs>
       <path d="M 31.78125 66.40625 
Q 24.171875 66.40625 20.328125 58.90625 
Q 16.5 51.421875 16.5 36.375 
Q 16.5 21.390625 20.328125 13.890625 
Q 24.171875 6.390625 31.78125 6.390625 
Q 39.453125 6.390625 43.28125 13.890625 
Q 47.125 21.390625 47.125 36.375 
Q 47.125 51.421875 43.28125 58.90625 
Q 39.453125 66.40625 31.78125 66.40625 
z
M 31.78125 74.21875 
Q 44.046875 74.21875 50.515625 64.515625 
Q 56.984375 54.828125 56.984375 36.375 
Q 56.984375 17.96875 50.515625 8.265625 
Q 44.046875 -1.421875 31.78125 -1.421875 
Q 19.53125 -1.421875 13.0625 8.265625 
Q 6.59375 17.96875 6.59375 36.375 
Q 6.59375 54.828125 13.0625 64.515625 
Q 19.53125 74.21875 31.78125 74.21875 
z
" id="DejaVuSans-48"/>
      </defs>
      <g transform="translate(483.889824 352.518437)scale(0.1 -0.1)">
       <use xlink:href="#DejaVuSans-48"/>
      </g>
     </g>
    </g>
    <g id="xtick_2">
     <g id="line2d_2">
      <g>
       <use style="stroke:#000000;stroke-width:0.8;" x="547.221991" xlink:href="#mb1335d1dc9" y="337.92"/>
      </g>
     </g>
     <g id="text_26">
      <!-- 5 -->
      <defs>
       <path d="M 10.796875 72.90625 
L 49.515625 72.90625 
L 49.515625 64.59375 
L 19.828125 64.59375 
L 19.828125 46.734375 
Q 21.96875 47.46875 24.109375 47.828125 
Q 26.265625 48.1875 28.421875 48.1875 
Q 40.625 48.1875 47.75 41.5 
Q 54.890625 34.8125 54.890625 23.390625 
Q 54.890625 11.625 47.5625 5.09375 
Q 40.234375 -1.421875 26.90625 -1.421875 
Q 22.3125 -1.421875 17.546875 -0.640625 
Q 12.796875 0.140625 7.71875 1.703125 
L 7.71875 11.625 
Q 12.109375 9.234375 16.796875 8.0625 
Q 21.484375 6.890625 26.703125 6.890625 
Q 35.15625 6.890625 40.078125 11.328125 
Q 45.015625 15.765625 45.015625 23.390625 
Q 45.015625 31 40.078125 35.4375 
Q 35.15625 39.890625 26.703125 39.890625 
Q 22.75 39.890625 18.8125 39.015625 
Q 14.890625 38.140625 10.796875 36.28125 
z
" id="DejaVuSans-53"/>
      </defs>
      <g transform="translate(544.040741 352.518437)scale(0.1 -0.1)">
       <use xlink:href="#DejaVuSans-53"/>
      </g>
     </g>
    </g>
    <g id="xtick_3">
     <g id="line2d_3">
      <g>
       <use style="stroke:#000000;stroke-width:0.8;" x="607.372907" xlink:href="#mb1335d1dc9" y="337.92"/>
      </g>
     </g>
     <g id="text_27">
      <!-- 10 -->
      <defs>
       <path d="M 12.40625 8.296875 
L 28.515625 8.296875 
L 28.515625 63.921875 
L 10.984375 60.40625 
L 10.984375 69.390625 
L 28.421875 72.90625 
L 38.28125 72.90625 
L 38.28125 8.296875 
L 54.390625 8.296875 
L 54.390625 0 
L 12.40625 0 
z
" id="DejaVuSans-49"/>
      </defs>
      <g transform="translate(601.010407 352.518437)scale(0.1 -0.1)">
       <use xlink:href="#DejaVuSans-49"/>
       <use x="63.623047" xlink:href="#DejaVuSans-48"/>
      </g>
     </g>
    </g>
    <g id="xtick_4">
     <g id="line2d_4">
      <g>
       <use style="stroke:#000000;stroke-width:0.8;" x="667.523823" xlink:href="#mb1335d1dc9" y="337.92"/>
      </g>
     </g>
     <g id="text_28">
      <!-- 15 -->
      <g transform="translate(661.161323 352.518437)scale(0.1 -0.1)">
       <use xlink:href="#DejaVuSans-49"/>
       <use x="63.623047" xlink:href="#DejaVuSans-53"/>
      </g>
     </g>
    </g>
    <g id="xtick_5">
     <g id="line2d_5">
      <g>
       <use style="stroke:#000000;stroke-width:0.8;" x="727.674739" xlink:href="#mb1335d1dc9" y="337.92"/>
      </g>
     </g>
     <g id="text_29">
      <!-- 20 -->
      <defs>
       <path d="M 19.1875 8.296875 
L 53.609375 8.296875 
L 53.609375 0 
L 7.328125 0 
L 7.328125 8.296875 
Q 12.9375 14.109375 22.625 23.890625 
Q 32.328125 33.6875 34.8125 36.53125 
Q 39.546875 41.84375 41.421875 45.53125 
Q 43.3125 49.21875 43.3125 52.78125 
Q 43.3125 58.59375 39.234375 62.25 
Q 35.15625 65.921875 28.609375 65.921875 
Q 23.96875 65.921875 18.8125 64.3125 
Q 13.671875 62.703125 7.8125 59.421875 
L 7.8125 69.390625 
Q 13.765625 71.78125 18.9375 73 
Q 24.125 74.21875 28.421875 74.21875 
Q 39.75 74.21875 46.484375 68.546875 
Q 53.21875 62.890625 53.21875 53.421875 
Q 53.21875 48.921875 51.53125 44.890625 
Q 49.859375 40.875 45.40625 35.40625 
Q 44.1875 33.984375 37.640625 27.21875 
Q 31.109375 20.453125 19.1875 8.296875 
z
" id="DejaVuSans-50"/>
      </defs>
      <g transform="translate(721.312239 352.518437)scale(0.1 -0.1)">
       <use xlink:href="#DejaVuSans-50"/>
       <use x="63.623047" xlink:href="#DejaVuSans-48"/>
      </g>
     </g>
    </g>
    <g id="text_30">
     <!-- Rank -->
     <defs>
      <path d="M 44.390625 34.1875 
Q 47.5625 33.109375 50.5625 29.59375 
Q 53.5625 26.078125 56.59375 19.921875 
L 66.609375 0 
L 56 0 
L 46.6875 18.703125 
Q 43.0625 26.03125 39.671875 28.421875 
Q 36.28125 30.8125 30.421875 30.8125 
L 19.671875 30.8125 
L 19.671875 0 
L 9.8125 0 
L 9.8125 72.90625 
L 32.078125 72.90625 
Q 44.578125 72.90625 50.734375 67.671875 
Q 56.890625 62.453125 56.890625 51.90625 
Q 56.890625 45.015625 53.6875 40.46875 
Q 50.484375 35.9375 44.390625 34.1875 
z
M 19.671875 64.796875 
L 19.671875 38.921875 
L 32.078125 38.921875 
Q 39.203125 38.921875 42.84375 42.21875 
Q 46.484375 45.515625 46.484375 51.90625 
Q 46.484375 58.296875 42.84375 61.546875 
Q 39.203125 64.796875 32.078125 64.796875 
z
" id="DejaVuSans-82"/>
      <path d="M 34.28125 27.484375 
Q 23.390625 27.484375 19.1875 25 
Q 14.984375 22.515625 14.984375 16.5 
Q 14.984375 11.71875 18.140625 8.90625 
Q 21.296875 6.109375 26.703125 6.109375 
Q 34.1875 6.109375 38.703125 11.40625 
Q 43.21875 16.703125 43.21875 25.484375 
L 43.21875 27.484375 
z
M 52.203125 31.203125 
L 52.203125 0 
L 43.21875 0 
L 43.21875 8.296875 
Q 40.140625 3.328125 35.546875 0.953125 
Q 30.953125 -1.421875 24.3125 -1.421875 
Q 15.921875 -1.421875 10.953125 3.296875 
Q 6 8.015625 6 15.921875 
Q 6 25.140625 12.171875 29.828125 
Q 18.359375 34.515625 30.609375 34.515625 
L 43.21875 34.515625 
L 43.21875 35.40625 
Q 43.21875 41.609375 39.140625 45 
Q 35.0625 48.390625 27.6875 48.390625 
Q 23 48.390625 18.546875 47.265625 
Q 14.109375 46.140625 10.015625 43.890625 
L 10.015625 52.203125 
Q 14.9375 54.109375 19.578125 55.046875 
Q 24.21875 56 28.609375 56 
Q 40.484375 56 46.34375 49.84375 
Q 52.203125 43.703125 52.203125 31.203125 
z
" id="DejaVuSans-97"/>
      <path d="M 54.890625 33.015625 
L 54.890625 0 
L 45.90625 0 
L 45.90625 32.71875 
Q 45.90625 40.484375 42.875 44.328125 
Q 39.84375 48.1875 33.796875 48.1875 
Q 26.515625 48.1875 22.3125 43.546875 
Q 18.109375 38.921875 18.109375 30.90625 
L 18.109375 0 
L 9.078125 0 
L 9.078125 54.6875 
L 18.109375 54.6875 
L 18.109375 46.1875 
Q 21.34375 51.125 25.703125 53.5625 
Q 30.078125 56 35.796875 56 
Q 45.21875 56 50.046875 50.171875 
Q 54.890625 44.34375 54.890625 33.015625 
z
" id="DejaVuSans-110"/>
      <path d="M 9.078125 75.984375 
L 18.109375 75.984375 
L 18.109375 31.109375 
L 44.921875 54.6875 
L 56.390625 54.6875 
L 27.390625 29.109375 
L 57.625 0 
L 45.90625 0 
L 18.109375 26.703125 
L 18.109375 0 
L 9.078125 0 
z
" id="DejaVuSans-107"/>
     </defs>
     <g transform="translate(612.817401 366.196562)scale(0.1 -0.1)">
      <use xlink:href="#DejaVuSans-82"/>
      <use x="69.451172" xlink:href="#DejaVuSans-97"/>
      <use x="130.730469" xlink:href="#DejaVuSans-110"/>
      <use x="194.109375" xlink:href="#DejaVuSans-107"/>
     </g>
    </g>
   </g>
   <g id="matplotlib.axis_2">
    <g id="ytick_1">
     <g id="line2d_6">
      <defs>
       <path d="M 0 0 
L -3.5 0 
" id="me16dab839b" style="stroke:#000000;stroke-width:0.8;"/>
      </defs>
      <g>
       <use style="stroke:#000000;stroke-width:0.8;" x="473.236364" xlink:href="#me16dab839b" y="298.550303"/>
      </g>
     </g>
     <g id="text_31">
      <!-- 2 -->
      <g transform="translate(459.873864 302.349522)scale(0.1 -0.1)">
       <use xlink:href="#DejaVuSans-50"/>
      </g>
     </g>
    </g>
    <g id="ytick_2">
     <g id="line2d_7">
      <g>
       <use style="stroke:#000000;stroke-width:0.8;" x="473.236364" xlink:href="#me16dab839b" y="244.247273"/>
      </g>
     </g>
     <g id="text_32">
      <!-- 4 -->
      <defs>
       <path d="M 37.796875 64.3125 
L 12.890625 25.390625 
L 37.796875 25.390625 
z
M 35.203125 72.90625 
L 47.609375 72.90625 
L 47.609375 25.390625 
L 58.015625 25.390625 
L 58.015625 17.1875 
L 47.609375 17.1875 
L 47.609375 0 
L 37.796875 0 
L 37.796875 17.1875 
L 4.890625 17.1875 
L 4.890625 26.703125 
z
" id="DejaVuSans-52"/>
      </defs>
      <g transform="translate(459.873864 248.046491)scale(0.1 -0.1)">
       <use xlink:href="#DejaVuSans-52"/>
      </g>
     </g>
    </g>
    <g id="ytick_3">
     <g id="line2d_8">
      <g>
       <use style="stroke:#000000;stroke-width:0.8;" x="473.236364" xlink:href="#me16dab839b" y="189.944242"/>
      </g>
     </g>
     <g id="text_33">
      <!-- 6 -->
      <defs>
       <path d="M 33.015625 40.375 
Q 26.375 40.375 22.484375 35.828125 
Q 18.609375 31.296875 18.609375 23.390625 
Q 18.609375 15.53125 22.484375 10.953125 
Q 26.375 6.390625 33.015625 6.390625 
Q 39.65625 6.390625 43.53125 10.953125 
Q 47.40625 15.53125 47.40625 23.390625 
Q 47.40625 31.296875 43.53125 35.828125 
Q 39.65625 40.375 33.015625 40.375 
z
M 52.59375 71.296875 
L 52.59375 62.3125 
Q 48.875 64.0625 45.09375 64.984375 
Q 41.3125 65.921875 37.59375 65.921875 
Q 27.828125 65.921875 22.671875 59.328125 
Q 17.53125 52.734375 16.796875 39.40625 
Q 19.671875 43.65625 24.015625 45.921875 
Q 28.375 48.1875 33.59375 48.1875 
Q 44.578125 48.1875 50.953125 41.515625 
Q 57.328125 34.859375 57.328125 23.390625 
Q 57.328125 12.15625 50.6875 5.359375 
Q 44.046875 -1.421875 33.015625 -1.421875 
Q 20.359375 -1.421875 13.671875 8.265625 
Q 6.984375 17.96875 6.984375 36.375 
Q 6.984375 53.65625 15.1875 63.9375 
Q 23.390625 74.21875 37.203125 74.21875 
Q 40.921875 74.21875 44.703125 73.484375 
Q 48.484375 72.75 52.59375 71.296875 
z
" id="DejaVuSans-54"/>
      </defs>
      <g transform="translate(459.873864 193.743461)scale(0.1 -0.1)">
       <use xlink:href="#DejaVuSans-54"/>
      </g>
     </g>
    </g>
    <g id="ytick_4">
     <g id="line2d_9">
      <g>
       <use style="stroke:#000000;stroke-width:0.8;" x="473.236364" xlink:href="#me16dab839b" y="135.641212"/>
      </g>
     </g>
     <g id="text_34">
      <!-- 8 -->
      <defs>
       <path d="M 31.78125 34.625 
Q 24.75 34.625 20.71875 30.859375 
Q 16.703125 27.09375 16.703125 20.515625 
Q 16.703125 13.921875 20.71875 10.15625 
Q 24.75 6.390625 31.78125 6.390625 
Q 38.8125 6.390625 42.859375 10.171875 
Q 46.921875 13.96875 46.921875 20.515625 
Q 46.921875 27.09375 42.890625 30.859375 
Q 38.875 34.625 31.78125 34.625 
z
M 21.921875 38.8125 
Q 15.578125 40.375 12.03125 44.71875 
Q 8.5 49.078125 8.5 55.328125 
Q 8.5 64.0625 14.71875 69.140625 
Q 20.953125 74.21875 31.78125 74.21875 
Q 42.671875 74.21875 48.875 69.140625 
Q 55.078125 64.0625 55.078125 55.328125 
Q 55.078125 49.078125 51.53125 44.71875 
Q 48 40.375 41.703125 38.8125 
Q 48.828125 37.15625 52.796875 32.3125 
Q 56.78125 27.484375 56.78125 20.515625 
Q 56.78125 9.90625 50.3125 4.234375 
Q 43.84375 -1.421875 31.78125 -1.421875 
Q 19.734375 -1.421875 13.25 4.234375 
Q 6.78125 9.90625 6.78125 20.515625 
Q 6.78125 27.484375 10.78125 32.3125 
Q 14.796875 37.15625 21.921875 38.8125 
z
M 18.3125 54.390625 
Q 18.3125 48.734375 21.84375 45.5625 
Q 25.390625 42.390625 31.78125 42.390625 
Q 38.140625 42.390625 41.71875 45.5625 
Q 45.3125 48.734375 45.3125 54.390625 
Q 45.3125 60.0625 41.71875 63.234375 
Q 38.140625 66.40625 31.78125 66.40625 
Q 25.390625 66.40625 21.84375 63.234375 
Q 18.3125 60.0625 18.3125 54.390625 
z
" id="DejaVuSans-56"/>
      </defs>
      <g transform="translate(459.873864 139.440431)scale(0.1 -0.1)">
       <use xlink:href="#DejaVuSans-56"/>
      </g>
     </g>
    </g>
    <g id="ytick_5">
     <g id="line2d_10">
      <g>
       <use style="stroke:#000000;stroke-width:0.8;" x="473.236364" xlink:href="#me16dab839b" y="81.338182"/>
      </g>
     </g>
     <g id="text_35">
      <!-- 10 -->
      <g transform="translate(453.511364 85.137401)scale(0.1 -0.1)">
       <use xlink:href="#DejaVuSans-49"/>
       <use x="63.623047" xlink:href="#DejaVuSans-48"/>
      </g>
     </g>
    </g>
    <g id="text_36">
     <!-- Degree -->
     <defs>
      <path d="M 19.671875 64.796875 
L 19.671875 8.109375 
L 31.59375 8.109375 
Q 46.6875 8.109375 53.6875 14.9375 
Q 60.6875 21.78125 60.6875 36.53125 
Q 60.6875 51.171875 53.6875 57.984375 
Q 46.6875 64.796875 31.59375 64.796875 
z
M 9.8125 72.90625 
L 30.078125 72.90625 
Q 51.265625 72.90625 61.171875 64.09375 
Q 71.09375 55.28125 71.09375 36.53125 
Q 71.09375 17.671875 61.125 8.828125 
Q 51.171875 0 30.078125 0 
L 9.8125 0 
z
" id="DejaVuSans-68"/>
      <path d="M 56.203125 29.59375 
L 56.203125 25.203125 
L 14.890625 25.203125 
Q 15.484375 15.921875 20.484375 11.0625 
Q 25.484375 6.203125 34.421875 6.203125 
Q 39.59375 6.203125 44.453125 7.46875 
Q 49.3125 8.734375 54.109375 11.28125 
L 54.109375 2.78125 
Q 49.265625 0.734375 44.1875 -0.34375 
Q 39.109375 -1.421875 33.890625 -1.421875 
Q 20.796875 -1.421875 13.15625 6.1875 
Q 5.515625 13.8125 5.515625 26.8125 
Q 5.515625 40.234375 12.765625 48.109375 
Q 20.015625 56 32.328125 56 
Q 43.359375 56 49.78125 48.890625 
Q 56.203125 41.796875 56.203125 29.59375 
z
M 47.21875 32.234375 
Q 47.125 39.59375 43.09375 43.984375 
Q 39.0625 48.390625 32.421875 48.390625 
Q 24.90625 48.390625 20.390625 44.140625 
Q 15.875 39.890625 15.1875 32.171875 
z
" id="DejaVuSans-101"/>
      <path d="M 45.40625 27.984375 
Q 45.40625 37.75 41.375 43.109375 
Q 37.359375 48.484375 30.078125 48.484375 
Q 22.859375 48.484375 18.828125 43.109375 
Q 14.796875 37.75 14.796875 27.984375 
Q 14.796875 18.265625 18.828125 12.890625 
Q 22.859375 7.515625 30.078125 7.515625 
Q 37.359375 7.515625 41.375 12.890625 
Q 45.40625 18.265625 45.40625 27.984375 
z
M 54.390625 6.78125 
Q 54.390625 -7.171875 48.1875 -13.984375 
Q 42 -20.796875 29.203125 -20.796875 
Q 24.46875 -20.796875 20.265625 -20.09375 
Q 16.0625 -19.390625 12.109375 -17.921875 
L 12.109375 -9.1875 
Q 16.0625 -11.328125 19.921875 -12.34375 
Q 23.78125 -13.375 27.78125 -13.375 
Q 36.625 -13.375 41.015625 -8.765625 
Q 45.40625 -4.15625 45.40625 5.171875 
L 45.40625 9.625 
Q 42.625 4.78125 38.28125 2.390625 
Q 33.9375 0 27.875 0 
Q 17.828125 0 11.671875 7.65625 
Q 5.515625 15.328125 5.515625 27.984375 
Q 5.515625 40.671875 11.671875 48.328125 
Q 17.828125 56 27.875 56 
Q 33.9375 56 38.28125 53.609375 
Q 42.625 51.21875 45.40625 46.390625 
L 45.40625 54.6875 
L 54.390625 54.6875 
z
" id="DejaVuSans-103"/>
      <path d="M 41.109375 46.296875 
Q 39.59375 47.171875 37.8125 47.578125 
Q 36.03125 48 33.890625 48 
Q 26.265625 48 22.1875 43.046875 
Q 18.109375 38.09375 18.109375 28.8125 
L 18.109375 0 
L 9.078125 0 
L 9.078125 54.6875 
L 18.109375 54.6875 
L 18.109375 46.1875 
Q 20.953125 51.171875 25.484375 53.578125 
Q 30.03125 56 36.53125 56 
Q 37.453125 56 38.578125 55.875 
Q 39.703125 55.765625 41.0625 55.515625 
z
" id="DejaVuSans-114"/>
     </defs>
     <g transform="translate(447.431676 221.827812)rotate(-90)scale(0.1 -0.1)">
      <use xlink:href="#DejaVuSans-68"/>
      <use x="77.001953" xlink:href="#DejaVuSans-101"/>
      <use x="138.525391" xlink:href="#DejaVuSans-103"/>
      <use x="202.001953" xlink:href="#DejaVuSans-114"/>
      <use x="243.083984" xlink:href="#DejaVuSans-101"/>
      <use x="304.607422" xlink:href="#DejaVuSans-101"/>
     </g>
    </g>
   </g>
   <g id="line2d_11">
    <path clip-path="url(#p8cef807220)" d="M 487.071074 81.338182 
L 499.101258 271.398788 
L 511.131441 271.398788 
L 523.161624 298.550303 
L 535.191807 298.550303 
L 547.221991 298.550303 
L 559.252174 298.550303 
L 571.282357 298.550303 
L 583.31254 298.550303 
L 595.342724 298.550303 
L 607.372907 298.550303 
L 619.40309 298.550303 
L 631.433273 298.550303 
L 643.463457 298.550303 
L 655.49364 298.550303 
L 667.523823 298.550303 
L 679.554006 298.550303 
L 691.58419 298.550303 
L 703.614373 325.701818 
L 715.644556 325.701818 
L 727.674739 325.701818 
L 739.704923 325.701818 
L 751.735106 325.701818 
L 763.765289 325.701818 
" style="fill:none;stroke:#0000ff;stroke-linecap:square;stroke-width:1.5;"/>
    <defs>
     <path d="M 0 3 
C 0.795609 3 1.55874 2.683901 2.12132 2.12132 
C 2.683901 1.55874 3 0.795609 3 0 
C 3 -0.795609 2.683901 -1.55874 2.12132 -2.12132 
C 1.55874 -2.683901 0.795609 -3 0 -3 
C -0.795609 -3 -1.55874 -2.683901 -2.12132 -2.12132 
C -2.683901 -1.55874 -3 -0.795609 -3 0 
C -3 0.795609 -2.683901 1.55874 -2.12132 2.12132 
C -1.55874 2.683901 -0.795609 3 0 3 
z
" id="ma9a05f4490" style="stroke:#0000ff;"/>
    </defs>
    <g clip-path="url(#p8cef807220)">
     <use style="fill:#0000ff;stroke:#0000ff;" x="487.071074" xlink:href="#ma9a05f4490" y="81.338182"/>
     <use style="fill:#0000ff;stroke:#0000ff;" x="499.101258" xlink:href="#ma9a05f4490" y="271.398788"/>
     <use style="fill:#0000ff;stroke:#0000ff;" x="511.131441" xlink:href="#ma9a05f4490" y="271.398788"/>
     <use style="fill:#0000ff;stroke:#0000ff;" x="523.161624" xlink:href="#ma9a05f4490" y="298.550303"/>
     <use style="fill:#0000ff;stroke:#0000ff;" x="535.191807" xlink:href="#ma9a05f4490" y="298.550303"/>
     <use style="fill:#0000ff;stroke:#0000ff;" x="547.221991" xlink:href="#ma9a05f4490" y="298.550303"/>
     <use style="fill:#0000ff;stroke:#0000ff;" x="559.252174" xlink:href="#ma9a05f4490" y="298.550303"/>
     <use style="fill:#0000ff;stroke:#0000ff;" x="571.282357" xlink:href="#ma9a05f4490" y="298.550303"/>
     <use style="fill:#0000ff;stroke:#0000ff;" x="583.31254" xlink:href="#ma9a05f4490" y="298.550303"/>
     <use style="fill:#0000ff;stroke:#0000ff;" x="595.342724" xlink:href="#ma9a05f4490" y="298.550303"/>
     <use style="fill:#0000ff;stroke:#0000ff;" x="607.372907" xlink:href="#ma9a05f4490" y="298.550303"/>
     <use style="fill:#0000ff;stroke:#0000ff;" x="619.40309" xlink:href="#ma9a05f4490" y="298.550303"/>
     <use style="fill:#0000ff;stroke:#0000ff;" x="631.433273" xlink:href="#ma9a05f4490" y="298.550303"/>
     <use style="fill:#0000ff;stroke:#0000ff;" x="643.463457" xlink:href="#ma9a05f4490" y="298.550303"/>
     <use style="fill:#0000ff;stroke:#0000ff;" x="655.49364" xlink:href="#ma9a05f4490" y="298.550303"/>
     <use style="fill:#0000ff;stroke:#0000ff;" x="667.523823" xlink:href="#ma9a05f4490" y="298.550303"/>
     <use style="fill:#0000ff;stroke:#0000ff;" x="679.554006" xlink:href="#ma9a05f4490" y="298.550303"/>
     <use style="fill:#0000ff;stroke:#0000ff;" x="691.58419" xlink:href="#ma9a05f4490" y="298.550303"/>
     <use style="fill:#0000ff;stroke:#0000ff;" x="703.614373" xlink:href="#ma9a05f4490" y="325.701818"/>
     <use style="fill:#0000ff;stroke:#0000ff;" x="715.644556" xlink:href="#ma9a05f4490" y="325.701818"/>
     <use style="fill:#0000ff;stroke:#0000ff;" x="727.674739" xlink:href="#ma9a05f4490" y="325.701818"/>
     <use style="fill:#0000ff;stroke:#0000ff;" x="739.704923" xlink:href="#ma9a05f4490" y="325.701818"/>
     <use style="fill:#0000ff;stroke:#0000ff;" x="751.735106" xlink:href="#ma9a05f4490" y="325.701818"/>
     <use style="fill:#0000ff;stroke:#0000ff;" x="763.765289" xlink:href="#ma9a05f4490" y="325.701818"/>
    </g>
   </g>
   <g id="patch_3">
    <path d="M 473.236364 337.92 
L 473.236364 69.12 
" style="fill:none;stroke:#000000;stroke-linecap:square;stroke-linejoin:miter;stroke-width:0.8;"/>
   </g>
   <g id="patch_4">
    <path d="M 777.6 337.92 
L 777.6 69.12 
" style="fill:none;stroke:#000000;stroke-linecap:square;stroke-linejoin:miter;stroke-width:0.8;"/>
   </g>
   <g id="patch_5">
    <path d="M 473.236364 337.92 
L 777.6 337.92 
" style="fill:none;stroke:#000000;stroke-linecap:square;stroke-linejoin:miter;stroke-width:0.8;"/>
   </g>
   <g id="patch_6">
    <path d="M 473.236364 69.12 
L 777.6 69.12 
" style="fill:none;stroke:#000000;stroke-linecap:square;stroke-linejoin:miter;stroke-width:0.8;"/>
   </g>
   <g id="text_37">
    <!-- Degree Rank Plot -->
    <defs>
     <path id="DejaVuSans-32"/>
     <path d="M 19.671875 64.796875 
L 19.671875 37.40625 
L 32.078125 37.40625 
Q 38.96875 37.40625 42.71875 40.96875 
Q 46.484375 44.53125 46.484375 51.125 
Q 46.484375 57.671875 42.71875 61.234375 
Q 38.96875 64.796875 32.078125 64.796875 
z
M 9.8125 72.90625 
L 32.078125 72.90625 
Q 44.34375 72.90625 50.609375 67.359375 
Q 56.890625 61.8125 56.890625 51.125 
Q 56.890625 40.328125 50.609375 34.8125 
Q 44.34375 29.296875 32.078125 29.296875 
L 19.671875 29.296875 
L 19.671875 0 
L 9.8125 0 
z
" id="DejaVuSans-80"/>
     <path d="M 9.421875 75.984375 
L 18.40625 75.984375 
L 18.40625 0 
L 9.421875 0 
z
" id="DejaVuSans-108"/>
     <path d="M 30.609375 48.390625 
Q 23.390625 48.390625 19.1875 42.75 
Q 14.984375 37.109375 14.984375 27.296875 
Q 14.984375 17.484375 19.15625 11.84375 
Q 23.34375 6.203125 30.609375 6.203125 
Q 37.796875 6.203125 41.984375 11.859375 
Q 46.1875 17.53125 46.1875 27.296875 
Q 46.1875 37.015625 41.984375 42.703125 
Q 37.796875 48.390625 30.609375 48.390625 
z
M 30.609375 56 
Q 42.328125 56 49.015625 48.375 
Q 55.71875 40.765625 55.71875 27.296875 
Q 55.71875 13.875 49.015625 6.21875 
Q 42.328125 -1.421875 30.609375 -1.421875 
Q 18.84375 -1.421875 12.171875 6.21875 
Q 5.515625 13.875 5.515625 27.296875 
Q 5.515625 40.765625 12.171875 48.375 
Q 18.84375 56 30.609375 56 
z
" id="DejaVuSans-111"/>
     <path d="M 18.3125 70.21875 
L 18.3125 54.6875 
L 36.8125 54.6875 
L 36.8125 47.703125 
L 18.3125 47.703125 
L 18.3125 18.015625 
Q 18.3125 11.328125 20.140625 9.421875 
Q 21.96875 7.515625 27.59375 7.515625 
L 36.8125 7.515625 
L 36.8125 0 
L 27.59375 0 
Q 17.1875 0 13.234375 3.875 
Q 9.28125 7.765625 9.28125 18.015625 
L 9.28125 47.703125 
L 2.6875 47.703125 
L 2.6875 54.6875 
L 9.28125 54.6875 
L 9.28125 70.21875 
z
" id="DejaVuSans-116"/>
    </defs>
    <g transform="translate(573.205994 63.12)scale(0.12 -0.12)">
     <use xlink:href="#DejaVuSans-68"/>
     <use x="77.001953" xlink:href="#DejaVuSans-101"/>
     <use x="138.525391" xlink:href="#DejaVuSans-103"/>
     <use x="202.001953" xlink:href="#DejaVuSans-114"/>
     <use x="243.083984" xlink:href="#DejaVuSans-101"/>
     <use x="304.607422" xlink:href="#DejaVuSans-101"/>
     <use x="366.130859" xlink:href="#DejaVuSans-32"/>
     <use x="397.917969" xlink:href="#DejaVuSans-82"/>
     <use x="467.369141" xlink:href="#DejaVuSans-97"/>
     <use x="528.648438" xlink:href="#DejaVuSans-110"/>
     <use x="592.027344" xlink:href="#DejaVuSans-107"/>
     <use x="649.9375" xlink:href="#DejaVuSans-32"/>
     <use x="681.724609" xlink:href="#DejaVuSans-80"/>
     <use x="742.027344" xlink:href="#DejaVuSans-108"/>
     <use x="769.810547" xlink:href="#DejaVuSans-111"/>
     <use x="830.992188" xlink:href="#DejaVuSans-116"/>
    </g>
   </g>
  </g>
  <g id="axes_3">
   <g id="patch_7">
    <path d="M 108 512.64 
L 777.6 512.64 
L 777.6 378.24 
L 108 378.24 
z
" style="fill:#ffffff;"/>
   </g>
   <g id="patch_8">
    <path clip-path="url(#p60bbd7ecf6)" d="M 138.436364 512.64 
L 188.128386 512.64 
L 188.128386 461.44 
L 138.436364 461.44 
z
" style="fill:#1f77b4;"/>
   </g>
   <g id="patch_9">
    <path clip-path="url(#p60bbd7ecf6)" d="M 200.551391 512.64 
L 250.243414 512.64 
L 250.243414 384.64 
L 200.551391 384.64 
z
" style="fill:#1f77b4;"/>
   </g>
   <g id="patch_10">
    <path clip-path="url(#p60bbd7ecf6)" d="M 262.666419 512.64 
L 312.358442 512.64 
L 312.358442 495.573333 
L 262.666419 495.573333 
z
" style="fill:#1f77b4;"/>
   </g>
   <g id="patch_11">
    <path clip-path="url(#p60bbd7ecf6)" d="M 697.471614 512.64 
L 747.163636 512.64 
L 747.163636 504.106667 
L 697.471614 504.106667 
z
" style="fill:#1f77b4;"/>
   </g>
   <g id="matplotlib.axis_3">
    <g id="xtick_6">
     <g id="line2d_12">
      <g>
       <use style="stroke:#000000;stroke-width:0.8;" x="225.397403" xlink:href="#mb1335d1dc9" y="512.64"/>
      </g>
     </g>
     <g id="text_38">
      <!-- 2 -->
      <g transform="translate(222.216153 527.238437)scale(0.1 -0.1)">
       <use xlink:href="#DejaVuSans-50"/>
      </g>
     </g>
    </g>
    <g id="xtick_7">
     <g id="line2d_13">
      <g>
       <use style="stroke:#000000;stroke-width:0.8;" x="349.627458" xlink:href="#mb1335d1dc9" y="512.64"/>
      </g>
     </g>
     <g id="text_39">
      <!-- 4 -->
      <g transform="translate(346.446208 527.238437)scale(0.1 -0.1)">
       <use xlink:href="#DejaVuSans-52"/>
      </g>
     </g>
    </g>
    <g id="xtick_8">
     <g id="line2d_14">
      <g>
       <use style="stroke:#000000;stroke-width:0.8;" x="473.857514" xlink:href="#mb1335d1dc9" y="512.64"/>
      </g>
     </g>
     <g id="text_40">
      <!-- 6 -->
      <g transform="translate(470.676264 527.238437)scale(0.1 -0.1)">
       <use xlink:href="#DejaVuSans-54"/>
      </g>
     </g>
    </g>
    <g id="xtick_9">
     <g id="line2d_15">
      <g>
       <use style="stroke:#000000;stroke-width:0.8;" x="598.08757" xlink:href="#mb1335d1dc9" y="512.64"/>
      </g>
     </g>
     <g id="text_41">
      <!-- 8 -->
      <g transform="translate(594.90632 527.238437)scale(0.1 -0.1)">
       <use xlink:href="#DejaVuSans-56"/>
      </g>
     </g>
    </g>
    <g id="xtick_10">
     <g id="line2d_16">
      <g>
       <use style="stroke:#000000;stroke-width:0.8;" x="722.317625" xlink:href="#mb1335d1dc9" y="512.64"/>
      </g>
     </g>
     <g id="text_42">
      <!-- 10 -->
      <g transform="translate(715.955125 527.238437)scale(0.1 -0.1)">
       <use xlink:href="#DejaVuSans-49"/>
       <use x="63.623047" xlink:href="#DejaVuSans-48"/>
      </g>
     </g>
    </g>
    <g id="text_43">
     <!-- Degree -->
     <g transform="translate(424.492187 540.916562)scale(0.1 -0.1)">
      <use xlink:href="#DejaVuSans-68"/>
      <use x="77.001953" xlink:href="#DejaVuSans-101"/>
      <use x="138.525391" xlink:href="#DejaVuSans-103"/>
      <use x="202.001953" xlink:href="#DejaVuSans-114"/>
      <use x="243.083984" xlink:href="#DejaVuSans-101"/>
      <use x="304.607422" xlink:href="#DejaVuSans-101"/>
     </g>
    </g>
   </g>
   <g id="matplotlib.axis_4">
    <g id="ytick_6">
     <g id="line2d_17">
      <g>
       <use style="stroke:#000000;stroke-width:0.8;" x="108" xlink:href="#me16dab839b" y="512.64"/>
      </g>
     </g>
     <g id="text_44">
      <!-- 0 -->
      <g transform="translate(94.6375 516.439219)scale(0.1 -0.1)">
       <use xlink:href="#DejaVuSans-48"/>
      </g>
     </g>
    </g>
    <g id="ytick_7">
     <g id="line2d_18">
      <g>
       <use style="stroke:#000000;stroke-width:0.8;" x="108" xlink:href="#me16dab839b" y="469.973333"/>
      </g>
     </g>
     <g id="text_45">
      <!-- 5 -->
      <g transform="translate(94.6375 473.772552)scale(0.1 -0.1)">
       <use xlink:href="#DejaVuSans-53"/>
      </g>
     </g>
    </g>
    <g id="ytick_8">
     <g id="line2d_19">
      <g>
       <use style="stroke:#000000;stroke-width:0.8;" x="108" xlink:href="#me16dab839b" y="427.306667"/>
      </g>
     </g>
     <g id="text_46">
      <!-- 10 -->
      <g transform="translate(88.275 431.105885)scale(0.1 -0.1)">
       <use xlink:href="#DejaVuSans-49"/>
       <use x="63.623047" xlink:href="#DejaVuSans-48"/>
      </g>
     </g>
    </g>
    <g id="ytick_9">
     <g id="line2d_20">
      <g>
       <use style="stroke:#000000;stroke-width:0.8;" x="108" xlink:href="#me16dab839b" y="384.64"/>
      </g>
     </g>
     <g id="text_47">
      <!-- 15 -->
      <g transform="translate(88.275 388.439219)scale(0.1 -0.1)">
       <use xlink:href="#DejaVuSans-49"/>
       <use x="63.623047" xlink:href="#DejaVuSans-53"/>
      </g>
     </g>
    </g>
    <g id="text_48">
     <!-- # of Nodes -->
     <defs>
      <path d="M 51.125 44 
L 36.921875 44 
L 32.8125 27.6875 
L 47.125 27.6875 
z
M 43.796875 71.78125 
L 38.71875 51.515625 
L 52.984375 51.515625 
L 58.109375 71.78125 
L 65.921875 71.78125 
L 60.890625 51.515625 
L 76.125 51.515625 
L 76.125 44 
L 58.984375 44 
L 54.984375 27.6875 
L 70.515625 27.6875 
L 70.515625 20.21875 
L 53.078125 20.21875 
L 48 0 
L 40.1875 0 
L 45.21875 20.21875 
L 30.90625 20.21875 
L 25.875 0 
L 18.015625 0 
L 23.09375 20.21875 
L 7.71875 20.21875 
L 7.71875 27.6875 
L 24.90625 27.6875 
L 29 44 
L 13.28125 44 
L 13.28125 51.515625 
L 30.90625 51.515625 
L 35.890625 71.78125 
z
" id="DejaVuSans-35"/>
      <path d="M 37.109375 75.984375 
L 37.109375 68.5 
L 28.515625 68.5 
Q 23.6875 68.5 21.796875 66.546875 
Q 19.921875 64.59375 19.921875 59.515625 
L 19.921875 54.6875 
L 34.71875 54.6875 
L 34.71875 47.703125 
L 19.921875 47.703125 
L 19.921875 0 
L 10.890625 0 
L 10.890625 47.703125 
L 2.296875 47.703125 
L 2.296875 54.6875 
L 10.890625 54.6875 
L 10.890625 58.5 
Q 10.890625 67.625 15.140625 71.796875 
Q 19.390625 75.984375 28.609375 75.984375 
z
" id="DejaVuSans-102"/>
      <path d="M 9.8125 72.90625 
L 23.09375 72.90625 
L 55.421875 11.921875 
L 55.421875 72.90625 
L 64.984375 72.90625 
L 64.984375 0 
L 51.703125 0 
L 19.390625 60.984375 
L 19.390625 0 
L 9.8125 0 
z
" id="DejaVuSans-78"/>
      <path d="M 45.40625 46.390625 
L 45.40625 75.984375 
L 54.390625 75.984375 
L 54.390625 0 
L 45.40625 0 
L 45.40625 8.203125 
Q 42.578125 3.328125 38.25 0.953125 
Q 33.9375 -1.421875 27.875 -1.421875 
Q 17.96875 -1.421875 11.734375 6.484375 
Q 5.515625 14.40625 5.515625 27.296875 
Q 5.515625 40.1875 11.734375 48.09375 
Q 17.96875 56 27.875 56 
Q 33.9375 56 38.25 53.625 
Q 42.578125 51.265625 45.40625 46.390625 
z
M 14.796875 27.296875 
Q 14.796875 17.390625 18.875 11.75 
Q 22.953125 6.109375 30.078125 6.109375 
Q 37.203125 6.109375 41.296875 11.75 
Q 45.40625 17.390625 45.40625 27.296875 
Q 45.40625 37.203125 41.296875 42.84375 
Q 37.203125 48.484375 30.078125 48.484375 
Q 22.953125 48.484375 18.875 42.84375 
Q 14.796875 37.203125 14.796875 27.296875 
z
" id="DejaVuSans-100"/>
      <path d="M 44.28125 53.078125 
L 44.28125 44.578125 
Q 40.484375 46.53125 36.375 47.5 
Q 32.28125 48.484375 27.875 48.484375 
Q 21.1875 48.484375 17.84375 46.4375 
Q 14.5 44.390625 14.5 40.28125 
Q 14.5 37.15625 16.890625 35.375 
Q 19.28125 33.59375 26.515625 31.984375 
L 29.59375 31.296875 
Q 39.15625 29.25 43.1875 25.515625 
Q 47.21875 21.78125 47.21875 15.09375 
Q 47.21875 7.46875 41.1875 3.015625 
Q 35.15625 -1.421875 24.609375 -1.421875 
Q 20.21875 -1.421875 15.453125 -0.5625 
Q 10.6875 0.296875 5.421875 2 
L 5.421875 11.28125 
Q 10.40625 8.6875 15.234375 7.390625 
Q 20.0625 6.109375 24.8125 6.109375 
Q 31.15625 6.109375 34.5625 8.28125 
Q 37.984375 10.453125 37.984375 14.40625 
Q 37.984375 18.0625 35.515625 20.015625 
Q 33.0625 21.96875 24.703125 23.78125 
L 21.578125 24.515625 
Q 13.234375 26.265625 9.515625 29.90625 
Q 5.8125 33.546875 5.8125 39.890625 
Q 5.8125 47.609375 11.28125 51.796875 
Q 16.75 56 26.8125 56 
Q 31.78125 56 36.171875 55.265625 
Q 40.578125 54.546875 44.28125 53.078125 
z
" id="DejaVuSans-115"/>
     </defs>
     <g transform="translate(82.195312 473.282969)rotate(-90)scale(0.1 -0.1)">
      <use xlink:href="#DejaVuSans-35"/>
      <use x="83.789062" xlink:href="#DejaVuSans-32"/>
      <use x="115.576172" xlink:href="#DejaVuSans-111"/>
      <use x="176.757812" xlink:href="#DejaVuSans-102"/>
      <use x="211.962891" xlink:href="#DejaVuSans-32"/>
      <use x="243.75" xlink:href="#DejaVuSans-78"/>
      <use x="318.554688" xlink:href="#DejaVuSans-111"/>
      <use x="379.736328" xlink:href="#DejaVuSans-100"/>
      <use x="443.212891" xlink:href="#DejaVuSans-101"/>
      <use x="504.736328" xlink:href="#DejaVuSans-115"/>
     </g>
    </g>
   </g>
   <g id="patch_12">
    <path d="M 108 512.64 
L 108 378.24 
" style="fill:none;stroke:#000000;stroke-linecap:square;stroke-linejoin:miter;stroke-width:0.8;"/>
   </g>
   <g id="patch_13">
    <path d="M 777.6 512.64 
L 777.6 378.24 
" style="fill:none;stroke:#000000;stroke-linecap:square;stroke-linejoin:miter;stroke-width:0.8;"/>
   </g>
   <g id="patch_14">
    <path d="M 108 512.64 
L 777.6 512.64 
" style="fill:none;stroke:#000000;stroke-linecap:square;stroke-linejoin:miter;stroke-width:0.8;"/>
   </g>
   <g id="patch_15">
    <path d="M 108 378.24 
L 777.6 378.24 
" style="fill:none;stroke:#000000;stroke-linecap:square;stroke-linejoin:miter;stroke-width:0.8;"/>
   </g>
   <g id="text_49">
    <!-- Degree Histogram -->
    <defs>
     <path d="M 9.8125 72.90625 
L 19.671875 72.90625 
L 19.671875 43.015625 
L 55.515625 43.015625 
L 55.515625 72.90625 
L 65.375 72.90625 
L 65.375 0 
L 55.515625 0 
L 55.515625 34.71875 
L 19.671875 34.71875 
L 19.671875 0 
L 9.8125 0 
z
" id="DejaVuSans-72"/>
     <path d="M 9.421875 54.6875 
L 18.40625 54.6875 
L 18.40625 0 
L 9.421875 0 
z
M 9.421875 75.984375 
L 18.40625 75.984375 
L 18.40625 64.59375 
L 9.421875 64.59375 
z
" id="DejaVuSans-105"/>
     <path d="M 52 44.1875 
Q 55.375 50.25 60.0625 53.125 
Q 64.75 56 71.09375 56 
Q 79.640625 56 84.28125 50.015625 
Q 88.921875 44.046875 88.921875 33.015625 
L 88.921875 0 
L 79.890625 0 
L 79.890625 32.71875 
Q 79.890625 40.578125 77.09375 44.375 
Q 74.3125 48.1875 68.609375 48.1875 
Q 61.625 48.1875 57.5625 43.546875 
Q 53.515625 38.921875 53.515625 30.90625 
L 53.515625 0 
L 44.484375 0 
L 44.484375 32.71875 
Q 44.484375 40.625 41.703125 44.40625 
Q 38.921875 48.1875 33.109375 48.1875 
Q 26.21875 48.1875 22.15625 43.53125 
Q 18.109375 38.875 18.109375 30.90625 
L 18.109375 0 
L 9.078125 0 
L 9.078125 54.6875 
L 18.109375 54.6875 
L 18.109375 46.1875 
Q 21.1875 51.21875 25.484375 53.609375 
Q 29.78125 56 35.6875 56 
Q 41.65625 56 45.828125 52.96875 
Q 50 49.953125 52 44.1875 
z
" id="DejaVuSans-109"/>
    </defs>
    <g transform="translate(387.79875 372.24)scale(0.12 -0.12)">
     <use xlink:href="#DejaVuSans-68"/>
     <use x="77.001953" xlink:href="#DejaVuSans-101"/>
     <use x="138.525391" xlink:href="#DejaVuSans-103"/>
     <use x="202.001953" xlink:href="#DejaVuSans-114"/>
     <use x="243.083984" xlink:href="#DejaVuSans-101"/>
     <use x="304.607422" xlink:href="#DejaVuSans-101"/>
     <use x="366.130859" xlink:href="#DejaVuSans-32"/>
     <use x="397.917969" xlink:href="#DejaVuSans-72"/>
     <use x="473.113281" xlink:href="#DejaVuSans-105"/>
     <use x="500.896484" xlink:href="#DejaVuSans-115"/>
     <use x="552.996094" xlink:href="#DejaVuSans-116"/>
     <use x="592.205078" xlink:href="#DejaVuSans-111"/>
     <use x="653.386719" xlink:href="#DejaVuSans-103"/>
     <use x="716.863281" xlink:href="#DejaVuSans-114"/>
     <use x="757.976562" xlink:href="#DejaVuSans-97"/>
     <use x="819.255859" xlink:href="#DejaVuSans-109"/>
    </g>
   </g>
  </g>
 </g>
 <defs>
  <clipPath id="p296f7893f5">
   <rect height="268.8" width="304.363636" x="108" y="69.12"/>
  </clipPath>
  <clipPath id="p8cef807220">
   <rect height="268.8" width="304.363636" x="473.236364" y="69.12"/>
  </clipPath>
  <clipPath id="p60bbd7ecf6">
   <rect height="134.4" width="669.6" x="108" y="378.24"/>
  </clipPath>
 </defs>
</svg>
