<svg class="main-svg" xmlns="http://www.w3.org/2000/svg" xmlns:xlink="http://www.w3.org/1999/xlink" width="700" height="500" style="" viewBox="0 0 700 500"><rect x="0" y="0" width="700" height="500" style="fill: rgb(255, 255, 255); fill-opacity: 1;"/><defs id="defs-8734a5"><g class="clips"/><g class="gradients"/><g class="patterns"/></defs><g class="bglayer"/><g class="layer-below"><g class="imagelayer"/><g class="shapelayer"/></g><g class="cartesianlayer"/><g class="polarlayer"/><g class="smithlayer"/><g class="ternarylayer"/><g class="geolayer"/><g class="funnelarealayer"/><g class="pielayer"/><g class="iciclelayer"/><g class="treemaplayer"/><g class="sunburstlayer"><g class="trace sunburst" stroke-linejoin="round" style="opacity: 1;"><g class="slice cursor-pointer"><path class="surface" d="M350,240L410,240A60,60 0,0,0 343.7282922039408,180.32868627790359L350,240A0,0 0,0,1 350,240Z" style="pointer-events: all; stroke-width: 1; fill: rgb(99, 110, 250); fill-opacity: 1; stroke: rgb(255, 255, 255); stroke-opacity: 1;"/><g class="slicetext"><text data-notex="1" class="slicetext" text-anchor="middle" x="0" y="0" style="font-family: 'Open Sans', verdana, arial, sans-serif; font-size: 12px; fill: rgb(255, 255, 255); fill-opacity: 1; white-space: pre;" transform="translate(373.0318421021249,219.1705479218101)">Cox2</text></g></g><g class="slice cursor-pointer"><path class="surface" d="M350,240L343.7282922039408,180.32868627790359A60,60 0,0,0 291.31114395597166,252.47470144906555L350,240A0,0 0,0,1 350,240Z" style="pointer-events: all; stroke-width: 1; fill: rgb(239, 85, 59); fill-opacity: 1; stroke: rgb(255, 255, 255); stroke-opacity: 1;"/><g class="slicetext"><text data-notex="1" class="slicetext" text-anchor="middle" x="0" y="0" style="font-family: 'Open Sans', verdana, arial, sans-serif; font-size: 12px; fill: rgb(68, 68, 68); fill-opacity: 1; white-space: pre;" transform="translate(322.1531917755583,224.51810955573367)">Fgfr4</text></g></g><g class="slice cursor-pointer"><path class="surface" d="M350,240L291.31114395597166,252.47470144906555A60,60 0,0,0 356.27170779605916,299.6713137220964L350,240A0,0 0,0,1 350,240Z" style="pointer-events: all; stroke-width: 1; fill: rgb(0, 204, 150); fill-opacity: 1; stroke: rgb(255, 255, 255); stroke-opacity: 1;"/><g class="slicetext"><text data-notex="1" class="slicetext" text-anchor="middle" x="0" y="0" style="font-family: 'Open Sans', verdana, arial, sans-serif; font-size: 12px; fill: rgb(68, 68, 68); fill-opacity: 1; white-space: pre;" transform="translate(328.8709673148453,273.83161858489143)">Pde4B</text></g></g><g class="slice cursor-pointer"><path class="surface" d="M350,240L356.27170779605916,299.6713137220964A60,60 0,0,0 410,240.00000000000003L350,240A0,0 0,0,1 350,240Z" style="pointer-events: all; stroke-width: 1; fill: rgb(171, 99, 250); fill-opacity: 1; stroke: rgb(255, 255, 255); stroke-opacity: 1;"/><g class="slicetext"><text data-notex="1" class="slicetext" text-anchor="middle" x="0" y="0" style="font-family: 'Open Sans', verdana, arial, sans-serif; font-size: 12px; fill: rgb(68, 68, 68); fill-opacity: 1; white-space: pre;" transform="translate(376.7137211185122,268.80314253335297)">Pfkfb3</text></g></g><g class="slice cursor-pointer"><path class="surface" d="M410,240L470,240A120,120 0,0,0 467.3777120880567,215.05059710186887L408.68885604402834,227.52529855093445A60,60 0,0,1 410,240Z" style="pointer-events: all; stroke-width: 1; fill: rgb(99, 110, 250); fill-opacity: 1; stroke: rgb(255, 255, 255); stroke-opacity: 1;"/><g class="slicetext"><text data-notex="1" class="slicetext" text-anchor="middle" x="0" y="0" style="font-family: 'Open Sans', verdana, arial, sans-serif; font-size: 12px; fill: rgb(255, 255, 255); fill-opacity: 1; white-space: pre;" transform="translate(450.9472442073769,234.16618142333286)rotate(-6)">1PXX</text></g></g><g class="slice cursor-pointer"><path class="surface" d="M408.68885604402834,227.52529855093445L467.3777120880567,215.05059710186887A120,120 0,0,0 459.6254549171121,191.19160283090397L404.8127274585561,215.595801415452A60,60 0,0,1 408.68885604402834,227.52529855093445Z" style="pointer-events: all; stroke-width: 1; fill: rgb(99, 110, 250); fill-opacity: 1; stroke: rgb(255, 255, 255); stroke-opacity: 1;"/><g class="slicetext"><text data-notex="1" class="slicetext" text-anchor="middle" x="0" y="0" style="font-family: 'Open Sans', verdana, arial, sans-serif; font-size: 12px; fill: rgb(255, 255, 255); fill-opacity: 1; white-space: pre;" transform="translate(445.7359181544474,213.88796011981034)rotate(-18)">4RRW</text></g></g><g class="slice cursor-pointer"><path class="surface" d="M404.8127274585561,215.595801415452L459.6254549171121,191.19160283090397A120,120 0,0,0 447.08203932499373,169.46576972490323L398.54101966249686,204.7328848624516A60,60 0,0,1 404.8127274585561,215.595801415452Z" style="pointer-events: all; stroke-width: 1; fill: rgb(99, 110, 250); fill-opacity: 1; stroke: rgb(255, 255, 255); stroke-opacity: 1;"/><g class="slicetext"><text data-notex="1" class="slicetext" text-anchor="middle" x="0" y="0" style="font-family: 'Open Sans', verdana, arial, sans-serif; font-size: 12px; fill: rgb(255, 255, 255); fill-opacity: 1; white-space: pre;" transform="translate(439.4137809714016,193.8617570442005)rotate(-30)">4RRX</text></g></g><g class="slice cursor-pointer"><path class="surface" d="M398.54101966249686,204.7328848624516L447.08203932499373,169.46576972490323A120,120 0,0,0 430.29567276306295,150.8226209427127L390.1478363815315,195.41131047135633A60,60 0,0,1 398.54101966249686,204.7328848624516Z" style="pointer-events: all; stroke-width: 1; fill: rgb(99, 110, 250); fill-opacity: 1; stroke: rgb(255, 255, 255); stroke-opacity: 1;"/><g class="slicetext"><text data-notex="1" class="slicetext" text-anchor="middle" x="0" y="0" style="font-family: 'Open Sans', verdana, arial, sans-serif; font-size: 12px; fill: rgb(255, 255, 255); fill-opacity: 1; white-space: pre;" transform="translate(427.86719522541364,176.27981796653842)rotate(-42)">4RRZ</text></g></g><g class="slice cursor-pointer"><path class="surface" d="M390.1478363815315,195.41131047135633L430.29567276306295,150.8226209427127A120,120 0,0,0 410,136.07695154586736L380,188.03847577293368A60,60 0,0,1 390.1478363815315,195.41131047135633Z" style="pointer-events: all; stroke-width: 1; fill: rgb(99, 110, 250); fill-opacity: 1; stroke: rgb(255, 255, 255); stroke-opacity: 1;"/><g class="slicetext"><text data-notex="1" class="slicetext" text-anchor="middle" x="0" y="0" style="font-family: 'Open Sans', verdana, arial, sans-serif; font-size: 12px; fill: rgb(255, 255, 255); fill-opacity: 1; white-space: pre;" transform="translate(413.4141527628741,160.79908931452735)rotate(-54)">5IKQ</text></g></g><g class="slice cursor-pointer"><path class="surface" d="M380,188.03847577293368L410,136.07695154586736A120,120 0,0,0 387.0820393249937,125.87321804458158L368.54101966249686,182.93660902229078A60,60 0,0,1 380,188.03847577293368Z" style="pointer-events: all; stroke-width: 1; fill: rgb(99, 110, 250); fill-opacity: 1; stroke: rgb(255, 255, 255); stroke-opacity: 1;"/><g class="slicetext"><text data-notex="1" class="slicetext" text-anchor="middle" x="0" y="0" style="font-family: 'Open Sans', verdana, arial, sans-serif; font-size: 12px; fill: rgb(255, 255, 255); fill-opacity: 1; white-space: pre;" transform="translate(395.73470111867033,148.95649778792583)rotate(-66)">5IKR</text></g></g><g class="slice cursor-pointer"><path class="surface" d="M368.54101966249686,182.93660902229078L387.0820393249937,125.87321804458158A120,120 0,0,0 362.54341559211844,120.6573725558072L356.2717077960592,180.3286862779036A60,60 0,0,1 368.54101966249686,182.93660902229078Z" style="pointer-events: all; stroke-width: 1; fill: rgb(99, 110, 250); fill-opacity: 1; stroke: rgb(255, 255, 255); stroke-opacity: 1;"/><g class="slicetext"><text data-notex="1" class="slicetext" text-anchor="middle" x="0" y="0" style="font-family: 'Open Sans', verdana, arial, sans-serif; font-size: 12px; fill: rgb(255, 255, 255); fill-opacity: 1; white-space: pre;" transform="translate(375.8981723022712,141.00491694380867)rotate(-78)">5IKT</text></g></g><g class="slice cursor-pointer"><path class="surface" d="M356.2717077960592,180.3286862779036L362.54341559211844,120.6573725558072A120,120 0,0,0 337.45658440788156,120.6573725558072L343.7282922039408,180.3286862779036A60,60 0,0,1 356.2717077960592,180.3286862779036Z" style="pointer-events: all; stroke-width: 1; fill: rgb(99, 110, 250); fill-opacity: 1; stroke: rgb(255, 255, 255); stroke-opacity: 1;"/><g class="slicetext"><text data-notex="1" class="slicetext" text-anchor="middle" x="0" y="0" style="font-family: 'Open Sans', verdana, arial, sans-serif; font-size: 12px; fill: rgb(255, 255, 255); fill-opacity: 1; white-space: pre;" transform="translate(354.75,138.12972453728148)rotate(-90)">5IKV</text></g></g><g class="slice cursor-pointer"><path class="surface" d="M343.7282922039408,180.32868627790359L337.4565844078816,120.65737255580719A120,120 0,0,0 312.9179606750063,125.87321804458156L331.45898033750314,182.93660902229078A60,60 0,0,1 343.7282922039408,180.32868627790359Z" style="pointer-events: all; stroke-width: 1; fill: rgb(239, 85, 59); fill-opacity: 1; stroke: rgb(255, 255, 255); stroke-opacity: 1;"/><g class="slicetext"><text data-notex="1" class="slicetext" text-anchor="middle" x="0" y="0" style="font-family: 'Open Sans', verdana, arial, sans-serif; font-size: 12px; fill: rgb(68, 68, 68); fill-opacity: 1; white-space: pre;" transform="translate(324.5869106463445,143.28705278946052)rotate(78)">4QQ5</text></g></g><g class="slice cursor-pointer"><path class="surface" d="M331.45898033750314,182.93660902229078L312.9179606750063,125.87321804458156A120,120 0,0,0 290,136.07695154586736L320,188.03847577293368A60,60 0,0,1 331.45898033750314,182.93660902229078Z" style="pointer-events: all; stroke-width: 1; fill: rgb(239, 85, 59); fill-opacity: 1; stroke: rgb(255, 255, 255); stroke-opacity: 1;"/><g class="slicetext"><text data-notex="1" class="slicetext" text-anchor="middle" x="0" y="0" style="font-family: 'Open Sans', verdana, arial, sans-serif; font-size: 12px; fill: rgb(68, 68, 68); fill-opacity: 1; white-space: pre;" transform="translate(305.1506143946763,150.9449489874102)rotate(66)">4QQC</text></g></g><g class="slice cursor-pointer"><path class="surface" d="M320,188.03847577293368L290,136.07695154586736A120,120 0,0,0 269.70432723693705,150.82262094271266L309.8521636184685,195.41131047135633A60,60 0,0,1 320,188.03847577293368Z" style="pointer-events: all; stroke-width: 1; fill: rgb(239, 85, 59); fill-opacity: 1; stroke: rgb(255, 255, 255); stroke-opacity: 1;"/><g class="slicetext"><text data-notex="1" class="slicetext" text-anchor="middle" x="0" y="0" style="font-family: 'Open Sans', verdana, arial, sans-serif; font-size: 12px; fill: rgb(68, 68, 68); fill-opacity: 1; white-space: pre;" transform="translate(286.906978349933,161.24108837229576)rotate(54)">4R6V</text></g></g><g class="slice cursor-pointer"><path class="surface" d="M309.8521636184685,195.41131047135633L269.70432723693705,150.82262094271266A120,120 0,0,0 252.91796067500633,169.46576972490317L301.4589803375032,204.73288486245158A60,60 0,0,1 309.8521636184685,195.41131047135633Z" style="pointer-events: all; stroke-width: 1; fill: rgb(239, 85, 59); fill-opacity: 1; stroke: rgb(255, 255, 255); stroke-opacity: 1;"/><g class="slicetext"><text data-notex="1" class="slicetext" text-anchor="middle" x="0" y="0" style="font-family: 'Open Sans', verdana, arial, sans-serif; font-size: 12px; fill: rgb(68, 68, 68); fill-opacity: 1; white-space: pre;" transform="translate(272.2699102044562,176.40326825008836)rotate(42)">4XCU</text></g></g><g class="slice cursor-pointer"><path class="surface" d="M301.4589803375032,204.73288486245158L252.91796067500633,169.46576972490317A120,120 0,0,0 240.37454508288792,191.1916028309039L295.187272541444,215.59580141545194A60,60 0,0,1 301.4589803375032,204.73288486245158Z" style="pointer-events: all; stroke-width: 1; fill: rgb(239, 85, 59); fill-opacity: 1; stroke: rgb(255, 255, 255); stroke-opacity: 1;"/><g class="slicetext"><text data-notex="1" class="slicetext" text-anchor="middle" x="0" y="0" style="font-family: 'Open Sans', verdana, arial, sans-serif; font-size: 12px; fill: rgb(68, 68, 68); fill-opacity: 1; white-space: pre;" transform="translate(261.1132189104881,194.16602056787235)rotate(30)">6NVG</text></g></g><g class="slice cursor-pointer"><path class="surface" d="M295.187272541444,215.59580141545194L240.37454508288792,191.1916028309039A120,120 0,0,0 232.62228791194335,215.0505971018688L291.31114395597166,227.5252985509344A60,60 0,0,1 295.187272541444,215.59580141545194Z" style="pointer-events: all; stroke-width: 1; fill: rgb(239, 85, 59); fill-opacity: 1; stroke: rgb(255, 255, 255); stroke-opacity: 1;"/><g class="slicetext"><text data-notex="1" class="slicetext" text-anchor="middle" x="0" y="0" style="font-family: 'Open Sans', verdana, arial, sans-serif; font-size: 12px; fill: rgb(68, 68, 68); fill-opacity: 1; white-space: pre;" transform="translate(253.42329800285208,213.61477288904248)rotate(18)">6NVH</text></g></g><g class="slice cursor-pointer"><path class="surface" d="M291.31114395597166,227.5252985509344L232.62228791194335,215.0505971018688A120,120 0,0,0 230,239.9999999999999L290,239.99999999999994A60,60 0,0,1 291.31114395597166,227.5252985509344Z" style="pointer-events: all; stroke-width: 1; fill: rgb(239, 85, 59); fill-opacity: 1; stroke: rgb(255, 255, 255); stroke-opacity: 1;"/><g class="slicetext"><text data-notex="1" class="slicetext" text-anchor="middle" x="0" y="0" style="font-family: 'Open Sans', verdana, arial, sans-serif; font-size: 12px; fill: rgb(68, 68, 68); fill-opacity: 1; white-space: pre;" transform="translate(248.46516834445293,234.10442349394114)rotate(6)">6NVI</text></g></g><g class="slice cursor-pointer"><path class="surface" d="M290,239.99999999999994L230,239.9999999999999A120,120 0,0,0 232.6222879119433,264.949402898131L291.31114395597166,252.4747014490655A60,60 0,0,1 290,239.99999999999994Z" style="pointer-events: all; stroke-width: 1; fill: rgb(239, 85, 59); fill-opacity: 1; stroke: rgb(255, 255, 255); stroke-opacity: 1;"/><g class="slicetext"><text data-notex="1" class="slicetext" text-anchor="middle" x="0" y="0" style="font-family: 'Open Sans', verdana, arial, sans-serif; font-size: 12px; fill: rgb(68, 68, 68); fill-opacity: 1; white-space: pre;" transform="translate(249.6259510644557,255.32590198181657)rotate(-5.999999999999886)">6NVJ</text></g></g><g class="slice cursor-pointer"><path class="surface" d="M291.31114395597166,252.47470144906555L232.62228791194332,264.9494028981311A120,120 0,0,0 240.37454508288786,288.808397169096L295.1872725414439,264.404198584548A60,60 0,0,1 291.31114395597166,252.47470144906555Z" style="pointer-events: all; stroke-width: 1; fill: rgb(0, 204, 150); fill-opacity: 1; stroke: rgb(255, 255, 255); stroke-opacity: 1;"/><g class="slicetext"><text data-notex="1" class="slicetext" text-anchor="middle" x="0" y="0" style="font-family: 'Open Sans', verdana, arial, sans-serif; font-size: 12px; fill: rgb(68, 68, 68); fill-opacity: 1; white-space: pre;" transform="translate(255.74157753810988,275.620863558842)rotate(-18)">3FRG</text></g></g><g class="slice cursor-pointer"><path class="surface" d="M295.1872725414439,264.404198584548L240.37454508288786,288.808397169096A120,120 0,0,0 252.91796067500627,310.5342302750967L301.45898033750314,275.26711513754833A60,60 0,0,1 295.1872725414439,264.404198584548Z" style="pointer-events: all; stroke-width: 1; fill: rgb(0, 204, 150); fill-opacity: 1; stroke: rgb(255, 255, 255); stroke-opacity: 1;"/><g class="slicetext"><text data-notex="1" class="slicetext" text-anchor="middle" x="0" y="0" style="font-family: 'Open Sans', verdana, arial, sans-serif; font-size: 12px; fill: rgb(68, 68, 68); fill-opacity: 1; white-space: pre;" transform="translate(266.54511988050456,293.66752505948)rotate(-30)">3GWT</text></g></g><g class="slice cursor-pointer"><path class="surface" d="M301.45898033750314,275.26711513754833L252.91796067500627,310.5342302750967A120,120 0,0,0 269.70432723693693,329.1773790572872L309.85216361846847,284.5886895286436A60,60 0,0,1 301.45898033750314,275.26711513754833Z" style="pointer-events: all; stroke-width: 1; fill: rgb(0, 204, 150); fill-opacity: 1; stroke: rgb(255, 255, 255); stroke-opacity: 1;"/><g class="slicetext"><text data-notex="1" class="slicetext" text-anchor="middle" x="0" y="0" style="font-family: 'Open Sans', verdana, arial, sans-serif; font-size: 12px; fill: rgb(68, 68, 68); fill-opacity: 1; white-space: pre;" transform="translate(277.5131946269143,311.659168181787)rotate(-42)">3LY2</text></g></g><g class="slice cursor-pointer"><path class="surface" d="M309.85216361846847,284.5886895286436L269.70432723693693,329.1773790572872A120,120 0,0,0 289.99999999999994,343.92304845413264L320,291.9615242270663A60,60 0,0,1 309.85216361846847,284.5886895286436Z" style="pointer-events: all; stroke-width: 1; fill: rgb(0, 204, 150); fill-opacity: 1; stroke: rgb(255, 255, 255); stroke-opacity: 1;"/><g class="slicetext"><text data-notex="1" class="slicetext" text-anchor="middle" x="0" y="0" style="font-family: 'Open Sans', verdana, arial, sans-serif; font-size: 12px; fill: rgb(68, 68, 68); fill-opacity: 1; white-space: pre;" transform="translate(295.2590296962873,323.4256645144239)rotate(-54)">3W5E</text></g></g><g class="slice cursor-pointer"><path class="surface" d="M320,291.9615242270663L289.99999999999994,343.92304845413264A120,120 0,0,0 312.91796067500627,354.12678195541844L331.45898033750314,297.0633909777092A60,60 0,0,1 320,291.9615242270663Z" style="pointer-events: all; stroke-width: 1; fill: rgb(0, 204, 150); fill-opacity: 1; stroke: rgb(255, 255, 255); stroke-opacity: 1;"/><g class="slicetext"><text data-notex="1" class="slicetext" text-anchor="middle" x="0" y="0" style="font-family: 'Open Sans', verdana, arial, sans-serif; font-size: 12px; fill: rgb(68, 68, 68); fill-opacity: 1; white-space: pre;" transform="translate(314.0519585839373,332.41894131428626)rotate(-66)">3WD9</text></g></g><g class="slice cursor-pointer"><path class="surface" d="M331.45898033750314,297.0633909777092L312.91796067500627,354.12678195541844A120,120 0,0,0 337.4565844078816,359.34262744419283L343.7282922039408,299.6713137220964A60,60 0,0,1 331.45898033750314,297.0633909777092Z" style="pointer-events: all; stroke-width: 1; fill: rgb(0, 204, 150); fill-opacity: 1; stroke: rgb(255, 255, 255); stroke-opacity: 1;"/><g class="slicetext"><text data-notex="1" class="slicetext" text-anchor="middle" x="0" y="0" style="font-family: 'Open Sans', verdana, arial, sans-serif; font-size: 12px; fill: rgb(68, 68, 68); fill-opacity: 1; white-space: pre;" transform="translate(333.9140408983238,338.5247256671194)rotate(-78)">4MYQ</text></g></g><g class="slice cursor-pointer"><path class="surface" d="M343.7282922039408,299.6713137220964L337.4565844078816,359.34262744419283A120,120 0,0,0 362.54341559211844,359.3426274441928L356.2717077960592,299.6713137220964A60,60 0,0,1 343.7282922039408,299.6713137220964Z" style="pointer-events: all; stroke-width: 1; fill: rgb(0, 204, 150); fill-opacity: 1; stroke: rgb(255, 255, 255); stroke-opacity: 1;"/><g class="slicetext"><text data-notex="1" class="slicetext" text-anchor="middle" x="0" y="0" style="font-family: 'Open Sans', verdana, arial, sans-serif; font-size: 12px; fill: rgb(68, 68, 68); fill-opacity: 1; white-space: pre;" transform="translate(354.75000000000006,339.1424014279613)rotate(-90)">4NW7</text></g></g><g class="slice cursor-pointer"><path class="surface" d="M356.27170779605916,299.6713137220964L362.5434155921184,359.34262744419283A120,120 0,0,0 387.0820393249937,354.12678195541844L368.5410196624968,297.0633909777092A60,60 0,0,1 356.27170779605916,299.6713137220964Z" style="pointer-events: all; stroke-width: 1; fill: rgb(171, 99, 250); fill-opacity: 1; stroke: rgb(255, 255, 255); stroke-opacity: 1;"/><g class="slicetext"><text data-notex="1" class="slicetext" text-anchor="middle" x="0" y="0" style="font-family: 'Open Sans', verdana, arial, sans-serif; font-size: 12px; fill: rgb(68, 68, 68); fill-opacity: 1; white-space: pre;" transform="translate(366.1431666043227,338.7938658065583)rotate(78)">6HVH</text></g></g><g class="slice cursor-pointer"><path class="surface" d="M368.5410196624968,297.0633909777092L387.0820393249937,354.12678195541844A120,120 0,0,0 410,343.92304845413264L380,291.9615242270663A60,60 0,0,1 368.5410196624968,297.0633909777092Z" style="pointer-events: all; stroke-width: 1; fill: rgb(171, 99, 250); fill-opacity: 1; stroke: rgb(255, 255, 255); stroke-opacity: 1;"/><g class="slicetext"><text data-notex="1" class="slicetext" text-anchor="middle" x="0" y="0" style="font-family: 'Open Sans', verdana, arial, sans-serif; font-size: 12px; fill: rgb(68, 68, 68); fill-opacity: 1; white-space: pre;" transform="translate(386.97771741292496,334.7316314684454)rotate(66)">6HVI</text></g></g><g class="slice cursor-pointer"><path class="surface" d="M380,291.9615242270663L410,343.92304845413264A120,120 0,0,0 430.295672763063,329.1773790572873L390.14783638153153,284.5886895286436A60,60 0,0,1 380,291.9615242270663Z" style="pointer-events: all; stroke-width: 1; fill: rgb(171, 99, 250); fill-opacity: 1; stroke: rgb(255, 255, 255); stroke-opacity: 1;"/><g class="slicetext"><text data-notex="1" class="slicetext" text-anchor="middle" x="0" y="0" style="font-family: 'Open Sans', verdana, arial, sans-serif; font-size: 12px; fill: rgb(68, 68, 68); fill-opacity: 1; white-space: pre;" transform="translate(405.76638965574773,324.83703317146615)rotate(54)">6HVJ</text></g></g><g class="slice cursor-pointer"><path class="surface" d="M390.14783638153153,284.5886895286436L430.295672763063,329.1773790572873A120,120 0,0,0 447.08203932499373,310.5342302750967L398.54101966249686,275.26711513754833A60,60 0,0,1 390.14783638153153,284.5886895286436Z" style="pointer-events: all; stroke-width: 1; fill: rgb(171, 99, 250); fill-opacity: 1; stroke: rgb(255, 255, 255); stroke-opacity: 1;"/><g class="slicetext"><text data-notex="1" class="slicetext" text-anchor="middle" x="0" y="0" style="font-family: 'Open Sans', verdana, arial, sans-serif; font-size: 12px; fill: rgb(68, 68, 68); fill-opacity: 1; white-space: pre;" transform="translate(422.5456308564476,311.7121348849138)rotate(41.99999999999994)">6IBX</text></g></g><g class="slice cursor-pointer"><path class="surface" d="M398.54101966249686,275.26711513754833L447.08203932499373,310.5342302750967A120,120 0,0,0 459.62545491711217,288.80839716909594L404.8127274585561,264.40419858454794A60,60 0,0,1 398.54101966249686,275.26711513754833Z" style="pointer-events: all; stroke-width: 1; fill: rgb(171, 99, 250); fill-opacity: 1; stroke: rgb(255, 255, 255); stroke-opacity: 1;"/><g class="slicetext"><text data-notex="1" class="slicetext" text-anchor="middle" x="0" y="0" style="font-family: 'Open Sans', verdana, arial, sans-serif; font-size: 12px; fill: rgb(68, 68, 68); fill-opacity: 1; white-space: pre;" transform="translate(436.18184209008143,295.2419372872677)rotate(30)">6IBY</text></g></g><g class="slice cursor-pointer"><path class="surface" d="M404.8127274585561,264.40419858454794L459.62545491711217,288.80839716909594A120,120 0,0,0 467.3777120880567,264.949402898131L408.68885604402834,252.4747014490655A60,60 0,0,1 404.8127274585561,264.40419858454794Z" style="pointer-events: all; stroke-width: 1; fill: rgb(171, 99, 250); fill-opacity: 1; stroke: rgb(255, 255, 255); stroke-opacity: 1;"/><g class="slicetext"><text data-notex="1" class="slicetext" text-anchor="middle" x="0" y="0" style="font-family: 'Open Sans', verdana, arial, sans-serif; font-size: 12px; fill: rgb(68, 68, 68); fill-opacity: 1; white-space: pre;" transform="translate(445.44168455161343,276.00532871759873)rotate(17.999999999999886)">6IBZ</text></g></g><g class="slice cursor-pointer"><path class="surface" d="M408.68885604402834,252.4747014490655L467.3777120880567,264.949402898131A120,120 0,0,0 470,239.99999999999983L410,239.99999999999991A60,60 0,0,1 408.68885604402834,252.4747014490655Z" style="pointer-events: all; stroke-width: 1; fill: rgb(171, 99, 250); fill-opacity: 1; stroke: rgb(255, 255, 255); stroke-opacity: 1;"/><g class="slicetext"><text data-notex="1" class="slicetext" text-anchor="middle" x="0" y="0" style="font-family: 'Open Sans', verdana, arial, sans-serif; font-size: 12px; fill: rgb(68, 68, 68); fill-opacity: 1; white-space: pre;" transform="translate(451.04009969432275,255.3959067374661)rotate(5.999999999999943)">6IC0</text></g></g><g class="slice"><path class="surface" d="M470,240L530,240A180,180 0,0,0 526.066568132085,202.57589565280333L467.3777120880567,215.05059710186887A120,120 0,0,1 470,240Z" style="pointer-events: all; stroke-width: 1; fill: rgb(99, 110, 250); fill-opacity: 1; stroke: rgb(255, 255, 255); stroke-opacity: 1; opacity: 0.7;"/><g class="slicetext"><text data-notex="1" class="slicetext" text-anchor="middle" x="0" y="0" style="font-family: 'Open Sans', verdana, arial, sans-serif; font-size: 12px; fill: rgb(255, 255, 255); fill-opacity: 1; white-space: pre;" transform="translate(512.0727279736112,227.71546986891155)">DIF</text></g></g><g class="slice"><path class="surface" d="M467.3777120880567,215.05059710186887L526.066568132085,202.57589565280333A180,180 0,0,0 514.4381823756681,166.78740424635598L459.6254549171121,191.19160283090397A120,120 0,0,1 467.3777120880567,215.05059710186887Z" style="pointer-events: all; stroke-width: 1; fill: rgb(99, 110, 250); fill-opacity: 1; stroke: rgb(255, 255, 255); stroke-opacity: 1; opacity: 0.7;"/><g class="slicetext"><text data-notex="1" class="slicetext" text-anchor="middle" x="0" y="0" style="font-family: 'Open Sans', verdana, arial, sans-serif; font-size: 12px; fill: rgb(255, 255, 255); fill-opacity: 1; white-space: pre;" transform="translate(504.9659345499299,194.3909003142079)">LUR</text></g></g><g class="slice"><path class="surface" d="M459.6254549171121,191.19160283090397L514.4381823756681,166.78740424635598A180,180 0,0,0 495.62305898749054,134.19865458735484L447.08203932499373,169.46576972490323A120,120 0,0,1 459.6254549171121,191.19160283090397Z" style="pointer-events: all; stroke-width: 1; fill: rgb(99, 110, 250); fill-opacity: 1; stroke: rgb(255, 255, 255); stroke-opacity: 1; opacity: 0.7;"/><g class="slicetext"><text data-notex="1" class="slicetext" text-anchor="middle" x="0" y="0" style="font-family: 'Open Sans', verdana, arial, sans-serif; font-size: 12px; fill: rgb(255, 255, 255); fill-opacity: 1; white-space: pre;" transform="translate(491.1087993461449,163.26726506554422)">LUR</text></g></g><g class="slice"><path class="surface" d="M447.08203932499373,169.46576972490323L495.62305898749054,134.19865458735484A180,180 0,0,0 470.4435091445945,106.23393141406905L430.29567276306295,150.8226209427127A120,120 0,0,1 447.08203932499373,169.46576972490323Z" style="pointer-events: all; stroke-width: 1; fill: rgb(99, 110, 250); fill-opacity: 1; stroke: rgb(255, 255, 255); stroke-opacity: 1; opacity: 0.7;"/><g class="slicetext"><text data-notex="1" class="slicetext" text-anchor="middle" x="0" y="0" style="font-family: 'Open Sans', verdana, arial, sans-serif; font-size: 12px; fill: rgb(255, 255, 255); fill-opacity: 1; white-space: pre;" transform="translate(471.08350816457386,135.70481633105894)">LUR</text></g></g><g class="slice"><path class="surface" d="M430.29567276306295,150.8226209427127L470.4435091445945,106.23393141406905A180,180 0,0,0 440,84.11542731880104L410,136.07695154586736A120,120 0,0,1 430.29567276306295,150.8226209427127Z" style="pointer-events: all; stroke-width: 1; fill: rgb(99, 110, 250); fill-opacity: 1; stroke: rgb(255, 255, 255); stroke-opacity: 1; opacity: 0.7;"/><g class="slicetext"><text data-notex="1" class="slicetext" text-anchor="middle" x="0" y="0" style="font-family: 'Open Sans', verdana, arial, sans-serif; font-size: 12px; fill: rgb(255, 255, 255); fill-opacity: 1; white-space: pre;" transform="translate(445.7886998218596,112.90816537975209)">JMS</text></g></g><g class="slice"><path class="surface" d="M410,136.07695154586736L440,84.11542731880104A180,180 0,0,0 405.62305898749054,68.80982706687237L387.0820393249937,125.87321804458158A120,120 0,0,1 410,136.07695154586736Z" style="pointer-events: all; stroke-width: 1; fill: rgb(99, 110, 250); fill-opacity: 1; stroke: rgb(255, 255, 255); stroke-opacity: 1; opacity: 0.7;"/><g class="slicetext"><text data-notex="1" class="slicetext" text-anchor="middle" x="0" y="0" style="font-family: 'Open Sans', verdana, arial, sans-serif; font-size: 12px; fill: rgb(255, 255, 255); fill-opacity: 1; white-space: pre;" transform="translate(416.28402815175156,95.87363524866367)">ID8</text></g></g><g class="slice"><path class="surface" d="M387.0820393249937,125.87321804458158L405.62305898749054,68.80982706687237A180,180 0,0,0 368.8151233881776,60.986058833710814L362.54341559211844,120.6573725558072A120,120 0,0,1 387.0820393249937,125.87321804458158Z" style="pointer-events: all; stroke-width: 1; fill: rgb(99, 110, 250); fill-opacity: 1; stroke: rgb(255, 255, 255); stroke-opacity: 1; opacity: 0.7;"/><g class="slicetext"><text data-notex="1" class="slicetext" text-anchor="middle" x="0" y="0" style="font-family: 'Open Sans', verdana, arial, sans-serif; font-size: 12px; fill: rgb(255, 255, 255); fill-opacity: 1; white-space: pre;" transform="translate(383.88242638535604,85.34571664526683)">TLF</text></g></g><g class="slice"><path class="surface" d="M362.54341559211844,120.6573725558072L368.8151233881776,60.986058833710814A180,180 0,0,0 331.18487661182235,60.986058833710814L337.45658440788156,120.6573725558072A120,120 0,0,1 362.54341559211844,120.6573725558072Z" style="pointer-events: all; stroke-width: 1; fill: rgb(99, 110, 250); fill-opacity: 1; stroke: rgb(255, 255, 255); stroke-opacity: 1; opacity: 0.7;"/><g class="slicetext"><text data-notex="1" class="slicetext" text-anchor="middle" x="0" y="0" style="font-family: 'Open Sans', verdana, arial, sans-serif; font-size: 12px; fill: rgb(255, 255, 255); fill-opacity: 1; white-space: pre;" transform="translate(350,81.78453013108842)">FLF</text></g></g><g class="slice"><path class="surface" d="M337.4565844078816,120.65737255580719L331.1848766118224,60.986058833710786A180,180 0,0,0 294.37694101250946,68.80982706687234L312.9179606750063,125.87321804458156A120,120 0,0,1 337.4565844078816,120.65737255580719Z" style="pointer-events: all; stroke-width: 1; fill: rgb(239, 85, 59); fill-opacity: 1; stroke: rgb(255, 255, 255); stroke-opacity: 1; opacity: 0.7;"/><g class="slicetext"><text data-notex="1" class="slicetext" text-anchor="middle" x="0" y="0" style="font-family: 'Open Sans', verdana, arial, sans-serif; font-size: 12px; fill: rgb(68, 68, 68); fill-opacity: 1; white-space: pre;" transform="translate(316.11757361464396,85.34571664526683)">37O</text></g></g><g class="slice"><path class="surface" d="M312.9179606750063,125.87321804458156L294.37694101250946,68.80982706687234A180,180 0,0,0 260.00000000000006,84.11542731880104L290,136.07695154586736A120,120 0,0,1 312.9179606750063,125.87321804458156Z" style="pointer-events: all; stroke-width: 1; fill: rgb(239, 85, 59); fill-opacity: 1; stroke: rgb(255, 255, 255); stroke-opacity: 1; opacity: 0.7;"/><g class="slicetext"><text data-notex="1" class="slicetext" text-anchor="middle" x="0" y="0" style="font-family: 'Open Sans', verdana, arial, sans-serif; font-size: 12px; fill: rgb(68, 68, 68); fill-opacity: 1; white-space: pre;" transform="translate(283.71597184824844,95.87363524866365)">37O</text></g></g><g class="slice"><path class="surface" d="M290,136.07695154586736L260.00000000000006,84.11542731880104A180,180 0,0,0 229.55649085540557,106.23393141406899L269.70432723693705,150.82262094271266A120,120 0,0,1 290,136.07695154586736Z" style="pointer-events: all; stroke-width: 1; fill: rgb(239, 85, 59); fill-opacity: 1; stroke: rgb(255, 255, 255); stroke-opacity: 1; opacity: 0.7;"/><g class="slicetext"><text data-notex="1" class="slicetext" text-anchor="middle" x="0" y="0" style="font-family: 'Open Sans', verdana, arial, sans-serif; font-size: 12px; fill: rgb(68, 68, 68); fill-opacity: 1; white-space: pre;" transform="translate(254.2113001781404,112.90816537975203)">FI3</text></g></g><g class="slice"><path class="surface" d="M269.70432723693705,150.82262094271266L229.55649085540557,106.23393141406899A180,180 0,0,0 204.37694101250952,134.19865458735475L252.91796067500633,169.46576972490317A120,120 0,0,1 269.70432723693705,150.82262094271266Z" style="pointer-events: all; stroke-width: 1; fill: rgb(239, 85, 59); fill-opacity: 1; stroke: rgb(255, 255, 255); stroke-opacity: 1; opacity: 0.7;"/><g class="slicetext"><text data-notex="1" class="slicetext" text-anchor="middle" x="0" y="0" style="font-family: 'Open Sans', verdana, arial, sans-serif; font-size: 12px; fill: rgb(68, 68, 68); fill-opacity: 1; white-space: pre;" transform="translate(228.89305433542617,135.7048163310589)">40M</text></g></g><g class="slice"><path class="surface" d="M252.91796067500633,169.46576972490317L204.37694101250952,134.19865458735475A180,180 0,0,0 185.5618176243319,166.78740424635583L240.37454508288792,191.1916028309039A120,120 0,0,1 252.91796067500633,169.46576972490317Z" style="pointer-events: all; stroke-width: 1; fill: rgb(239, 85, 59); fill-opacity: 1; stroke: rgb(255, 255, 255); stroke-opacity: 1; opacity: 0.7;"/><g class="slicetext"><text data-notex="1" class="slicetext" text-anchor="middle" x="0" y="0" style="font-family: 'Open Sans', verdana, arial, sans-serif; font-size: 12px; fill: rgb(68, 68, 68); fill-opacity: 1; white-space: pre;" transform="translate(208.8677631538551,163.2672650655441)">XL8</text></g></g><g class="slice"><path class="surface" d="M240.37454508288792,191.1916028309039L185.5618176243319,166.78740424635583A180,180 0,0,0 173.933431867915,202.57589565280318L232.62228791194335,215.0505971018688A120,120 0,0,1 240.37454508288792,191.1916028309039Z" style="pointer-events: all; stroke-width: 1; fill: rgb(239, 85, 59); fill-opacity: 1; stroke: rgb(255, 255, 255); stroke-opacity: 1; opacity: 0.7;"/><g class="slicetext"><text data-notex="1" class="slicetext" text-anchor="middle" x="0" y="0" style="font-family: 'Open Sans', verdana, arial, sans-serif; font-size: 12px; fill: rgb(68, 68, 68); fill-opacity: 1; white-space: pre;" transform="translate(195.01062795007016,194.39090031420778)">XL6</text></g></g><g class="slice"><path class="surface" d="M232.62228791194335,215.0505971018688L173.933431867915,202.57589565280318A180,180 0,0,0 170,239.99999999999983L230,239.9999999999999A120,120 0,0,1 232.62228791194335,215.0505971018688Z" style="pointer-events: all; stroke-width: 1; fill: rgb(239, 85, 59); fill-opacity: 1; stroke: rgb(255, 255, 255); stroke-opacity: 1; opacity: 0.7;"/><g class="slicetext"><text data-notex="1" class="slicetext" text-anchor="middle" x="0" y="0" style="font-family: 'Open Sans', verdana, arial, sans-serif; font-size: 12px; fill: rgb(68, 68, 68); fill-opacity: 1; white-space: pre;" transform="translate(187.9272720263888,227.71546986891144)">XL7</text></g></g><g class="slice"><path class="surface" d="M230,239.9999999999999L170,239.99999999999983A180,180 0,0,0 173.93343186791495,277.4241043471965L232.6222879119433,264.949402898131A120,120 0,0,1 230,239.9999999999999Z" style="pointer-events: all; stroke-width: 1; fill: rgb(239, 85, 59); fill-opacity: 1; stroke: rgb(255, 255, 255); stroke-opacity: 1; opacity: 0.7;"/><g class="slicetext"><text data-notex="1" class="slicetext" text-anchor="middle" x="0" y="0" style="font-family: 'Open Sans', verdana, arial, sans-serif; font-size: 12px; fill: rgb(68, 68, 68); fill-opacity: 1; white-space: pre;" transform="translate(187.92727202638878,261.7845301310883)">XL5</text></g></g><g class="slice"><path class="surface" d="M232.62228791194332,264.9494028981311L173.93343186791498,277.42410434719665A180,180 0,0,0 185.5618176243318,313.212595753644L240.37454508288786,288.808397169096A120,120 0,0,1 232.62228791194332,264.9494028981311Z" style="pointer-events: all; stroke-width: 1; fill: rgb(0, 204, 150); fill-opacity: 1; stroke: rgb(255, 255, 255); stroke-opacity: 1; opacity: 0.7;"/><g class="slicetext"><text data-notex="1" class="slicetext" text-anchor="middle" x="0" y="0" style="font-family: 'Open Sans', verdana, arial, sans-serif; font-size: 12px; fill: rgb(68, 68, 68); fill-opacity: 1; white-space: pre;" transform="translate(195.0106279500701,295.1090996857921)">SK4</text></g></g><g class="slice"><path class="surface" d="M240.37454508288786,288.808397169096L185.5618176243318,313.212595753644A180,180 0,0,0 204.3769410125094,345.8013454126451L252.91796067500627,310.5342302750967A120,120 0,0,1 240.37454508288786,288.808397169096Z" style="pointer-events: all; stroke-width: 1; fill: rgb(0, 204, 150); fill-opacity: 1; stroke: rgb(255, 255, 255); stroke-opacity: 1; opacity: 0.7;"/><g class="slicetext"><text data-notex="1" class="slicetext" text-anchor="middle" x="0" y="0" style="font-family: 'Open Sans', verdana, arial, sans-serif; font-size: 12px; fill: rgb(68, 68, 68); fill-opacity: 1; white-space: pre;" transform="translate(208.867763153855,326.2327349344557)">066</text></g></g><g class="slice"><path class="surface" d="M252.91796067500627,310.5342302750967L204.3769410125094,345.8013454126451A180,180 0,0,0 229.5564908554054,373.76606858593084L269.70432723693693,329.1773790572872A120,120 0,0,1 252.91796067500627,310.5342302750967Z" style="pointer-events: all; stroke-width: 1; fill: rgb(0, 204, 150); fill-opacity: 1; stroke: rgb(255, 255, 255); stroke-opacity: 1; opacity: 0.7;"/><g class="slicetext"><text data-notex="1" class="slicetext" text-anchor="middle" x="0" y="0" style="font-family: 'Open Sans', verdana, arial, sans-serif; font-size: 12px; fill: rgb(68, 68, 68); fill-opacity: 1; white-space: pre;" transform="translate(228.8930543354261,353.79518366894104)">Z72</text></g></g><g class="slice"><path class="surface" d="M269.70432723693693,329.1773790572872L229.5564908554054,373.76606858593084A180,180 0,0,0 259.9999999999999,395.88457268119896L289.99999999999994,343.92304845413264A120,120 0,0,1 269.70432723693693,329.1773790572872Z" style="pointer-events: all; stroke-width: 1; fill: rgb(0, 204, 150); fill-opacity: 1; stroke: rgb(255, 255, 255); stroke-opacity: 1; opacity: 0.7;"/><g class="slicetext"><text data-notex="1" class="slicetext" text-anchor="middle" x="0" y="0" style="font-family: 'Open Sans', verdana, arial, sans-serif; font-size: 12px; fill: rgb(68, 68, 68); fill-opacity: 1; white-space: pre;" transform="translate(254.2113001781403,376.5918346202478)">NVW</text></g></g><g class="slice"><path class="surface" d="M289.99999999999994,343.92304845413264L259.9999999999999,395.88457268119896A180,180 0,0,0 294.37694101250946,411.19017293312766L312.91796067500627,354.12678195541844A120,120 0,0,1 289.99999999999994,343.92304845413264Z" style="pointer-events: all; stroke-width: 1; fill: rgb(0, 204, 150); fill-opacity: 1; stroke: rgb(255, 255, 255); stroke-opacity: 1; opacity: 0.7;"/><g class="slicetext"><text data-notex="1" class="slicetext" text-anchor="middle" x="0" y="0" style="font-family: 'Open Sans', verdana, arial, sans-serif; font-size: 12px; fill: rgb(68, 68, 68); fill-opacity: 1; white-space: pre;" transform="translate(283.7159718482484,393.62636475133627)">QPC</text></g></g><g class="slice"><path class="surface" d="M312.91796067500627,354.12678195541844L294.37694101250946,411.19017293312766A180,180 0,0,0 331.1848766118224,419.0139411662892L337.4565844078816,359.34262744419283A120,120 0,0,1 312.91796067500627,354.12678195541844Z" style="pointer-events: all; stroke-width: 1; fill: rgb(0, 204, 150); fill-opacity: 1; stroke: rgb(255, 255, 255); stroke-opacity: 1; opacity: 0.7;"/><g class="slicetext"><text data-notex="1" class="slicetext" text-anchor="middle" x="0" y="0" style="font-family: 'Open Sans', verdana, arial, sans-serif; font-size: 12px; fill: rgb(68, 68, 68); fill-opacity: 1; white-space: pre;" transform="translate(316.117573614644,404.15428335473314)">19T</text></g></g><g class="slice"><path class="surface" d="M337.4565844078816,359.34262744419283L331.1848766118224,419.0139411662892A180,180 0,0,0 368.8151233881777,419.0139411662892L362.54341559211844,359.3426274441928A120,120 0,0,1 337.4565844078816,359.34262744419283Z" style="pointer-events: all; stroke-width: 1; fill: rgb(0, 204, 150); fill-opacity: 1; stroke: rgb(255, 255, 255); stroke-opacity: 1; opacity: 0.7;"/><g class="slicetext"><text data-notex="1" class="slicetext" text-anchor="middle" x="0" y="0" style="font-family: 'Open Sans', verdana, arial, sans-serif; font-size: 12px; fill: rgb(68, 68, 68); fill-opacity: 1; white-space: pre;" transform="translate(350.00000000000006,407.71546986891155)">2O5</text></g></g><g class="slice"><path class="surface" d="M362.5434155921184,359.34262744419283L368.81512338817754,419.0139411662892A180,180 0,0,0 405.6230589874905,411.19017293312766L387.0820393249937,354.12678195541844A120,120 0,0,1 362.5434155921184,359.34262744419283Z" style="pointer-events: all; stroke-width: 1; fill: rgb(171, 99, 250); fill-opacity: 1; stroke: rgb(255, 255, 255); stroke-opacity: 1; opacity: 0.7;"/><g class="slicetext"><text data-notex="1" class="slicetext" text-anchor="middle" x="0" y="0" style="font-family: 'Open Sans', verdana, arial, sans-serif; font-size: 12px; fill: rgb(68, 68, 68); fill-opacity: 1; white-space: pre;" transform="translate(383.882426385356,404.15428335473314)">GV2</text></g></g><g class="slice"><path class="surface" d="M387.0820393249937,354.12678195541844L405.6230589874905,411.19017293312766A180,180 0,0,0 440,395.88457268119896L410,343.92304845413264A120,120 0,0,1 387.0820393249937,354.12678195541844Z" style="pointer-events: all; stroke-width: 1; fill: rgb(171, 99, 250); fill-opacity: 1; stroke: rgb(255, 255, 255); stroke-opacity: 1; opacity: 0.7;"/><g class="slicetext"><text data-notex="1" class="slicetext" text-anchor="middle" x="0" y="0" style="font-family: 'Open Sans', verdana, arial, sans-serif; font-size: 12px; fill: rgb(68, 68, 68); fill-opacity: 1; white-space: pre;" transform="translate(416.28402815175156,393.62636475133627)">GV5</text></g></g><g class="slice"><path class="surface" d="M410,343.92304845413264L440,395.88457268119896A180,180 0,0,0 470.44350914459454,373.76606858593095L430.295672763063,329.1773790572873A120,120 0,0,1 410,343.92304845413264Z" style="pointer-events: all; stroke-width: 1; fill: rgb(171, 99, 250); fill-opacity: 1; stroke: rgb(255, 255, 255); stroke-opacity: 1; opacity: 0.7;"/><g class="slicetext"><text data-notex="1" class="slicetext" text-anchor="middle" x="0" y="0" style="font-family: 'Open Sans', verdana, arial, sans-serif; font-size: 12px; fill: rgb(68, 68, 68); fill-opacity: 1; white-space: pre;" transform="translate(445.78869982185967,376.5918346202479)">GV8</text></g></g><g class="slice"><path class="surface" d="M430.295672763063,329.1773790572873L470.44350914459454,373.76606858593095A180,180 0,0,0 495.6230589874906,345.80134541264505L447.08203932499373,310.5342302750967A120,120 0,0,1 430.295672763063,329.1773790572873Z" style="pointer-events: all; stroke-width: 1; fill: rgb(171, 99, 250); fill-opacity: 1; stroke: rgb(255, 255, 255); stroke-opacity: 1; opacity: 0.7;"/><g class="slicetext"><text data-notex="1" class="slicetext" text-anchor="middle" x="0" y="0" style="font-family: 'Open Sans', verdana, arial, sans-serif; font-size: 12px; fill: rgb(68, 68, 68); fill-opacity: 1; white-space: pre;" transform="translate(471.1069456645739,353.795183668941)">H9Z</text></g></g><g class="slice"><path class="surface" d="M447.08203932499373,310.5342302750967L495.6230589874906,345.80134541264505A180,180 0,0,0 514.4381823756682,313.2125957536439L459.62545491711217,288.80839716909594A120,120 0,0,1 447.08203932499373,310.5342302750967Z" style="pointer-events: all; stroke-width: 1; fill: rgb(171, 99, 250); fill-opacity: 1; stroke: rgb(255, 255, 255); stroke-opacity: 1; opacity: 0.7;"/><g class="slicetext"><text data-notex="1" class="slicetext" text-anchor="middle" x="0" y="0" style="font-family: 'Open Sans', verdana, arial, sans-serif; font-size: 12px; fill: rgb(68, 68, 68); fill-opacity: 1; white-space: pre;" transform="translate(491.1322368461449,326.2327349344557)">HAT</text></g></g><g class="slice"><path class="surface" d="M459.62545491711217,288.80839716909594L514.4381823756682,313.2125957536439A180,180 0,0,0 526.0665681320851,277.4241043471965L467.3777120880567,264.949402898131A120,120 0,0,1 459.62545491711217,288.80839716909594Z" style="pointer-events: all; stroke-width: 1; fill: rgb(171, 99, 250); fill-opacity: 1; stroke: rgb(255, 255, 255); stroke-opacity: 1; opacity: 0.7;"/><g class="slicetext"><text data-notex="1" class="slicetext" text-anchor="middle" x="0" y="0" style="font-family: 'Open Sans', verdana, arial, sans-serif; font-size: 12px; fill: rgb(68, 68, 68); fill-opacity: 1; white-space: pre;" transform="translate(504.98937204992995,295.1090996857919)">HAW</text></g></g><g class="slice"><path class="surface" d="M467.3777120880567,264.949402898131L526.0665681320851,277.4241043471965A180,180 0,0,0 530,239.99999999999972L470,239.99999999999983A120,120 0,0,1 467.3777120880567,264.949402898131Z" style="pointer-events: all; stroke-width: 1; fill: rgb(171, 99, 250); fill-opacity: 1; stroke: rgb(255, 255, 255); stroke-opacity: 1; opacity: 0.7;"/><g class="slicetext"><text data-notex="1" class="slicetext" text-anchor="middle" x="0" y="0" style="font-family: 'Open Sans', verdana, arial, sans-serif; font-size: 12px; fill: rgb(68, 68, 68); fill-opacity: 1; white-space: pre;" transform="translate(512.0727279736112,261.7845301310882)">HAK</text></g></g></g></g><g class="glimages"/><defs id="topdefs-8734a5"><g class="clips"/></defs><g class="layer-above"><g class="imagelayer"/><g class="shapelayer"/></g><g class="infolayer"><g class="g-gtitle"/><g class="annotation" data-index="0" style="opacity: 1;"><g class="annotation-text-g" transform="rotate(0,350,49.999999999999986)"><g class="cursor-pointer" transform="translate(312,42)"><rect class="bg" x="0.5" y="0.5" width="75" height="15" style="stroke-width: 1px; stroke: rgb(0, 0, 0); stroke-opacity: 0; fill: rgb(0, 0, 0); fill-opacity: 0;"/><text class="annotation-text" text-anchor="middle" x="37.9375" y="12" style="font-family: 'Open Sans', verdana, arial, sans-serif; font-size: 10px; fill: rgb(42, 63, 95); fill-opacity: 1; white-space: pre;"><tspan style="font-weight:bold">Chemical_ID</tspan></text></g></g></g><g class="annotation" data-index="1" style="opacity: 1;"><g class="annotation-text-g" transform="rotate(0,350,111.19999999999999)"><g class="cursor-pointer" transform="translate(326,103)"><rect class="bg" x="0.5" y="0.5" width="47" height="15" style="stroke-width: 1px; stroke: rgb(0, 0, 0); stroke-opacity: 0; fill: rgb(0, 0, 0); fill-opacity: 0;"/><text class="annotation-text" text-anchor="middle" x="24.0625" y="12" style="font-family: 'Open Sans', verdana, arial, sans-serif; font-size: 10px; fill: rgb(42, 63, 95); fill-opacity: 1; white-space: pre;"><tspan style="font-weight:bold">PDB_ID</tspan></text></g></g></g><g class="annotation" data-index="2" style="opacity: 1;"><g class="annotation-text-g" transform="rotate(0,350,172.4)"><g class="cursor-pointer" transform="translate(308,164)"><rect class="bg" x="0.5" y="0.5" width="83" height="15" style="stroke-width: 1px; stroke: rgb(0, 0, 0); stroke-opacity: 0; fill: rgb(0, 0, 0); fill-opacity: 0;"/><text class="annotation-text" text-anchor="middle" x="42.203125" y="12" style="font-family: 'Open Sans', verdana, arial, sans-serif; font-size: 10px; fill: rgb(42, 63, 95); fill-opacity: 1; white-space: pre;"><tspan style="font-weight:bold">Protein_Name</tspan></text></g></g></g></g></svg>