<svg class="main-svg" xmlns="http://www.w3.org/2000/svg" xmlns:xlink="http://www.w3.org/1999/xlink" width="700" height="500" style="" viewBox="0 0 700 500"><rect x="0" y="0" width="700" height="500" style="fill: rgb(255, 255, 255); fill-opacity: 1;"/><defs id="defs-e8596e"><g class="clips"/><g class="gradients"/><g class="patterns"/></defs><g class="bglayer"/><g class="layer-below"><g class="imagelayer"/><g class="shapelayer"/></g><g class="cartesianlayer"/><g class="polarlayer"/><g class="smithlayer"/><g class="ternarylayer"/><g class="geolayer"/><g class="funnelarealayer"/><g class="pielayer"/><g class="iciclelayer"/><g class="treemaplayer"/><g class="sunburstlayer"><g class="trace sunburst" stroke-linejoin="round" style="opacity: 1;"><g class="slice cursor-pointer"><path class="surface" d="M350,240L410,240A60,60 0,0,0 350,180L350,240A0,0 0,0,1 350,240Z" style="pointer-events: all; stroke-width: 1; fill: rgb(99, 110, 250); fill-opacity: 1; stroke: rgb(255, 255, 255); stroke-opacity: 1;"/><g class="slicetext"><text data-notex="1" class="slicetext" text-anchor="middle" x="0" y="0" style="font-family: 'Open Sans', verdana, arial, sans-serif; font-size: 12px; fill: rgb(255, 255, 255); fill-opacity: 1; white-space: pre;" transform="translate(374.8528137423857,219.8971862576143)">Dot1L</text></g></g><g class="slice cursor-pointer"><path class="surface" d="M350,240L350,180A60,60 0,0,0 290,240L350,240A0,0 0,0,1 350,240Z" style="pointer-events: all; stroke-width: 1; fill: rgb(239, 85, 59); fill-opacity: 1; stroke: rgb(255, 255, 255); stroke-opacity: 1;"/><g class="slicetext"><text data-notex="1" class="slicetext" text-anchor="middle" x="0" y="0" style="font-family: 'Open Sans', verdana, arial, sans-serif; font-size: 12px; fill: rgb(68, 68, 68); fill-opacity: 1; white-space: pre;" transform="translate(325.1471862576143,219.8971862576143)">JNK3</text></g></g><g class="slice cursor-pointer"><path class="surface" d="M350,240L290,240A60,60 0,0,0 350,300L350,240A0,0 0,0,1 350,240Z" style="pointer-events: all; stroke-width: 1; fill: rgb(0, 204, 150); fill-opacity: 1; stroke: rgb(255, 255, 255); stroke-opacity: 1;"/><g class="slicetext"><text data-notex="1" class="slicetext" text-anchor="middle" x="0" y="0" style="font-family: 'Open Sans', verdana, arial, sans-serif; font-size: 12px; fill: rgb(68, 68, 68); fill-opacity: 1; white-space: pre;" transform="translate(325.1471862576143,269.6028137423857)">Melk</text></g></g><g class="slice cursor-pointer"><path class="surface" d="M350,240L350,300A60,60 0,0,0 410,240.00000000000003L350,240A0,0 0,0,1 350,240Z" style="pointer-events: all; stroke-width: 1; fill: rgb(171, 99, 250); fill-opacity: 1; stroke: rgb(255, 255, 255); stroke-opacity: 1;"/><g class="slicetext"><text data-notex="1" class="slicetext" text-anchor="middle" x="0" y="0" style="font-family: 'Open Sans', verdana, arial, sans-serif; font-size: 12px; fill: rgb(68, 68, 68); fill-opacity: 1; white-space: pre;" transform="translate(374.8528137423857,269.6028137423857)">Nek2</text></g></g><g class="slice cursor-pointer"><path class="surface" d="M410,240L470,240A120,120 0,0,0 464.12678195541844,202.91796067500633L407.0633909777092,221.45898033750316A60,60 0,0,1 410,240Z" style="pointer-events: all; stroke-width: 1; fill: rgb(99, 110, 250); fill-opacity: 1; stroke: rgb(255, 255, 255); stroke-opacity: 1;"/><g class="slicetext"><text data-notex="1" class="slicetext" text-anchor="middle" x="0" y="0" style="font-family: 'Open Sans', verdana, arial, sans-serif; font-size: 12px; fill: rgb(255, 255, 255); fill-opacity: 1; white-space: pre;" transform="translate(443.9145656327263,229.93460343143173)rotate(-9)">5DSX</text></g></g><g class="slice cursor-pointer"><path class="surface" d="M407.0633909777092,221.45898033750316L464.12678195541844,202.91796067500633A120,120 0,0,0 447.08203932499373,169.46576972490323L398.54101966249686,204.7328848624516A60,60 0,0,1 407.0633909777092,221.45898033750316Z" style="pointer-events: all; stroke-width: 1; fill: rgb(99, 110, 250); fill-opacity: 1; stroke: rgb(255, 255, 255); stroke-opacity: 1;"/><g class="slicetext"><text data-notex="1" class="slicetext" text-anchor="middle" x="0" y="0" style="font-family: 'Open Sans', verdana, arial, sans-serif; font-size: 12px; fill: rgb(255, 255, 255); fill-opacity: 1; white-space: pre;" transform="translate(436.75269090059425,201.1283458027867)rotate(-27)">5DT2</text></g></g><g class="slice cursor-pointer"><path class="surface" d="M398.54101966249686,204.7328848624516L447.08203932499373,169.46576972490323A120,120 0,0,0 420.5342302750968,142.9179606750063L385.2671151375484,191.45898033750314A60,60 0,0,1 398.54101966249686,204.7328848624516Z" style="pointer-events: all; stroke-width: 1; fill: rgb(99, 110, 250); fill-opacity: 1; stroke: rgb(255, 255, 255); stroke-opacity: 1;"/><g class="slicetext"><text data-notex="1" class="slicetext" text-anchor="middle" x="0" y="0" style="font-family: 'Open Sans', verdana, arial, sans-serif; font-size: 12px; fill: rgb(255, 255, 255); fill-opacity: 1; white-space: pre;" transform="translate(421.02422238562474,175.69329203564746)rotate(-45)">6TE6</text></g></g><g class="slice cursor-pointer"><path class="surface" d="M385.2671151375484,191.45898033750314L420.5342302750968,142.9179606750063A120,120 0,0,0 387.0820393249937,125.87321804458158L368.54101966249686,182.93660902229078A60,60 0,0,1 385.2671151375484,191.45898033750314Z" style="pointer-events: all; stroke-width: 1; fill: rgb(99, 110, 250); fill-opacity: 1; stroke: rgb(255, 255, 255); stroke-opacity: 1;"/><g class="slicetext"><text data-notex="1" class="slicetext" text-anchor="middle" x="0" y="0" style="font-family: 'Open Sans', verdana, arial, sans-serif; font-size: 12px; fill: rgb(255, 255, 255); fill-opacity: 1; white-space: pre;" transform="translate(397.8682229812495,156.51609670391662)rotate(-63)">6TEL</text></g></g><g class="slice cursor-pointer"><path class="surface" d="M368.54101966249686,182.93660902229078L387.0820393249937,125.87321804458158A120,120 0,0,0 350,120L350,180A60,60 0,0,1 368.54101966249686,182.93660902229078Z" style="pointer-events: all; stroke-width: 1; fill: rgb(99, 110, 250); fill-opacity: 1; stroke: rgb(255, 255, 255); stroke-opacity: 1;"/><g class="slicetext"><text data-notex="1" class="slicetext" text-anchor="middle" x="0" y="0" style="font-family: 'Open Sans', verdana, arial, sans-serif; font-size: 12px; fill: rgb(255, 255, 255); fill-opacity: 1; white-space: pre;" transform="translate(369.5658502150886,146.8302363707028)rotate(-81)">6TEN</text></g></g><g class="slice cursor-pointer"><path class="surface" d="M350,180L350,120A120,120 0,0,0 312.9179606750063,125.87321804458156L331.45898033750314,182.93660902229078A60,60 0,0,1 350,180Z" style="pointer-events: all; stroke-width: 1; fill: rgb(239, 85, 59); fill-opacity: 1; stroke: rgb(255, 255, 255); stroke-opacity: 1;"/><g class="slicetext"><text data-notex="1" class="slicetext" text-anchor="middle" x="0" y="0" style="font-family: 'Open Sans', verdana, arial, sans-serif; font-size: 12px; fill: rgb(68, 68, 68); fill-opacity: 1; white-space: pre;" transform="translate(330.4515448991715,146.9400647997102)rotate(81)">2EXC</text></g></g><g class="slice cursor-pointer"><path class="surface" d="M331.45898033750314,182.93660902229078L312.9179606750063,125.87321804458156A120,120 0,0,0 279.4657697249032,142.9179606750063L314.7328848624516,191.45898033750314A60,60 0,0,1 331.45898033750314,182.93660902229078Z" style="pointer-events: all; stroke-width: 1; fill: rgb(239, 85, 59); fill-opacity: 1; stroke: rgb(255, 255, 255); stroke-opacity: 1;"/><g class="slicetext"><text data-notex="1" class="slicetext" text-anchor="middle" x="0" y="0" style="font-family: 'Open Sans', verdana, arial, sans-serif; font-size: 12px; fill: rgb(68, 68, 68); fill-opacity: 1; white-space: pre;" transform="translate(302.6437171030036,157.52083569146106)rotate(63)">3V6R</text></g></g><g class="slice cursor-pointer"><path class="surface" d="M314.7328848624516,191.45898033750314L279.4657697249032,142.9179606750063A120,120 0,0,0 252.91796067500633,169.46576972490323L301.45898033750314,204.7328848624516A60,60 0,0,1 314.7328848624516,191.45898033750314Z" style="pointer-events: all; stroke-width: 1; fill: rgb(239, 85, 59); fill-opacity: 1; stroke: rgb(255, 255, 255); stroke-opacity: 1;"/><g class="slicetext"><text data-notex="1" class="slicetext" text-anchor="middle" x="0" y="0" style="font-family: 'Open Sans', verdana, arial, sans-serif; font-size: 12px; fill: rgb(68, 68, 68); fill-opacity: 1; white-space: pre;" transform="translate(279.43662559263646,176.15414001390866)rotate(45)">3V6S</text></g></g><g class="slice cursor-pointer"><path class="surface" d="M301.45898033750314,204.7328848624516L252.91796067500633,169.46576972490323A120,120 0,0,0 235.87321804458156,202.9179606750063L292.9366090222908,221.45898033750314A60,60 0,0,1 301.45898033750314,204.7328848624516Z" style="pointer-events: all; stroke-width: 1; fill: rgb(239, 85, 59); fill-opacity: 1; stroke: rgb(255, 255, 255); stroke-opacity: 1;"/><g class="slicetext"><text data-notex="1" class="slicetext" text-anchor="middle" x="0" y="0" style="font-family: 'Open Sans', verdana, arial, sans-serif; font-size: 12px; fill: rgb(68, 68, 68); fill-opacity: 1; white-space: pre;" transform="translate(263.58867415625315,201.30227998681855)rotate(27)">6EKD</text></g></g><g class="slice cursor-pointer"><path class="surface" d="M292.9366090222908,221.45898033750314L235.87321804458156,202.9179606750063A120,120 0,0,0 230,239.99999999999997L290,240A60,60 0,0,1 292.9366090222908,221.45898033750314Z" style="pointer-events: all; stroke-width: 1; fill: rgb(239, 85, 59); fill-opacity: 1; stroke: rgb(255, 255, 255); stroke-opacity: 1;"/><g class="slicetext"><text data-notex="1" class="slicetext" text-anchor="middle" x="0" y="0" style="font-family: 'Open Sans', verdana, arial, sans-serif; font-size: 12px; fill: rgb(68, 68, 68); fill-opacity: 1; white-space: pre;" transform="translate(256.52811448460096,230.00471707405742)rotate(9)">6EMH</text></g></g><g class="slice cursor-pointer"><path class="surface" d="M290,240L230,239.99999999999997A120,120 0,0,0 235.87321804458156,277.0820393249937L292.9366090222908,258.54101966249686A60,60 0,0,1 290,240Z" style="pointer-events: all; stroke-width: 1; fill: rgb(0, 204, 150); fill-opacity: 1; stroke: rgb(255, 255, 255); stroke-opacity: 1;"/><g class="slicetext"><text data-notex="1" class="slicetext" text-anchor="middle" x="0" y="0" style="font-family: 'Open Sans', verdana, arial, sans-serif; font-size: 12px; fill: rgb(68, 68, 68); fill-opacity: 1; white-space: pre;" transform="translate(256.89896046537746,259.5549653878167)rotate(-9)">4D2P</text></g></g><g class="slice cursor-pointer"><path class="surface" d="M292.9366090222908,258.54101966249686L235.87321804458156,277.0820393249937A120,120 0,0,0 252.9179606750063,310.5342302750968L301.45898033750314,275.2671151375484A60,60 0,0,1 292.9366090222908,258.54101966249686Z" style="pointer-events: all; stroke-width: 1; fill: rgb(0, 204, 150); fill-opacity: 1; stroke: rgb(255, 255, 255); stroke-opacity: 1;"/><g class="slicetext"><text data-notex="1" class="slicetext" text-anchor="middle" x="0" y="0" style="font-family: 'Open Sans', verdana, arial, sans-serif; font-size: 12px; fill: rgb(68, 68, 68); fill-opacity: 1; white-space: pre;" transform="translate(269.0956479610403,286.5538759674697)rotate(-27)">4UMQ</text></g></g><g class="slice cursor-pointer"><path class="surface" d="M301.45898033750314,275.2671151375484L252.9179606750063,310.5342302750968A120,120 0,0,0 279.4657697249032,337.0820393249937L314.7328848624516,288.54101966249686A60,60 0,0,1 301.45898033750314,275.2671151375484Z" style="pointer-events: all; stroke-width: 1; fill: rgb(0, 204, 150); fill-opacity: 1; stroke: rgb(255, 255, 255); stroke-opacity: 1;"/><g class="slicetext"><text data-notex="1" class="slicetext" text-anchor="middle" x="0" y="0" style="font-family: 'Open Sans', verdana, arial, sans-serif; font-size: 12px; fill: rgb(68, 68, 68); fill-opacity: 1; white-space: pre;" transform="translate(286.00571551361713,310.71179890765507)rotate(-45)">5K00</text></g></g><g class="slice cursor-pointer"><path class="surface" d="M314.7328848624516,288.54101966249686L279.4657697249032,337.0820393249937A120,120 0,0,0 312.91796067500627,354.12678195541844L331.45898033750314,297.0633909777092A60,60 0,0,1 314.7328848624516,288.54101966249686Z" style="pointer-events: all; stroke-width: 1; fill: rgb(0, 204, 150); fill-opacity: 1; stroke: rgb(255, 255, 255); stroke-opacity: 1;"/><g class="slicetext"><text data-notex="1" class="slicetext" text-anchor="middle" x="0" y="0" style="font-family: 'Open Sans', verdana, arial, sans-serif; font-size: 12px; fill: rgb(68, 68, 68); fill-opacity: 1; white-space: pre;" transform="translate(311.72094016284063,325.58965898404927)rotate(-63)">5MAH</text></g></g><g class="slice cursor-pointer"><path class="surface" d="M331.45898033750314,297.0633909777092L312.91796067500627,354.12678195541844A120,120 0,0,0 350,360L350,300A60,60 0,0,1 331.45898033750314,297.0633909777092Z" style="pointer-events: all; stroke-width: 1; fill: rgb(0, 204, 150); fill-opacity: 1; stroke: rgb(255, 255, 255); stroke-opacity: 1;"/><g class="slicetext"><text data-notex="1" class="slicetext" text-anchor="middle" x="0" y="0" style="font-family: 'Open Sans', verdana, arial, sans-serif; font-size: 12px; fill: rgb(68, 68, 68); fill-opacity: 1; white-space: pre;" transform="translate(339.76655898162403,334.9755565322323)rotate(-81)">5TX3</text></g></g><g class="slice cursor-pointer"><path class="surface" d="M350,300L350,360A120,120 0,0,0 387.0820393249937,354.12678195541844L368.5410196624968,297.0633909777092A60,60 0,0,1 350,300Z" style="pointer-events: all; stroke-width: 1; fill: rgb(171, 99, 250); fill-opacity: 1; stroke: rgb(255, 255, 255); stroke-opacity: 1;"/><g class="slicetext"><text data-notex="1" class="slicetext" text-anchor="middle" x="0" y="0" style="font-family: 'Open Sans', verdana, arial, sans-serif; font-size: 12px; fill: rgb(68, 68, 68); fill-opacity: 1; white-space: pre;" transform="translate(360.08637109718916,334.0469935945762)rotate(81)">5M51</text></g></g><g class="slice cursor-pointer"><path class="surface" d="M368.5410196624968,297.0633909777092L387.0820393249937,354.12678195541844A120,120 0,0,0 420.5342302750968,337.08203932499373L385.2671151375484,288.54101966249686A60,60 0,0,1 368.5410196624968,297.0633909777092Z" style="pointer-events: all; stroke-width: 1; fill: rgb(171, 99, 250); fill-opacity: 1; stroke: rgb(255, 255, 255); stroke-opacity: 1;"/><g class="slicetext"><text data-notex="1" class="slicetext" text-anchor="middle" x="0" y="0" style="font-family: 'Open Sans', verdana, arial, sans-serif; font-size: 12px; fill: rgb(68, 68, 68); fill-opacity: 1; white-space: pre;" transform="translate(388.65482824834874,326.3271460154865)rotate(63)">5M53</text></g></g><g class="slice cursor-pointer"><path class="surface" d="M385.2671151375484,288.54101966249686L420.5342302750968,337.08203932499373A120,120 0,0,0 447.0820393249937,310.5342302750968L398.54101966249686,275.2671151375484A60,60 0,0,1 385.2671151375484,288.54101966249686Z" style="pointer-events: all; stroke-width: 1; fill: rgb(171, 99, 250); fill-opacity: 1; stroke: rgb(255, 255, 255); stroke-opacity: 1;"/><g class="slicetext"><text data-notex="1" class="slicetext" text-anchor="middle" x="0" y="0" style="font-family: 'Open Sans', verdana, arial, sans-serif; font-size: 12px; fill: rgb(68, 68, 68); fill-opacity: 1; white-space: pre;" transform="translate(413.4394814865349,310.1569959078071)rotate(45)">5M55</text></g></g><g class="slice cursor-pointer"><path class="surface" d="M398.54101966249686,275.2671151375484L447.0820393249937,310.5342302750968A120,120 0,0,0 464.12678195541844,277.08203932499373L407.0633909777092,258.54101966249686A60,60 0,0,1 398.54101966249686,275.2671151375484Z" style="pointer-events: all; stroke-width: 1; fill: rgb(171, 99, 250); fill-opacity: 1; stroke: rgb(255, 255, 255); stroke-opacity: 1;"/><g class="slicetext"><text data-notex="1" class="slicetext" text-anchor="middle" x="0" y="0" style="font-family: 'Open Sans', verdana, arial, sans-serif; font-size: 12px; fill: rgb(68, 68, 68); fill-opacity: 1; white-space: pre;" transform="translate(432.01423626796077,287.11939022813823)rotate(27)">5M57</text></g></g><g class="slice cursor-pointer"><path class="surface" d="M407.0633909777092,258.54101966249686L464.12678195541844,277.08203932499373A120,120 0,0,0 470,240.00000000000003L410,240.00000000000003A60,60 0,0,1 407.0633909777092,258.54101966249686Z" style="pointer-events: all; stroke-width: 1; fill: rgb(171, 99, 250); fill-opacity: 1; stroke: rgb(255, 255, 255); stroke-opacity: 1;"/><g class="slicetext"><text data-notex="1" class="slicetext" text-anchor="middle" x="0" y="0" style="font-family: 'Open Sans', verdana, arial, sans-serif; font-size: 12px; fill: rgb(68, 68, 68); fill-opacity: 1; white-space: pre;" transform="translate(442.24475345011757,259.41934299556476)rotate(9)">6H0O</text></g></g><g class="slice"><path class="surface" d="M470,240L530,240A180,180 0,0,0 521.1901729331277,184.37694101250946L464.12678195541844,202.91796067500633A120,120 0,0,1 470,240Z" style="pointer-events: all; stroke-width: 1; fill: rgb(99, 110, 250); fill-opacity: 1; stroke: rgb(255, 255, 255); stroke-opacity: 1; opacity: 0.7;"/><g class="slicetext"><text data-notex="1" class="slicetext" text-anchor="middle" x="0" y="0" style="font-family: 'Open Sans', verdana, arial, sans-serif; font-size: 12px; fill: rgb(255, 255, 255); fill-opacity: 1; white-space: pre;" transform="translate(503.734523383424,220.40084355535706)">5EW</text></g></g><g class="slice"><path class="surface" d="M464.12678195541844,202.91796067500633L521.1901729331277,184.37694101250946A180,180 0,0,0 495.62305898749054,134.19865458735484L447.08203932499373,169.46576972490323A120,120 0,0,1 464.12678195541844,202.91796067500633Z" style="pointer-events: all; stroke-width: 1; fill: rgb(99, 110, 250); fill-opacity: 1; stroke: rgb(255, 255, 255); stroke-opacity: 1; opacity: 0.7;"/><g class="slicetext"><text data-notex="1" class="slicetext" text-anchor="middle" x="0" y="0" style="font-family: 'Open Sans', verdana, arial, sans-serif; font-size: 12px; fill: rgb(255, 255, 255); fill-opacity: 1; white-space: pre;" transform="translate(488.6859171032461,174.08599574942144)">5EV</text></g></g><g class="slice"><path class="surface" d="M447.08203932499373,169.46576972490323L495.62305898749054,134.19865458735484A180,180 0,0,0 455.80134541264516,94.37694101250946L420.5342302750968,142.9179606750063A120,120 0,0,1 447.08203932499373,169.46576972490323Z" style="pointer-events: all; stroke-width: 1; fill: rgb(99, 110, 250); fill-opacity: 1; stroke: rgb(255, 255, 255); stroke-opacity: 1; opacity: 0.7;"/><g class="slicetext"><text data-notex="1" class="slicetext" text-anchor="middle" x="0" y="0" style="font-family: 'Open Sans', verdana, arial, sans-serif; font-size: 12px; fill: rgb(255, 255, 255); fill-opacity: 1; white-space: pre;" transform="translate(460.0617669753994,134.6882330246006)">N4W</text></g></g><g class="slice"><path class="surface" d="M420.5342302750968,142.9179606750063L455.80134541264516,94.37694101250946A180,180 0,0,0 405.62305898749054,68.80982706687237L387.0820393249937,125.87321804458158A120,120 0,0,1 420.5342302750968,142.9179606750063Z" style="pointer-events: all; stroke-width: 1; fill: rgb(99, 110, 250); fill-opacity: 1; stroke: rgb(255, 255, 255); stroke-opacity: 1; opacity: 0.7;"/><g class="slicetext"><text data-notex="1" class="slicetext" text-anchor="middle" x="0" y="0" style="font-family: 'Open Sans', verdana, arial, sans-serif; font-size: 12px; fill: rgb(255, 255, 255); fill-opacity: 1; white-space: pre;" transform="translate(420.66400425057856,106.06408289675389)">N4Z</text></g></g><g class="slice"><path class="surface" d="M387.0820393249937,125.87321804458158L405.62305898749054,68.80982706687237A180,180 0,0,0 350,60L350,120A120,120 0,0,1 387.0820393249937,125.87321804458158Z" style="pointer-events: all; stroke-width: 1; fill: rgb(99, 110, 250); fill-opacity: 1; stroke: rgb(255, 255, 255); stroke-opacity: 1; opacity: 0.7;"/><g class="slicetext"><text data-notex="1" class="slicetext" text-anchor="middle" x="0" y="0" style="font-family: 'Open Sans', verdana, arial, sans-serif; font-size: 12px; fill: rgb(255, 255, 255); fill-opacity: 1; white-space: pre;" transform="translate(374.349156444643,91.015476616576)">N5K</text></g></g><g class="slice"><path class="surface" d="M350,120L350,60A180,180 0,0,0 294.37694101250946,68.80982706687234L312.9179606750063,125.87321804458156A120,120 0,0,1 350,120Z" style="pointer-events: all; stroke-width: 1; fill: rgb(239, 85, 59); fill-opacity: 1; stroke: rgb(255, 255, 255); stroke-opacity: 1; opacity: 0.7;"/><g class="slicetext"><text data-notex="1" class="slicetext" text-anchor="middle" x="0" y="0" style="font-family: 'Open Sans', verdana, arial, sans-serif; font-size: 12px; fill: rgb(68, 68, 68); fill-opacity: 1; white-space: pre;" transform="translate(325.650843555357,91.015476616576)">JNK</text></g></g><g class="slice"><path class="surface" d="M312.9179606750063,125.87321804458156L294.37694101250946,68.80982706687234A180,180 0,0,0 244.19865458735484,94.37694101250946L279.4657697249032,142.9179606750063A120,120 0,0,1 312.9179606750063,125.87321804458156Z" style="pointer-events: all; stroke-width: 1; fill: rgb(239, 85, 59); fill-opacity: 1; stroke: rgb(255, 255, 255); stroke-opacity: 1; opacity: 0.7;"/><g class="slicetext"><text data-notex="1" class="slicetext" text-anchor="middle" x="0" y="0" style="font-family: 'Open Sans', verdana, arial, sans-serif; font-size: 12px; fill: rgb(68, 68, 68); fill-opacity: 1; white-space: pre;" transform="translate(279.33599574942144,106.06408289675389)">CQQ</text></g></g><g class="slice"><path class="surface" d="M279.4657697249032,142.9179606750063L244.19865458735484,94.37694101250946A180,180 0,0,0 204.3769410125095,134.1986545873548L252.91796067500633,169.46576972490323A120,120 0,0,1 279.4657697249032,142.9179606750063Z" style="pointer-events: all; stroke-width: 1; fill: rgb(239, 85, 59); fill-opacity: 1; stroke: rgb(255, 255, 255); stroke-opacity: 1; opacity: 0.7;"/><g class="slicetext"><text data-notex="1" class="slicetext" text-anchor="middle" x="0" y="0" style="font-family: 'Open Sans', verdana, arial, sans-serif; font-size: 12px; fill: rgb(68, 68, 68); fill-opacity: 1; white-space: pre;" transform="translate(239.9382330246006,134.6882330246006)">0F0</text></g></g><g class="slice"><path class="surface" d="M252.91796067500633,169.46576972490323L204.3769410125095,134.1986545873548A180,180 0,0,0 178.80982706687237,184.37694101250946L235.87321804458156,202.9179606750063A120,120 0,0,1 252.91796067500633,169.46576972490323Z" style="pointer-events: all; stroke-width: 1; fill: rgb(239, 85, 59); fill-opacity: 1; stroke: rgb(255, 255, 255); stroke-opacity: 1; opacity: 0.7;"/><g class="slicetext"><text data-notex="1" class="slicetext" text-anchor="middle" x="0" y="0" style="font-family: 'Open Sans', verdana, arial, sans-serif; font-size: 12px; fill: rgb(68, 68, 68); fill-opacity: 1; white-space: pre;" transform="translate(211.3140828967539,174.08599574942144)">B9K</text></g></g><g class="slice"><path class="surface" d="M235.87321804458156,202.9179606750063L178.80982706687237,184.37694101250946A180,180 0,0,0 170,239.99999999999997L230,239.99999999999997A120,120 0,0,1 235.87321804458156,202.9179606750063Z" style="pointer-events: all; stroke-width: 1; fill: rgb(239, 85, 59); fill-opacity: 1; stroke: rgb(255, 255, 255); stroke-opacity: 1; opacity: 0.7;"/><g class="slicetext"><text data-notex="1" class="slicetext" text-anchor="middle" x="0" y="0" style="font-family: 'Open Sans', verdana, arial, sans-serif; font-size: 12px; fill: rgb(68, 68, 68); fill-opacity: 1; white-space: pre;" transform="translate(196.265476616576,220.40084355535706)">BGE</text></g></g><g class="slice"><path class="surface" d="M230,239.99999999999997L170,239.99999999999997A180,180 0,0,0 178.80982706687234,295.6230589874905L235.87321804458156,277.0820393249937A120,120 0,0,1 230,239.99999999999997Z" style="pointer-events: all; stroke-width: 1; fill: rgb(0, 204, 150); fill-opacity: 1; stroke: rgb(255, 255, 255); stroke-opacity: 1; opacity: 0.7;"/><g class="slicetext"><text data-notex="1" class="slicetext" text-anchor="middle" x="0" y="0" style="font-family: 'Open Sans', verdana, arial, sans-serif; font-size: 12px; fill: rgb(68, 68, 68); fill-opacity: 1; white-space: pre;" transform="translate(196.265476616576,269.0991564446429)">6Z7</text></g></g><g class="slice"><path class="surface" d="M235.87321804458156,277.0820393249937L178.80982706687234,295.6230589874905A180,180 0,0,0 204.37694101250946,345.80134541264516L252.9179606750063,310.5342302750968A120,120 0,0,1 235.87321804458156,277.0820393249937Z" style="pointer-events: all; stroke-width: 1; fill: rgb(0, 204, 150); fill-opacity: 1; stroke: rgb(255, 255, 255); stroke-opacity: 1; opacity: 0.7;"/><g class="slicetext"><text data-notex="1" class="slicetext" text-anchor="middle" x="0" y="0" style="font-family: 'Open Sans', verdana, arial, sans-serif; font-size: 12px; fill: rgb(68, 68, 68); fill-opacity: 1; white-space: pre;" transform="translate(211.3140828967539,315.41400425057856)">B5S</text></g></g><g class="slice"><path class="surface" d="M252.9179606750063,310.5342302750968L204.37694101250946,345.80134541264516A180,180 0,0,0 244.1986545873548,385.6230589874905L279.4657697249032,337.0820393249937A120,120 0,0,1 252.9179606750063,310.5342302750968Z" style="pointer-events: all; stroke-width: 1; fill: rgb(0, 204, 150); fill-opacity: 1; stroke: rgb(255, 255, 255); stroke-opacity: 1; opacity: 0.7;"/><g class="slicetext"><text data-notex="1" class="slicetext" text-anchor="middle" x="0" y="0" style="font-family: 'Open Sans', verdana, arial, sans-serif; font-size: 12px; fill: rgb(68, 68, 68); fill-opacity: 1; white-space: pre;" transform="translate(239.9382330246006,354.8117669753994)">6PV</text></g></g><g class="slice"><path class="surface" d="M279.4657697249032,337.0820393249937L244.1986545873548,385.6230589874905A180,180 0,0,0 294.37694101250946,411.19017293312766L312.91796067500627,354.12678195541844A120,120 0,0,1 279.4657697249032,337.0820393249937Z" style="pointer-events: all; stroke-width: 1; fill: rgb(0, 204, 150); fill-opacity: 1; stroke: rgb(255, 255, 255); stroke-opacity: 1; opacity: 0.7;"/><g class="slicetext"><text data-notex="1" class="slicetext" text-anchor="middle" x="0" y="0" style="font-family: 'Open Sans', verdana, arial, sans-serif; font-size: 12px; fill: rgb(68, 68, 68); fill-opacity: 1; white-space: pre;" transform="translate(279.33599574942144,383.4359171032461)">7KD</text></g></g><g class="slice"><path class="surface" d="M312.91796067500627,354.12678195541844L294.37694101250946,411.19017293312766A180,180 0,0,0 349.99999999999994,420L350,360A120,120 0,0,1 312.91796067500627,354.12678195541844Z" style="pointer-events: all; stroke-width: 1; fill: rgb(0, 204, 150); fill-opacity: 1; stroke: rgb(255, 255, 255); stroke-opacity: 1; opacity: 0.7;"/><g class="slicetext"><text data-notex="1" class="slicetext" text-anchor="middle" x="0" y="0" style="font-family: 'Open Sans', verdana, arial, sans-serif; font-size: 12px; fill: rgb(68, 68, 68); fill-opacity: 1; white-space: pre;" transform="translate(325.650843555357,398.48452338342395)">7MY</text></g></g><g class="slice"><path class="surface" d="M350,360L349.99999999999994,420A180,180 0,0,0 405.6230589874905,411.19017293312766L387.0820393249937,354.12678195541844A120,120 0,0,1 350,360Z" style="pointer-events: all; stroke-width: 1; fill: rgb(171, 99, 250); fill-opacity: 1; stroke: rgb(255, 255, 255); stroke-opacity: 1; opacity: 0.7;"/><g class="slicetext"><text data-notex="1" class="slicetext" text-anchor="middle" x="0" y="0" style="font-family: 'Open Sans', verdana, arial, sans-serif; font-size: 12px; fill: rgb(68, 68, 68); fill-opacity: 1; white-space: pre;" transform="translate(374.3491564446429,398.484523383424)">NU6</text></g></g><g class="slice"><path class="surface" d="M387.0820393249937,354.12678195541844L405.6230589874905,411.19017293312766A180,180 0,0,0 455.8013454126451,385.6230589874906L420.5342302750968,337.08203932499373A120,120 0,0,1 387.0820393249937,354.12678195541844Z" style="pointer-events: all; stroke-width: 1; fill: rgb(171, 99, 250); fill-opacity: 1; stroke: rgb(255, 255, 255); stroke-opacity: 1; opacity: 0.7;"/><g class="slicetext"><text data-notex="1" class="slicetext" text-anchor="middle" x="0" y="0" style="font-family: 'Open Sans', verdana, arial, sans-serif; font-size: 12px; fill: rgb(68, 68, 68); fill-opacity: 1; white-space: pre;" transform="translate(420.66400425057856,383.4359171032461)">7GJ</text></g></g><g class="slice"><path class="surface" d="M420.5342302750968,337.08203932499373L455.8013454126451,385.6230589874906A180,180 0,0,0 495.6230589874905,345.8013454126452L447.0820393249937,310.5342302750968A120,120 0,0,1 420.5342302750968,337.08203932499373Z" style="pointer-events: all; stroke-width: 1; fill: rgb(171, 99, 250); fill-opacity: 1; stroke: rgb(255, 255, 255); stroke-opacity: 1; opacity: 0.7;"/><g class="slicetext"><text data-notex="1" class="slicetext" text-anchor="middle" x="0" y="0" style="font-family: 'Open Sans', verdana, arial, sans-serif; font-size: 12px; fill: rgb(68, 68, 68); fill-opacity: 1; white-space: pre;" transform="translate(460.0617669753994,354.81176697539945)">7GG</text></g></g><g class="slice"><path class="surface" d="M447.0820393249937,310.5342302750968L495.6230589874905,345.8013454126452A180,180 0,0,0 521.1901729331277,295.6230589874906L464.12678195541844,277.08203932499373A120,120 0,0,1 447.0820393249937,310.5342302750968Z" style="pointer-events: all; stroke-width: 1; fill: rgb(171, 99, 250); fill-opacity: 1; stroke: rgb(255, 255, 255); stroke-opacity: 1; opacity: 0.7;"/><g class="slicetext"><text data-notex="1" class="slicetext" text-anchor="middle" x="0" y="0" style="font-family: 'Open Sans', verdana, arial, sans-serif; font-size: 12px; fill: rgb(68, 68, 68); fill-opacity: 1; white-space: pre;" transform="translate(488.6859171032461,315.4140042505786)">4SP</text></g></g><g class="slice"><path class="surface" d="M464.12678195541844,277.08203932499373L521.1901729331277,295.6230589874906A180,180 0,0,0 530,240.00000000000006L470,240.00000000000003A120,120 0,0,1 464.12678195541844,277.08203932499373Z" style="pointer-events: all; stroke-width: 1; fill: rgb(171, 99, 250); fill-opacity: 1; stroke: rgb(255, 255, 255); stroke-opacity: 1; opacity: 0.7;"/><g class="slicetext"><text data-notex="1" class="slicetext" text-anchor="middle" x="0" y="0" style="font-family: 'Open Sans', verdana, arial, sans-serif; font-size: 12px; fill: rgb(68, 68, 68); fill-opacity: 1; white-space: pre;" transform="translate(503.73452338342395,269.099156444643)">F9N</text></g></g></g></g><g class="glimages"/><defs id="topdefs-e8596e"><g class="clips"/></defs><g class="layer-above"><g class="imagelayer"/><g class="shapelayer"/></g><g class="infolayer"><g class="g-gtitle"/><g class="annotation" data-index="0" style="opacity: 1;"><g class="annotation-text-g" transform="rotate(0,350,49.999999999999986)"><g class="cursor-pointer" transform="translate(312,42)"><rect class="bg" x="0.5" y="0.5" width="75" height="15" style="stroke-width: 1px; stroke: rgb(0, 0, 0); stroke-opacity: 0; fill: rgb(0, 0, 0); fill-opacity: 0;"/><text class="annotation-text" text-anchor="middle" x="37.9375" y="12" style="font-family: 'Open Sans', verdana, arial, sans-serif; font-size: 10px; fill: rgb(42, 63, 95); fill-opacity: 1; white-space: pre;"><tspan style="font-weight:bold">Chemical_ID</tspan></text></g></g></g><g class="annotation" data-index="1" style="opacity: 1;"><g class="annotation-text-g" transform="rotate(0,350,111.19999999999999)"><g class="cursor-pointer" transform="translate(326,103)"><rect class="bg" x="0.5" y="0.5" width="47" height="15" style="stroke-width: 1px; stroke: rgb(0, 0, 0); stroke-opacity: 0; fill: rgb(0, 0, 0); fill-opacity: 0;"/><text class="annotation-text" text-anchor="middle" x="24.0625" y="12" style="font-family: 'Open Sans', verdana, arial, sans-serif; font-size: 10px; fill: rgb(42, 63, 95); fill-opacity: 1; white-space: pre;"><tspan style="font-weight:bold">PDB_ID</tspan></text></g></g></g><g class="annotation" data-index="2" style="opacity: 1;"><g class="annotation-text-g" transform="rotate(0,350,172.4)"><g class="cursor-pointer" transform="translate(308,164)"><rect class="bg" x="0.5" y="0.5" width="83" height="15" style="stroke-width: 1px; stroke: rgb(0, 0, 0); stroke-opacity: 0; fill: rgb(0, 0, 0); fill-opacity: 0;"/><text class="annotation-text" text-anchor="middle" x="42.203125" y="12" style="font-family: 'Open Sans', verdana, arial, sans-serif; font-size: 10px; fill: rgb(42, 63, 95); fill-opacity: 1; white-space: pre;"><tspan style="font-weight:bold">Protein_Name</tspan></text></g></g></g></g></svg>