<svg class="main-svg" xmlns="http://www.w3.org/2000/svg" xmlns:xlink="http://www.w3.org/1999/xlink" width="700" height="500" style="" viewBox="0 0 700 500"><rect x="0" y="0" width="700" height="500" style="fill: rgb(255, 255, 255); fill-opacity: 1;"/><defs id="defs-a6fb47"><g class="clips"/><g class="gradients"/><g class="patterns"/></defs><g class="bglayer"/><g class="layer-below"><g class="imagelayer"/><g class="shapelayer"/></g><g class="cartesianlayer"/><g class="polarlayer"/><g class="smithlayer"/><g class="ternarylayer"/><g class="geolayer"/><g class="funnelarealayer"/><g class="pielayer"/><g class="iciclelayer"/><g class="treemaplayer"/><g class="sunburstlayer"><g class="trace sunburst" stroke-linejoin="round" style="opacity: 1;"><g class="slice cursor-pointer"><path class="surface" d="M350,240L410,240A60,60 0,0,0 350,180L350,240A0,0 0,0,1 350,240Z" style="pointer-events: all; stroke-width: 1; fill: rgb(99, 110, 250); fill-opacity: 1; stroke: rgb(255, 255, 255); stroke-opacity: 1;"/><g class="slicetext"><text data-notex="1" class="slicetext" text-anchor="middle" x="0" y="0" style="font-family: 'Open Sans', verdana, arial, sans-serif; font-size: 12px; fill: rgb(255, 255, 255); fill-opacity: 1; white-space: pre;" transform="translate(374.8528137423857,219.8971862576143)">Aurkb</text></g></g><g class="slice cursor-pointer"><path class="surface" d="M350,240L350,180A60,60 0,0,0 290,240L350,240A0,0 0,0,1 350,240Z" style="pointer-events: all; stroke-width: 1; fill: rgb(239, 85, 59); fill-opacity: 1; stroke: rgb(255, 255, 255); stroke-opacity: 1;"/><g class="slicetext"><text data-notex="1" class="slicetext" text-anchor="middle" x="0" y="0" style="font-family: 'Open Sans', verdana, arial, sans-serif; font-size: 12px; fill: rgb(68, 68, 68); fill-opacity: 1; white-space: pre;" transform="translate(325.1471862576143,219.8971862576143)">Cdk1</text></g></g><g class="slice cursor-pointer"><path class="surface" d="M350,240L290,240A60,60 0,0,0 350,300L350,240A0,0 0,0,1 350,240Z" style="pointer-events: all; stroke-width: 1; fill: rgb(0, 204, 150); fill-opacity: 1; stroke: rgb(255, 255, 255); stroke-opacity: 1;"/><g class="slicetext"><text data-notex="1" class="slicetext" text-anchor="middle" x="0" y="0" style="font-family: 'Open Sans', verdana, arial, sans-serif; font-size: 12px; fill: rgb(68, 68, 68); fill-opacity: 1; white-space: pre;" transform="translate(324.9596862576143,269.6028137423857)">Ltf</text></g></g><g class="slice cursor-pointer"><path class="surface" d="M350,240L350,300A60,60 0,0,0 410,240.00000000000003L350,240A0,0 0,0,1 350,240Z" style="pointer-events: all; stroke-width: 1; fill: rgb(171, 99, 250); fill-opacity: 1; stroke: rgb(255, 255, 255); stroke-opacity: 1;"/><g class="slicetext"><text data-notex="1" class="slicetext" text-anchor="middle" x="0" y="0" style="font-family: 'Open Sans', verdana, arial, sans-serif; font-size: 12px; fill: rgb(68, 68, 68); fill-opacity: 1; white-space: pre;" transform="translate(374.8528137423857,269.6028137423857)">Ripk2</text></g></g><g class="slice cursor-pointer"><path class="surface" d="M410,240L470,240A120,120 0,0,0 460.8655439013544,194.07798811618923L405.4327719506772,217.0389940580946A60,60 0,0,1 410,240Z" style="pointer-events: all; stroke-width: 1; fill: rgb(99, 110, 250); fill-opacity: 1; stroke: rgb(255, 255, 255); stroke-opacity: 1;"/><g class="slicetext"><text data-notex="1" class="slicetext" text-anchor="middle" x="0" y="0" style="font-family: 'Open Sans', verdana, arial, sans-serif; font-size: 12px; fill: rgb(255, 255, 255); fill-opacity: 1; white-space: pre;" transform="translate(448.48145489943926,225.1608206629595)">2VGO</text></g></g><g class="slice cursor-pointer"><path class="surface" d="M405.4327719506772,217.0389940580946L460.8655439013544,194.07798811618923A120,120 0,0,0 434.8528137423857,155.1471862576143L392.42640687119285,197.57359312880715A60,60 0,0,1 405.4327719506772,217.0389940580946Z" style="pointer-events: all; stroke-width: 1; fill: rgb(99, 110, 250); fill-opacity: 1; stroke: rgb(255, 255, 255); stroke-opacity: 1;"/><g class="slicetext"><text data-notex="1" class="slicetext" text-anchor="middle" x="0" y="0" style="font-family: 'Open Sans', verdana, arial, sans-serif; font-size: 12px; fill: rgb(255, 255, 255); fill-opacity: 1; white-space: pre;" transform="translate(433.48854612761136,188.9647369665901)">2VRX</text></g></g><g class="slice cursor-pointer"><path class="surface" d="M392.42640687119285,197.57359312880715L434.8528137423857,155.1471862576143A120,120 0,0,0 395.9220118838108,129.1344560986456L372.9610059419054,184.5672280493228A60,60 0,0,1 392.42640687119285,197.57359312880715Z" style="pointer-events: all; stroke-width: 1; fill: rgb(99, 110, 250); fill-opacity: 1; stroke: rgb(255, 255, 255); stroke-opacity: 1;"/><g class="slicetext"><text data-notex="1" class="slicetext" text-anchor="middle" x="0" y="0" style="font-family: 'Open Sans', verdana, arial, sans-serif; font-size: 12px; fill: rgb(255, 255, 255); fill-opacity: 1; white-space: pre;" transform="translate(405.78526303340993,161.26145387238864)">3ZTX</text></g></g><g class="slice cursor-pointer"><path class="surface" d="M372.9610059419054,184.5672280493228L395.9220118838108,129.1344560986456A120,120 0,0,0 350,120L350,180A60,60 0,0,1 372.9610059419054,184.5672280493228Z" style="pointer-events: all; stroke-width: 1; fill: rgb(99, 110, 250); fill-opacity: 1; stroke: rgb(255, 255, 255); stroke-opacity: 1;"/><g class="slicetext"><text data-notex="1" class="slicetext" text-anchor="middle" x="0" y="0" style="font-family: 'Open Sans', verdana, arial, sans-serif; font-size: 12px; fill: rgb(255, 255, 255); fill-opacity: 1; white-space: pre;" transform="translate(369.5891793370405,146.26854510056074)">5K3Y</text></g></g><g class="slice cursor-pointer"><path class="surface" d="M350,180L350,120A120,120 0,0,0 304.0779881161892,129.1344560986456L327.0389940580946,184.5672280493228A60,60 0,0,1 350,180Z" style="pointer-events: all; stroke-width: 1; fill: rgb(239, 85, 59); fill-opacity: 1; stroke: rgb(255, 255, 255); stroke-opacity: 1;"/><g class="slicetext"><text data-notex="1" class="slicetext" text-anchor="middle" x="0" y="0" style="font-family: 'Open Sans', verdana, arial, sans-serif; font-size: 12px; fill: rgb(68, 68, 68); fill-opacity: 1; white-space: pre;" transform="translate(330.4108206629595,146.26854510056074)">5LQF</text></g></g><g class="slice cursor-pointer"><path class="surface" d="M327.0389940580946,184.5672280493228L304.0779881161892,129.1344560986456A120,120 0,0,0 265.1471862576143,155.1471862576143L307.57359312880715,197.57359312880715A60,60 0,0,1 327.0389940580946,184.5672280493228Z" style="pointer-events: all; stroke-width: 1; fill: rgb(239, 85, 59); fill-opacity: 1; stroke: rgb(255, 255, 255); stroke-opacity: 1;"/><g class="slicetext"><text data-notex="1" class="slicetext" text-anchor="middle" x="0" y="0" style="font-family: 'Open Sans', verdana, arial, sans-serif; font-size: 12px; fill: rgb(68, 68, 68); fill-opacity: 1; white-space: pre;" transform="translate(294.21473696659007,161.26145387238864)">6GU3</text></g></g><g class="slice cursor-pointer"><path class="surface" d="M307.57359312880715,197.57359312880715L265.1471862576143,155.1471862576143A120,120 0,0,0 239.1344560986456,194.0779881161892L294.5672280493228,217.0389940580946A60,60 0,0,1 307.57359312880715,197.57359312880715Z" style="pointer-events: all; stroke-width: 1; fill: rgb(239, 85, 59); fill-opacity: 1; stroke: rgb(255, 255, 255); stroke-opacity: 1;"/><g class="slicetext"><text data-notex="1" class="slicetext" text-anchor="middle" x="0" y="0" style="font-family: 'Open Sans', verdana, arial, sans-serif; font-size: 12px; fill: rgb(68, 68, 68); fill-opacity: 1; white-space: pre;" transform="translate(266.51145387238864,188.9647369665901)">6GU4</text></g></g><g class="slice cursor-pointer"><path class="surface" d="M294.5672280493228,217.0389940580946L239.1344560986456,194.0779881161892A120,120 0,0,0 230,239.99999999999997L290,240A60,60 0,0,1 294.5672280493228,217.0389940580946Z" style="pointer-events: all; stroke-width: 1; fill: rgb(239, 85, 59); fill-opacity: 1; stroke: rgb(255, 255, 255); stroke-opacity: 1;"/><g class="slicetext"><text data-notex="1" class="slicetext" text-anchor="middle" x="0" y="0" style="font-family: 'Open Sans', verdana, arial, sans-serif; font-size: 12px; fill: rgb(68, 68, 68); fill-opacity: 1; white-space: pre;" transform="translate(251.51854510056074,225.1608206629595)">6GU7</text></g></g><g class="slice cursor-pointer"><path class="surface" d="M290,240L230,239.99999999999997A120,120 0,0,0 239.13445609864556,285.92201188381074L294.5672280493228,262.9610059419054A60,60 0,0,1 290,240Z" style="pointer-events: all; stroke-width: 1; fill: rgb(0, 204, 150); fill-opacity: 1; stroke: rgb(255, 255, 255); stroke-opacity: 1;"/><g class="slicetext"><text data-notex="1" class="slicetext" text-anchor="middle" x="0" y="0" style="font-family: 'Open Sans', verdana, arial, sans-serif; font-size: 12px; fill: rgb(68, 68, 68); fill-opacity: 1; white-space: pre;" transform="translate(251.51854510056074,264.3391793370405)">3IB0</text></g></g><g class="slice cursor-pointer"><path class="surface" d="M294.5672280493228,262.9610059419054L239.13445609864556,285.92201188381074A120,120 0,0,0 265.1471862576143,324.8528137423857L307.57359312880715,282.42640687119285A60,60 0,0,1 294.5672280493228,262.9610059419054Z" style="pointer-events: all; stroke-width: 1; fill: rgb(0, 204, 150); fill-opacity: 1; stroke: rgb(255, 255, 255); stroke-opacity: 1;"/><g class="slicetext"><text data-notex="1" class="slicetext" text-anchor="middle" x="0" y="0" style="font-family: 'Open Sans', verdana, arial, sans-serif; font-size: 12px; fill: rgb(68, 68, 68); fill-opacity: 1; white-space: pre;" transform="translate(266.51145387238864,300.5352630334099)">4G2Z</text></g></g><g class="slice cursor-pointer"><path class="surface" d="M307.57359312880715,282.42640687119285L265.1471862576143,324.8528137423857A120,120 0,0,0 304.07798811618915,350.8655439013544L327.0389940580946,295.4327719506772A60,60 0,0,1 307.57359312880715,282.42640687119285Z" style="pointer-events: all; stroke-width: 1; fill: rgb(0, 204, 150); fill-opacity: 1; stroke: rgb(255, 255, 255); stroke-opacity: 1;"/><g class="slicetext"><text data-notex="1" class="slicetext" text-anchor="middle" x="0" y="0" style="font-family: 'Open Sans', verdana, arial, sans-serif; font-size: 12px; fill: rgb(68, 68, 68); fill-opacity: 1; white-space: pre;" transform="translate(294.21473696659007,328.23854612761136)">4G77</text></g></g><g class="slice cursor-pointer"><path class="surface" d="M327.0389940580946,295.4327719506772L304.07798811618915,350.8655439013544A120,120 0,0,0 350,360L350,300A60,60 0,0,1 327.0389940580946,295.4327719506772Z" style="pointer-events: all; stroke-width: 1; fill: rgb(0, 204, 150); fill-opacity: 1; stroke: rgb(255, 255, 255); stroke-opacity: 1;"/><g class="slicetext"><text data-notex="1" class="slicetext" text-anchor="middle" x="0" y="0" style="font-family: 'Open Sans', verdana, arial, sans-serif; font-size: 12px; fill: rgb(68, 68, 68); fill-opacity: 1; white-space: pre;" transform="translate(330.4108206629595,343.2314548994392)">4N6P</text></g></g><g class="slice cursor-pointer"><path class="surface" d="M350,300L350,360A120,120 0,0,0 395.9220118838108,350.8655439013544L372.9610059419054,295.4327719506772A60,60 0,0,1 350,300Z" style="pointer-events: all; stroke-width: 1; fill: rgb(171, 99, 250); fill-opacity: 1; stroke: rgb(255, 255, 255); stroke-opacity: 1;"/><g class="slicetext"><text data-notex="1" class="slicetext" text-anchor="middle" x="0" y="0" style="font-family: 'Open Sans', verdana, arial, sans-serif; font-size: 12px; fill: rgb(68, 68, 68); fill-opacity: 1; white-space: pre;" transform="translate(369.5891793370405,343.2314548994392)">5AR8</text></g></g><g class="slice cursor-pointer"><path class="surface" d="M372.9610059419054,295.4327719506772L395.9220118838108,350.8655439013544A120,120 0,0,0 434.85281374238576,324.85281374238565L392.42640687119285,282.42640687119285A60,60 0,0,1 372.9610059419054,295.4327719506772Z" style="pointer-events: all; stroke-width: 1; fill: rgb(171, 99, 250); fill-opacity: 1; stroke: rgb(255, 255, 255); stroke-opacity: 1;"/><g class="slicetext"><text data-notex="1" class="slicetext" text-anchor="middle" x="0" y="0" style="font-family: 'Open Sans', verdana, arial, sans-serif; font-size: 12px; fill: rgb(68, 68, 68); fill-opacity: 1; white-space: pre;" transform="translate(405.78526303340993,328.2385461276113)">5J79</text></g></g><g class="slice cursor-pointer"><path class="surface" d="M392.42640687119285,282.42640687119285L434.85281374238576,324.85281374238565A120,120 0,0,0 460.86554390135444,285.9220118838106L405.43277195067725,262.96100594190534A60,60 0,0,1 392.42640687119285,282.42640687119285Z" style="pointer-events: all; stroke-width: 1; fill: rgb(171, 99, 250); fill-opacity: 1; stroke: rgb(255, 255, 255); stroke-opacity: 1;"/><g class="slicetext"><text data-notex="1" class="slicetext" text-anchor="middle" x="0" y="0" style="font-family: 'Open Sans', verdana, arial, sans-serif; font-size: 12px; fill: rgb(68, 68, 68); fill-opacity: 1; white-space: pre;" transform="translate(433.4885461276114,300.5352630334098)">6RN8</text></g></g><g class="slice cursor-pointer"><path class="surface" d="M405.43277195067725,262.96100594190534L460.86554390135444,285.9220118838106A120,120 0,0,0 470,239.99999999999983L410,239.99999999999991A60,60 0,0,1 405.43277195067725,262.96100594190534Z" style="pointer-events: all; stroke-width: 1; fill: rgb(171, 99, 250); fill-opacity: 1; stroke: rgb(255, 255, 255); stroke-opacity: 1;"/><g class="slicetext"><text data-notex="1" class="slicetext" text-anchor="middle" x="0" y="0" style="font-family: 'Open Sans', verdana, arial, sans-serif; font-size: 12px; fill: rgb(68, 68, 68); fill-opacity: 1; white-space: pre;" transform="translate(448.48145489943926,264.3391793370403)">6RNA</text></g></g><g class="slice"><path class="surface" d="M470,240L530,240A180,180 0,0,0 516.2983158520316,171.11698217428383L460.8655439013544,194.07798811618923A120,120 0,0,1 470,240Z" style="pointer-events: all; stroke-width: 1; fill: rgb(99, 110, 250); fill-opacity: 1; stroke: rgb(255, 255, 255); stroke-opacity: 1; opacity: 0.7;"/><g class="slicetext"><text data-notex="1" class="slicetext" text-anchor="middle" x="0" y="0" style="font-family: 'Open Sans', verdana, arial, sans-serif; font-size: 12px; fill: rgb(255, 255, 255); fill-opacity: 1; white-space: pre;" transform="translate(497.72218234915886,215.36623099443926)">AD5</text></g></g><g class="slice"><path class="surface" d="M460.8655439013544,194.07798811618923L516.2983158520316,171.11698217428383A180,180 0,0,0 477.27922061357856,112.72077938642146L434.8528137423857,155.1471862576143A120,120 0,0,1 460.8655439013544,194.07798811618923Z" style="pointer-events: all; stroke-width: 1; fill: rgb(99, 110, 250); fill-opacity: 1; stroke: rgb(255, 255, 255); stroke-opacity: 1; opacity: 0.7;"/><g class="slicetext"><text data-notex="1" class="slicetext" text-anchor="middle" x="0" y="0" style="font-family: 'Open Sans', verdana, arial, sans-serif; font-size: 12px; fill: rgb(255, 255, 255); fill-opacity: 1; white-space: pre;" transform="translate(475.23281919141704,161.0721054498851)">447</text></g></g><g class="slice"><path class="surface" d="M434.8528137423857,155.1471862576143L477.27922061357856,112.72077938642146A180,180 0,0,0 418.88301782571614,73.7016841479684L395.9220118838108,129.1344560986456A120,120 0,0,1 434.8528137423857,155.1471862576143Z" style="pointer-events: all; stroke-width: 1; fill: rgb(99, 110, 250); fill-opacity: 1; stroke: rgb(255, 255, 255); stroke-opacity: 1; opacity: 0.7;"/><g class="slicetext"><text data-notex="1" class="slicetext" text-anchor="middle" x="0" y="0" style="font-family: 'Open Sans', verdana, arial, sans-serif; font-size: 12px; fill: rgb(255, 255, 255); fill-opacity: 1; white-space: pre;" transform="translate(433.67789455011484,119.51718080858296)">ZTX</text></g></g><g class="slice"><path class="surface" d="M395.9220118838108,129.1344560986456L418.88301782571614,73.7016841479684A180,180 0,0,0 350,60L350,120A120,120 0,0,1 395.9220118838108,129.1344560986456Z" style="pointer-events: all; stroke-width: 1; fill: rgb(99, 110, 250); fill-opacity: 1; stroke: rgb(255, 255, 255); stroke-opacity: 1; opacity: 0.7;"/><g class="slicetext"><text data-notex="1" class="slicetext" text-anchor="middle" x="0" y="0" style="font-family: 'Open Sans', verdana, arial, sans-serif; font-size: 12px; fill: rgb(255, 255, 255); fill-opacity: 1; white-space: pre;" transform="translate(379.38376900556074,97.02781765084114)">6Q4</text></g></g><g class="slice"><path class="surface" d="M350,120L350,60A180,180 0,0,0 281.11698217428386,73.7016841479684L304.0779881161892,129.1344560986456A120,120 0,0,1 350,120Z" style="pointer-events: all; stroke-width: 1; fill: rgb(239, 85, 59); fill-opacity: 1; stroke: rgb(255, 255, 255); stroke-opacity: 1; opacity: 0.7;"/><g class="slicetext"><text data-notex="1" class="slicetext" text-anchor="middle" x="0" y="0" style="font-family: 'Open Sans', verdana, arial, sans-serif; font-size: 12px; fill: rgb(68, 68, 68); fill-opacity: 1; white-space: pre;" transform="translate(320.61623099443926,97.02781765084114)">4SP</text></g></g><g class="slice"><path class="surface" d="M304.0779881161892,129.1344560986456L281.11698217428386,73.7016841479684A180,180 0,0,0 222.72077938642144,112.72077938642144L265.1471862576143,155.1471862576143A120,120 0,0,1 304.0779881161892,129.1344560986456Z" style="pointer-events: all; stroke-width: 1; fill: rgb(239, 85, 59); fill-opacity: 1; stroke: rgb(255, 255, 255); stroke-opacity: 1; opacity: 0.7;"/><g class="slicetext"><text data-notex="1" class="slicetext" text-anchor="middle" x="0" y="0" style="font-family: 'Open Sans', verdana, arial, sans-serif; font-size: 12px; fill: rgb(68, 68, 68); fill-opacity: 1; white-space: pre;" transform="translate(266.32210544988516,119.51718080858296)">FB8</text></g></g><g class="slice"><path class="surface" d="M265.1471862576143,155.1471862576143L222.72077938642144,112.72077938642144A180,180 0,0,0 183.7016841479684,171.1169821742838L239.1344560986456,194.0779881161892A120,120 0,0,1 265.1471862576143,155.1471862576143Z" style="pointer-events: all; stroke-width: 1; fill: rgb(239, 85, 59); fill-opacity: 1; stroke: rgb(255, 255, 255); stroke-opacity: 1; opacity: 0.7;"/><g class="slicetext"><text data-notex="1" class="slicetext" text-anchor="middle" x="0" y="0" style="font-family: 'Open Sans', verdana, arial, sans-serif; font-size: 12px; fill: rgb(68, 68, 68); fill-opacity: 1; white-space: pre;" transform="translate(224.76718080858296,161.0721054498851)">FC8</text></g></g><g class="slice"><path class="surface" d="M239.1344560986456,194.0779881161892L183.7016841479684,171.1169821742838A180,180 0,0,0 170,239.99999999999997L230,239.99999999999997A120,120 0,0,1 239.1344560986456,194.0779881161892Z" style="pointer-events: all; stroke-width: 1; fill: rgb(239, 85, 59); fill-opacity: 1; stroke: rgb(255, 255, 255); stroke-opacity: 1; opacity: 0.7;"/><g class="slicetext"><text data-notex="1" class="slicetext" text-anchor="middle" x="0" y="0" style="font-family: 'Open Sans', verdana, arial, sans-serif; font-size: 12px; fill: rgb(68, 68, 68); fill-opacity: 1; white-space: pre;" transform="translate(202.27781765084114,215.36623099443926)">FB8</text></g></g><g class="slice"><path class="surface" d="M230,239.99999999999997L170,239.99999999999997A180,180 0,0,0 183.70168414796836,308.88301782571614L239.13445609864556,285.92201188381074A120,120 0,0,1 230,239.99999999999997Z" style="pointer-events: all; stroke-width: 1; fill: rgb(0, 204, 150); fill-opacity: 1; stroke: rgb(255, 255, 255); stroke-opacity: 1; opacity: 0.7;"/><g class="slicetext"><text data-notex="1" class="slicetext" text-anchor="middle" x="0" y="0" style="font-family: 'Open Sans', verdana, arial, sans-serif; font-size: 12px; fill: rgb(68, 68, 68); fill-opacity: 1; white-space: pre;" transform="translate(202.27781765084114,274.1337690055607)">DIF</text></g></g><g class="slice"><path class="surface" d="M239.13445609864556,285.92201188381074L183.70168414796836,308.88301782571614A180,180 0,0,0 222.7207793864214,367.27922061357856L265.1471862576143,324.8528137423857A120,120 0,0,1 239.13445609864556,285.92201188381074Z" style="pointer-events: all; stroke-width: 1; fill: rgb(0, 204, 150); fill-opacity: 1; stroke: rgb(255, 255, 255); stroke-opacity: 1; opacity: 0.7;"/><g class="slicetext"><text data-notex="1" class="slicetext" text-anchor="middle" x="0" y="0" style="font-family: 'Open Sans', verdana, arial, sans-serif; font-size: 12px; fill: rgb(68, 68, 68); fill-opacity: 1; white-space: pre;" transform="translate(224.76718080858296,328.42789455011484)">ID8</text></g></g><g class="slice"><path class="surface" d="M265.1471862576143,324.8528137423857L222.7207793864214,367.27922061357856A180,180 0,0,0 281.11698217428375,406.2983158520316L304.07798811618915,350.8655439013544A120,120 0,0,1 265.1471862576143,324.8528137423857Z" style="pointer-events: all; stroke-width: 1; fill: rgb(0, 204, 150); fill-opacity: 1; stroke: rgb(255, 255, 255); stroke-opacity: 1; opacity: 0.7;"/><g class="slicetext"><text data-notex="1" class="slicetext" text-anchor="middle" x="0" y="0" style="font-family: 'Open Sans', verdana, arial, sans-serif; font-size: 12px; fill: rgb(68, 68, 68); fill-opacity: 1; white-space: pre;" transform="translate(266.3221054498851,369.982819191417)">TLF</text></g></g><g class="slice"><path class="surface" d="M304.07798811618915,350.8655439013544L281.11698217428375,406.2983158520316A180,180 0,0,0 349.99999999999994,420L350,360A120,120 0,0,1 304.07798811618915,350.8655439013544Z" style="pointer-events: all; stroke-width: 1; fill: rgb(0, 204, 150); fill-opacity: 1; stroke: rgb(255, 255, 255); stroke-opacity: 1; opacity: 0.7;"/><g class="slicetext"><text data-notex="1" class="slicetext" text-anchor="middle" x="0" y="0" style="font-family: 'Open Sans', verdana, arial, sans-serif; font-size: 12px; fill: rgb(68, 68, 68); fill-opacity: 1; white-space: pre;" transform="translate(320.6162309944392,392.47218234915886)">JMS</text></g></g><g class="slice"><path class="surface" d="M350,360L349.99999999999994,420A180,180 0,0,0 418.8830178257162,406.2983158520316L395.9220118838108,350.8655439013544A120,120 0,0,1 350,360Z" style="pointer-events: all; stroke-width: 1; fill: rgb(171, 99, 250); fill-opacity: 1; stroke: rgb(255, 255, 255); stroke-opacity: 1; opacity: 0.7;"/><g class="slicetext"><text data-notex="1" class="slicetext" text-anchor="middle" x="0" y="0" style="font-family: 'Open Sans', verdana, arial, sans-serif; font-size: 12px; fill: rgb(68, 68, 68); fill-opacity: 1; white-space: pre;" transform="translate(379.38376900556074,392.47218234915886)">XYW</text></g></g><g class="slice"><path class="surface" d="M395.9220118838108,350.8655439013544L418.8830178257162,406.2983158520316A180,180 0,0,0 477.2792206135787,367.27922061357845L434.85281374238576,324.85281374238565A120,120 0,0,1 395.9220118838108,350.8655439013544Z" style="pointer-events: all; stroke-width: 1; fill: rgb(171, 99, 250); fill-opacity: 1; stroke: rgb(255, 255, 255); stroke-opacity: 1; opacity: 0.7;"/><g class="slicetext"><text data-notex="1" class="slicetext" text-anchor="middle" x="0" y="0" style="font-family: 'Open Sans', verdana, arial, sans-serif; font-size: 12px; fill: rgb(68, 68, 68); fill-opacity: 1; white-space: pre;" transform="translate(433.6778945501149,369.982819191417)">6GE</text></g></g><g class="slice"><path class="surface" d="M434.85281374238576,324.85281374238565L477.2792206135787,367.27922061357845A180,180 0,0,0 516.2983158520317,308.88301782571597L460.86554390135444,285.9220118838106A120,120 0,0,1 434.85281374238576,324.85281374238565Z" style="pointer-events: all; stroke-width: 1; fill: rgb(171, 99, 250); fill-opacity: 1; stroke: rgb(255, 255, 255); stroke-opacity: 1; opacity: 0.7;"/><g class="slicetext"><text data-notex="1" class="slicetext" text-anchor="middle" x="0" y="0" style="font-family: 'Open Sans', verdana, arial, sans-serif; font-size: 12px; fill: rgb(68, 68, 68); fill-opacity: 1; white-space: pre;" transform="translate(475.2328191914171,328.42789455011473)">K9T</text></g></g><g class="slice"><path class="surface" d="M460.86554390135444,285.9220118838106L516.2983158520317,308.88301782571597A180,180 0,0,0 530,239.99999999999972L470,239.99999999999983A120,120 0,0,1 460.86554390135444,285.9220118838106Z" style="pointer-events: all; stroke-width: 1; fill: rgb(171, 99, 250); fill-opacity: 1; stroke: rgb(255, 255, 255); stroke-opacity: 1; opacity: 0.7;"/><g class="slicetext"><text data-notex="1" class="slicetext" text-anchor="middle" x="0" y="0" style="font-family: 'Open Sans', verdana, arial, sans-serif; font-size: 12px; fill: rgb(68, 68, 68); fill-opacity: 1; white-space: pre;" transform="translate(497.72218234915886,274.1337690055605)">KA2</text></g></g></g></g><g class="glimages"/><defs id="topdefs-a6fb47"><g class="clips"/></defs><g class="layer-above"><g class="imagelayer"/><g class="shapelayer"/></g><g class="infolayer"><g class="g-gtitle"/><g class="annotation" data-index="0" style="opacity: 1;"><g class="annotation-text-g" transform="rotate(0,350,49.999999999999986)"><g class="cursor-pointer" transform="translate(312,42)"><rect class="bg" x="0.5" y="0.5" width="75" height="15" style="stroke-width: 1px; stroke: rgb(0, 0, 0); stroke-opacity: 0; fill: rgb(0, 0, 0); fill-opacity: 0;"/><text class="annotation-text" text-anchor="middle" x="37.9375" y="12" style="font-family: 'Open Sans', verdana, arial, sans-serif; font-size: 10px; fill: rgb(42, 63, 95); fill-opacity: 1; white-space: pre;"><tspan style="font-weight:bold">Chemical_ID</tspan></text></g></g></g><g class="annotation" data-index="1" style="opacity: 1;"><g class="annotation-text-g" transform="rotate(0,350,111.19999999999999)"><g class="cursor-pointer" transform="translate(326,103)"><rect class="bg" x="0.5" y="0.5" width="47" height="15" style="stroke-width: 1px; stroke: rgb(0, 0, 0); stroke-opacity: 0; fill: rgb(0, 0, 0); fill-opacity: 0;"/><text class="annotation-text" text-anchor="middle" x="24.0625" y="12" style="font-family: 'Open Sans', verdana, arial, sans-serif; font-size: 10px; fill: rgb(42, 63, 95); fill-opacity: 1; white-space: pre;"><tspan style="font-weight:bold">PDB_ID</tspan></text></g></g></g><g class="annotation" data-index="2" style="opacity: 1;"><g class="annotation-text-g" transform="rotate(0,350,172.4)"><g class="cursor-pointer" transform="translate(308,164)"><rect class="bg" x="0.5" y="0.5" width="83" height="15" style="stroke-width: 1px; stroke: rgb(0, 0, 0); stroke-opacity: 0; fill: rgb(0, 0, 0); fill-opacity: 0;"/><text class="annotation-text" text-anchor="middle" x="42.203125" y="12" style="font-family: 'Open Sans', verdana, arial, sans-serif; font-size: 10px; fill: rgb(42, 63, 95); fill-opacity: 1; white-space: pre;"><tspan style="font-weight:bold">Protein_Name</tspan></text></g></g></g></g></svg>