<svg class="main-svg" xmlns="http://www.w3.org/2000/svg" xmlns:xlink="http://www.w3.org/1999/xlink" width="700" height="500" style="" viewBox="0 0 700 500"><rect x="0" y="0" width="700" height="500" style="fill: rgb(255, 255, 255); fill-opacity: 1;"/><defs id="defs-b0993f"><g class="clips"/><g class="gradients"/><g class="patterns"/></defs><g class="bglayer"/><g class="layer-below"><g class="imagelayer"/><g class="shapelayer"/></g><g class="cartesianlayer"/><g class="polarlayer"/><g class="smithlayer"/><g class="ternarylayer"/><g class="geolayer"/><g class="funnelarealayer"/><g class="pielayer"/><g class="iciclelayer"/><g class="treemaplayer"/><g class="sunburstlayer"><g class="trace sunburst" stroke-linejoin="round" style="opacity: 1;"><g class="slice cursor-pointer"><path class="surface" d="M350,240L410,240A60,60 0,0,0 350,180L350,240A0,0 0,0,1 350,240Z" style="pointer-events: all; stroke-width: 1; fill: rgb(99, 110, 250); fill-opacity: 1; stroke: rgb(255, 255, 255); stroke-opacity: 1;"/><g class="slicetext"><text data-notex="1" class="slicetext" text-anchor="middle" x="0" y="0" style="font-family: 'Open Sans', verdana, arial, sans-serif; font-size: 12px; fill: rgb(255, 255, 255); fill-opacity: 1; white-space: pre;" transform="translate(376.4099142644247,213.59008573557531)rotate(45)">Camk1D</text></g></g><g class="slice cursor-pointer"><path class="surface" d="M350,240L350,180A60,60 0,0,0 290,240L350,240A0,0 0,0,1 350,240Z" style="pointer-events: all; stroke-width: 1; fill: rgb(239, 85, 59); fill-opacity: 1; stroke: rgb(255, 255, 255); stroke-opacity: 1;"/><g class="slicetext"><text data-notex="1" class="slicetext" text-anchor="middle" x="0" y="0" style="font-family: 'Open Sans', verdana, arial, sans-serif; font-size: 12px; fill: rgb(68, 68, 68); fill-opacity: 1; white-space: pre;" transform="translate(325.1471862576143,219.8971862576143)">Dhodh</text></g></g><g class="slice cursor-pointer"><path class="surface" d="M350,240L290,240A60,60 0,0,0 350,300L350,240A0,0 0,0,1 350,240Z" style="pointer-events: all; stroke-width: 1; fill: rgb(0, 204, 150); fill-opacity: 1; stroke: rgb(255, 255, 255); stroke-opacity: 1;"/><g class="slicetext"><text data-notex="1" class="slicetext" text-anchor="middle" x="0" y="0" style="font-family: 'Open Sans', verdana, arial, sans-serif; font-size: 12px; fill: rgb(68, 68, 68); fill-opacity: 1; white-space: pre;" transform="translate(325.1471862576143,269.6028137423857)">Fabg</text></g></g><g class="slice cursor-pointer"><path class="surface" d="M350,240L350,300A60,60 0,0,0 410,240.00000000000003L350,240A0,0 0,0,1 350,240Z" style="pointer-events: all; stroke-width: 1; fill: rgb(171, 99, 250); fill-opacity: 1; stroke: rgb(255, 255, 255); stroke-opacity: 1;"/><g class="slicetext"><text data-notex="1" class="slicetext" text-anchor="middle" x="0" y="0" style="font-family: 'Open Sans', verdana, arial, sans-serif; font-size: 12px; fill: rgb(68, 68, 68); fill-opacity: 1; white-space: pre;" transform="translate(374.8528137423857,269.6028137423857)">Ttbk1</text></g></g><g class="slice cursor-pointer"><path class="surface" d="M410,240L470,240A120,120 0,0,0 453.92304845413264,180L401.9615242270663,210A60,60 0,0,1 410,240Z" style="pointer-events: all; stroke-width: 1; fill: rgb(99, 110, 250); fill-opacity: 1; stroke: rgb(255, 255, 255); stroke-opacity: 1;"/><g class="slicetext"><text data-notex="1" class="slicetext" text-anchor="middle" x="0" y="0" style="font-family: 'Open Sans', verdana, arial, sans-serif; font-size: 12px; fill: rgb(255, 255, 255); fill-opacity: 1; white-space: pre;" transform="translate(442.07923855747526,220.0774423888518)">6T28</text></g></g><g class="slice cursor-pointer"><path class="surface" d="M401.9615242270663,210L453.92304845413264,180A120,120 0,0,0 410,136.07695154586736L380,188.03847577293368A60,60 0,0,1 401.9615242270663,210Z" style="pointer-events: all; stroke-width: 1; fill: rgb(99, 110, 250); fill-opacity: 1; stroke: rgb(255, 255, 255); stroke-opacity: 1;"/><g class="slicetext"><text data-notex="1" class="slicetext" text-anchor="middle" x="0" y="0" style="font-family: 'Open Sans', verdana, arial, sans-serif; font-size: 12px; fill: rgb(255, 255, 255); fill-opacity: 1; white-space: pre;" transform="translate(417.40668094632707,177.34331905367296)">6T29</text></g></g><g class="slice cursor-pointer"><path class="surface" d="M380,188.03847577293368L410,136.07695154586736A120,120 0,0,0 350,120L350,180A60,60 0,0,1 380,188.03847577293368Z" style="pointer-events: all; stroke-width: 1; fill: rgb(99, 110, 250); fill-opacity: 1; stroke: rgb(255, 255, 255); stroke-opacity: 1;"/><g class="slicetext"><text data-notex="1" class="slicetext" text-anchor="middle" x="0" y="0" style="font-family: 'Open Sans', verdana, arial, sans-serif; font-size: 12px; fill: rgb(255, 255, 255); fill-opacity: 1; white-space: pre;" transform="translate(374.6725576111482,152.67076144252474)">6T6F</text></g></g><g class="slice cursor-pointer"><path class="surface" d="M350,180L350,120A120,120 0,0,0 290,136.07695154586736L320,188.03847577293368A60,60 0,0,1 350,180Z" style="pointer-events: all; stroke-width: 1; fill: rgb(239, 85, 59); fill-opacity: 1; stroke: rgb(255, 255, 255); stroke-opacity: 1;"/><g class="slicetext"><text data-notex="1" class="slicetext" text-anchor="middle" x="0" y="0" style="font-family: 'Open Sans', verdana, arial, sans-serif; font-size: 12px; fill: rgb(68, 68, 68); fill-opacity: 1; white-space: pre;" transform="translate(325.3196298888518,152.67076144252474)">2PRL</text></g></g><g class="slice cursor-pointer"><path class="surface" d="M320,188.03847577293368L290,136.07695154586736A120,120 0,0,0 246.0769515458674,179.99999999999994L298.0384757729337,209.99999999999997A60,60 0,0,1 320,188.03847577293368Z" style="pointer-events: all; stroke-width: 1; fill: rgb(239, 85, 59); fill-opacity: 1; stroke: rgb(255, 255, 255); stroke-opacity: 1;"/><g class="slicetext"><text data-notex="1" class="slicetext" text-anchor="middle" x="0" y="0" style="font-family: 'Open Sans', verdana, arial, sans-serif; font-size: 12px; fill: rgb(68, 68, 68); fill-opacity: 1; white-space: pre;" transform="translate(282.593319053673,177.34331905367293)">4OQV</text></g></g><g class="slice cursor-pointer"><path class="surface" d="M298.0384757729337,209.99999999999997L246.0769515458674,179.99999999999994A120,120 0,0,0 230,239.99999999999994L290,239.99999999999997A60,60 0,0,1 298.0384757729337,209.99999999999997Z" style="pointer-events: all; stroke-width: 1; fill: rgb(239, 85, 59); fill-opacity: 1; stroke: rgb(255, 255, 255); stroke-opacity: 1;"/><g class="slicetext"><text data-notex="1" class="slicetext" text-anchor="middle" x="0" y="0" style="font-family: 'Open Sans', verdana, arial, sans-serif; font-size: 12px; fill: rgb(68, 68, 68); fill-opacity: 1; white-space: pre;" transform="translate(257.92076144252474,220.07744238885178)">4ORI</text></g></g><g class="slice cursor-pointer"><path class="surface" d="M290,240L230,239.99999999999997A120,120 0,0,0 246.07695154586736,299.99999999999994L298.0384757729337,270A60,60 0,0,1 290,240Z" style="pointer-events: all; stroke-width: 1; fill: rgb(0, 204, 150); fill-opacity: 1; stroke: rgb(255, 255, 255); stroke-opacity: 1;"/><g class="slicetext"><text data-notex="1" class="slicetext" text-anchor="middle" x="0" y="0" style="font-family: 'Open Sans', verdana, arial, sans-serif; font-size: 12px; fill: rgb(68, 68, 68); fill-opacity: 1; white-space: pre;" transform="translate(257.92076144252474,269.4225576111482)">4BO3</text></g></g><g class="slice cursor-pointer"><path class="surface" d="M298.0384757729337,270L246.07695154586736,299.99999999999994A120,120 0,0,0 289.99999999999994,343.92304845413264L320,291.9615242270663A60,60 0,0,1 298.0384757729337,270Z" style="pointer-events: all; stroke-width: 1; fill: rgb(0, 204, 150); fill-opacity: 1; stroke: rgb(255, 255, 255); stroke-opacity: 1;"/><g class="slicetext"><text data-notex="1" class="slicetext" text-anchor="middle" x="0" y="0" style="font-family: 'Open Sans', verdana, arial, sans-serif; font-size: 12px; fill: rgb(68, 68, 68); fill-opacity: 1; white-space: pre;" transform="translate(282.59331905367293,312.15668094632707)">4BO5</text></g></g><g class="slice cursor-pointer"><path class="surface" d="M320,291.9615242270663L289.99999999999994,343.92304845413264A120,120 0,0,0 350,360L350,300A60,60 0,0,1 320,291.9615242270663Z" style="pointer-events: all; stroke-width: 1; fill: rgb(0, 204, 150); fill-opacity: 1; stroke: rgb(255, 255, 255); stroke-opacity: 1;"/><g class="slicetext"><text data-notex="1" class="slicetext" text-anchor="middle" x="0" y="0" style="font-family: 'Open Sans', verdana, arial, sans-serif; font-size: 12px; fill: rgb(68, 68, 68); fill-opacity: 1; white-space: pre;" transform="translate(325.3274423888518,336.8292385574752)">4BO7</text></g></g><g class="slice cursor-pointer"><path class="surface" d="M350,300L350,360A120,120 0,0,0 410,343.92304845413264L380,291.9615242270663A60,60 0,0,1 350,300Z" style="pointer-events: all; stroke-width: 1; fill: rgb(171, 99, 250); fill-opacity: 1; stroke: rgb(255, 255, 255); stroke-opacity: 1;"/><g class="slicetext"><text data-notex="1" class="slicetext" text-anchor="middle" x="0" y="0" style="font-family: 'Open Sans', verdana, arial, sans-serif; font-size: 12px; fill: rgb(68, 68, 68); fill-opacity: 1; white-space: pre;" transform="translate(374.6725576111482,336.82923855747526)">4BTK</text></g></g><g class="slice cursor-pointer"><path class="surface" d="M380,291.9615242270663L410,343.92304845413264A120,120 0,0,0 453.92304845413264,299.99999999999994L401.9615242270663,270A60,60 0,0,1 380,291.9615242270663Z" style="pointer-events: all; stroke-width: 1; fill: rgb(171, 99, 250); fill-opacity: 1; stroke: rgb(255, 255, 255); stroke-opacity: 1;"/><g class="slicetext"><text data-notex="1" class="slicetext" text-anchor="middle" x="0" y="0" style="font-family: 'Open Sans', verdana, arial, sans-serif; font-size: 12px; fill: rgb(68, 68, 68); fill-opacity: 1; white-space: pre;" transform="translate(417.40668094632707,312.156680946327)">4BTM</text></g></g><g class="slice cursor-pointer"><path class="surface" d="M401.9615242270663,270L453.92304845413264,299.99999999999994A120,120 0,0,0 470,239.99999999999991L410,239.99999999999997A60,60 0,0,1 401.9615242270663,270Z" style="pointer-events: all; stroke-width: 1; fill: rgb(171, 99, 250); fill-opacity: 1; stroke: rgb(255, 255, 255); stroke-opacity: 1;"/><g class="slicetext"><text data-notex="1" class="slicetext" text-anchor="middle" x="0" y="0" style="font-family: 'Open Sans', verdana, arial, sans-serif; font-size: 12px; fill: rgb(68, 68, 68); fill-opacity: 1; white-space: pre;" transform="translate(442.07923855747526,269.4225576111482)">4NFN</text></g></g><g class="slice"><path class="surface" d="M470,240L530,240A180,180 0,0,0 505.88457268119896,150L453.92304845413264,180A120,120 0,0,1 470,240Z" style="pointer-events: all; stroke-width: 1; fill: rgb(99, 110, 250); fill-opacity: 1; stroke: rgb(255, 255, 255); stroke-opacity: 1; opacity: 0.7;"/><g class="slicetext"><text data-notex="1" class="slicetext" text-anchor="middle" x="0" y="0" style="font-family: 'Open Sans', verdana, arial, sans-serif; font-size: 12px; fill: rgb(255, 255, 255); fill-opacity: 1; white-space: pre;" transform="translate(494.88887394336024,205.9271432346219)">M92</text></g></g><g class="slice"><path class="surface" d="M453.92304845413264,180L505.88457268119896,150A180,180 0,0,0 440,84.11542731880104L410,136.07695154586736A120,120 0,0,1 453.92304845413264,180Z" style="pointer-events: all; stroke-width: 1; fill: rgb(99, 110, 250); fill-opacity: 1; stroke: rgb(255, 255, 255); stroke-opacity: 1; opacity: 0.7;"/><g class="slicetext"><text data-notex="1" class="slicetext" text-anchor="middle" x="0" y="0" style="font-family: 'Open Sans', verdana, arial, sans-serif; font-size: 12px; fill: rgb(255, 255, 255); fill-opacity: 1; white-space: pre;" transform="translate(456.06601717798213,138.68398282201787)">M8Z</text></g></g><g class="slice"><path class="surface" d="M410,136.07695154586736L440,84.11542731880104A180,180 0,0,0 350,60L350,120A120,120 0,0,1 410,136.07695154586736Z" style="pointer-events: all; stroke-width: 1; fill: rgb(99, 110, 250); fill-opacity: 1; stroke: rgb(255, 255, 255); stroke-opacity: 1; opacity: 0.7;"/><g class="slicetext"><text data-notex="1" class="slicetext" text-anchor="middle" x="0" y="0" style="font-family: 'Open Sans', verdana, arial, sans-serif; font-size: 12px; fill: rgb(255, 255, 255); fill-opacity: 1; white-space: pre;" transform="translate(388.8228567653781,99.86112605663976)">MMW</text></g></g><g class="slice"><path class="surface" d="M350,120L350,60A180,180 0,0,0 260.00000000000006,84.11542731880104L290,136.07695154586736A120,120 0,0,1 350,120Z" style="pointer-events: all; stroke-width: 1; fill: rgb(239, 85, 59); fill-opacity: 1; stroke: rgb(255, 255, 255); stroke-opacity: 1; opacity: 0.7;"/><g class="slicetext"><text data-notex="1" class="slicetext" text-anchor="middle" x="0" y="0" style="font-family: 'Open Sans', verdana, arial, sans-serif; font-size: 12px; fill: rgb(68, 68, 68); fill-opacity: 1; white-space: pre;" transform="translate(311.1771432346219,99.86112605663976)">R2C</text></g></g><g class="slice"><path class="surface" d="M290,136.07695154586736L260.00000000000006,84.11542731880104A180,180 0,0,0 194.11542731880107,149.99999999999994L246.0769515458674,179.99999999999994A120,120 0,0,1 290,136.07695154586736Z" style="pointer-events: all; stroke-width: 1; fill: rgb(239, 85, 59); fill-opacity: 1; stroke: rgb(255, 255, 255); stroke-opacity: 1; opacity: 0.7;"/><g class="slicetext"><text data-notex="1" class="slicetext" text-anchor="middle" x="0" y="0" style="font-family: 'Open Sans', verdana, arial, sans-serif; font-size: 12px; fill: rgb(68, 68, 68); fill-opacity: 1; white-space: pre;" transform="translate(243.93398282201792,138.68398282201787)">2V6</text></g></g><g class="slice"><path class="surface" d="M246.0769515458674,179.99999999999994L194.11542731880107,149.99999999999994A180,180 0,0,0 170,239.9999999999999L230,239.99999999999994A120,120 0,0,1 246.0769515458674,179.99999999999994Z" style="pointer-events: all; stroke-width: 1; fill: rgb(239, 85, 59); fill-opacity: 1; stroke: rgb(255, 255, 255); stroke-opacity: 1; opacity: 0.7;"/><g class="slicetext"><text data-notex="1" class="slicetext" text-anchor="middle" x="0" y="0" style="font-family: 'Open Sans', verdana, arial, sans-serif; font-size: 12px; fill: rgb(68, 68, 68); fill-opacity: 1; white-space: pre;" transform="translate(205.1111260566398,205.92714323462184)">2V6</text></g></g><g class="slice"><path class="surface" d="M230,239.99999999999997L170,239.99999999999997A180,180 0,0,0 194.115427318801,329.99999999999994L246.07695154586736,299.99999999999994A120,120 0,0,1 230,239.99999999999997Z" style="pointer-events: all; stroke-width: 1; fill: rgb(0, 204, 150); fill-opacity: 1; stroke: rgb(255, 255, 255); stroke-opacity: 1; opacity: 0.7;"/><g class="slicetext"><text data-notex="1" class="slicetext" text-anchor="middle" x="0" y="0" style="font-family: 'Open Sans', verdana, arial, sans-serif; font-size: 12px; fill: rgb(68, 68, 68); fill-opacity: 1; white-space: pre;" transform="translate(205.11112605663976,283.5728567653781)">U98</text></g></g><g class="slice"><path class="surface" d="M246.07695154586736,299.99999999999994L194.115427318801,329.99999999999994A180,180 0,0,0 259.9999999999999,395.88457268119896L289.99999999999994,343.92304845413264A120,120 0,0,1 246.07695154586736,299.99999999999994Z" style="pointer-events: all; stroke-width: 1; fill: rgb(0, 204, 150); fill-opacity: 1; stroke: rgb(255, 255, 255); stroke-opacity: 1; opacity: 0.7;"/><g class="slicetext"><text data-notex="1" class="slicetext" text-anchor="middle" x="0" y="0" style="font-family: 'Open Sans', verdana, arial, sans-serif; font-size: 12px; fill: rgb(68, 68, 68); fill-opacity: 1; white-space: pre;" transform="translate(243.93398282201787,350.81601717798213)">WI4</text></g></g><g class="slice"><path class="surface" d="M289.99999999999994,343.92304845413264L259.9999999999999,395.88457268119896A180,180 0,0,0 349.99999999999994,420L350,360A120,120 0,0,1 289.99999999999994,343.92304845413264Z" style="pointer-events: all; stroke-width: 1; fill: rgb(0, 204, 150); fill-opacity: 1; stroke: rgb(255, 255, 255); stroke-opacity: 1; opacity: 0.7;"/><g class="slicetext"><text data-notex="1" class="slicetext" text-anchor="middle" x="0" y="0" style="font-family: 'Open Sans', verdana, arial, sans-serif; font-size: 12px; fill: rgb(68, 68, 68); fill-opacity: 1; white-space: pre;" transform="translate(311.17714323462184,389.6388739433602)">J2T</text></g></g><g class="slice"><path class="surface" d="M350,360L349.99999999999994,420A180,180 0,0,0 440,395.88457268119896L410,343.92304845413264A120,120 0,0,1 350,360Z" style="pointer-events: all; stroke-width: 1; fill: rgb(171, 99, 250); fill-opacity: 1; stroke: rgb(255, 255, 255); stroke-opacity: 1; opacity: 0.7;"/><g class="slicetext"><text data-notex="1" class="slicetext" text-anchor="middle" x="0" y="0" style="font-family: 'Open Sans', verdana, arial, sans-serif; font-size: 12px; fill: rgb(68, 68, 68); fill-opacity: 1; white-space: pre;" transform="translate(388.8228567653781,389.63887394336024)">DTQ</text></g></g><g class="slice"><path class="surface" d="M410,343.92304845413264L440,395.88457268119896A180,180 0,0,0 505.88457268119896,329.99999999999994L453.92304845413264,299.99999999999994A120,120 0,0,1 410,343.92304845413264Z" style="pointer-events: all; stroke-width: 1; fill: rgb(171, 99, 250); fill-opacity: 1; stroke: rgb(255, 255, 255); stroke-opacity: 1; opacity: 0.7;"/><g class="slicetext"><text data-notex="1" class="slicetext" text-anchor="middle" x="0" y="0" style="font-family: 'Open Sans', verdana, arial, sans-serif; font-size: 12px; fill: rgb(68, 68, 68); fill-opacity: 1; white-space: pre;" transform="translate(456.06601717798213,350.8160171779821)">F8E</text></g></g><g class="slice"><path class="surface" d="M453.92304845413264,299.99999999999994L505.88457268119896,329.99999999999994A180,180 0,0,0 530,239.9999999999999L470,239.99999999999991A120,120 0,0,1 453.92304845413264,299.99999999999994Z" style="pointer-events: all; stroke-width: 1; fill: rgb(171, 99, 250); fill-opacity: 1; stroke: rgb(255, 255, 255); stroke-opacity: 1; opacity: 0.7;"/><g class="slicetext"><text data-notex="1" class="slicetext" text-anchor="middle" x="0" y="0" style="font-family: 'Open Sans', verdana, arial, sans-serif; font-size: 12px; fill: rgb(68, 68, 68); fill-opacity: 1; white-space: pre;" transform="translate(494.88887394336024,283.5728567653781)">2KC</text></g></g></g></g><g class="glimages"/><defs id="topdefs-b0993f"><g class="clips"/></defs><g class="layer-above"><g class="imagelayer"/><g class="shapelayer"/></g><g class="infolayer"><g class="g-gtitle"/><g class="annotation" data-index="0" style="opacity: 1;"><g class="annotation-text-g" transform="rotate(0,350,49.999999999999986)"><g class="cursor-pointer" transform="translate(312,42)"><rect class="bg" x="0.5" y="0.5" width="75" height="15" style="stroke-width: 1px; stroke: rgb(0, 0, 0); stroke-opacity: 0; fill: rgb(0, 0, 0); fill-opacity: 0;"/><text class="annotation-text" text-anchor="middle" x="37.9375" y="12" style="font-family: 'Open Sans', verdana, arial, sans-serif; font-size: 10px; fill: rgb(42, 63, 95); fill-opacity: 1; white-space: pre;"><tspan style="font-weight:bold">Chemical_ID</tspan></text></g></g></g><g class="annotation" data-index="1" style="opacity: 1;"><g class="annotation-text-g" transform="rotate(0,350,111.19999999999999)"><g class="cursor-pointer" transform="translate(326,103)"><rect class="bg" x="0.5" y="0.5" width="47" height="15" style="stroke-width: 1px; stroke: rgb(0, 0, 0); stroke-opacity: 0; fill: rgb(0, 0, 0); fill-opacity: 0;"/><text class="annotation-text" text-anchor="middle" x="24.0625" y="12" style="font-family: 'Open Sans', verdana, arial, sans-serif; font-size: 10px; fill: rgb(42, 63, 95); fill-opacity: 1; white-space: pre;"><tspan style="font-weight:bold">PDB_ID</tspan></text></g></g></g><g class="annotation" data-index="2" style="opacity: 1;"><g class="annotation-text-g" transform="rotate(0,350,172.4)"><g class="cursor-pointer" transform="translate(308,164)"><rect class="bg" x="0.5" y="0.5" width="83" height="15" style="stroke-width: 1px; stroke: rgb(0, 0, 0); stroke-opacity: 0; fill: rgb(0, 0, 0); fill-opacity: 0;"/><text class="annotation-text" text-anchor="middle" x="42.203125" y="12" style="font-family: 'Open Sans', verdana, arial, sans-serif; font-size: 10px; fill: rgb(42, 63, 95); fill-opacity: 1; white-space: pre;"><tspan style="font-weight:bold">Protein_Name</tspan></text></g></g></g></g></svg>