<svg class="main-svg" xmlns="http://www.w3.org/2000/svg" xmlns:xlink="http://www.w3.org/1999/xlink" width="700" height="500" style="" viewBox="0 0 700 500"><rect x="0" y="0" width="700" height="500" style="fill: rgb(255, 255, 255); fill-opacity: 1;"/><defs id="defs-ad0227"><g class="clips"/><g class="gradients"/><g class="patterns"/></defs><g class="bglayer"/><g class="layer-below"><g class="imagelayer"/><g class="shapelayer"/></g><g class="cartesianlayer"/><g class="polarlayer"/><g class="smithlayer"/><g class="ternarylayer"/><g class="geolayer"/><g class="funnelarealayer"/><g class="pielayer"/><g class="iciclelayer"/><g class="treemaplayer"/><g class="sunburstlayer"><g class="trace sunburst" stroke-linejoin="round" style="opacity: 1;"><g class="slice cursor-pointer"><path class="surface" d="M350,240L410,240A60,60 0,0,0 328.7237067774479,183.8990254388751L350,240A0,0 0,0,1 350,240Z" style="pointer-events: all; stroke-width: 1; fill: rgb(99, 110, 250); fill-opacity: 1; stroke: rgb(255, 255, 255); stroke-opacity: 1;"/><g class="slicetext"><text data-notex="1" class="slicetext" text-anchor="middle" x="0" y="0" style="font-family: 'Open Sans', verdana, arial, sans-serif; font-size: 12px; fill: rgb(255, 255, 255); fill-opacity: 1; white-space: pre;" transform="translate(368.6967561488323,217.66307242074083)">Ca2</text></g></g><g class="slice cursor-pointer"><path class="surface" d="M350,240L328.7237067774479,183.8990254388751A60,60 0,0,0 291.7434909544369,254.35893985725346L350,240A0,0 0,0,1 350,240Z" style="pointer-events: all; stroke-width: 1; fill: rgb(239, 85, 59); fill-opacity: 1; stroke: rgb(255, 255, 255); stroke-opacity: 1;"/><g class="slicetext"><text data-notex="1" class="slicetext" text-anchor="middle" x="0" y="0" style="font-family: 'Open Sans', verdana, arial, sans-serif; font-size: 12px; fill: rgb(68, 68, 68); fill-opacity: 1; white-space: pre;" transform="translate(318.05565646289176,227.98431516944132)">HGK</text></g></g><g class="slice cursor-pointer"><path class="surface" d="M350,240L291.7434909544369,254.35893985725346A60,60 0,0,0 357.23220081531935,299.5625324458832L350,240A0,0 0,0,1 350,240Z" style="pointer-events: all; stroke-width: 1; fill: rgb(0, 204, 150); fill-opacity: 1; stroke: rgb(255, 255, 255); stroke-opacity: 1;"/><g class="slicetext"><text data-notex="1" class="slicetext" text-anchor="middle" x="0" y="0" style="font-family: 'Open Sans', verdana, arial, sans-serif; font-size: 12px; fill: rgb(68, 68, 68); fill-opacity: 1; white-space: pre;" transform="translate(329.50609076547465,274.44055331484157)">Ptpn1</text></g></g><g class="slice cursor-pointer"><path class="surface" d="M350,240L357.23220081531935,299.5625324458832A60,60 0,0,0 410,240.00000000000006L350,240A0,0 0,0,1 350,240Z" style="pointer-events: all; stroke-width: 1; fill: rgb(171, 99, 250); fill-opacity: 1; stroke: rgb(255, 255, 255); stroke-opacity: 1;"/><g class="slicetext"><text data-notex="1" class="slicetext" text-anchor="middle" x="0" y="0" style="font-family: 'Open Sans', verdana, arial, sans-serif; font-size: 12px; fill: rgb(68, 68, 68); fill-opacity: 1; white-space: pre;" transform="translate(377.00380796794104,268.67328629358803)">Stk10</text></g></g><g class="slice cursor-pointer"><path class="surface" d="M410,240L470,240A120,120 0,0,0 456.25472307838515,184.23321935474777L403.1273615391926,212.1166096773739A60,60 0,0,1 410,240Z" style="pointer-events: all; stroke-width: 1; fill: rgb(99, 110, 250); fill-opacity: 1; stroke: rgb(255, 255, 255); stroke-opacity: 1;"/><g class="slicetext"><text data-notex="1" class="slicetext" text-anchor="middle" x="0" y="0" style="font-family: 'Open Sans', verdana, arial, sans-serif; font-size: 12px; fill: rgb(255, 255, 255); fill-opacity: 1; white-space: pre;" transform="translate(444.01399615012997,221.57763113381938)">3M40</text></g></g><g class="slice cursor-pointer"><path class="surface" d="M403.1273615391926,212.1166096773739L456.25472307838515,184.23321935474777A120,120 0,0,0 418.1677696077387,141.24193609276125L384.08388480386935,190.62096804638063A60,60 0,0,1 403.1273615391926,212.1166096773739Z" style="pointer-events: all; stroke-width: 1; fill: rgb(99, 110, 250); fill-opacity: 1; stroke: rgb(255, 255, 255); stroke-opacity: 1;"/><g class="slicetext"><text data-notex="1" class="slicetext" text-anchor="middle" x="0" y="0" style="font-family: 'Open Sans', verdana, arial, sans-serif; font-size: 12px; fill: rgb(255, 255, 255); fill-opacity: 1; white-space: pre;" transform="translate(422.47652262361055,180.54140385138248)">3MHO</text></g></g><g class="slice cursor-pointer"><path class="surface" d="M384.08388480386935,190.62096804638063L418.1677696077387,141.24193609276125A120,120 0,0,0 364.4644016306388,120.87493510823353L357.2322008153194,180.43746755411678A60,60 0,0,1 384.08388480386935,190.62096804638063Z" style="pointer-events: all; stroke-width: 1; fill: rgb(99, 110, 250); fill-opacity: 1; stroke: rgb(255, 255, 255); stroke-opacity: 1;"/><g class="slicetext"><text data-notex="1" class="slicetext" text-anchor="middle" x="0" y="0" style="font-family: 'Open Sans', verdana, arial, sans-serif; font-size: 12px; fill: rgb(255, 255, 255); fill-opacity: 1; white-space: pre;" transform="translate(384.33555120080433,154.21459214912687)">3MMF</text></g></g><g class="slice cursor-pointer"><path class="surface" d="M357.2322008153194,180.43746755411678L364.4644016306388,120.87493510823353A120,120 0,0,0 307.4474135548958,127.79805087775021L328.7237067774479,183.8990254388751A60,60 0,0,1 357.2322008153194,180.43746755411678Z" style="pointer-events: all; stroke-width: 1; fill: rgb(99, 110, 250); fill-opacity: 1; stroke: rgb(255, 255, 255); stroke-opacity: 1;"/><g class="slicetext"><text data-notex="1" class="slicetext" text-anchor="middle" x="0" y="0" style="font-family: 'Open Sans', verdana, arial, sans-serif; font-size: 12px; fill: rgb(255, 255, 255); fill-opacity: 1; white-space: pre;" transform="translate(338.3287187861425,148.6283513155645)">3MNA</text></g></g><g class="slice cursor-pointer"><path class="surface" d="M328.7237067774479,183.8990254388751L307.4474135548958,127.79805087775021A120,120 0,0,0 260.1787102194679,160.42528101110452L305.08935510973396,200.21264050555226A60,60 0,0,1 328.7237067774479,183.8990254388751Z" style="pointer-events: all; stroke-width: 1; fill: rgb(239, 85, 59); fill-opacity: 1; stroke: rgb(255, 255, 255); stroke-opacity: 1;"/><g class="slicetext"><text data-notex="1" class="slicetext" text-anchor="middle" x="0" y="0" style="font-family: 'Open Sans', verdana, arial, sans-serif; font-size: 12px; fill: rgb(68, 68, 68); fill-opacity: 1; white-space: pre;" transform="translate(294.99563624338913,165.06242180416433)">4U43</text></g></g><g class="slice cursor-pointer"><path class="surface" d="M305.08935510973396,200.21264050555226L260.1787102194679,160.42528101110452A120,120 0,0,0 233.48698190887376,211.28212028549302L291.7434909544369,225.6410601427465A60,60 0,0,1 305.08935510973396,200.21264050555226Z" style="pointer-events: all; stroke-width: 1; fill: rgb(239, 85, 59); fill-opacity: 1; stroke: rgb(255, 255, 255); stroke-opacity: 1;"/><g class="slicetext"><text data-notex="1" class="slicetext" text-anchor="middle" x="0" y="0" style="font-family: 'Open Sans', verdana, arial, sans-serif; font-size: 12px; fill: rgb(68, 68, 68); fill-opacity: 1; white-space: pre;" transform="translate(264.26339056283325,199.75195611800746)">4U44</text></g></g><g class="slice cursor-pointer"><path class="surface" d="M291.7434909544369,225.6410601427465L233.48698190887376,211.28212028549302A120,120 0,0,0 233.48698190887376,268.7178797145069L291.7434909544369,254.35893985725346A60,60 0,0,1 291.7434909544369,225.6410601427465Z" style="pointer-events: all; stroke-width: 1; fill: rgb(239, 85, 59); fill-opacity: 1; stroke: rgb(255, 255, 255); stroke-opacity: 1;"/><g class="slicetext"><text data-notex="1" class="slicetext" text-anchor="middle" x="0" y="0" style="font-family: 'Open Sans', verdana, arial, sans-serif; font-size: 12px; fill: rgb(68, 68, 68); fill-opacity: 1; white-space: pre;" transform="translate(253.1723688661806,244.74999999999997)">4U45</text></g></g><g class="slice cursor-pointer"><path class="surface" d="M291.7434909544369,254.35893985725346L233.48698190887376,268.7178797145069A120,120 0,0,0 260.17871021946786,319.57471898889537L305.0893551097339,279.7873594944477A60,60 0,0,1 291.7434909544369,254.35893985725346Z" style="pointer-events: all; stroke-width: 1; fill: rgb(0, 204, 150); fill-opacity: 1; stroke: rgb(255, 255, 255); stroke-opacity: 1;"/><g class="slicetext"><text data-notex="1" class="slicetext" text-anchor="middle" x="0" y="0" style="font-family: 'Open Sans', verdana, arial, sans-serif; font-size: 12px; fill: rgb(68, 68, 68); fill-opacity: 1; white-space: pre;" transform="translate(264.26339056283325,289.7480438819925)">5QEB</text></g></g><g class="slice cursor-pointer"><path class="surface" d="M305.0893551097339,279.7873594944477L260.17871021946786,319.57471898889537A120,120 0,0,0 307.44741355489566,352.20194912224974L328.72370677744783,296.1009745611249A60,60 0,0,1 305.0893551097339,279.7873594944477Z" style="pointer-events: all; stroke-width: 1; fill: rgb(0, 204, 150); fill-opacity: 1; stroke: rgb(255, 255, 255); stroke-opacity: 1;"/><g class="slicetext"><text data-notex="1" class="slicetext" text-anchor="middle" x="0" y="0" style="font-family: 'Open Sans', verdana, arial, sans-serif; font-size: 12px; fill: rgb(68, 68, 68); fill-opacity: 1; white-space: pre;" transform="translate(294.99563624338913,324.4375781958356)">5QEG</text></g></g><g class="slice cursor-pointer"><path class="surface" d="M328.72370677744783,296.1009745611249L307.44741355489566,352.20194912224974A120,120 0,0,0 364.4644016306387,359.1250648917665L357.23220081531935,299.5625324458832A60,60 0,0,1 328.72370677744783,296.1009745611249Z" style="pointer-events: all; stroke-width: 1; fill: rgb(0, 204, 150); fill-opacity: 1; stroke: rgb(255, 255, 255); stroke-opacity: 1;"/><g class="slicetext"><text data-notex="1" class="slicetext" text-anchor="middle" x="0" y="0" style="font-family: 'Open Sans', verdana, arial, sans-serif; font-size: 12px; fill: rgb(68, 68, 68); fill-opacity: 1; white-space: pre;" transform="translate(338.3287187861424,340.8716486844355)">5QEI</text></g></g><g class="slice cursor-pointer"><path class="surface" d="M357.23220081531935,299.5625324458832L364.4644016306387,359.1250648917665A120,120 0,0,0 418.1677696077386,338.7580639072388L384.0838848038693,289.3790319536194A60,60 0,0,1 357.23220081531935,299.5625324458832Z" style="pointer-events: all; stroke-width: 1; fill: rgb(171, 99, 250); fill-opacity: 1; stroke: rgb(255, 255, 255); stroke-opacity: 1;"/><g class="slicetext"><text data-notex="1" class="slicetext" text-anchor="middle" x="0" y="0" style="font-family: 'Open Sans', verdana, arial, sans-serif; font-size: 12px; fill: rgb(68, 68, 68); fill-opacity: 1; white-space: pre;" transform="translate(384.3355512008043,335.2854078508731)">4AOT</text></g></g><g class="slice cursor-pointer"><path class="surface" d="M384.0838848038693,289.3790319536194L418.1677696077386,338.7580639072388A120,120 0,0,0 456.2547230783851,295.7667806452524L403.1273615391925,267.8833903226262A60,60 0,0,1 384.0838848038693,289.3790319536194Z" style="pointer-events: all; stroke-width: 1; fill: rgb(171, 99, 250); fill-opacity: 1; stroke: rgb(255, 255, 255); stroke-opacity: 1;"/><g class="slicetext"><text data-notex="1" class="slicetext" text-anchor="middle" x="0" y="0" style="font-family: 'Open Sans', verdana, arial, sans-serif; font-size: 12px; fill: rgb(68, 68, 68); fill-opacity: 1; white-space: pre;" transform="translate(422.4765226236105,308.95859614861763)">4BC6</text></g></g><g class="slice cursor-pointer"><path class="surface" d="M403.1273615391925,267.8833903226262L456.2547230783851,295.7667806452524A120,120 0,0,0 470,240.00000000000026L410,240.0000000000001A60,60 0,0,1 403.1273615391925,267.8833903226262Z" style="pointer-events: all; stroke-width: 1; fill: rgb(171, 99, 250); fill-opacity: 1; stroke: rgb(255, 255, 255); stroke-opacity: 1;"/><g class="slicetext"><text data-notex="1" class="slicetext" text-anchor="middle" x="0" y="0" style="font-family: 'Open Sans', verdana, arial, sans-serif; font-size: 12px; fill: rgb(68, 68, 68); fill-opacity: 1; white-space: pre;" transform="translate(444.01399615012997,267.92236886618076)">5AJQ</text></g></g><g class="slice"><path class="surface" d="M470,240L530,240A180,180 0,0,0 509.3820846175778,156.34982903212168L456.25472307838515,184.23321935474777A120,120 0,0,1 470,240Z" style="pointer-events: all; stroke-width: 1; fill: rgb(99, 110, 250); fill-opacity: 1; stroke: rgb(255, 255, 255); stroke-opacity: 1; opacity: 0.7;"/><g class="slicetext"><text data-notex="1" class="slicetext" text-anchor="middle" x="0" y="0" style="font-family: 'Open Sans', verdana, arial, sans-serif; font-size: 12px; fill: rgb(255, 255, 255); fill-opacity: 1; white-space: pre;" transform="translate(495.6412726139078,208.85265035686632)">J45</text></g></g><g class="slice"><path class="surface" d="M456.25472307838515,184.23321935474777L509.3820846175778,156.34982903212168A180,180 0,0,0 452.25165441160806,91.86290413914185L418.1677696077387,141.24193609276125A120,120 0,0,1 456.25472307838515,184.23321935474777Z" style="pointer-events: all; stroke-width: 1; fill: rgb(99, 110, 250); fill-opacity: 1; stroke: rgb(255, 255, 255); stroke-opacity: 1; opacity: 0.7;"/><g class="slicetext"><text data-notex="1" class="slicetext" text-anchor="middle" x="0" y="0" style="font-family: 'Open Sans', verdana, arial, sans-serif; font-size: 12px; fill: rgb(255, 255, 255); fill-opacity: 1; white-space: pre;" transform="translate(462.27661222566513,145.2816012638807)">J43</text></g></g><g class="slice"><path class="surface" d="M418.1677696077387,141.24193609276125L452.25165441160806,91.86290413914185A180,180 0,0,0 371.6966024459582,61.31240266235028L364.4644016306388,120.87493510823353A120,120 0,0,1 418.1677696077387,141.24193609276125Z" style="pointer-events: all; stroke-width: 1; fill: rgb(99, 110, 250); fill-opacity: 1; stroke: rgb(255, 255, 255); stroke-opacity: 1; opacity: 0.7;"/><g class="slicetext"><text data-notex="1" class="slicetext" text-anchor="middle" x="0" y="0" style="font-family: 'Open Sans', verdana, arial, sans-serif; font-size: 12px; fill: rgb(255, 255, 255); fill-opacity: 1; white-space: pre;" transform="translate(403.19073305638034,104.49756359718779)">D9H</text></g></g><g class="slice"><path class="surface" d="M364.4644016306388,120.87493510823353L371.6966024459582,61.31240266235028A180,180 0,0,0 286.1711203323436,71.69707631662533L307.4474135548958,127.79805087775021A120,120 0,0,1 364.4644016306388,120.87493510823353Z" style="pointer-events: all; stroke-width: 1; fill: rgb(99, 110, 250); fill-opacity: 1; stroke: rgb(255, 255, 255); stroke-opacity: 1; opacity: 0.7;"/><g class="slicetext"><text data-notex="1" class="slicetext" text-anchor="middle" x="0" y="0" style="font-family: 'Open Sans', verdana, arial, sans-serif; font-size: 12px; fill: rgb(255, 255, 255); fill-opacity: 1; white-space: pre;" transform="translate(331.91949796170155,95.84366888529192)">DWH</text></g></g><g class="slice"><path class="surface" d="M307.4474135548958,127.79805087775021L286.1711203323436,71.69707631662533A180,180 0,0,0 215.26806532920185,120.6379215166568L260.1787102194679,160.42528101110452A120,120 0,0,1 307.4474135548958,127.79805087775021Z" style="pointer-events: all; stroke-width: 1; fill: rgb(239, 85, 59); fill-opacity: 1; stroke: rgb(255, 255, 255); stroke-opacity: 1; opacity: 0.7;"/><g class="slicetext"><text data-notex="1" class="slicetext" text-anchor="middle" x="0" y="0" style="font-family: 'Open Sans', verdana, arial, sans-serif; font-size: 12px; fill: rgb(68, 68, 68); fill-opacity: 1; white-space: pre;" transform="translate(264.79028799032665,121.30242011595155)">3D8</text></g></g><g class="slice"><path class="surface" d="M260.1787102194679,160.42528101110452L215.26806532920185,120.6379215166568A180,180 0,0,0 175.23047286331067,196.92318042823953L233.48698190887376,211.28212028549302A120,120 0,0,1 260.1787102194679,160.42528101110452Z" style="pointer-events: all; stroke-width: 1; fill: rgb(239, 85, 59); fill-opacity: 1; stroke: rgb(255, 255, 255); stroke-opacity: 1; opacity: 0.7;"/><g class="slicetext"><text data-notex="1" class="slicetext" text-anchor="middle" x="0" y="0" style="font-family: 'Open Sans', verdana, arial, sans-serif; font-size: 12px; fill: rgb(68, 68, 68); fill-opacity: 1; white-space: pre;" transform="translate(217.18159615201856,175.04152419343467)">3D9</text></g></g><g class="slice"><path class="surface" d="M233.48698190887376,211.28212028549302L175.23047286331067,196.92318042823953A180,180 0,0,0 175.2304728633106,283.0768195717603L233.48698190887376,268.7178797145069A120,120 0,0,1 233.48698190887376,211.28212028549302Z" style="pointer-events: all; stroke-width: 1; fill: rgb(239, 85, 59); fill-opacity: 1; stroke: rgb(255, 255, 255); stroke-opacity: 1; opacity: 0.7;"/><g class="slicetext"><text data-notex="1" class="slicetext" text-anchor="middle" x="0" y="0" style="font-family: 'Open Sans', verdana, arial, sans-serif; font-size: 12px; fill: rgb(68, 68, 68); fill-opacity: 1; white-space: pre;" transform="translate(200,244.74999999999997)">3DC</text></g></g><g class="slice"><path class="surface" d="M233.48698190887376,268.7178797145069L175.2304728633106,283.0768195717603A180,180 0,0,0 215.26806532920176,359.3620784833431L260.17871021946786,319.57471898889537A120,120 0,0,1 233.48698190887376,268.7178797145069Z" style="pointer-events: all; stroke-width: 1; fill: rgb(0, 204, 150); fill-opacity: 1; stroke: rgb(255, 255, 255); stroke-opacity: 1; opacity: 0.7;"/><g class="slicetext"><text data-notex="1" class="slicetext" text-anchor="middle" x="0" y="0" style="font-family: 'Open Sans', verdana, arial, sans-serif; font-size: 12px; fill: rgb(68, 68, 68); fill-opacity: 1; white-space: pre;" transform="translate(217.1815961520185,314.4584758065652)">JHV</text></g></g><g class="slice"><path class="surface" d="M260.17871021946786,319.57471898889537L215.26806532920176,359.3620784833431A180,180 0,0,0 286.17112033234355,408.3029236833746L307.44741355489566,352.20194912224974A120,120 0,0,1 260.17871021946786,319.57471898889537Z" style="pointer-events: all; stroke-width: 1; fill: rgb(0, 204, 150); fill-opacity: 1; stroke: rgb(255, 255, 255); stroke-opacity: 1; opacity: 0.7;"/><g class="slicetext"><text data-notex="1" class="slicetext" text-anchor="middle" x="0" y="0" style="font-family: 'Open Sans', verdana, arial, sans-serif; font-size: 12px; fill: rgb(68, 68, 68); fill-opacity: 1; white-space: pre;" transform="translate(264.79028799032665,368.1975798840484)">GRY</text></g></g><g class="slice"><path class="surface" d="M307.44741355489566,352.20194912224974L286.17112033234355,408.3029236833746A180,180 0,0,0 371.69660244595804,418.6875973376498L364.4644016306387,359.1250648917665A120,120 0,0,1 307.44741355489566,352.20194912224974Z" style="pointer-events: all; stroke-width: 1; fill: rgb(0, 204, 150); fill-opacity: 1; stroke: rgb(255, 255, 255); stroke-opacity: 1; opacity: 0.7;"/><g class="slicetext"><text data-notex="1" class="slicetext" text-anchor="middle" x="0" y="0" style="font-family: 'Open Sans', verdana, arial, sans-serif; font-size: 12px; fill: rgb(68, 68, 68); fill-opacity: 1; white-space: pre;" transform="translate(331.9194979617015,393.6563311147081)">JJM</text></g></g><g class="slice"><path class="surface" d="M364.4644016306387,359.1250648917665L371.69660244595804,418.6875973376498A180,180 0,0,0 452.2516544116079,388.13709586085827L418.1677696077386,338.7580639072388A120,120 0,0,1 364.4644016306387,359.1250648917665Z" style="pointer-events: all; stroke-width: 1; fill: rgb(171, 99, 250); fill-opacity: 1; stroke: rgb(255, 255, 255); stroke-opacity: 1; opacity: 0.7;"/><g class="slicetext"><text data-notex="1" class="slicetext" text-anchor="middle" x="0" y="0" style="font-family: 'Open Sans', verdana, arial, sans-serif; font-size: 12px; fill: rgb(68, 68, 68); fill-opacity: 1; white-space: pre;" transform="translate(403.1907330563802,385.00243640281224)">GW8</text></g></g><g class="slice"><path class="surface" d="M418.1677696077386,338.7580639072388L452.2516544116079,388.13709586085827A180,180 0,0,0 509.3820846175777,323.6501709678786L456.2547230783851,295.7667806452524A120,120 0,0,1 418.1677696077386,338.7580639072388Z" style="pointer-events: all; stroke-width: 1; fill: rgb(171, 99, 250); fill-opacity: 1; stroke: rgb(255, 255, 255); stroke-opacity: 1; opacity: 0.7;"/><g class="slicetext"><text data-notex="1" class="slicetext" text-anchor="middle" x="0" y="0" style="font-family: 'Open Sans', verdana, arial, sans-serif; font-size: 12px; fill: rgb(68, 68, 68); fill-opacity: 1; white-space: pre;" transform="translate(462.276612225665,344.2183987361194)">XZN</text></g></g><g class="slice"><path class="surface" d="M456.2547230783851,295.7667806452524L509.3820846175777,323.6501709678786A180,180 0,0,0 530,240.00000000000037L470,240.00000000000026A120,120 0,0,1 456.2547230783851,295.7667806452524Z" style="pointer-events: all; stroke-width: 1; fill: rgb(171, 99, 250); fill-opacity: 1; stroke: rgb(255, 255, 255); stroke-opacity: 1; opacity: 0.7;"/><g class="slicetext"><text data-notex="1" class="slicetext" text-anchor="middle" x="0" y="0" style="font-family: 'Open Sans', verdana, arial, sans-serif; font-size: 12px; fill: rgb(68, 68, 68); fill-opacity: 1; white-space: pre;" transform="translate(495.64127261390774,280.6473496431339)">DB8</text></g></g></g></g><g class="glimages"/><defs id="topdefs-ad0227"><g class="clips"/></defs><g class="layer-above"><g class="imagelayer"/><g class="shapelayer"/></g><g class="infolayer"><g class="g-gtitle"/><g class="annotation" data-index="0" style="opacity: 1;"><g class="annotation-text-g" transform="rotate(0,350,49.999999999999986)"><g class="cursor-pointer" transform="translate(312,42)"><rect class="bg" x="0.5" y="0.5" width="75" height="15" style="stroke-width: 1px; stroke: rgb(0, 0, 0); stroke-opacity: 0; fill: rgb(0, 0, 0); fill-opacity: 0;"/><text class="annotation-text" text-anchor="middle" x="37.9375" y="12" style="font-family: 'Open Sans', verdana, arial, sans-serif; font-size: 10px; fill: rgb(42, 63, 95); fill-opacity: 1; white-space: pre;"><tspan style="font-weight:bold">Chemical_ID</tspan></text></g></g></g><g class="annotation" data-index="1" style="opacity: 1;"><g class="annotation-text-g" transform="rotate(0,350,111.19999999999999)"><g class="cursor-pointer" transform="translate(326,103)"><rect class="bg" x="0.5" y="0.5" width="47" height="15" style="stroke-width: 1px; stroke: rgb(0, 0, 0); stroke-opacity: 0; fill: rgb(0, 0, 0); fill-opacity: 0;"/><text class="annotation-text" text-anchor="middle" x="24.0625" y="12" style="font-family: 'Open Sans', verdana, arial, sans-serif; font-size: 10px; fill: rgb(42, 63, 95); fill-opacity: 1; white-space: pre;"><tspan style="font-weight:bold">PDB_ID</tspan></text></g></g></g><g class="annotation" data-index="2" style="opacity: 1;"><g class="annotation-text-g" transform="rotate(0,350,172.4)"><g class="cursor-pointer" transform="translate(308,164)"><rect class="bg" x="0.5" y="0.5" width="83" height="15" style="stroke-width: 1px; stroke: rgb(0, 0, 0); stroke-opacity: 0; fill: rgb(0, 0, 0); fill-opacity: 0;"/><text class="annotation-text" text-anchor="middle" x="42.203125" y="12" style="font-family: 'Open Sans', verdana, arial, sans-serif; font-size: 10px; fill: rgb(42, 63, 95); fill-opacity: 1; white-space: pre;"><tspan style="font-weight:bold">Protein_Name</tspan></text></g></g></g></g></svg>