<svg class="main-svg" xmlns="http://www.w3.org/2000/svg" xmlns:xlink="http://www.w3.org/1999/xlink" width="700" height="500" style="" viewBox="0 0 700 500"><rect x="0" y="0" width="700" height="500" style="fill: rgb(255, 255, 255); fill-opacity: 1;"/><defs id="defs-a603b5"><g class="clips"/><g class="gradients"/><g class="patterns"/></defs><g class="bglayer"/><g class="layer-below"><g class="imagelayer"/><g class="shapelayer"/></g><g class="cartesianlayer"/><g class="polarlayer"/><g class="smithlayer"/><g class="ternarylayer"/><g class="geolayer"/><g class="funnelarealayer"/><g class="pielayer"/><g class="iciclelayer"/><g class="treemaplayer"/><g class="sunburstlayer"><g class="trace sunburst" stroke-linejoin="round" style="opacity: 1;"><g class="slice cursor-pointer"><path class="surface" d="M350,240L410,240A60,60 0,0,0 336.64874396262115,181.5043252690906L350,240A0,0 0,0,1 350,240Z" style="pointer-events: all; stroke-width: 1; fill: rgb(99, 110, 250); fill-opacity: 1; stroke: rgb(255, 255, 255); stroke-opacity: 1;"/><g class="slicetext"><text data-notex="1" class="slicetext" text-anchor="middle" x="0" y="0" style="font-family: 'Open Sans', verdana, arial, sans-serif; font-size: 12px; fill: rgb(255, 255, 255); fill-opacity: 1; white-space: pre;" transform="translate(370.99490803681834,218.42321802895384)">Ephx2</text></g></g><g class="slice cursor-pointer"><path class="surface" d="M350,240L336.64874396262115,181.5043252690906A60,60 0,0,0 295.94186792585487,266.03302434705347L350,240A0,0 0,0,1 350,240Z" style="pointer-events: all; stroke-width: 1; fill: rgb(239, 85, 59); fill-opacity: 1; stroke: rgb(255, 255, 255); stroke-opacity: 1;"/><g class="slicetext"><text data-notex="1" class="slicetext" text-anchor="middle" x="0" y="0" style="font-family: 'Open Sans', verdana, arial, sans-serif; font-size: 12px; fill: rgb(68, 68, 68); fill-opacity: 1; white-space: pre;" transform="translate(319.66147887382215,230.13973825347674)">Erbb2</text></g></g><g class="slice cursor-pointer"><path class="surface" d="M350,240L295.94186792585487,266.03302434705347A60,60 0,0,0 387.409388111524,286.9098889480818L350,240A0,0 0,0,1 350,240Z" style="pointer-events: all; stroke-width: 1; fill: rgb(0, 204, 150); fill-opacity: 1; stroke: rgb(255, 255, 255); stroke-opacity: 1;"/><g class="slicetext"><text data-notex="1" class="slicetext" text-anchor="middle" x="0" y="0" style="font-family: 'Open Sans', verdana, arial, sans-serif; font-size: 12px; fill: rgb(68, 68, 68); fill-opacity: 1; white-space: pre;" transform="translate(342.50700407488256,277.57896014941133)">Spin1</text></g></g><g class="slice cursor-pointer"><path class="surface" d="M350,240L387.409388111524,286.9098889480818A60,60 0,0,0 410,240.00000000000003L350,240A0,0 0,0,1 350,240Z" style="pointer-events: all; stroke-width: 1; fill: rgb(171, 99, 250); fill-opacity: 1; stroke: rgb(255, 255, 255); stroke-opacity: 1;"/><g class="slicetext"><text data-notex="1" class="slicetext" text-anchor="middle" x="0" y="0" style="font-family: 'Open Sans', verdana, arial, sans-serif; font-size: 12px; fill: rgb(68, 68, 68); fill-opacity: 1; white-space: pre;" transform="translate(381.84579745340426,260.1715910912157)scale(0.9171793505220424)rotate(25.714285714285722)">cruzain</text></g></g><g class="slice cursor-pointer"><path class="surface" d="M410,240L470,240A120,120 0,0,0 424.818776223048,146.18022210383643L387.40938811152404,193.0901110519182A60,60 0,0,1 410,240Z" style="pointer-events: all; stroke-width: 1; fill: rgb(99, 110, 250); fill-opacity: 1; stroke: rgb(255, 255, 255); stroke-opacity: 1;"/><g class="slicetext"><text data-notex="1" class="slicetext" text-anchor="middle" x="0" y="0" style="font-family: 'Open Sans', verdana, arial, sans-serif; font-size: 12px; fill: rgb(255, 255, 255); fill-opacity: 1; white-space: pre;" transform="translate(431.08719811121773,205.70046347941977)">5ALJ</text></g></g><g class="slice cursor-pointer"><path class="surface" d="M387.40938811152404,193.0901110519182L424.818776223048,146.18022210383643A120,120 0,0,0 323.2974879252423,123.00865053818117L336.64874396262115,181.5043252690906A60,60 0,0,1 387.40938811152404,193.0901110519182Z" style="pointer-events: all; stroke-width: 1; fill: rgb(99, 110, 250); fill-opacity: 1; stroke: rgb(255, 255, 255); stroke-opacity: 1;"/><g class="slicetext"><text data-notex="1" class="slicetext" text-anchor="middle" x="0" y="0" style="font-family: 'Open Sans', verdana, arial, sans-serif; font-size: 12px; fill: rgb(255, 255, 255); fill-opacity: 1; white-space: pre;" transform="translate(370.0034465560683,157.00648790363587)">5ALR</text></g></g><g class="slice cursor-pointer"><path class="surface" d="M336.64874396262115,181.5043252690906L323.2974879252423,123.00865053818117A120,120 0,0,0 241.88373585170973,187.933951305893L295.94186792585487,213.9669756529465A60,60 0,0,1 336.64874396262115,181.5043252690906Z" style="pointer-events: all; stroke-width: 1; fill: rgb(239, 85, 59); fill-opacity: 1; stroke: rgb(255, 255, 255); stroke-opacity: 1;"/><g class="slicetext"><text data-notex="1" class="slicetext" text-anchor="middle" x="0" y="0" style="font-family: 'Open Sans', verdana, arial, sans-serif; font-size: 12px; fill: rgb(68, 68, 68); fill-opacity: 1; white-space: pre;" transform="translate(293.885917832714,174.38516657787733)">3PP0</text></g></g><g class="slice cursor-pointer"><path class="surface" d="M295.94186792585487,213.9669756529465L241.88373585170973,187.933951305893A120,120 0,0,0 241.8837358517097,292.06604869410694L295.94186792585487,266.03302434705347A60,60 0,0,1 295.94186792585487,213.9669756529465Z" style="pointer-events: all; stroke-width: 1; fill: rgb(239, 85, 59); fill-opacity: 1; stroke: rgb(255, 255, 255); stroke-opacity: 1;"/><g class="slicetext"><text data-notex="1" class="slicetext" text-anchor="middle" x="0" y="0" style="font-family: 'Open Sans', verdana, arial, sans-serif; font-size: 12px; fill: rgb(68, 68, 68); fill-opacity: 1; white-space: pre;" transform="translate(260,244.75)">3RCD</text></g></g><g class="slice cursor-pointer"><path class="surface" d="M295.94186792585487,266.03302434705347L241.8837358517097,292.06604869410694A120,120 0,0,0 323.29748792524225,356.9913494618188L336.6487439626211,298.4956747309094A60,60 0,0,1 295.94186792585487,266.03302434705347Z" style="pointer-events: all; stroke-width: 1; fill: rgb(0, 204, 150); fill-opacity: 1; stroke: rgb(255, 255, 255); stroke-opacity: 1;"/><g class="slicetext"><text data-notex="1" class="slicetext" text-anchor="middle" x="0" y="0" style="font-family: 'Open Sans', verdana, arial, sans-serif; font-size: 12px; fill: rgb(68, 68, 68); fill-opacity: 1; white-space: pre;" transform="translate(293.885917832714,315.1148334221227)">5JSG</text></g></g><g class="slice cursor-pointer"><path class="surface" d="M336.6487439626211,298.4956747309094L323.29748792524225,356.9913494618188A120,120 0,0,0 424.818776223048,333.8197778961636L387.409388111524,286.9098889480818A60,60 0,0,1 336.6487439626211,298.4956747309094Z" style="pointer-events: all; stroke-width: 1; fill: rgb(0, 204, 150); fill-opacity: 1; stroke: rgb(255, 255, 255); stroke-opacity: 1;"/><g class="slicetext"><text data-notex="1" class="slicetext" text-anchor="middle" x="0" y="0" style="font-family: 'Open Sans', verdana, arial, sans-serif; font-size: 12px; fill: rgb(68, 68, 68); fill-opacity: 1; white-space: pre;" transform="translate(370.0268840560683,332.49351209636416)">5JSJ</text></g></g><g class="slice cursor-pointer"><path class="surface" d="M387.409388111524,286.9098889480818L424.818776223048,333.8197778961636A120,120 0,0,0 470,240.00000000000003L410,240.00000000000003A60,60 0,0,1 387.409388111524,286.9098889480818Z" style="pointer-events: all; stroke-width: 1; fill: rgb(171, 99, 250); fill-opacity: 1; stroke: rgb(255, 255, 255); stroke-opacity: 1;"/><g class="slicetext"><text data-notex="1" class="slicetext" text-anchor="middle" x="0" y="0" style="font-family: 'Open Sans', verdana, arial, sans-serif; font-size: 12px; fill: rgb(68, 68, 68); fill-opacity: 1; white-space: pre;" transform="translate(431.08719811121773,283.79953652058026)">3I06</text></g></g><g class="slice"><path class="surface" d="M470,240L530,240A180,180 0,0,0 462.22816433457206,99.27033315575463L424.818776223048,146.18022210383643A120,120 0,0,1 470,240Z" style="pointer-events: all; stroke-width: 1; fill: rgb(99, 110, 250); fill-opacity: 1; stroke: rgb(255, 255, 255); stroke-opacity: 1; opacity: 0.7;"/><g class="slicetext"><text data-notex="1" class="slicetext" text-anchor="middle" x="0" y="0" style="font-family: 'Open Sans', verdana, arial, sans-serif; font-size: 12px; fill: rgb(255, 255, 255); fill-opacity: 1; white-space: pre;" transform="translate(485.1453301853628,179.66743913236627)">T5J</text></g></g><g class="slice"><path class="surface" d="M424.818776223048,146.18022210383643L462.22816433457206,99.27033315575463A180,180 0,0,0 309.9462318878634,64.51297580727174L323.2974879252423,123.00865053818117A120,120 0,0,1 424.818776223048,146.18022210383643Z" style="pointer-events: all; stroke-width: 1; fill: rgb(99, 110, 250); fill-opacity: 1; stroke: rgb(255, 255, 255); stroke-opacity: 1; opacity: 0.7;"/><g class="slicetext"><text data-notex="1" class="slicetext" text-anchor="middle" x="0" y="0" style="font-family: 'Open Sans', verdana, arial, sans-serif; font-size: 12px; fill: rgb(255, 255, 255); fill-opacity: 1; white-space: pre;" transform="translate(383.37814009344714,98.51081317272647)">8TM</text></g></g><g class="slice"><path class="surface" d="M323.2974879252423,123.00865053818117L309.9462318878634,64.51297580727174A180,180 0,0,0 187.82560377756457,161.90092695883953L241.88373585170973,187.933951305893A120,120 0,0,1 323.2974879252423,123.00865053818117Z" style="pointer-events: all; stroke-width: 1; fill: rgb(239, 85, 59); fill-opacity: 1; stroke: rgb(255, 255, 255); stroke-opacity: 1; opacity: 0.7;"/><g class="slicetext"><text data-notex="1" class="slicetext" text-anchor="middle" x="0" y="0" style="font-family: 'Open Sans', verdana, arial, sans-serif; font-size: 12px; fill: rgb(68, 68, 68); fill-opacity: 1; white-space: pre;" transform="translate(256.47652972119,127.47527762979553)">03Q</text></g></g><g class="slice"><path class="surface" d="M241.88373585170973,187.933951305893L187.82560377756457,161.90092695883953A180,180 0,0,0 187.82560377756457,318.0990730411604L241.8837358517097,292.06604869410694A120,120 0,0,1 241.88373585170973,187.933951305893Z" style="pointer-events: all; stroke-width: 1; fill: rgb(239, 85, 59); fill-opacity: 1; stroke: rgb(255, 255, 255); stroke-opacity: 1; opacity: 0.7;"/><g class="slicetext"><text data-notex="1" class="slicetext" text-anchor="middle" x="0" y="0" style="font-family: 'Open Sans', verdana, arial, sans-serif; font-size: 12px; fill: rgb(68, 68, 68); fill-opacity: 1; white-space: pre;" transform="translate(200,244.75)">03P</text></g></g><g class="slice"><path class="surface" d="M241.8837358517097,292.06604869410694L187.82560377756457,318.0990730411604A180,180 0,0,0 309.9462318878634,415.48702419272826L323.29748792524225,356.9913494618188A120,120 0,0,1 241.8837358517097,292.06604869410694Z" style="pointer-events: all; stroke-width: 1; fill: rgb(0, 204, 150); fill-opacity: 1; stroke: rgb(255, 255, 255); stroke-opacity: 1; opacity: 0.7;"/><g class="slicetext"><text data-notex="1" class="slicetext" text-anchor="middle" x="0" y="0" style="font-family: 'Open Sans', verdana, arial, sans-serif; font-size: 12px; fill: rgb(68, 68, 68); fill-opacity: 1; white-space: pre;" transform="translate(256.47652972119,362.0247223702045)">6P9</text></g></g><g class="slice"><path class="surface" d="M323.29748792524225,356.9913494618188L309.9462318878634,415.48702419272826A180,180 0,0,0 462.228164334572,380.72966684424534L424.818776223048,333.8197778961636A120,120 0,0,1 323.29748792524225,356.9913494618188Z" style="pointer-events: all; stroke-width: 1; fill: rgb(0, 204, 150); fill-opacity: 1; stroke: rgb(255, 255, 255); stroke-opacity: 1; opacity: 0.7;"/><g class="slicetext"><text data-notex="1" class="slicetext" text-anchor="middle" x="0" y="0" style="font-family: 'Open Sans', verdana, arial, sans-serif; font-size: 12px; fill: rgb(68, 68, 68); fill-opacity: 1; white-space: pre;" transform="translate(383.37814009344714,390.98918682727356)">6PD</text></g></g><g class="slice"><path class="surface" d="M424.818776223048,333.8197778961636L462.228164334572,380.72966684424534A180,180 0,0,0 530,240.00000000000006L470,240.00000000000003A120,120 0,0,1 424.818776223048,333.8197778961636Z" style="pointer-events: all; stroke-width: 1; fill: rgb(171, 99, 250); fill-opacity: 1; stroke: rgb(255, 255, 255); stroke-opacity: 1; opacity: 0.7;"/><g class="slicetext"><text data-notex="1" class="slicetext" text-anchor="middle" x="0" y="0" style="font-family: 'Open Sans', verdana, arial, sans-serif; font-size: 12px; fill: rgb(68, 68, 68); fill-opacity: 1; white-space: pre;" transform="translate(485.1453301853628,309.83256086763373)">QL2</text></g></g></g></g><g class="glimages"/><defs id="topdefs-a603b5"><g class="clips"/></defs><g class="layer-above"><g class="imagelayer"/><g class="shapelayer"/></g><g class="infolayer"><g class="g-gtitle"/><g class="annotation" data-index="0" style="opacity: 1;"><g class="annotation-text-g" transform="rotate(0,350,49.999999999999986)"><g class="cursor-pointer" transform="translate(312,42)"><rect class="bg" x="0.5" y="0.5" width="75" height="15" style="stroke-width: 1px; stroke: rgb(0, 0, 0); stroke-opacity: 0; fill: rgb(0, 0, 0); fill-opacity: 0;"/><text class="annotation-text" text-anchor="middle" x="37.9375" y="12" style="font-family: 'Open Sans', verdana, arial, sans-serif; font-size: 10px; fill: rgb(42, 63, 95); fill-opacity: 1; white-space: pre;"><tspan style="font-weight:bold">Chemical_ID</tspan></text></g></g></g><g class="annotation" data-index="1" style="opacity: 1;"><g class="annotation-text-g" transform="rotate(0,350,111.19999999999999)"><g class="cursor-pointer" transform="translate(326,103)"><rect class="bg" x="0.5" y="0.5" width="47" height="15" style="stroke-width: 1px; stroke: rgb(0, 0, 0); stroke-opacity: 0; fill: rgb(0, 0, 0); fill-opacity: 0;"/><text class="annotation-text" text-anchor="middle" x="24.0625" y="12" style="font-family: 'Open Sans', verdana, arial, sans-serif; font-size: 10px; fill: rgb(42, 63, 95); fill-opacity: 1; white-space: pre;"><tspan style="font-weight:bold">PDB_ID</tspan></text></g></g></g><g class="annotation" data-index="2" style="opacity: 1;"><g class="annotation-text-g" transform="rotate(0,350,172.4)"><g class="cursor-pointer" transform="translate(308,164)"><rect class="bg" x="0.5" y="0.5" width="83" height="15" style="stroke-width: 1px; stroke: rgb(0, 0, 0); stroke-opacity: 0; fill: rgb(0, 0, 0); fill-opacity: 0;"/><text class="annotation-text" text-anchor="middle" x="42.203125" y="12" style="font-family: 'Open Sans', verdana, arial, sans-serif; font-size: 10px; fill: rgb(42, 63, 95); fill-opacity: 1; white-space: pre;"><tspan style="font-weight:bold">Protein_Name</tspan></text></g></g></g></g></svg>