<svg class="main-svg" xmlns="http://www.w3.org/2000/svg" xmlns:xlink="http://www.w3.org/1999/xlink" width="700" height="500" style="" viewBox="0 0 700 500"><rect x="0" y="0" width="700" height="500" style="fill: rgb(255, 255, 255); fill-opacity: 1;"/><defs id="defs-d2dae1"><g class="clips"/><g class="gradients"/><g class="patterns"/></defs><g class="bglayer"/><g class="layer-below"><g class="imagelayer"/><g class="shapelayer"/></g><g class="cartesianlayer"/><g class="polarlayer"/><g class="smithlayer"/><g class="ternarylayer"/><g class="geolayer"/><g class="funnelarealayer"/><g class="pielayer"/><g class="iciclelayer"/><g class="treemaplayer"/><g class="sunburstlayer"><g class="trace sunburst" stroke-linejoin="round" style="opacity: 1;"><g class="slice cursor-pointer"><path class="surface" d="M350,240L410,240A60,60 0,0,0 350,180L350,240A0,0 0,0,1 350,240Z" style="pointer-events: all; stroke-width: 1; fill: rgb(99, 110, 250); fill-opacity: 1; stroke: rgb(255, 255, 255); stroke-opacity: 1;"/><g class="slicetext"><text data-notex="1" class="slicetext" text-anchor="middle" x="0" y="0" style="font-family: 'Open Sans', verdana, arial, sans-serif; font-size: 12px; fill: rgb(255, 255, 255); fill-opacity: 1; white-space: pre;" transform="translate(374.8528137423857,219.8971862576143)">Esr1</text></g></g><g class="slice cursor-pointer"><path class="surface" d="M350,240L350,180A60,60 0,0,0 290,240L350,240A0,0 0,0,1 350,240Z" style="pointer-events: all; stroke-width: 1; fill: rgb(239, 85, 59); fill-opacity: 1; stroke: rgb(255, 255, 255); stroke-opacity: 1;"/><g class="slicetext"><text data-notex="1" class="slicetext" text-anchor="middle" x="0" y="0" style="font-family: 'Open Sans', verdana, arial, sans-serif; font-size: 12px; fill: rgb(68, 68, 68); fill-opacity: 1; white-space: pre;" transform="translate(325.1471862576143,219.8971862576143)">FAK</text></g></g><g class="slice cursor-pointer"><path class="surface" d="M350,240L290,240A60,60 0,0,0 350,300L350,240A0,0 0,0,1 350,240Z" style="pointer-events: all; stroke-width: 1; fill: rgb(0, 204, 150); fill-opacity: 1; stroke: rgb(255, 255, 255); stroke-opacity: 1;"/><g class="slicetext"><text data-notex="1" class="slicetext" text-anchor="middle" x="0" y="0" style="font-family: 'Open Sans', verdana, arial, sans-serif; font-size: 12px; fill: rgb(68, 68, 68); fill-opacity: 1; white-space: pre;" transform="translate(325.1471862576143,269.6028137423857)">KSHVp</text></g></g><g class="slice cursor-pointer"><path class="surface" d="M350,240L350,300A60,60 0,0,0 410,240.00000000000003L350,240A0,0 0,0,1 350,240Z" style="pointer-events: all; stroke-width: 1; fill: rgb(171, 99, 250); fill-opacity: 1; stroke: rgb(255, 255, 255); stroke-opacity: 1;"/><g class="slicetext"><text data-notex="1" class="slicetext" text-anchor="middle" x="0" y="0" style="font-family: 'Open Sans', verdana, arial, sans-serif; font-size: 12px; fill: rgb(68, 68, 68); fill-opacity: 1; white-space: pre;" transform="translate(374.8528137423857,269.6028137423857)">Ldha</text></g></g><g class="slice cursor-pointer"><path class="surface" d="M410,240L470,240A120,120 0,0,0 465.9110991546882,208.9417145876975L407.9555495773441,224.47085729384875A60,60 0,0,1 410,240Z" style="pointer-events: all; stroke-width: 1; fill: rgb(99, 110, 250); fill-opacity: 1; stroke: rgb(255, 255, 255); stroke-opacity: 1;"/><g class="slicetext"><text data-notex="1" class="slicetext" text-anchor="middle" x="0" y="0" style="font-family: 'Open Sans', verdana, arial, sans-serif; font-size: 12px; fill: rgb(255, 255, 255); fill-opacity: 1; white-space: pre;" transform="translate(447.0429665559594,232.01503864237355)rotate(-7.5)">5DK9</text></g></g><g class="slice cursor-pointer"><path class="surface" d="M407.9555495773441,224.47085729384875L465.9110991546882,208.9417145876975A120,120 0,0,0 453.92304845413264,180L401.9615242270663,210A60,60 0,0,1 407.9555495773441,224.47085729384875Z" style="pointer-events: all; stroke-width: 1; fill: rgb(99, 110, 250); fill-opacity: 1; stroke: rgb(255, 255, 255); stroke-opacity: 1;"/><g class="slicetext"><text data-notex="1" class="slicetext" text-anchor="middle" x="0" y="0" style="font-family: 'Open Sans', verdana, arial, sans-serif; font-size: 12px; fill: rgb(255, 255, 255); fill-opacity: 1; white-space: pre;" transform="translate(441.4415200263523,207.26504519246276)rotate(-22.5)">5DKB</text></g></g><g class="slice cursor-pointer"><path class="surface" d="M401.9615242270663,210L453.92304845413264,180A120,120 0,0,0 434.8528137423857,155.1471862576143L392.42640687119285,197.57359312880715A60,60 0,0,1 401.9615242270663,210Z" style="pointer-events: all; stroke-width: 1; fill: rgb(99, 110, 250); fill-opacity: 1; stroke: rgb(255, 255, 255); stroke-opacity: 1;"/><g class="slicetext"><text data-notex="1" class="slicetext" text-anchor="middle" x="0" y="0" style="font-family: 'Open Sans', verdana, arial, sans-serif; font-size: 12px; fill: rgb(255, 255, 255); fill-opacity: 1; white-space: pre;" transform="translate(429.8635418970592,184.70579291334684)rotate(-37.5)">5DKS</text></g></g><g class="slice cursor-pointer"><path class="surface" d="M392.42640687119285,197.57359312880715L434.8528137423857,155.1471862576143A120,120 0,0,0 410,136.07695154586736L380,188.03847577293368A60,60 0,0,1 392.42640687119285,197.57359312880715Z" style="pointer-events: all; stroke-width: 1; fill: rgb(99, 110, 250); fill-opacity: 1; stroke: rgb(255, 255, 255); stroke-opacity: 1;"/><g class="slicetext"><text data-notex="1" class="slicetext" text-anchor="middle" x="0" y="0" style="font-family: 'Open Sans', verdana, arial, sans-serif; font-size: 12px; fill: rgb(255, 255, 255); fill-opacity: 1; white-space: pre;" transform="translate(413.4035907933507,165.17355999946105)rotate(-52.5)">5DL4</text></g></g><g class="slice cursor-pointer"><path class="surface" d="M380,188.03847577293368L410,136.07695154586736A120,120 0,0,0 381.0582854123025,124.08890084531181L365.5291427061513,182.0444504226559A60,60 0,0,1 380,188.03847577293368Z" style="pointer-events: all; stroke-width: 1; fill: rgb(99, 110, 250); fill-opacity: 1; stroke: rgb(255, 255, 255); stroke-opacity: 1;"/><g class="slicetext"><text data-notex="1" class="slicetext" text-anchor="middle" x="0" y="0" style="font-family: 'Open Sans', verdana, arial, sans-serif; font-size: 12px; fill: rgb(255, 255, 255); fill-opacity: 1; white-space: pre;" transform="translate(391.43808748406485,152.37195536349347)rotate(-67.5)">5DMF</text></g></g><g class="slice cursor-pointer"><path class="surface" d="M365.5291427061513,182.0444504226559L381.0582854123025,124.08890084531181A120,120 0,0,0 350.00000000000006,120L350,180A60,60 0,0,1 365.5291427061513,182.0444504226559Z" style="pointer-events: all; stroke-width: 1; fill: rgb(99, 110, 250); fill-opacity: 1; stroke: rgb(255, 255, 255); stroke-opacity: 1;"/><g class="slicetext"><text data-notex="1" class="slicetext" text-anchor="middle" x="0" y="0" style="font-family: 'Open Sans', verdana, arial, sans-serif; font-size: 12px; fill: rgb(255, 255, 255); fill-opacity: 1; white-space: pre;" transform="translate(367.4641944538819,143.73743663531158)rotate(-82.5)">5DP0</text></g></g><g class="slice cursor-pointer"><path class="surface" d="M350,180L350,120A120,120 0,0,0 318.9417145876975,124.0889008453118L334.4708572938488,182.0444504226559A60,60 0,0,1 350,180Z" style="pointer-events: all; stroke-width: 1; fill: rgb(239, 85, 59); fill-opacity: 1; stroke: rgb(255, 255, 255); stroke-opacity: 1;"/><g class="slicetext"><text data-notex="1" class="slicetext" text-anchor="middle" x="0" y="0" style="font-family: 'Open Sans', verdana, arial, sans-serif; font-size: 12px; fill: rgb(68, 68, 68); fill-opacity: 1; white-space: pre;" transform="translate(332.5911842917637,144.15807997030637)rotate(82.5)">2ETM</text></g></g><g class="slice cursor-pointer"><path class="surface" d="M334.4708572938488,182.0444504226559L318.9417145876975,124.0889008453118A120,120 0,0,0 290,136.07695154586736L320,188.03847577293368A60,60 0,0,1 334.4708572938488,182.0444504226559Z" style="pointer-events: all; stroke-width: 1; fill: rgb(239, 85, 59); fill-opacity: 1; stroke: rgb(255, 255, 255); stroke-opacity: 1;"/><g class="slicetext"><text data-notex="1" class="slicetext" text-anchor="middle" x="0" y="0" style="font-family: 'Open Sans', verdana, arial, sans-serif; font-size: 12px; fill: rgb(68, 68, 68); fill-opacity: 1; white-space: pre;" transform="translate(308.18029012765476,151.45063741800163)rotate(67.5)">2JKM</text></g></g><g class="slice cursor-pointer"><path class="surface" d="M320,188.03847577293368L290,136.07695154586736A120,120 0,0,0 265.1471862576143,155.1471862576143L307.57359312880715,197.57359312880715A60,60 0,0,1 320,188.03847577293368Z" style="pointer-events: all; stroke-width: 1; fill: rgb(239, 85, 59); fill-opacity: 1; stroke: rgb(255, 255, 255); stroke-opacity: 1;"/><g class="slicetext"><text data-notex="1" class="slicetext" text-anchor="middle" x="0" y="0" style="font-family: 'Open Sans', verdana, arial, sans-serif; font-size: 12px; fill: rgb(68, 68, 68); fill-opacity: 1; white-space: pre;" transform="translate(286.73611658563743,165.35563020053152)rotate(52.5)">3BZ3</text></g></g><g class="slice cursor-pointer"><path class="surface" d="M307.57359312880715,197.57359312880715L265.1471862576143,155.1471862576143A120,120 0,0,0 246.07695154586736,180L298.0384757729337,210A60,60 0,0,1 307.57359312880715,197.57359312880715Z" style="pointer-events: all; stroke-width: 1; fill: rgb(239, 85, 59); fill-opacity: 1; stroke: rgb(255, 255, 255); stroke-opacity: 1;"/><g class="slicetext"><text data-notex="1" class="slicetext" text-anchor="middle" x="0" y="0" style="font-family: 'Open Sans', verdana, arial, sans-serif; font-size: 12px; fill: rgb(68, 68, 68); fill-opacity: 1; white-space: pre;" transform="translate(270.17739881332386,184.73720782533076)rotate(37.5)">4D5H</text></g></g><g class="slice cursor-pointer"><path class="surface" d="M298.0384757729337,210L246.07695154586736,180A120,120 0,0,0 234.0889008453118,208.94171458769753L292.0444504226559,224.47085729384878A60,60 0,0,1 298.0384757729337,210Z" style="pointer-events: all; stroke-width: 1; fill: rgb(239, 85, 59); fill-opacity: 1; stroke: rgb(255, 255, 255); stroke-opacity: 1;"/><g class="slicetext"><text data-notex="1" class="slicetext" text-anchor="middle" x="0" y="0" style="font-family: 'Open Sans', verdana, arial, sans-serif; font-size: 12px; fill: rgb(68, 68, 68); fill-opacity: 1; white-space: pre;" transform="translate(258.53460857363694,207.2551573348255)rotate(22.5)">4GU9</text></g></g><g class="slice cursor-pointer"><path class="surface" d="M292.0444504226559,224.47085729384878L234.0889008453118,208.94171458769753A120,120 0,0,0 230,240.00000000000003L290,240.00000000000003A60,60 0,0,1 292.0444504226559,224.47085729384878Z" style="pointer-events: all; stroke-width: 1; fill: rgb(239, 85, 59); fill-opacity: 1; stroke: rgb(255, 255, 255); stroke-opacity: 1;"/><g class="slicetext"><text data-notex="1" class="slicetext" text-anchor="middle" x="0" y="0" style="font-family: 'Open Sans', verdana, arial, sans-serif; font-size: 12px; fill: rgb(68, 68, 68); fill-opacity: 1; white-space: pre;" transform="translate(251.0762938328786,231.76743457525257)rotate(7.5)">6I8Z</text></g></g><g class="slice cursor-pointer"><path class="surface" d="M290,240L230,239.99999999999997A120,120 0,0,0 234.0889008453118,271.0582854123025L292.0444504226559,255.52914270615125A60,60 0,0,1 290,240Z" style="pointer-events: all; stroke-width: 1; fill: rgb(0, 204, 150); fill-opacity: 1; stroke: rgb(255, 255, 255); stroke-opacity: 1;"/><g class="slicetext"><text data-notex="1" class="slicetext" text-anchor="middle" x="0" y="0" style="font-family: 'Open Sans', verdana, arial, sans-serif; font-size: 12px; fill: rgb(68, 68, 68); fill-opacity: 1; white-space: pre;" transform="translate(254.01455166581954,257.42771156799654)rotate(-7.5)">5UR3</text></g></g><g class="slice cursor-pointer"><path class="surface" d="M292.0444504226559,255.52914270615125L234.0889008453118,271.0582854123025A120,120 0,0,0 246.07695154586736,300L298.0384757729337,270A60,60 0,0,1 292.0444504226559,255.52914270615125Z" style="pointer-events: all; stroke-width: 1; fill: rgb(0, 204, 150); fill-opacity: 1; stroke: rgb(255, 255, 255); stroke-opacity: 1;"/><g class="slicetext"><text data-notex="1" class="slicetext" text-anchor="middle" x="0" y="0" style="font-family: 'Open Sans', verdana, arial, sans-serif; font-size: 12px; fill: rgb(68, 68, 68); fill-opacity: 1; white-space: pre;" transform="translate(261.4007672825382,281.8403667588116)rotate(-22.5)">5UTE</text></g></g><g class="slice cursor-pointer"><path class="surface" d="M298.0384757729337,270L246.07695154586736,300A120,120 0,0,0 265.1471862576143,324.8528137423857L307.57359312880715,282.42640687119285A60,60 0,0,1 298.0384757729337,270Z" style="pointer-events: all; stroke-width: 1; fill: rgb(0, 204, 150); fill-opacity: 1; stroke: rgb(255, 255, 255); stroke-opacity: 1;"/><g class="slicetext"><text data-notex="1" class="slicetext" text-anchor="middle" x="0" y="0" style="font-family: 'Open Sans', verdana, arial, sans-serif; font-size: 12px; fill: rgb(68, 68, 68); fill-opacity: 1; white-space: pre;" transform="translate(275.7236573672315,302.98148623704424)rotate(-37.5)">5UTN</text></g></g><g class="slice cursor-pointer"><path class="surface" d="M307.57359312880715,282.42640687119285L265.1471862576143,324.8528137423857A120,120 0,0,0 290.00000000000006,343.92304845413264L320,291.9615242270663A60,60 0,0,1 307.57359312880715,282.42640687119285Z" style="pointer-events: all; stroke-width: 1; fill: rgb(0, 204, 150); fill-opacity: 1; stroke: rgb(255, 255, 255); stroke-opacity: 1;"/><g class="slicetext"><text data-notex="1" class="slicetext" text-anchor="middle" x="0" y="0" style="font-family: 'Open Sans', verdana, arial, sans-serif; font-size: 12px; fill: rgb(68, 68, 68); fill-opacity: 1; white-space: pre;" transform="translate(294.4110074365433,320.24771380997475)rotate(-52.5)">5UV3</text></g></g><g class="slice cursor-pointer"><path class="surface" d="M320,291.9615242270663L290.00000000000006,343.92304845413264A120,120 0,0,0 318.9417145876975,355.9110991546882L334.4708572938488,297.9555495773441A60,60 0,0,1 320,291.9615242270663Z" style="pointer-events: all; stroke-width: 1; fill: rgb(0, 204, 150); fill-opacity: 1; stroke: rgb(255, 255, 255); stroke-opacity: 1;"/><g class="slicetext"><text data-notex="1" class="slicetext" text-anchor="middle" x="0" y="0" style="font-family: 'Open Sans', verdana, arial, sans-serif; font-size: 12px; fill: rgb(68, 68, 68); fill-opacity: 1; white-space: pre;" transform="translate(317.15049793734585,331.7180615631883)rotate(-67.5)">5V5D</text></g></g><g class="slice cursor-pointer"><path class="surface" d="M334.4708572938488,297.9555495773441L318.9417145876975,355.9110991546882A120,120 0,0,0 350,360L350,300A60,60 0,0,1 334.4708572938488,297.9555495773441Z" style="pointer-events: all; stroke-width: 1; fill: rgb(0, 204, 150); fill-opacity: 1; stroke: rgb(255, 255, 255); stroke-opacity: 1;"/><g class="slicetext"><text data-notex="1" class="slicetext" text-anchor="middle" x="0" y="0" style="font-family: 'Open Sans', verdana, arial, sans-serif; font-size: 12px; fill: rgb(68, 68, 68); fill-opacity: 1; white-space: pre;" transform="translate(341.9157247764731,337.7973302613233)rotate(-82.5)">5V5E</text></g></g><g class="slice cursor-pointer"><path class="surface" d="M350,300L350,360A120,120 0,0,0 381.05828541230244,355.9110991546882L365.5291427061512,297.95554957734413A60,60 0,0,1 350,300Z" style="pointer-events: all; stroke-width: 1; fill: rgb(171, 99, 250); fill-opacity: 1; stroke: rgb(255, 255, 255); stroke-opacity: 1;"/><g class="slicetext"><text data-notex="1" class="slicetext" text-anchor="middle" x="0" y="0" style="font-family: 'Open Sans', verdana, arial, sans-serif; font-size: 12px; fill: rgb(68, 68, 68); fill-opacity: 1; white-space: pre;" transform="translate(357.8488451317177,336.00906117320443)rotate(82.5)">4QSM</text></g></g><g class="slice cursor-pointer"><path class="surface" d="M365.5291427061512,297.95554957734413L381.05828541230244,355.9110991546882A120,120 0,0,0 409.99999999999994,343.9230484541327L379.99999999999994,291.9615242270663A60,60 0,0,1 365.5291427061512,297.95554957734413Z" style="pointer-events: all; stroke-width: 1; fill: rgb(171, 99, 250); fill-opacity: 1; stroke: rgb(255, 255, 255); stroke-opacity: 1;"/><g class="slicetext"><text data-notex="1" class="slicetext" text-anchor="middle" x="0" y="0" style="font-family: 'Open Sans', verdana, arial, sans-serif; font-size: 12px; fill: rgb(68, 68, 68); fill-opacity: 1; white-space: pre;" transform="translate(382.9455301933949,331.94989397879203)rotate(67.5)">4QT0</text></g></g><g class="slice cursor-pointer"><path class="surface" d="M379.99999999999994,291.9615242270663L409.99999999999994,343.9230484541327A120,120 0,0,0 434.8528137423856,324.8528137423858L392.4264068711928,282.4264068711929A60,60 0,0,1 379.99999999999994,291.9615242270663Z" style="pointer-events: all; stroke-width: 1; fill: rgb(171, 99, 250); fill-opacity: 1; stroke: rgb(255, 255, 255); stroke-opacity: 1;"/><g class="slicetext"><text data-notex="1" class="slicetext" text-anchor="middle" x="0" y="0" style="font-family: 'Open Sans', verdana, arial, sans-serif; font-size: 12px; fill: rgb(68, 68, 68); fill-opacity: 1; white-space: pre;" transform="translate(405.31782569218365,319.89432226305775)rotate(52.50000000000006)">6BAD</text></g></g><g class="slice cursor-pointer"><path class="surface" d="M392.4264068711928,282.4264068711929L434.8528137423856,324.8528137423858A120,120 0,0,0 453.9230484541325,300.00000000000017L401.96152422706626,270.00000000000006A60,60 0,0,1 392.4264068711928,282.4264068711929Z" style="pointer-events: all; stroke-width: 1; fill: rgb(171, 99, 250); fill-opacity: 1; stroke: rgb(255, 255, 255); stroke-opacity: 1;"/><g class="slicetext"><text data-notex="1" class="slicetext" text-anchor="middle" x="0" y="0" style="font-family: 'Open Sans', verdana, arial, sans-serif; font-size: 12px; fill: rgb(68, 68, 68); fill-opacity: 1; white-space: pre;" transform="translate(424.0905613041472,302.8389312097307)rotate(37.50000000000006)">6BAG</text></g></g><g class="slice cursor-pointer"><path class="surface" d="M401.96152422706626,270.00000000000006L453.9230484541325,300.00000000000017A120,120 0,0,0 465.91109915468815,271.05828541230267L407.9555495773441,255.52914270615133A60,60 0,0,1 401.96152422706626,270.00000000000006Z" style="pointer-events: all; stroke-width: 1; fill: rgb(171, 99, 250); fill-opacity: 1; stroke: rgb(255, 255, 255); stroke-opacity: 1;"/><g class="slicetext"><text data-notex="1" class="slicetext" text-anchor="middle" x="0" y="0" style="font-family: 'Open Sans', verdana, arial, sans-serif; font-size: 12px; fill: rgb(68, 68, 68); fill-opacity: 1; white-space: pre;" transform="translate(438.25309205002867,281.69699059987204)rotate(22.500000000000114)">6BAZ</text></g></g><g class="slice cursor-pointer"><path class="surface" d="M407.9555495773441,255.52914270615133L465.91109915468815,271.05828541230267A120,120 0,0,0 470,240.00000000000026L410,240.0000000000001A60,60 0,0,1 407.9555495773441,255.52914270615133Z" style="pointer-events: all; stroke-width: 1; fill: rgb(171, 99, 250); fill-opacity: 1; stroke: rgb(255, 255, 255); stroke-opacity: 1;"/><g class="slicetext"><text data-notex="1" class="slicetext" text-anchor="middle" x="0" y="0" style="font-family: 'Open Sans', verdana, arial, sans-serif; font-size: 12px; fill: rgb(68, 68, 68); fill-opacity: 1; white-space: pre;" transform="translate(446.27586220300094,257.4659452791609)rotate(7.500000000000114)">6BB3</text></g></g><g class="slice"><path class="surface" d="M470,240L530,240A180,180 0,0,0 523.8666487320323,193.41257188154628L465.9110991546882,208.9417145876975A120,120 0,0,1 470,240Z" style="pointer-events: all; stroke-width: 1; fill: rgb(99, 110, 250); fill-opacity: 1; stroke: rgb(255, 255, 255); stroke-opacity: 1; opacity: 0.7;"/><g class="slicetext"><text data-notex="1" class="slicetext" text-anchor="middle" x="0" y="0" style="font-family: 'Open Sans', verdana, arial, sans-serif; font-size: 12px; fill: rgb(255, 255, 255); fill-opacity: 1; white-space: pre;" transform="translate(507.85576333869625,223.96789449789577)">5CC</text></g></g><g class="slice"><path class="surface" d="M465.9110991546882,208.9417145876975L523.8666487320323,193.41257188154628A180,180 0,0,0 505.88457268119896,150L453.92304845413264,180A120,120 0,0,1 465.9110991546882,208.9417145876975Z" style="pointer-events: all; stroke-width: 1; fill: rgb(99, 110, 250); fill-opacity: 1; stroke: rgb(255, 255, 255); stroke-opacity: 1; opacity: 0.7;"/><g class="slicetext"><text data-notex="1" class="slicetext" text-anchor="middle" x="0" y="0" style="font-family: 'Open Sans', verdana, arial, sans-serif; font-size: 12px; fill: rgb(255, 255, 255); fill-opacity: 1; white-space: pre;" transform="translate(497.0981539361473,183.8199496396025)">5C9</text></g></g><g class="slice"><path class="surface" d="M453.92304845413264,180L505.88457268119896,150A180,180 0,0,0 477.27922061357856,112.72077938642146L434.8528137423857,155.1471862576143A120,120 0,0,1 453.92304845413264,180Z" style="pointer-events: all; stroke-width: 1; fill: rgb(99, 110, 250); fill-opacity: 1; stroke: rgb(255, 255, 255); stroke-opacity: 1; opacity: 0.7;"/><g class="slicetext"><text data-notex="1" class="slicetext" text-anchor="middle" x="0" y="0" style="font-family: 'Open Sans', verdana, arial, sans-serif; font-size: 12px; fill: rgb(255, 255, 255); fill-opacity: 1; white-space: pre;" transform="translate(476.31604843404307,147.82428702170125)">5C6</text></g></g><g class="slice"><path class="surface" d="M434.8528137423857,155.1471862576143L477.27922061357856,112.72077938642146A180,180 0,0,0 440,84.11542731880104L410,136.07695154586736A120,120 0,0,1 434.8528137423857,155.1471862576143Z" style="pointer-events: all; stroke-width: 1; fill: rgb(99, 110, 250); fill-opacity: 1; stroke: rgb(255, 255, 255); stroke-opacity: 1; opacity: 0.7;"/><g class="slicetext"><text data-notex="1" class="slicetext" text-anchor="middle" x="0" y="0" style="font-family: 'Open Sans', verdana, arial, sans-serif; font-size: 12px; fill: rgb(255, 255, 255); fill-opacity: 1; white-space: pre;" transform="translate(446.92571297829875,118.4339515659569)">5C4</text></g></g><g class="slice"><path class="surface" d="M410,136.07695154586736L440,84.11542731880104A180,180 0,0,0 396.5874281184538,66.13335126796773L381.0582854123025,124.08890084531181A120,120 0,0,1 410,136.07695154586736Z" style="pointer-events: all; stroke-width: 1; fill: rgb(99, 110, 250); fill-opacity: 1; stroke: rgb(255, 255, 255); stroke-opacity: 1; opacity: 0.7;"/><g class="slicetext"><text data-notex="1" class="slicetext" text-anchor="middle" x="0" y="0" style="font-family: 'Open Sans', verdana, arial, sans-serif; font-size: 12px; fill: rgb(255, 255, 255); fill-opacity: 1; white-space: pre;" transform="translate(410.9300503603975,97.6518460638527)">5DG</text></g></g><g class="slice"><path class="surface" d="M381.0582854123025,124.08890084531181L396.5874281184538,66.13335126796773A180,180 0,0,0 350.00000000000006,60L350.00000000000006,120A120,120 0,0,1 381.0582854123025,124.08890084531181Z" style="pointer-events: all; stroke-width: 1; fill: rgb(99, 110, 250); fill-opacity: 1; stroke: rgb(255, 255, 255); stroke-opacity: 1; opacity: 0.7;"/><g class="slicetext"><text data-notex="1" class="slicetext" text-anchor="middle" x="0" y="0" style="font-family: 'Open Sans', verdana, arial, sans-serif; font-size: 12px; fill: rgb(255, 255, 255); fill-opacity: 1; white-space: pre;" transform="translate(370.7821055021043,86.89423666130375)">5ES</text></g></g><g class="slice"><path class="surface" d="M350,120L350,60A180,180 0,0,0 303.4125718815463,66.1333512679677L318.9417145876975,124.0889008453118A120,120 0,0,1 350,120Z" style="pointer-events: all; stroke-width: 1; fill: rgb(239, 85, 59); fill-opacity: 1; stroke: rgb(255, 255, 255); stroke-opacity: 1; opacity: 0.7;"/><g class="slicetext"><text data-notex="1" class="slicetext" text-anchor="middle" x="0" y="0" style="font-family: 'Open Sans', verdana, arial, sans-serif; font-size: 12px; fill: rgb(68, 68, 68); fill-opacity: 1; white-space: pre;" transform="translate(329.21789449789577,86.89423666130375)">7PY</text></g></g><g class="slice"><path class="surface" d="M318.9417145876975,124.0889008453118L303.4125718815463,66.1333512679677A180,180 0,0,0 260.00000000000006,84.11542731880104L290,136.07695154586736A120,120 0,0,1 318.9417145876975,124.0889008453118Z" style="pointer-events: all; stroke-width: 1; fill: rgb(239, 85, 59); fill-opacity: 1; stroke: rgb(255, 255, 255); stroke-opacity: 1; opacity: 0.7;"/><g class="slicetext"><text data-notex="1" class="slicetext" text-anchor="middle" x="0" y="0" style="font-family: 'Open Sans', verdana, arial, sans-serif; font-size: 12px; fill: rgb(68, 68, 68); fill-opacity: 1; white-space: pre;" transform="translate(289.06994963960256,97.65184606385267)">BII</text></g></g><g class="slice"><path class="surface" d="M290,136.07695154586736L260.00000000000006,84.11542731880104A180,180 0,0,0 222.72077938642144,112.72077938642144L265.1471862576143,155.1471862576143A120,120 0,0,1 290,136.07695154586736Z" style="pointer-events: all; stroke-width: 1; fill: rgb(239, 85, 59); fill-opacity: 1; stroke: rgb(255, 255, 255); stroke-opacity: 1; opacity: 0.7;"/><g class="slicetext"><text data-notex="1" class="slicetext" text-anchor="middle" x="0" y="0" style="font-family: 'Open Sans', verdana, arial, sans-serif; font-size: 12px; fill: rgb(68, 68, 68); fill-opacity: 1; white-space: pre;" transform="translate(253.07428702170128,118.43395156595693)">YAM</text></g></g><g class="slice"><path class="surface" d="M265.1471862576143,155.1471862576143L222.72077938642144,112.72077938642144A180,180 0,0,0 194.11542731880104,150L246.07695154586736,180A120,120 0,0,1 265.1471862576143,155.1471862576143Z" style="pointer-events: all; stroke-width: 1; fill: rgb(239, 85, 59); fill-opacity: 1; stroke: rgb(255, 255, 255); stroke-opacity: 1; opacity: 0.7;"/><g class="slicetext"><text data-notex="1" class="slicetext" text-anchor="middle" x="0" y="0" style="font-family: 'Open Sans', verdana, arial, sans-serif; font-size: 12px; fill: rgb(68, 68, 68); fill-opacity: 1; white-space: pre;" transform="translate(223.68395156595693,147.82428702170125)">9RM</text></g></g><g class="slice"><path class="surface" d="M246.07695154586736,180L194.11542731880104,150A180,180 0,0,0 176.1333512679677,193.41257188154628L234.0889008453118,208.94171458769753A120,120 0,0,1 246.07695154586736,180Z" style="pointer-events: all; stroke-width: 1; fill: rgb(239, 85, 59); fill-opacity: 1; stroke: rgb(255, 255, 255); stroke-opacity: 1; opacity: 0.7;"/><g class="slicetext"><text data-notex="1" class="slicetext" text-anchor="middle" x="0" y="0" style="font-family: 'Open Sans', verdana, arial, sans-serif; font-size: 12px; fill: rgb(68, 68, 68); fill-opacity: 1; white-space: pre;" transform="translate(202.90184606385267,183.81994963960253)">4GU</text></g></g><g class="slice"><path class="surface" d="M234.0889008453118,208.94171458769753L176.1333512679677,193.41257188154628A180,180 0,0,0 170,240.00000000000006L230,240.00000000000003A120,120 0,0,1 234.0889008453118,208.94171458769753Z" style="pointer-events: all; stroke-width: 1; fill: rgb(239, 85, 59); fill-opacity: 1; stroke: rgb(255, 255, 255); stroke-opacity: 1; opacity: 0.7;"/><g class="slicetext"><text data-notex="1" class="slicetext" text-anchor="middle" x="0" y="0" style="font-family: 'Open Sans', verdana, arial, sans-serif; font-size: 12px; fill: rgb(68, 68, 68); fill-opacity: 1; white-space: pre;" transform="translate(192.14423666130375,223.96789449789583)">H82</text></g></g><g class="slice"><path class="surface" d="M230,239.99999999999997L170,239.99999999999997A180,180 0,0,0 176.1333512679677,286.5874281184538L234.0889008453118,271.0582854123025A120,120 0,0,1 230,239.99999999999997Z" style="pointer-events: all; stroke-width: 1; fill: rgb(0, 204, 150); fill-opacity: 1; stroke: rgb(255, 255, 255); stroke-opacity: 1; opacity: 0.7;"/><g class="slicetext"><text data-notex="1" class="slicetext" text-anchor="middle" x="0" y="0" style="font-family: 'Open Sans', verdana, arial, sans-serif; font-size: 12px; fill: rgb(68, 68, 68); fill-opacity: 1; white-space: pre;" transform="translate(192.14423666130378,265.53210550210423)">8OY</text></g></g><g class="slice"><path class="surface" d="M234.0889008453118,271.0582854123025L176.1333512679677,286.5874281184538A180,180 0,0,0 194.11542731880104,330L246.07695154586736,300A120,120 0,0,1 234.0889008453118,271.0582854123025Z" style="pointer-events: all; stroke-width: 1; fill: rgb(0, 204, 150); fill-opacity: 1; stroke: rgb(255, 255, 255); stroke-opacity: 1; opacity: 0.7;"/><g class="slicetext"><text data-notex="1" class="slicetext" text-anchor="middle" x="0" y="0" style="font-family: 'Open Sans', verdana, arial, sans-serif; font-size: 12px; fill: rgb(68, 68, 68); fill-opacity: 1; white-space: pre;" transform="translate(202.9018460638527,305.6800503603975)">8M4</text></g></g><g class="slice"><path class="surface" d="M246.07695154586736,300L194.11542731880104,330A180,180 0,0,0 222.7207793864215,367.27922061357856L265.1471862576143,324.8528137423857A120,120 0,0,1 246.07695154586736,300Z" style="pointer-events: all; stroke-width: 1; fill: rgb(0, 204, 150); fill-opacity: 1; stroke: rgb(255, 255, 255); stroke-opacity: 1; opacity: 0.7;"/><g class="slicetext"><text data-notex="1" class="slicetext" text-anchor="middle" x="0" y="0" style="font-family: 'Open Sans', verdana, arial, sans-serif; font-size: 12px; fill: rgb(68, 68, 68); fill-opacity: 1; white-space: pre;" transform="translate(223.68395156595693,341.67571297829875)">8MA</text></g></g><g class="slice"><path class="surface" d="M265.1471862576143,324.8528137423857L222.7207793864215,367.27922061357856A180,180 0,0,0 260.00000000000006,395.88457268119896L290.00000000000006,343.92304845413264A120,120 0,0,1 265.1471862576143,324.8528137423857Z" style="pointer-events: all; stroke-width: 1; fill: rgb(0, 204, 150); fill-opacity: 1; stroke: rgb(255, 255, 255); stroke-opacity: 1; opacity: 0.7;"/><g class="slicetext"><text data-notex="1" class="slicetext" text-anchor="middle" x="0" y="0" style="font-family: 'Open Sans', verdana, arial, sans-serif; font-size: 12px; fill: rgb(68, 68, 68); fill-opacity: 1; white-space: pre;" transform="translate(253.07428702170137,371.0660484340431)">8N4</text></g></g><g class="slice"><path class="surface" d="M290.00000000000006,343.92304845413264L260.00000000000006,395.88457268119896A180,180 0,0,0 303.4125718815463,413.86664873203233L318.9417145876975,355.9110991546882A120,120 0,0,1 290.00000000000006,343.92304845413264Z" style="pointer-events: all; stroke-width: 1; fill: rgb(0, 204, 150); fill-opacity: 1; stroke: rgb(255, 255, 255); stroke-opacity: 1; opacity: 0.7;"/><g class="slicetext"><text data-notex="1" class="slicetext" text-anchor="middle" x="0" y="0" style="font-family: 'Open Sans', verdana, arial, sans-serif; font-size: 12px; fill: rgb(68, 68, 68); fill-opacity: 1; white-space: pre;" transform="translate(289.06994963960256,391.84815393614736)">8OY</text></g></g><g class="slice"><path class="surface" d="M318.9417145876975,355.9110991546882L303.4125718815463,413.86664873203233A180,180 0,0,0 349.99999999999994,420L350,360A120,120 0,0,1 318.9417145876975,355.9110991546882Z" style="pointer-events: all; stroke-width: 1; fill: rgb(0, 204, 150); fill-opacity: 1; stroke: rgb(255, 255, 255); stroke-opacity: 1; opacity: 0.7;"/><g class="slicetext"><text data-notex="1" class="slicetext" text-anchor="middle" x="0" y="0" style="font-family: 'Open Sans', verdana, arial, sans-serif; font-size: 12px; fill: rgb(68, 68, 68); fill-opacity: 1; white-space: pre;" transform="translate(329.21789449789577,402.60576333869625)">8N4</text></g></g><g class="slice"><path class="surface" d="M350,360L349.99999999999994,420A180,180 0,0,0 396.58742811845366,413.86664873203233L381.05828541230244,355.9110991546882A120,120 0,0,1 350,360Z" style="pointer-events: all; stroke-width: 1; fill: rgb(171, 99, 250); fill-opacity: 1; stroke: rgb(255, 255, 255); stroke-opacity: 1; opacity: 0.7;"/><g class="slicetext"><text data-notex="1" class="slicetext" text-anchor="middle" x="0" y="0" style="font-family: 'Open Sans', verdana, arial, sans-serif; font-size: 12px; fill: rgb(68, 68, 68); fill-opacity: 1; white-space: pre;" transform="translate(370.7821055021042,402.6057633386963)">38K</text></g></g><g class="slice"><path class="surface" d="M381.05828541230244,355.9110991546882L396.58742811845366,413.86664873203233A180,180 0,0,0 439.9999999999999,395.884572681199L409.99999999999994,343.9230484541327A120,120 0,0,1 381.05828541230244,355.9110991546882Z" style="pointer-events: all; stroke-width: 1; fill: rgb(171, 99, 250); fill-opacity: 1; stroke: rgb(255, 255, 255); stroke-opacity: 1; opacity: 0.7;"/><g class="slicetext"><text data-notex="1" class="slicetext" text-anchor="middle" x="0" y="0" style="font-family: 'Open Sans', verdana, arial, sans-serif; font-size: 12px; fill: rgb(68, 68, 68); fill-opacity: 1; white-space: pre;" transform="translate(410.93005036039744,391.84815393614736)">38Q</text></g></g><g class="slice"><path class="surface" d="M409.99999999999994,343.9230484541327L439.9999999999999,395.884572681199A180,180 0,0,0 477.27922061357845,367.2792206135787L434.8528137423856,324.8528137423858A120,120 0,0,1 409.99999999999994,343.9230484541327Z" style="pointer-events: all; stroke-width: 1; fill: rgb(171, 99, 250); fill-opacity: 1; stroke: rgb(255, 255, 255); stroke-opacity: 1; opacity: 0.7;"/><g class="slicetext"><text data-notex="1" class="slicetext" text-anchor="middle" x="0" y="0" style="font-family: 'Open Sans', verdana, arial, sans-serif; font-size: 12px; fill: rgb(68, 68, 68); fill-opacity: 1; white-space: pre;" transform="translate(446.92571297829863,371.0660484340432)">D0Y</text></g></g><g class="slice"><path class="surface" d="M434.8528137423856,324.8528137423858L477.27922061357845,367.2792206135787A180,180 0,0,0 505.88457268119885,330.0000000000002L453.9230484541325,300.00000000000017A120,120 0,0,1 434.8528137423856,324.8528137423858Z" style="pointer-events: all; stroke-width: 1; fill: rgb(171, 99, 250); fill-opacity: 1; stroke: rgb(255, 255, 255); stroke-opacity: 1; opacity: 0.7;"/><g class="slicetext"><text data-notex="1" class="slicetext" text-anchor="middle" x="0" y="0" style="font-family: 'Open Sans', verdana, arial, sans-serif; font-size: 12px; fill: rgb(68, 68, 68); fill-opacity: 1; white-space: pre;" transform="translate(476.31604843404295,341.6757129782989)">D0V</text></g></g><g class="slice"><path class="surface" d="M453.9230484541325,300.00000000000017L505.88457268119885,330.0000000000002A180,180 0,0,0 523.8666487320322,286.58742811845406L465.91109915468815,271.05828541230267A120,120 0,0,1 453.9230484541325,300.00000000000017Z" style="pointer-events: all; stroke-width: 1; fill: rgb(171, 99, 250); fill-opacity: 1; stroke: rgb(255, 255, 255); stroke-opacity: 1; opacity: 0.7;"/><g class="slicetext"><text data-notex="1" class="slicetext" text-anchor="middle" x="0" y="0" style="font-family: 'Open Sans', verdana, arial, sans-serif; font-size: 12px; fill: rgb(68, 68, 68); fill-opacity: 1; white-space: pre;" transform="translate(497.09815393614724,305.68005036039773)">D47</text></g></g><g class="slice"><path class="surface" d="M465.91109915468815,271.05828541230267L523.8666487320322,286.58742811845406A180,180 0,0,0 530,240.00000000000037L470,240.00000000000026A120,120 0,0,1 465.91109915468815,271.05828541230267Z" style="pointer-events: all; stroke-width: 1; fill: rgb(171, 99, 250); fill-opacity: 1; stroke: rgb(255, 255, 255); stroke-opacity: 1; opacity: 0.7;"/><g class="slicetext"><text data-notex="1" class="slicetext" text-anchor="middle" x="0" y="0" style="font-family: 'Open Sans', verdana, arial, sans-serif; font-size: 12px; fill: rgb(68, 68, 68); fill-opacity: 1; white-space: pre;" transform="translate(507.8557633386962,265.5321055021045)">D4A</text></g></g></g></g><g class="glimages"/><defs id="topdefs-d2dae1"><g class="clips"/></defs><g class="layer-above"><g class="imagelayer"/><g class="shapelayer"/></g><g class="infolayer"><g class="g-gtitle"/><g class="annotation" data-index="0" style="opacity: 1;"><g class="annotation-text-g" transform="rotate(0,350,49.999999999999986)"><g class="cursor-pointer" transform="translate(312,42)"><rect class="bg" x="0.5" y="0.5" width="75" height="15" style="stroke-width: 1px; stroke: rgb(0, 0, 0); stroke-opacity: 0; fill: rgb(0, 0, 0); fill-opacity: 0;"/><text class="annotation-text" text-anchor="middle" x="37.9375" y="12" style="font-family: 'Open Sans', verdana, arial, sans-serif; font-size: 10px; fill: rgb(42, 63, 95); fill-opacity: 1; white-space: pre;"><tspan style="font-weight:bold">Chemical_ID</tspan></text></g></g></g><g class="annotation" data-index="1" style="opacity: 1;"><g class="annotation-text-g" transform="rotate(0,350,111.19999999999999)"><g class="cursor-pointer" transform="translate(326,103)"><rect class="bg" x="0.5" y="0.5" width="47" height="15" style="stroke-width: 1px; stroke: rgb(0, 0, 0); stroke-opacity: 0; fill: rgb(0, 0, 0); fill-opacity: 0;"/><text class="annotation-text" text-anchor="middle" x="24.0625" y="12" style="font-family: 'Open Sans', verdana, arial, sans-serif; font-size: 10px; fill: rgb(42, 63, 95); fill-opacity: 1; white-space: pre;"><tspan style="font-weight:bold">PDB_ID</tspan></text></g></g></g><g class="annotation" data-index="2" style="opacity: 1;"><g class="annotation-text-g" transform="rotate(0,350,172.4)"><g class="cursor-pointer" transform="translate(308,164)"><rect class="bg" x="0.5" y="0.5" width="83" height="15" style="stroke-width: 1px; stroke: rgb(0, 0, 0); stroke-opacity: 0; fill: rgb(0, 0, 0); fill-opacity: 0;"/><text class="annotation-text" text-anchor="middle" x="42.203125" y="12" style="font-family: 'Open Sans', verdana, arial, sans-serif; font-size: 10px; fill: rgb(42, 63, 95); fill-opacity: 1; white-space: pre;"><tspan style="font-weight:bold">Protein_Name</tspan></text></g></g></g></g></svg>