<svg class="main-svg" xmlns="http://www.w3.org/2000/svg" xmlns:xlink="http://www.w3.org/1999/xlink" width="700" height="500" style="" viewBox="0 0 700 500"><rect x="0" y="0" width="700" height="500" style="fill: rgb(255, 255, 255); fill-opacity: 1;"/><defs id="defs-478b31"><g class="clips"/><g class="gradients"/><g class="patterns"/></defs><g class="bglayer"/><g class="layer-below"><g class="imagelayer"/><g class="shapelayer"/></g><g class="cartesianlayer"/><g class="polarlayer"/><g class="smithlayer"/><g class="ternarylayer"/><g class="geolayer"/><g class="funnelarealayer"/><g class="pielayer"/><g class="iciclelayer"/><g class="treemaplayer"/><g class="sunburstlayer"><g class="trace sunburst" stroke-linejoin="round" style="opacity: 1;"><g class="slice cursor-pointer"><path class="surface" d="M350,240L410,240A60,60 0,0,0 342.76779918468065,180.43746755411678L350,240A0,0 0,0,1 350,240Z" style="pointer-events: all; stroke-width: 1; fill: rgb(99, 110, 250); fill-opacity: 1; stroke: rgb(255, 255, 255); stroke-opacity: 1;"/><g class="slicetext"><text data-notex="1" class="slicetext" text-anchor="middle" x="0" y="0" style="font-family: 'Open Sans', verdana, arial, sans-serif; font-size: 12px; fill: rgb(255, 255, 255); fill-opacity: 1; white-space: pre;" transform="translate(372.7549985243524,219.06491631536068)">Cdk6</text></g></g><g class="slice cursor-pointer"><path class="surface" d="M350,240L342.76779918468065,180.43746755411678A60,60 0,0,0 291.7434909544369,254.35893985725346L350,240A0,0 0,0,1 350,240Z" style="pointer-events: all; stroke-width: 1; fill: rgb(239, 85, 59); fill-opacity: 1; stroke: rgb(255, 255, 255); stroke-opacity: 1;"/><g class="slicetext"><text data-notex="1" class="slicetext" text-anchor="middle" x="0" y="0" style="font-family: 'Open Sans', verdana, arial, sans-serif; font-size: 12px; fill: rgb(68, 68, 68); fill-opacity: 1; white-space: pre;" transform="translate(321.7593775129672,225.25690575421385)">Pkmyt1</text></g></g><g class="slice cursor-pointer"><path class="surface" d="M350,240L291.7434909544369,254.35893985725346A60,60 0,0,0 357.23220081531935,299.5625324458832L350,240A0,0 0,0,1 350,240Z" style="pointer-events: all; stroke-width: 1; fill: rgb(0, 204, 150); fill-opacity: 1; stroke: rgb(255, 255, 255); stroke-opacity: 1;"/><g class="slicetext"><text data-notex="1" class="slicetext" text-anchor="middle" x="0" y="0" style="font-family: 'Open Sans', verdana, arial, sans-serif; font-size: 12px; fill: rgb(68, 68, 68); fill-opacity: 1; white-space: pre;" transform="translate(329.50609076547465,274.44055331484157)">Hras</text></g></g><g class="slice cursor-pointer"><path class="surface" d="M350,240L357.23220081531935,299.5625324458832A60,60 0,0,0 410,240.00000000000006L350,240A0,0 0,0,1 350,240Z" style="pointer-events: all; stroke-width: 1; fill: rgb(171, 99, 250); fill-opacity: 1; stroke: rgb(255, 255, 255); stroke-opacity: 1;"/><g class="slicetext"><text data-notex="1" class="slicetext" text-anchor="middle" x="0" y="0" style="font-family: 'Open Sans', verdana, arial, sans-serif; font-size: 12px; fill: rgb(68, 68, 68); fill-opacity: 1; white-space: pre;" transform="translate(377.00380796794104,268.67328629358803)">Kras</text></g></g><g class="slice cursor-pointer"><path class="surface" d="M410,240L470,240A120,120 0,0,0 466.51301809112624,211.28212028549308L408.2565090455631,225.64106014274654A60,60 0,0,1 410,240Z" style="pointer-events: all; stroke-width: 1; fill: rgb(99, 110, 250); fill-opacity: 1; stroke: rgb(255, 255, 255); stroke-opacity: 1;"/><g class="slicetext"><text data-notex="1" class="slicetext" text-anchor="middle" x="0" y="0" style="font-family: 'Open Sans', verdana, arial, sans-serif; font-size: 12px; fill: rgb(255, 255, 255); fill-opacity: 1; white-space: pre;" transform="translate(449.06852831165213,232.75579003260052)rotate(-6.923076923076906)">2EUF</text></g></g><g class="slice cursor-pointer"><path class="surface" d="M408.2565090455631,225.64106014274654L466.51301809112624,211.28212028549308A120,120 0,0,0 456.25472307838515,184.23321935474777L403.1273615391926,212.1166096773739A60,60 0,0,1 408.2565090455631,225.64106014274654Z" style="pointer-events: all; stroke-width: 1; fill: rgb(99, 110, 250); fill-opacity: 1; stroke: rgb(255, 255, 255); stroke-opacity: 1;"/><g class="slicetext"><text data-notex="1" class="slicetext" text-anchor="middle" x="0" y="0" style="font-family: 'Open Sans', verdana, arial, sans-serif; font-size: 12px; fill: rgb(255, 255, 255); fill-opacity: 1; white-space: pre;" transform="translate(444.5941986669721,209.20527813454424)rotate(-20.769230769230717)">2F2C</text></g></g><g class="slice cursor-pointer"><path class="surface" d="M403.1273615391926,212.1166096773739L456.25472307838515,184.23321935474777A120,120 0,0,0 439.82128978053214,160.42528101110457L394.9106448902661,200.2126405055523A60,60 0,0,1 403.1273615391926,212.1166096773739Z" style="pointer-events: all; stroke-width: 1; fill: rgb(99, 110, 250); fill-opacity: 1; stroke: rgb(255, 255, 255); stroke-opacity: 1;"/><g class="slicetext"><text data-notex="1" class="slicetext" text-anchor="middle" x="0" y="0" style="font-family: 'Open Sans', verdana, arial, sans-serif; font-size: 12px; fill: rgb(255, 255, 255); fill-opacity: 1; white-space: pre;" transform="translate(433.42417828598565,188.18812801028463)rotate(-34.61538461538464)">3NUX</text></g></g><g class="slice cursor-pointer"><path class="surface" d="M394.9106448902661,200.2126405055523L439.82128978053214,160.42528101110457A120,120 0,0,0 418.1677696077387,141.24193609276125L384.08388480386935,190.62096804638063A60,60 0,0,1 394.9106448902661,200.2126405055523Z" style="pointer-events: all; stroke-width: 1; fill: rgb(99, 110, 250); fill-opacity: 1; stroke: rgb(255, 255, 255); stroke-opacity: 1;"/><g class="slicetext"><text data-notex="1" class="slicetext" text-anchor="middle" x="0" y="0" style="font-family: 'Open Sans', verdana, arial, sans-serif; font-size: 12px; fill: rgb(255, 255, 255); fill-opacity: 1; white-space: pre;" transform="translate(419.200153692668,169.05225265735044)rotate(-48.46153846153845)">4TTH</text></g></g><g class="slice cursor-pointer"><path class="surface" d="M384.08388480386935,190.62096804638063L418.1677696077387,141.24193609276125A120,120 0,0,0 392.5525864451043,127.79805087775023L371.27629322255217,183.89902543887513A60,60 0,0,1 384.08388480386935,190.62096804638063Z" style="pointer-events: all; stroke-width: 1; fill: rgb(99, 110, 250); fill-opacity: 1; stroke: rgb(255, 255, 255); stroke-opacity: 1;"/><g class="slicetext"><text data-notex="1" class="slicetext" text-anchor="middle" x="0" y="0" style="font-family: 'Open Sans', verdana, arial, sans-serif; font-size: 12px; fill: rgb(255, 255, 255); fill-opacity: 1; white-space: pre;" transform="translate(401.12686835355424,152.80702987494524)rotate(-62.307692307692264)">5L2I</text></g></g><g class="slice cursor-pointer"><path class="surface" d="M371.27629322255217,183.89902543887513L392.5525864451043,127.79805087775023A120,120 0,0,0 364.4644016306388,120.87493510823353L357.2322008153194,180.43746755411678A60,60 0,0,1 371.27629322255217,183.89902543887513Z" style="pointer-events: all; stroke-width: 1; fill: rgb(99, 110, 250); fill-opacity: 1; stroke: rgb(255, 255, 255); stroke-opacity: 1;"/><g class="slicetext"><text data-notex="1" class="slicetext" text-anchor="middle" x="0" y="0" style="font-family: 'Open Sans', verdana, arial, sans-serif; font-size: 12px; fill: rgb(255, 255, 255); fill-opacity: 1; white-space: pre;" transform="translate(378.4341791765492,144.48626221461643)rotate(-76.15384615384619)">5L2S</text></g></g><g class="slice cursor-pointer"><path class="surface" d="M357.2322008153194,180.43746755411678L364.4644016306388,120.87493510823353A120,120 0,0,0 335.53559836936125,120.87493510823353L342.76779918468065,180.43746755411678A60,60 0,0,1 357.2322008153194,180.43746755411678Z" style="pointer-events: all; stroke-width: 1; fill: rgb(99, 110, 250); fill-opacity: 1; stroke: rgb(255, 255, 255); stroke-opacity: 1;"/><g class="slicetext"><text data-notex="1" class="slicetext" text-anchor="middle" x="0" y="0" style="font-family: 'Open Sans', verdana, arial, sans-serif; font-size: 12px; fill: rgb(255, 255, 255); fill-opacity: 1; white-space: pre;" transform="translate(354.75,140.10031673234704)rotate(-90)">5L2T</text></g></g><g class="slice cursor-pointer"><path class="surface" d="M342.76779918468065,180.43746755411678L335.53559836936125,120.87493510823353A120,120 0,0,0 307.4474135548958,127.79805087775021L328.7237067774479,183.8990254388751A60,60 0,0,1 342.76779918468065,180.43746755411678Z" style="pointer-events: all; stroke-width: 1; fill: rgb(239, 85, 59); fill-opacity: 1; stroke: rgb(255, 255, 255); stroke-opacity: 1;"/><g class="slicetext"><text data-notex="1" class="slicetext" text-anchor="middle" x="0" y="0" style="font-family: 'Open Sans', verdana, arial, sans-serif; font-size: 12px; fill: rgb(68, 68, 68); fill-opacity: 1; white-space: pre;" transform="translate(322.1462032557587,146.84096630515205)rotate(76.15384615384619)">5VCW</text></g></g><g class="slice cursor-pointer"><path class="surface" d="M328.7237067774479,183.8990254388751L307.4474135548958,127.79805087775021A120,120 0,0,0 281.8322303922613,141.24193609276122L315.91611519613065,190.6209680463806A60,60 0,0,1 328.7237067774479,183.8990254388751Z" style="pointer-events: all; stroke-width: 1; fill: rgb(239, 85, 59); fill-opacity: 1; stroke: rgb(255, 255, 255); stroke-opacity: 1;"/><g class="slicetext"><text data-notex="1" class="slicetext" text-anchor="middle" x="0" y="0" style="font-family: 'Open Sans', verdana, arial, sans-serif; font-size: 12px; fill: rgb(68, 68, 68); fill-opacity: 1; white-space: pre;" transform="translate(299.98409445905065,154.92379266164133)rotate(62.307692307692264)">5VCX</text></g></g><g class="slice cursor-pointer"><path class="surface" d="M315.91611519613065,190.6209680463806L281.8322303922613,141.24193609276122A120,120 0,0,0 260.1787102194679,160.42528101110452L305.08935510973396,200.21264050555226A60,60 0,0,1 315.91611519613065,190.6209680463806Z" style="pointer-events: all; stroke-width: 1; fill: rgb(239, 85, 59); fill-opacity: 1; stroke: rgb(255, 255, 255); stroke-opacity: 1;"/><g class="slicetext"><text data-notex="1" class="slicetext" text-anchor="middle" x="0" y="0" style="font-family: 'Open Sans', verdana, arial, sans-serif; font-size: 12px; fill: rgb(68, 68, 68); fill-opacity: 1; white-space: pre;" transform="translate(280.84360866411294,169.10165014665154)rotate(48.46153846153845)">5VCY</text></g></g><g class="slice cursor-pointer"><path class="surface" d="M305.08935510973396,200.21264050555226L260.1787102194679,160.42528101110452A120,120 0,0,0 243.74527692161485,184.23321935474772L296.8726384608074,212.11660967737384A60,60 0,0,1 305.08935510973396,200.21264050555226Z" style="pointer-events: all; stroke-width: 1; fill: rgb(239, 85, 59); fill-opacity: 1; stroke: rgb(255, 255, 255); stroke-opacity: 1;"/><g class="slicetext"><text data-notex="1" class="slicetext" text-anchor="middle" x="0" y="0" style="font-family: 'Open Sans', verdana, arial, sans-serif; font-size: 12px; fill: rgb(68, 68, 68); fill-opacity: 1; white-space: pre;" transform="translate(266.1762301205292,187.9123098481599)rotate(34.61538461538464)">5VCZ</text></g></g><g class="slice cursor-pointer"><path class="surface" d="M296.8726384608074,212.11660967737384L243.74527692161485,184.23321935474772A120,120 0,0,0 233.4869819088738,211.28212028549297L291.7434909544369,225.64106014274648A60,60 0,0,1 296.8726384608074,212.11660967737384Z" style="pointer-events: all; stroke-width: 1; fill: rgb(239, 85, 59); fill-opacity: 1; stroke: rgb(255, 255, 255); stroke-opacity: 1;"/><g class="slicetext"><text data-notex="1" class="slicetext" text-anchor="middle" x="0" y="0" style="font-family: 'Open Sans', verdana, arial, sans-serif; font-size: 12px; fill: rgb(68, 68, 68); fill-opacity: 1; white-space: pre;" transform="translate(256.25515945400923,209.52739718103714)rotate(20.76923076923083)">5VD0</text></g></g><g class="slice cursor-pointer"><path class="surface" d="M291.7434909544369,225.64106014274648L233.4869819088738,211.28212028549297A120,120 0,0,0 230,239.9999999999999L290,239.99999999999994A60,60 0,0,1 291.7434909544369,225.64106014274648Z" style="pointer-events: all; stroke-width: 1; fill: rgb(239, 85, 59); fill-opacity: 1; stroke: rgb(255, 255, 255); stroke-opacity: 1;"/><g class="slicetext"><text data-notex="1" class="slicetext" text-anchor="middle" x="0" y="0" style="font-family: 'Open Sans', verdana, arial, sans-serif; font-size: 12px; fill: rgb(68, 68, 68); fill-opacity: 1; white-space: pre;" transform="translate(251.68664295976927,232.8474844260489)rotate(6.923076923076906)">5VD1</text></g></g><g class="slice cursor-pointer"><path class="surface" d="M290,239.99999999999994L230,239.9999999999999A120,120 0,0,0 233.4869819088737,268.7178797145068L291.7434909544369,254.3589398572534A60,60 0,0,1 290,239.99999999999994Z" style="pointer-events: all; stroke-width: 1; fill: rgb(239, 85, 59); fill-opacity: 1; stroke: rgb(255, 255, 255); stroke-opacity: 1;"/><g class="slicetext"><text data-notex="1" class="slicetext" text-anchor="middle" x="0" y="0" style="font-family: 'Open Sans', verdana, arial, sans-serif; font-size: 12px; fill: rgb(68, 68, 68); fill-opacity: 1; white-space: pre;" transform="translate(252.83174142219482,256.58324987788245)rotate(-6.923076923076906)">5VD3</text></g></g><g class="slice cursor-pointer"><path class="surface" d="M291.7434909544369,254.35893985725346L233.48698190887376,268.7178797145069A120,120 0,0,0 243.7452769216148,295.7667806452522L296.87263846080737,267.8833903226261A60,60 0,0,1 291.7434909544369,254.35893985725346Z" style="pointer-events: all; stroke-width: 1; fill: rgb(0, 204, 150); fill-opacity: 1; stroke: rgb(255, 255, 255); stroke-opacity: 1;"/><g class="slicetext"><text data-notex="1" class="slicetext" text-anchor="middle" x="0" y="0" style="font-family: 'Open Sans', verdana, arial, sans-serif; font-size: 12px; fill: rgb(68, 68, 68); fill-opacity: 1; white-space: pre;" transform="translate(260.7877351663363,278.9138748966009)rotate(-20.769230769230717)">5WFO</text></g></g><g class="slice cursor-pointer"><path class="surface" d="M296.87263846080737,267.8833903226261L243.7452769216148,295.7667806452522A120,120 0,0,0 260.1787102194678,319.57471898889537L305.0893551097339,279.7873594944477A60,60 0,0,1 296.87263846080737,267.8833903226261Z" style="pointer-events: all; stroke-width: 1; fill: rgb(0, 204, 150); fill-opacity: 1; stroke: rgb(255, 255, 255); stroke-opacity: 1;"/><g class="slicetext"><text data-notex="1" class="slicetext" text-anchor="middle" x="0" y="0" style="font-family: 'Open Sans', verdana, arial, sans-serif; font-size: 12px; fill: rgb(68, 68, 68); fill-opacity: 1; white-space: pre;" transform="translate(271.98281698762383,299.62305379501106)rotate(-34.61538461538453)">5WFP</text></g></g><g class="slice cursor-pointer"><path class="surface" d="M305.0893551097339,279.7873594944477L260.1787102194678,319.57471898889537A120,120 0,0,0 281.8322303922612,338.7580639072387L315.9161151961306,289.37903195361935A60,60 0,0,1 305.0893551097339,279.7873594944477Z" style="pointer-events: all; stroke-width: 1; fill: rgb(0, 204, 150); fill-opacity: 1; stroke: rgb(255, 255, 255); stroke-opacity: 1;"/><g class="slicetext"><text data-notex="1" class="slicetext" text-anchor="middle" x="0" y="0" style="font-family: 'Open Sans', verdana, arial, sans-serif; font-size: 12px; fill: rgb(68, 68, 68); fill-opacity: 1; white-space: pre;" transform="translate(289.0906419193252,315.91553170741935)rotate(-48.46153846153845)">5WFQ</text></g></g><g class="slice cursor-pointer"><path class="surface" d="M315.9161151961306,289.37903195361935L281.8322303922612,338.7580639072387A120,120 0,0,0 307.4474135548956,352.20194912224974L328.7237067774478,296.1009745611249A60,60 0,0,1 315.9161151961306,289.37903195361935Z" style="pointer-events: all; stroke-width: 1; fill: rgb(0, 204, 150); fill-opacity: 1; stroke: rgb(255, 255, 255); stroke-opacity: 1;"/><g class="slicetext"><text data-notex="1" class="slicetext" text-anchor="middle" x="0" y="0" style="font-family: 'Open Sans', verdana, arial, sans-serif; font-size: 12px; fill: rgb(68, 68, 68); fill-opacity: 1; white-space: pre;" transform="translate(308.7380673764233,328.8391828840294)rotate(-62.307692307692264)">6CUO</text></g></g><g class="slice cursor-pointer"><path class="surface" d="M328.7237067774478,296.1009745611249L307.4474135548956,352.20194912224974A120,120 0,0,0 335.5355983693611,359.12506489176644L342.76779918468054,299.5625324458832A60,60 0,0,1 328.7237067774478,296.1009745611249Z" style="pointer-events: all; stroke-width: 1; fill: rgb(0, 204, 150); fill-opacity: 1; stroke: rgb(255, 255, 255); stroke-opacity: 1;"/><g class="slicetext"><text data-notex="1" class="slicetext" text-anchor="middle" x="0" y="0" style="font-family: 'Open Sans', verdana, arial, sans-serif; font-size: 12px; fill: rgb(68, 68, 68); fill-opacity: 1; white-space: pre;" transform="translate(330.9810494576024,337.0111775770568)rotate(-76.15384615384608)">6CUP</text></g></g><g class="slice cursor-pointer"><path class="surface" d="M342.76779918468054,299.5625324458832L335.5355983693611,359.12506489176644A120,120 0,0,0 364.4644016306386,359.1250648917665L357.2322008153193,299.5625324458832A60,60 0,0,1 342.76779918468054,299.5625324458832Z" style="pointer-events: all; stroke-width: 1; fill: rgb(0, 204, 150); fill-opacity: 1; stroke: rgb(255, 255, 255); stroke-opacity: 1;"/><g class="slicetext"><text data-notex="1" class="slicetext" text-anchor="middle" x="0" y="0" style="font-family: 'Open Sans', verdana, arial, sans-serif; font-size: 12px; fill: rgb(68, 68, 68); fill-opacity: 1; white-space: pre;" transform="translate(354.74999999999983,338.28378081471925)rotate(-89.99999999999989)">6CUR</text></g></g><g class="slice cursor-pointer"><path class="surface" d="M357.23220081531935,299.5625324458832L364.4644016306387,359.1250648917665A120,120 0,0,0 392.55258644510417,352.2019491222498L371.2762932225521,296.10097456112493A60,60 0,0,1 357.23220081531935,299.5625324458832Z" style="pointer-events: all; stroke-width: 1; fill: rgb(171, 99, 250); fill-opacity: 1; stroke: rgb(255, 255, 255); stroke-opacity: 1;"/><g class="slicetext"><text data-notex="1" class="slicetext" text-anchor="middle" x="0" y="0" style="font-family: 'Open Sans', verdana, arial, sans-serif; font-size: 12px; fill: rgb(68, 68, 68); fill-opacity: 1; white-space: pre;" transform="translate(369.24615669438384,337.932989171784)rotate(76.15384615384619)">6F76</text></g></g><g class="slice cursor-pointer"><path class="surface" d="M371.2762932225521,296.10097456112493L392.55258644510417,352.2019491222498A120,120 0,0,0 418.1677696077386,338.7580639072388L384.0838848038693,289.3790319536194A60,60 0,0,1 371.2762932225521,296.10097456112493Z" style="pointer-events: all; stroke-width: 1; fill: rgb(171, 99, 250); fill-opacity: 1; stroke: rgb(255, 255, 255); stroke-opacity: 1;"/><g class="slicetext"><text data-notex="1" class="slicetext" text-anchor="middle" x="0" y="0" style="font-family: 'Open Sans', verdana, arial, sans-serif; font-size: 12px; fill: rgb(68, 68, 68); fill-opacity: 1; white-space: pre;" transform="translate(392.0099143167648,330.2643429301687)rotate(62.30769230769238)">6FA3</text></g></g><g class="slice cursor-pointer"><path class="surface" d="M384.0838848038693,289.3790319536194L418.1677696077386,338.7580639072388A120,120 0,0,0 439.821289780532,319.57471898889554L394.910644890266,279.78735949444774A60,60 0,0,1 384.0838848038693,289.3790319536194Z" style="pointer-events: all; stroke-width: 1; fill: rgb(171, 99, 250); fill-opacity: 1; stroke: rgb(255, 255, 255); stroke-opacity: 1;"/><g class="slicetext"><text data-notex="1" class="slicetext" text-anchor="middle" x="0" y="0" style="font-family: 'Open Sans', verdana, arial, sans-serif; font-size: 12px; fill: rgb(68, 68, 68); fill-opacity: 1; white-space: pre;" transform="translate(412.3908537464456,317.5877946220065)rotate(48.46153846153857)">6FA4</text></g></g><g class="slice cursor-pointer"><path class="surface" d="M394.910644890266,279.78735949444774L439.821289780532,319.57471898889554A120,120 0,0,0 456.2547230783851,295.7667806452524L403.1273615391925,267.8833903226262A60,60 0,0,1 394.910644890266,279.78735949444774Z" style="pointer-events: all; stroke-width: 1; fill: rgb(171, 99, 250); fill-opacity: 1; stroke: rgb(255, 255, 255); stroke-opacity: 1;"/><g class="slicetext"><text data-notex="1" class="slicetext" text-anchor="middle" x="0" y="0" style="font-family: 'Open Sans', verdana, arial, sans-serif; font-size: 12px; fill: rgb(68, 68, 68); fill-opacity: 1; white-space: pre;" transform="translate(426.56241182287505,298.61889774582994)rotate(34.61538461538464)">6GQW</text></g></g><g class="slice cursor-pointer"><path class="surface" d="M403.1273615391925,267.8833903226262L456.2547230783851,295.7667806452524A120,120 0,0,0 466.5130180911262,268.71787971450715L408.2565090455631,254.35893985725357A60,60 0,0,1 403.1273615391925,267.8833903226262Z" style="pointer-events: all; stroke-width: 1; fill: rgb(171, 99, 250); fill-opacity: 1; stroke: rgb(255, 255, 255); stroke-opacity: 1;"/><g class="slicetext"><text data-notex="1" class="slicetext" text-anchor="middle" x="0" y="0" style="font-family: 'Open Sans', verdana, arial, sans-serif; font-size: 12px; fill: rgb(68, 68, 68); fill-opacity: 1; white-space: pre;" transform="translate(439.6571094043121,279.082582189079)rotate(20.769230769230887)">6GQX</text></g></g><g class="slice cursor-pointer"><path class="surface" d="M408.2565090455631,254.35893985725357L466.5130180911262,268.71787971450715A120,120 0,0,0 470,240.00000000000026L410,240.0000000000001A60,60 0,0,1 408.2565090455631,254.35893985725357Z" style="pointer-events: all; stroke-width: 1; fill: rgb(171, 99, 250); fill-opacity: 1; stroke: rgb(255, 255, 255); stroke-opacity: 1;"/><g class="slicetext"><text data-notex="1" class="slicetext" text-anchor="middle" x="0" y="0" style="font-family: 'Open Sans', verdana, arial, sans-serif; font-size: 12px; fill: rgb(68, 68, 68); fill-opacity: 1; white-space: pre;" transform="translate(446.7389984651243,256.5311282636828)rotate(6.923076923077019)">6GQY</text></g></g><g class="slice"><path class="surface" d="M470,240L530,240A180,180 0,0,0 524.7695271366894,196.92318042823962L466.51301809112624,211.28212028549308A120,120 0,0,1 470,240Z" style="pointer-events: all; stroke-width: 1; fill: rgb(99, 110, 250); fill-opacity: 1; stroke: rgb(255, 255, 255); stroke-opacity: 1; opacity: 0.7;"/><g class="slicetext"><text data-notex="1" class="slicetext" text-anchor="middle" x="0" y="0" style="font-family: 'Open Sans', verdana, arial, sans-serif; font-size: 12px; fill: rgb(255, 255, 255); fill-opacity: 1; white-space: pre;" transform="translate(509.466084855816,225.38731172011754)">LQQ</text></g></g><g class="slice"><path class="surface" d="M466.51301809112624,211.28212028549308L524.7695271366894,196.92318042823962A180,180 0,0,0 509.3820846175778,156.34982903212168L456.25472307838515,184.23321935474777A120,120 0,0,1 466.51301809112624,211.28212028549308Z" style="pointer-events: all; stroke-width: 1; fill: rgb(99, 110, 250); fill-opacity: 1; stroke: rgb(255, 255, 255); stroke-opacity: 1; opacity: 0.7;"/><g class="slicetext"><text data-notex="1" class="slicetext" text-anchor="middle" x="0" y="0" style="font-family: 'Open Sans', verdana, arial, sans-serif; font-size: 12px; fill: rgb(255, 255, 255); fill-opacity: 1; white-space: pre;" transform="translate(500.19849563963,187.7872242226711)">AP9</text></g></g><g class="slice"><path class="surface" d="M456.25472307838515,184.23321935474777L509.3820846175778,156.34982903212168A180,180 0,0,0 484.7319346707982,120.63792151665686L439.82128978053214,160.42528101110457A120,120 0,0,1 456.25472307838515,184.23321935474777Z" style="pointer-events: all; stroke-width: 1; fill: rgb(99, 110, 250); fill-opacity: 1; stroke: rgb(255, 255, 255); stroke-opacity: 1; opacity: 0.7;"/><g class="slicetext"><text data-notex="1" class="slicetext" text-anchor="middle" x="0" y="0" style="font-family: 'Open Sans', verdana, arial, sans-serif; font-size: 12px; fill: rgb(255, 255, 255); fill-opacity: 1; white-space: pre;" transform="translate(482.20191580618666,153.49760620213772)">3NV</text></g></g><g class="slice"><path class="surface" d="M439.82128978053214,160.42528101110457L484.7319346707982,120.63792151665686A180,180 0,0,0 452.25165441160806,91.86290413914185L418.1677696077387,141.24193609276125A120,120 0,0,1 439.82128978053214,160.42528101110457Z" style="pointer-events: all; stroke-width: 1; fill: rgb(99, 110, 250); fill-opacity: 1; stroke: rgb(255, 255, 255); stroke-opacity: 1; opacity: 0.7;"/><g class="slicetext"><text data-notex="1" class="slicetext" text-anchor="middle" x="0" y="0" style="font-family: 'Open Sans', verdana, arial, sans-serif; font-size: 12px; fill: rgb(255, 255, 255); fill-opacity: 1; white-space: pre;" transform="translate(456.52224116049956,124.51124562018046)">24V</text></g></g><g class="slice"><path class="surface" d="M418.1677696077387,141.24193609276125L452.25165441160806,91.86290413914185A180,180 0,0,0 413.82887966765645,71.69707631662536L392.5525864451043,127.79805087775023A120,120 0,0,1 418.1677696077387,141.24193609276125Z" style="pointer-events: all; stroke-width: 1; fill: rgb(99, 110, 250); fill-opacity: 1; stroke: rgb(255, 255, 255); stroke-opacity: 1; opacity: 0.7;"/><g class="slicetext"><text data-notex="1" class="slicetext" text-anchor="middle" x="0" y="0" style="font-family: 'Open Sans', verdana, arial, sans-serif; font-size: 12px; fill: rgb(255, 255, 255); fill-opacity: 1; white-space: pre;" transform="translate(424.6518810511567,102.51272439268891)">LQQ</text></g></g><g class="slice"><path class="surface" d="M392.5525864451043,127.79805087775023L413.82887966765645,71.69707631662536A180,180 0,0,0 371.6966024459582,61.31240266235028L364.4644016306388,120.87493510823353A120,120 0,0,1 392.5525864451043,127.79805087775023Z" style="pointer-events: all; stroke-width: 1; fill: rgb(99, 110, 250); fill-opacity: 1; stroke: rgb(255, 255, 255); stroke-opacity: 1; opacity: 0.7;"/><g class="slicetext"><text data-notex="1" class="slicetext" text-anchor="middle" x="0" y="0" style="font-family: 'Open Sans', verdana, arial, sans-serif; font-size: 12px; fill: rgb(255, 255, 255); fill-opacity: 1; white-space: pre;" transform="translate(388.4430249636674,88.78051661203384)">6ZV</text></g></g><g class="slice"><path class="surface" d="M364.4644016306388,120.87493510823353L371.6966024459582,61.31240266235028A180,180 0,0,0 328.3033975540419,61.31240266235028L335.53559836936125,120.87493510823353A120,120 0,0,1 364.4644016306388,120.87493510823353Z" style="pointer-events: all; stroke-width: 1; fill: rgb(99, 110, 250); fill-opacity: 1; stroke: rgb(255, 255, 255); stroke-opacity: 1; opacity: 0.7;"/><g class="slicetext"><text data-notex="1" class="slicetext" text-anchor="middle" x="0" y="0" style="font-family: 'Open Sans', verdana, arial, sans-serif; font-size: 12px; fill: rgb(255, 255, 255); fill-opacity: 1; white-space: pre;" transform="translate(350,84.11268827988246)">6ZZ</text></g></g><g class="slice"><path class="surface" d="M335.53559836936125,120.87493510823353L328.3033975540419,61.31240266235028A180,180 0,0,0 286.1711203323436,71.69707631662533L307.4474135548958,127.79805087775021A120,120 0,0,1 335.53559836936125,120.87493510823353Z" style="pointer-events: all; stroke-width: 1; fill: rgb(239, 85, 59); fill-opacity: 1; stroke: rgb(255, 255, 255); stroke-opacity: 1; opacity: 0.7;"/><g class="slicetext"><text data-notex="1" class="slicetext" text-anchor="middle" x="0" y="0" style="font-family: 'Open Sans', verdana, arial, sans-serif; font-size: 12px; fill: rgb(68, 68, 68); fill-opacity: 1; white-space: pre;" transform="translate(311.55697503633263,88.78051661203384)">93J</text></g></g><g class="slice"><path class="surface" d="M307.4474135548958,127.79805087775021L286.1711203323436,71.69707631662533A180,180 0,0,0 247.74834558839197,91.86290413914185L281.8322303922613,141.24193609276122A120,120 0,0,1 307.4474135548958,127.79805087775021Z" style="pointer-events: all; stroke-width: 1; fill: rgb(239, 85, 59); fill-opacity: 1; stroke: rgb(255, 255, 255); stroke-opacity: 1; opacity: 0.7;"/><g class="slicetext"><text data-notex="1" class="slicetext" text-anchor="middle" x="0" y="0" style="font-family: 'Open Sans', verdana, arial, sans-serif; font-size: 12px; fill: rgb(68, 68, 68); fill-opacity: 1; white-space: pre;" transform="translate(275.34811894884336,102.51272439268894)">H8H</text></g></g><g class="slice"><path class="surface" d="M281.8322303922613,141.24193609276122L247.74834558839197,91.86290413914185A180,180 0,0,0 215.26806532920185,120.6379215166568L260.1787102194679,160.42528101110452A120,120 0,0,1 281.8322303922613,141.24193609276122Z" style="pointer-events: all; stroke-width: 1; fill: rgb(239, 85, 59); fill-opacity: 1; stroke: rgb(255, 255, 255); stroke-opacity: 1; opacity: 0.7;"/><g class="slicetext"><text data-notex="1" class="slicetext" text-anchor="middle" x="0" y="0" style="font-family: 'Open Sans', verdana, arial, sans-serif; font-size: 12px; fill: rgb(68, 68, 68); fill-opacity: 1; white-space: pre;" transform="translate(243.47775883950044,124.51124562018042)">DB8</text></g></g><g class="slice"><path class="surface" d="M260.1787102194679,160.42528101110452L215.26806532920185,120.6379215166568A180,180 0,0,0 190.61791538242227,156.34982903212156L243.74527692161485,184.23321935474772A120,120 0,0,1 260.1787102194679,160.42528101110452Z" style="pointer-events: all; stroke-width: 1; fill: rgb(239, 85, 59); fill-opacity: 1; stroke: rgb(255, 255, 255); stroke-opacity: 1; opacity: 0.7;"/><g class="slicetext"><text data-notex="1" class="slicetext" text-anchor="middle" x="0" y="0" style="font-family: 'Open Sans', verdana, arial, sans-serif; font-size: 12px; fill: rgb(68, 68, 68); fill-opacity: 1; white-space: pre;" transform="translate(217.79808419381334,153.49760620213766)">XZN</text></g></g><g class="slice"><path class="surface" d="M243.74527692161485,184.23321935474772L190.61791538242227,156.34982903212156A180,180 0,0,0 175.23047286331067,196.92318042823945L233.4869819088738,211.28212028549297A120,120 0,0,1 243.74527692161485,184.23321935474772Z" style="pointer-events: all; stroke-width: 1; fill: rgb(239, 85, 59); fill-opacity: 1; stroke: rgb(255, 255, 255); stroke-opacity: 1; opacity: 0.7;"/><g class="slicetext"><text data-notex="1" class="slicetext" text-anchor="middle" x="0" y="0" style="font-family: 'Open Sans', verdana, arial, sans-serif; font-size: 12px; fill: rgb(68, 68, 68); fill-opacity: 1; white-space: pre;" transform="translate(199.80150436036996,187.78722422267103)">8X7</text></g></g><g class="slice"><path class="surface" d="M233.4869819088738,211.28212028549297L175.23047286331067,196.92318042823945A180,180 0,0,0 170,239.99999999999983L230,239.9999999999999A120,120 0,0,1 233.4869819088738,211.28212028549297Z" style="pointer-events: all; stroke-width: 1; fill: rgb(239, 85, 59); fill-opacity: 1; stroke: rgb(255, 255, 255); stroke-opacity: 1; opacity: 0.7;"/><g class="slicetext"><text data-notex="1" class="slicetext" text-anchor="middle" x="0" y="0" style="font-family: 'Open Sans', verdana, arial, sans-serif; font-size: 12px; fill: rgb(68, 68, 68); fill-opacity: 1; white-space: pre;" transform="translate(190.533915144184,225.3873117201174)">P48</text></g></g><g class="slice"><path class="surface" d="M230,239.9999999999999L170,239.99999999999983A180,180 0,0,0 175.23047286331058,283.0768195717602L233.4869819088737,268.7178797145068A120,120 0,0,1 230,239.9999999999999Z" style="pointer-events: all; stroke-width: 1; fill: rgb(239, 85, 59); fill-opacity: 1; stroke: rgb(255, 255, 255); stroke-opacity: 1; opacity: 0.7;"/><g class="slicetext"><text data-notex="1" class="slicetext" text-anchor="middle" x="0" y="0" style="font-family: 'Open Sans', verdana, arial, sans-serif; font-size: 12px; fill: rgb(68, 68, 68); fill-opacity: 1; white-space: pre;" transform="translate(190.53391514418396,264.1126882798823)">H8H</text></g></g><g class="slice"><path class="surface" d="M233.48698190887376,268.7178797145069L175.2304728633106,283.0768195717603A180,180 0,0,0 190.61791538242218,323.65017096787824L243.7452769216148,295.7667806452522A120,120 0,0,1 233.48698190887376,268.7178797145069Z" style="pointer-events: all; stroke-width: 1; fill: rgb(0, 204, 150); fill-opacity: 1; stroke: rgb(255, 255, 255); stroke-opacity: 1; opacity: 0.7;"/><g class="slicetext"><text data-notex="1" class="slicetext" text-anchor="middle" x="0" y="0" style="font-family: 'Open Sans', verdana, arial, sans-serif; font-size: 12px; fill: rgb(68, 68, 68); fill-opacity: 1; white-space: pre;" transform="translate(199.8015043603699,301.71277577732883)">5UU</text></g></g><g class="slice"><path class="surface" d="M243.7452769216148,295.7667806452522L190.61791538242218,323.65017096787824A180,180 0,0,0 215.2680653292017,359.36207848334305L260.1787102194678,319.57471898889537A120,120 0,0,1 243.7452769216148,295.7667806452522Z" style="pointer-events: all; stroke-width: 1; fill: rgb(0, 204, 150); fill-opacity: 1; stroke: rgb(255, 255, 255); stroke-opacity: 1; opacity: 0.7;"/><g class="slicetext"><text data-notex="1" class="slicetext" text-anchor="middle" x="0" y="0" style="font-family: 'Open Sans', verdana, arial, sans-serif; font-size: 12px; fill: rgb(68, 68, 68); fill-opacity: 1; white-space: pre;" transform="translate(217.79808419381325,336.0023937978622)">5UX</text></g></g><g class="slice"><path class="surface" d="M260.1787102194678,319.57471898889537L215.2680653292017,359.36207848334305A180,180 0,0,0 247.74834558839183,388.13709586085804L281.8322303922612,338.7580639072387A120,120 0,0,1 260.1787102194678,319.57471898889537Z" style="pointer-events: all; stroke-width: 1; fill: rgb(0, 204, 150); fill-opacity: 1; stroke: rgb(255, 255, 255); stroke-opacity: 1; opacity: 0.7;"/><g class="slicetext"><text data-notex="1" class="slicetext" text-anchor="middle" x="0" y="0" style="font-family: 'Open Sans', verdana, arial, sans-serif; font-size: 12px; fill: rgb(68, 68, 68); fill-opacity: 1; white-space: pre;" transform="translate(243.4777588395003,364.9887543798195)">5UV</text></g></g><g class="slice"><path class="surface" d="M281.8322303922612,338.7580639072387L247.74834558839183,388.13709586085804A180,180 0,0,0 286.1711203323434,408.3029236833746L307.4474135548956,352.20194912224974A120,120 0,0,1 281.8322303922612,338.7580639072387Z" style="pointer-events: all; stroke-width: 1; fill: rgb(0, 204, 150); fill-opacity: 1; stroke: rgb(255, 255, 255); stroke-opacity: 1; opacity: 0.7;"/><g class="slicetext"><text data-notex="1" class="slicetext" text-anchor="middle" x="0" y="0" style="font-family: 'Open Sans', verdana, arial, sans-serif; font-size: 12px; fill: rgb(68, 68, 68); fill-opacity: 1; white-space: pre;" transform="translate(275.3481189488432,386.987275607311)">FFS</text></g></g><g class="slice"><path class="surface" d="M307.4474135548956,352.20194912224974L286.1711203323434,408.3029236833746A180,180 0,0,0 328.3033975540416,418.68759733764966L335.5355983693611,359.12506489176644A120,120 0,0,1 307.4474135548956,352.20194912224974Z" style="pointer-events: all; stroke-width: 1; fill: rgb(0, 204, 150); fill-opacity: 1; stroke: rgb(255, 255, 255); stroke-opacity: 1; opacity: 0.7;"/><g class="slicetext"><text data-notex="1" class="slicetext" text-anchor="middle" x="0" y="0" style="font-family: 'Open Sans', verdana, arial, sans-serif; font-size: 12px; fill: rgb(68, 68, 68); fill-opacity: 1; white-space: pre;" transform="translate(311.5569750363324,400.71948338796614)">FFV</text></g></g><g class="slice"><path class="surface" d="M335.5355983693611,359.12506489176644L328.3033975540416,418.68759733764966A180,180 0,0,0 371.69660244595786,418.6875973376498L364.4644016306386,359.1250648917665A120,120 0,0,1 335.5355983693611,359.12506489176644Z" style="pointer-events: all; stroke-width: 1; fill: rgb(0, 204, 150); fill-opacity: 1; stroke: rgb(255, 255, 255); stroke-opacity: 1; opacity: 0.7;"/><g class="slicetext"><text data-notex="1" class="slicetext" text-anchor="middle" x="0" y="0" style="font-family: 'Open Sans', verdana, arial, sans-serif; font-size: 12px; fill: rgb(68, 68, 68); fill-opacity: 1; white-space: pre;" transform="translate(349.9999999999998,405.3873117201175)">FFY</text></g></g><g class="slice"><path class="surface" d="M364.4644016306387,359.1250648917665L371.69660244595804,418.6875973376498A180,180 0,0,0 413.8288796676562,408.30292368337473L392.55258644510417,352.2019491222498A120,120 0,0,1 364.4644016306387,359.1250648917665Z" style="pointer-events: all; stroke-width: 1; fill: rgb(171, 99, 250); fill-opacity: 1; stroke: rgb(255, 255, 255); stroke-opacity: 1; opacity: 0.7;"/><g class="slicetext"><text data-notex="1" class="slicetext" text-anchor="middle" x="0" y="0" style="font-family: 'Open Sans', verdana, arial, sans-serif; font-size: 12px; fill: rgb(68, 68, 68); fill-opacity: 1; white-space: pre;" transform="translate(388.4430249636673,400.7194833879662)">CVK</text></g></g><g class="slice"><path class="surface" d="M392.55258644510417,352.2019491222498L413.8288796676562,408.30292368337473A180,180 0,0,0 452.2516544116079,388.13709586085827L418.1677696077386,338.7580639072388A120,120 0,0,1 392.55258644510417,352.2019491222498Z" style="pointer-events: all; stroke-width: 1; fill: rgb(171, 99, 250); fill-opacity: 1; stroke: rgb(255, 255, 255); stroke-opacity: 1; opacity: 0.7;"/><g class="slicetext"><text data-notex="1" class="slicetext" text-anchor="middle" x="0" y="0" style="font-family: 'Open Sans', verdana, arial, sans-serif; font-size: 12px; fill: rgb(68, 68, 68); fill-opacity: 1; white-space: pre;" transform="translate(424.6518810511565,386.9872756073112)">D1Z</text></g></g><g class="slice"><path class="surface" d="M418.1677696077386,338.7580639072388L452.2516544116079,388.13709586085827A180,180 0,0,0 484.73193467079807,359.36207848334334L439.821289780532,319.57471898889554A120,120 0,0,1 418.1677696077386,338.7580639072388Z" style="pointer-events: all; stroke-width: 1; fill: rgb(171, 99, 250); fill-opacity: 1; stroke: rgb(255, 255, 255); stroke-opacity: 1; opacity: 0.7;"/><g class="slicetext"><text data-notex="1" class="slicetext" text-anchor="middle" x="0" y="0" style="font-family: 'Open Sans', verdana, arial, sans-serif; font-size: 12px; fill: rgb(68, 68, 68); fill-opacity: 1; white-space: pre;" transform="translate(456.52224116049945,364.9887543798197)">D1W</text></g></g><g class="slice"><path class="surface" d="M439.821289780532,319.57471898889554L484.73193467079807,359.36207848334334A180,180 0,0,0 509.3820846175777,323.6501709678786L456.2547230783851,295.7667806452524A120,120 0,0,1 439.821289780532,319.57471898889554Z" style="pointer-events: all; stroke-width: 1; fill: rgb(171, 99, 250); fill-opacity: 1; stroke: rgb(255, 255, 255); stroke-opacity: 1; opacity: 0.7;"/><g class="slicetext"><text data-notex="1" class="slicetext" text-anchor="middle" x="0" y="0" style="font-family: 'Open Sans', verdana, arial, sans-serif; font-size: 12px; fill: rgb(68, 68, 68); fill-opacity: 1; white-space: pre;" transform="translate(482.2019158061866,336.0023937978624)">F8T</text></g></g><g class="slice"><path class="surface" d="M456.2547230783851,295.7667806452524L509.3820846175777,323.6501709678786A180,180 0,0,0 524.7695271366892,283.0768195717607L466.5130180911262,268.71787971450715A120,120 0,0,1 456.2547230783851,295.7667806452524Z" style="pointer-events: all; stroke-width: 1; fill: rgb(171, 99, 250); fill-opacity: 1; stroke: rgb(255, 255, 255); stroke-opacity: 1; opacity: 0.7;"/><g class="slicetext"><text data-notex="1" class="slicetext" text-anchor="middle" x="0" y="0" style="font-family: 'Open Sans', verdana, arial, sans-serif; font-size: 12px; fill: rgb(68, 68, 68); fill-opacity: 1; white-space: pre;" transform="translate(500.1984956396299,301.71277577732917)">F8K</text></g></g><g class="slice"><path class="surface" d="M466.5130180911262,268.71787971450715L524.7695271366892,283.0768195717607A180,180 0,0,0 530,240.00000000000037L470,240.00000000000026A120,120 0,0,1 466.5130180911262,268.71787971450715Z" style="pointer-events: all; stroke-width: 1; fill: rgb(171, 99, 250); fill-opacity: 1; stroke: rgb(255, 255, 255); stroke-opacity: 1; opacity: 0.7;"/><g class="slicetext"><text data-notex="1" class="slicetext" text-anchor="middle" x="0" y="0" style="font-family: 'Open Sans', verdana, arial, sans-serif; font-size: 12px; fill: rgb(68, 68, 68); fill-opacity: 1; white-space: pre;" transform="translate(509.466084855816,264.1126882798827)">F8Q</text></g></g></g></g><g class="glimages"/><defs id="topdefs-478b31"><g class="clips"/></defs><g class="layer-above"><g class="imagelayer"/><g class="shapelayer"/></g><g class="infolayer"><g class="g-gtitle"/><g class="annotation" data-index="0" style="opacity: 1;"><g class="annotation-text-g" transform="rotate(0,350,49.999999999999986)"><g class="cursor-pointer" transform="translate(312,42)"><rect class="bg" x="0.5" y="0.5" width="75" height="15" style="stroke-width: 1px; stroke: rgb(0, 0, 0); stroke-opacity: 0; fill: rgb(0, 0, 0); fill-opacity: 0;"/><text class="annotation-text" text-anchor="middle" x="37.9375" y="12" style="font-family: 'Open Sans', verdana, arial, sans-serif; font-size: 10px; fill: rgb(42, 63, 95); fill-opacity: 1; white-space: pre;"><tspan style="font-weight:bold">Chemical_ID</tspan></text></g></g></g><g class="annotation" data-index="1" style="opacity: 1;"><g class="annotation-text-g" transform="rotate(0,350,111.19999999999999)"><g class="cursor-pointer" transform="translate(326,103)"><rect class="bg" x="0.5" y="0.5" width="47" height="15" style="stroke-width: 1px; stroke: rgb(0, 0, 0); stroke-opacity: 0; fill: rgb(0, 0, 0); fill-opacity: 0;"/><text class="annotation-text" text-anchor="middle" x="24.0625" y="12" style="font-family: 'Open Sans', verdana, arial, sans-serif; font-size: 10px; fill: rgb(42, 63, 95); fill-opacity: 1; white-space: pre;"><tspan style="font-weight:bold">PDB_ID</tspan></text></g></g></g><g class="annotation" data-index="2" style="opacity: 1;"><g class="annotation-text-g" transform="rotate(0,350,172.4)"><g class="cursor-pointer" transform="translate(308,164)"><rect class="bg" x="0.5" y="0.5" width="83" height="15" style="stroke-width: 1px; stroke: rgb(0, 0, 0); stroke-opacity: 0; fill: rgb(0, 0, 0); fill-opacity: 0;"/><text class="annotation-text" text-anchor="middle" x="42.203125" y="12" style="font-family: 'Open Sans', verdana, arial, sans-serif; font-size: 10px; fill: rgb(42, 63, 95); fill-opacity: 1; white-space: pre;"><tspan style="font-weight:bold">Protein_Name</tspan></text></g></g></g></g></svg>