<svg class="main-svg" xmlns="http://www.w3.org/2000/svg" xmlns:xlink="http://www.w3.org/1999/xlink" width="700" height="500" style="" viewBox="0 0 700 500"><rect x="0" y="0" width="700" height="500" style="fill: rgb(255, 255, 255); fill-opacity: 1;"/><defs id="defs-cb51e9"><g class="clips"/><g class="gradients"/><g class="patterns"/></defs><g class="bglayer"/><g class="layer-below"><g class="imagelayer"/><g class="shapelayer"/></g><g class="cartesianlayer"/><g class="polarlayer"/><g class="smithlayer"/><g class="ternarylayer"/><g class="geolayer"/><g class="funnelarealayer"/><g class="pielayer"/><g class="iciclelayer"/><g class="treemaplayer"/><g class="sunburstlayer"><g class="trace sunburst" stroke-linejoin="round" style="opacity: 1;"><g class="slice cursor-pointer"><path class="surface" d="M350,240L410,240A60,60 0,0,0 341.4611097036029,180.61071348714404L350,240A0,0 0,0,1 350,240Z" style="pointer-events: all; stroke-width: 1; fill: rgb(99, 110, 250); fill-opacity: 1; stroke: rgb(255, 255, 255); stroke-opacity: 1;"/><g class="slicetext"><text data-notex="1" class="slicetext" text-anchor="middle" x="0" y="0" style="font-family: 'Open Sans', verdana, arial, sans-serif; font-size: 12px; fill: rgb(255, 255, 255); fill-opacity: 1; white-space: pre;" transform="translate(372.37884298002353,218.92343844270457)">Jak3</text></g></g><g class="slice cursor-pointer"><path class="surface" d="M350,240L341.4611097036029,180.61071348714404A60,60 0,0,0 292.43042158313017,256.90395341048577L350,240A0,0 0,0,1 350,240Z" style="pointer-events: all; stroke-width: 1; fill: rgb(239, 85, 59); fill-opacity: 1; stroke: rgb(255, 255, 255); stroke-opacity: 1;"/><g class="slicetext"><text data-notex="1" class="slicetext" text-anchor="middle" x="0" y="0" style="font-family: 'Open Sans', verdana, arial, sans-serif; font-size: 12px; fill: rgb(68, 68, 68); fill-opacity: 1; white-space: pre;" transform="translate(321.2514741810859,226.27444430506765)">MK2</text></g></g><g class="slice cursor-pointer"><path class="surface" d="M350,240L292.43042158313017,256.90395341048577A60,60 0,0,0 374.92490078011315,294.5779197212711L350,240A0,0 0,0,1 350,240Z" style="pointer-events: all; stroke-width: 1; fill: rgb(0, 204, 150); fill-opacity: 1; stroke: rgb(255, 255, 255); stroke-opacity: 1;"/><g class="slicetext"><text data-notex="1" class="slicetext" text-anchor="middle" x="0" y="0" style="font-family: 'Open Sans', verdana, arial, sans-serif; font-size: 12px; fill: rgb(68, 68, 68); fill-opacity: 1; white-space: pre;" transform="translate(335.8038406250047,275.83525299876214)">Pparg</text></g></g><g class="slice cursor-pointer"><path class="surface" d="M350,240L374.92490078011315,294.5779197212711A60,60 0,0,0 410,240.00000000000003L350,240A0,0 0,0,1 350,240Z" style="pointer-events: all; stroke-width: 1; fill: rgb(171, 99, 250); fill-opacity: 1; stroke: rgb(255, 255, 255); stroke-opacity: 1;"/><g class="slicetext"><text data-notex="1" class="slicetext" text-anchor="middle" x="0" y="0" style="font-family: 'Open Sans', verdana, arial, sans-serif; font-size: 12px; fill: rgb(68, 68, 68); fill-opacity: 1; white-space: pre;" transform="translate(382.762478702357,265.80516657731334)">Roco4</text></g></g><g class="slice cursor-pointer"><path class="surface" d="M410,240L470,240A120,120 0,0,0 450.95042393974177,175.1231019053283L400.4752119698709,207.56155095266416A60,60 0,0,1 410,240Z" style="pointer-events: all; stroke-width: 1; fill: rgb(99, 110, 250); fill-opacity: 1; stroke: rgb(255, 255, 255); stroke-opacity: 1;"/><g class="slicetext"><text data-notex="1" class="slicetext" text-anchor="middle" x="0" y="0" style="font-family: 'Open Sans', verdana, arial, sans-serif; font-size: 12px; fill: rgb(255, 255, 255); fill-opacity: 1; white-space: pre;" transform="translate(439.83087479456464,218.37327527648645)">4QPS</text></g></g><g class="slice cursor-pointer"><path class="surface" d="M400.4752119698709,207.56155095266416L450.95042393974177,175.1231019053283A120,120 0,0,0 399.84980156022635,130.8441605574578L374.9249007801132,185.4220802787289A60,60 0,0,1 400.4752119698709,207.56155095266416Z" style="pointer-events: all; stroke-width: 1; fill: rgb(99, 110, 250); fill-opacity: 1; stroke: rgb(255, 255, 255); stroke-opacity: 1;"/><g class="slicetext"><text data-notex="1" class="slicetext" text-anchor="middle" x="0" y="0" style="font-family: 'Open Sans', verdana, arial, sans-serif; font-size: 12px; fill: rgb(255, 255, 255); fill-opacity: 1; white-space: pre;" transform="translate(411.3102067619214,173.99424956014383)">4Z16</text></g></g><g class="slice cursor-pointer"><path class="surface" d="M374.9249007801132,185.4220802787289L399.84980156022635,130.8441605574578A120,120 0,0,0 332.9222194072058,121.22142697428806L341.4611097036029,180.61071348714404A60,60 0,0,1 374.9249007801132,185.4220802787289Z" style="pointer-events: all; stroke-width: 1; fill: rgb(99, 110, 250); fill-opacity: 1; stroke: rgb(255, 255, 255); stroke-opacity: 1;"/><g class="slicetext"><text data-notex="1" class="slicetext" text-anchor="middle" x="0" y="0" style="font-family: 'Open Sans', verdana, arial, sans-serif; font-size: 12px; fill: rgb(255, 255, 255); fill-opacity: 1; white-space: pre;" transform="translate(363.32398127958845,152.0796746722127)">5W86</text></g></g><g class="slice cursor-pointer"><path class="surface" d="M341.4611097036029,180.61071348714404L332.9222194072058,121.22142697428806A120,120 0,0,0 271.41671192656577,149.310051077489L310.7083559632829,194.6550255387445A60,60 0,0,1 341.4611097036029,180.61071348714404Z" style="pointer-events: all; stroke-width: 1; fill: rgb(239, 85, 59); fill-opacity: 1; stroke: rgb(255, 255, 255); stroke-opacity: 1;"/><g class="slicetext"><text data-notex="1" class="slicetext" text-anchor="middle" x="0" y="0" style="font-family: 'Open Sans', verdana, arial, sans-serif; font-size: 12px; fill: rgb(68, 68, 68); fill-opacity: 1; white-space: pre;" transform="translate(311.1074858837392,159.58727329862427)">3A2C</text></g></g><g class="slice cursor-pointer"><path class="surface" d="M310.7083559632829,194.6550255387445L271.41671192656577,149.310051077489A120,120 0,0,0 234.8608431662603,206.19209317902843L292.43042158313017,223.09604658951423A60,60 0,0,1 310.7083559632829,194.6550255387445Z" style="pointer-events: all; stroke-width: 1; fill: rgb(239, 85, 59); fill-opacity: 1; stroke: rgb(255, 255, 255); stroke-opacity: 1;"/><g class="slicetext"><text data-notex="1" class="slicetext" text-anchor="middle" x="0" y="0" style="font-family: 'Open Sans', verdana, arial, sans-serif; font-size: 12px; fill: rgb(68, 68, 68); fill-opacity: 1; white-space: pre;" transform="translate(271.2390889184296,194.13343592164995)">3KA0</text></g></g><g class="slice cursor-pointer"><path class="surface" d="M292.43042158313017,223.09604658951423L234.8608431662603,206.19209317902843A120,120 0,0,0 234.8608431662603,273.8079068209716L292.43042158313017,256.90395341048577A60,60 0,0,1 292.43042158313017,223.09604658951423Z" style="pointer-events: all; stroke-width: 1; fill: rgb(239, 85, 59); fill-opacity: 1; stroke: rgb(255, 255, 255); stroke-opacity: 1;"/><g class="slicetext"><text data-notex="1" class="slicetext" text-anchor="middle" x="0" y="0" style="font-family: 'Open Sans', verdana, arial, sans-serif; font-size: 12px; fill: rgb(68, 68, 68); fill-opacity: 1; white-space: pre;" transform="translate(256.3767247235136,244.75000000000003)">3KC3</text></g></g><g class="slice cursor-pointer"><path class="surface" d="M292.43042158313017,256.90395341048577L234.8608431662603,273.80790682097154A120,120 0,0,0 271.41671192656577,330.689948922511L310.7083559632829,285.3449744612555A60,60 0,0,1 292.43042158313017,256.90395341048577Z" style="pointer-events: all; stroke-width: 1; fill: rgb(0, 204, 150); fill-opacity: 1; stroke: rgb(255, 255, 255); stroke-opacity: 1;"/><g class="slicetext"><text data-notex="1" class="slicetext" text-anchor="middle" x="0" y="0" style="font-family: 'Open Sans', verdana, arial, sans-serif; font-size: 12px; fill: rgb(68, 68, 68); fill-opacity: 1; white-space: pre;" transform="translate(271.23908891842956,295.36656407835005)">4OJ4</text></g></g><g class="slice cursor-pointer"><path class="surface" d="M310.7083559632829,285.3449744612555L271.41671192656577,330.689948922511A120,120 0,0,0 332.9222194072058,358.7785730257119L341.4611097036029,299.38928651285596A60,60 0,0,1 310.7083559632829,285.3449744612555Z" style="pointer-events: all; stroke-width: 1; fill: rgb(0, 204, 150); fill-opacity: 1; stroke: rgb(255, 255, 255); stroke-opacity: 1;"/><g class="slicetext"><text data-notex="1" class="slicetext" text-anchor="middle" x="0" y="0" style="font-family: 'Open Sans', verdana, arial, sans-serif; font-size: 12px; fill: rgb(68, 68, 68); fill-opacity: 1; white-space: pre;" transform="translate(311.1074858837392,329.91272670137573)">4XTA</text></g></g><g class="slice cursor-pointer"><path class="surface" d="M341.4611097036029,299.38928651285596L332.9222194072058,358.7785730257119A120,120 0,0,0 399.8498015602263,349.15583944254223L374.92490078011315,294.5779197212711A60,60 0,0,1 341.4611097036029,299.38928651285596Z" style="pointer-events: all; stroke-width: 1; fill: rgb(0, 204, 150); fill-opacity: 1; stroke: rgb(255, 255, 255); stroke-opacity: 1;"/><g class="slicetext"><text data-notex="1" class="slicetext" text-anchor="middle" x="0" y="0" style="font-family: 'Open Sans', verdana, arial, sans-serif; font-size: 12px; fill: rgb(68, 68, 68); fill-opacity: 1; white-space: pre;" transform="translate(363.3239812795884,337.42032532778734)">6KTN</text></g></g><g class="slice cursor-pointer"><path class="surface" d="M374.92490078011315,294.5779197212711L399.8498015602263,349.15583944254223A120,120 0,0,0 450.95042393974177,304.8768980946717L400.4752119698709,272.43844904733584A60,60 0,0,1 374.92490078011315,294.5779197212711Z" style="pointer-events: all; stroke-width: 1; fill: rgb(171, 99, 250); fill-opacity: 1; stroke: rgb(255, 255, 255); stroke-opacity: 1;"/><g class="slicetext"><text data-notex="1" class="slicetext" text-anchor="middle" x="0" y="0" style="font-family: 'Open Sans', verdana, arial, sans-serif; font-size: 12px; fill: rgb(68, 68, 68); fill-opacity: 1; white-space: pre;" transform="translate(411.3102067619214,315.5057504398562)">4YZM</text></g></g><g class="slice cursor-pointer"><path class="surface" d="M400.4752119698709,272.43844904733584L450.95042393974177,304.8768980946717A120,120 0,0,0 470,240.00000000000003L410,240.00000000000003A60,60 0,0,1 400.4752119698709,272.43844904733584Z" style="pointer-events: all; stroke-width: 1; fill: rgb(171, 99, 250); fill-opacity: 1; stroke: rgb(255, 255, 255); stroke-opacity: 1;"/><g class="slicetext"><text data-notex="1" class="slicetext" text-anchor="middle" x="0" y="0" style="font-family: 'Open Sans', verdana, arial, sans-serif; font-size: 12px; fill: rgb(68, 68, 68); fill-opacity: 1; white-space: pre;" transform="translate(439.8308747945647,271.1267247235136)">4YZN</text></g></g><g class="slice"><path class="surface" d="M470,240L530,240A180,180 0,0,0 501.42563590961265,142.68465285799243L450.95042393974177,175.1231019053283A120,120 0,0,1 470,240Z" style="pointer-events: all; stroke-width: 1; fill: rgb(99, 110, 250); fill-opacity: 1; stroke: rgb(255, 255, 255); stroke-opacity: 1; opacity: 0.7;"/><g class="slicetext"><text data-notex="1" class="slicetext" text-anchor="middle" x="0" y="0" style="font-family: 'Open Sans', verdana, arial, sans-serif; font-size: 12px; fill: rgb(255, 255, 255); fill-opacity: 1; white-space: pre;" transform="translate(493.9239460421746,202.49011647378555)">37Q</text></g></g><g class="slice"><path class="surface" d="M450.95042393974177,175.1231019053283L501.42563590961265,142.68465285799243A180,180 0,0,0 424.77470234033956,76.26624083618671L399.84980156022635,130.8441605574578A120,120 0,0,1 450.95042393974177,175.1231019053283Z" style="pointer-events: all; stroke-width: 1; fill: rgb(99, 110, 250); fill-opacity: 1; stroke: rgb(255, 255, 255); stroke-opacity: 1; opacity: 0.7;"/><g class="slicetext"><text data-notex="1" class="slicetext" text-anchor="middle" x="0" y="0" style="font-family: 'Open Sans', verdana, arial, sans-serif; font-size: 12px; fill: rgb(255, 255, 255); fill-opacity: 1; white-space: pre;" transform="translate(448.2291100917928,131.38756384686127)">4LH</text></g></g><g class="slice"><path class="surface" d="M399.84980156022635,130.8441605574578L424.77470234033956,76.26624083618671A180,180 0,0,0 324.3833291108087,61.83214046143209L332.9222194072058,121.22142697428806A120,120 0,0,1 399.84980156022635,130.8441605574578Z" style="pointer-events: all; stroke-width: 1; fill: rgb(99, 110, 250); fill-opacity: 1; stroke: rgb(255, 255, 255); stroke-opacity: 1; opacity: 0.7;"/><g class="slicetext"><text data-notex="1" class="slicetext" text-anchor="middle" x="0" y="0" style="font-family: 'Open Sans', verdana, arial, sans-serif; font-size: 12px; fill: rgb(255, 255, 255); fill-opacity: 1; white-space: pre;" transform="translate(371.34722574099277,96.2767837178601)">9YV</text></g></g><g class="slice"><path class="surface" d="M332.9222194072058,121.22142697428806L324.3833291108087,61.83214046143209A180,180 0,0,0 232.1250678898487,103.96507661623349L271.41671192656577,149.310051077489A120,120 0,0,1 332.9222194072058,121.22142697428806Z" style="pointer-events: all; stroke-width: 1; fill: rgb(239, 85, 59); fill-opacity: 1; stroke: rgb(255, 255, 255); stroke-opacity: 1; opacity: 0.7;"/><g class="slicetext"><text data-notex="1" class="slicetext" text-anchor="middle" x="0" y="0" style="font-family: 'Open Sans', verdana, arial, sans-serif; font-size: 12px; fill: rgb(68, 68, 68); fill-opacity: 1; white-space: pre;" transform="translate(287.6877480497171,108.30520069682225)">PDY</text></g></g><g class="slice"><path class="surface" d="M271.41671192656577,149.310051077489L232.1250678898487,103.96507661623349A180,180 0,0,0 177.29126474939048,189.28813976854266L234.8608431662603,206.19209317902843A120,120 0,0,1 271.41671192656577,149.310051077489Z" style="pointer-events: all; stroke-width: 1; fill: rgb(239, 85, 59); fill-opacity: 1; stroke: rgb(255, 255, 255); stroke-opacity: 1; opacity: 0.7;"/><g class="slicetext"><text data-notex="1" class="slicetext" text-anchor="middle" x="0" y="0" style="font-family: 'Open Sans', verdana, arial, sans-serif; font-size: 12px; fill: rgb(68, 68, 68); fill-opacity: 1; white-space: pre;" transform="translate(223.81197007532282,163.65387738166038)">MK3</text></g></g><g class="slice"><path class="surface" d="M234.8608431662603,206.19209317902843L177.29126474939048,189.28813976854266A180,180 0,0,0 177.29126474939048,290.71186023145736L234.8608431662603,273.8079068209716A120,120 0,0,1 234.8608431662603,206.19209317902843Z" style="pointer-events: all; stroke-width: 1; fill: rgb(239, 85, 59); fill-opacity: 1; stroke: rgb(255, 255, 255); stroke-opacity: 1; opacity: 0.7;"/><g class="slicetext"><text data-notex="1" class="slicetext" text-anchor="middle" x="0" y="0" style="font-family: 'Open Sans', verdana, arial, sans-serif; font-size: 12px; fill: rgb(68, 68, 68); fill-opacity: 1; white-space: pre;" transform="translate(200,244.75000000000003)">MK2</text></g></g><g class="slice"><path class="surface" d="M234.8608431662603,273.80790682097154L177.29126474939045,290.7118602314573A180,180 0,0,0 232.12506788984865,376.03492338376645L271.41671192656577,330.689948922511A120,120 0,0,1 234.8608431662603,273.80790682097154Z" style="pointer-events: all; stroke-width: 1; fill: rgb(0, 204, 150); fill-opacity: 1; stroke: rgb(255, 255, 255); stroke-opacity: 1; opacity: 0.7;"/><g class="slicetext"><text data-notex="1" class="slicetext" text-anchor="middle" x="0" y="0" style="font-family: 'Open Sans', verdana, arial, sans-serif; font-size: 12px; fill: rgb(68, 68, 68); fill-opacity: 1; white-space: pre;" transform="translate(223.8119700753228,325.84612261833956)">DIF</text></g></g><g class="slice"><path class="surface" d="M271.41671192656577,330.689948922511L232.12506788984865,376.03492338376645A180,180 0,0,0 324.38332911080863,418.1678595385679L332.9222194072058,358.7785730257119A120,120 0,0,1 271.41671192656577,330.689948922511Z" style="pointer-events: all; stroke-width: 1; fill: rgb(0, 204, 150); fill-opacity: 1; stroke: rgb(255, 255, 255); stroke-opacity: 1; opacity: 0.7;"/><g class="slicetext"><text data-notex="1" class="slicetext" text-anchor="middle" x="0" y="0" style="font-family: 'Open Sans', verdana, arial, sans-serif; font-size: 12px; fill: rgb(68, 68, 68); fill-opacity: 1; white-space: pre;" transform="translate(287.6877480497171,381.1947993031778)">DIF</text></g></g><g class="slice"><path class="surface" d="M332.9222194072058,358.7785730257119L324.38332911080863,418.1678595385679A180,180 0,0,0 424.7747023403395,403.7337591638134L399.8498015602263,349.15583944254223A120,120 0,0,1 332.9222194072058,358.7785730257119Z" style="pointer-events: all; stroke-width: 1; fill: rgb(0, 204, 150); fill-opacity: 1; stroke: rgb(255, 255, 255); stroke-opacity: 1; opacity: 0.7;"/><g class="slicetext"><text data-notex="1" class="slicetext" text-anchor="middle" x="0" y="0" style="font-family: 'Open Sans', verdana, arial, sans-serif; font-size: 12px; fill: rgb(68, 68, 68); fill-opacity: 1; white-space: pre;" transform="translate(371.3472257409927,393.2232162821399)">STI</text></g></g><g class="slice"><path class="surface" d="M399.8498015602263,349.15583944254223L424.7747023403395,403.7337591638134A180,180 0,0,0 501.42563590961265,337.31534714200757L450.95042393974177,304.8768980946717A120,120 0,0,1 399.8498015602263,349.15583944254223Z" style="pointer-events: all; stroke-width: 1; fill: rgb(171, 99, 250); fill-opacity: 1; stroke: rgb(255, 255, 255); stroke-opacity: 1; opacity: 0.7;"/><g class="slicetext"><text data-notex="1" class="slicetext" text-anchor="middle" x="0" y="0" style="font-family: 'Open Sans', verdana, arial, sans-serif; font-size: 12px; fill: rgb(68, 68, 68); fill-opacity: 1; white-space: pre;" transform="translate(448.22911009179273,358.11243615313873)">4K4</text></g></g><g class="slice"><path class="surface" d="M450.95042393974177,304.8768980946717L501.42563590961265,337.31534714200757A180,180 0,0,0 530,240.00000000000006L470,240.00000000000003A120,120 0,0,1 450.95042393974177,304.8768980946717Z" style="pointer-events: all; stroke-width: 1; fill: rgb(171, 99, 250); fill-opacity: 1; stroke: rgb(255, 255, 255); stroke-opacity: 1; opacity: 0.7;"/><g class="slicetext"><text data-notex="1" class="slicetext" text-anchor="middle" x="0" y="0" style="font-family: 'Open Sans', verdana, arial, sans-serif; font-size: 12px; fill: rgb(68, 68, 68); fill-opacity: 1; white-space: pre;" transform="translate(493.9239460421746,287.0098835262145)">4K5</text></g></g></g></g><g class="glimages"/><defs id="topdefs-cb51e9"><g class="clips"/></defs><g class="layer-above"><g class="imagelayer"/><g class="shapelayer"/></g><g class="infolayer"><g class="g-gtitle"/><g class="annotation" data-index="0" style="opacity: 1;"><g class="annotation-text-g" transform="rotate(0,350,49.999999999999986)"><g class="cursor-pointer" transform="translate(312,42)"><rect class="bg" x="0.5" y="0.5" width="75" height="15" style="stroke-width: 1px; stroke: rgb(0, 0, 0); stroke-opacity: 0; fill: rgb(0, 0, 0); fill-opacity: 0;"/><text class="annotation-text" text-anchor="middle" x="37.9375" y="12" style="font-family: 'Open Sans', verdana, arial, sans-serif; font-size: 10px; fill: rgb(42, 63, 95); fill-opacity: 1; white-space: pre;"><tspan style="font-weight:bold">Chemical_ID</tspan></text></g></g></g><g class="annotation" data-index="1" style="opacity: 1;"><g class="annotation-text-g" transform="rotate(0,350,111.19999999999999)"><g class="cursor-pointer" transform="translate(326,103)"><rect class="bg" x="0.5" y="0.5" width="47" height="15" style="stroke-width: 1px; stroke: rgb(0, 0, 0); stroke-opacity: 0; fill: rgb(0, 0, 0); fill-opacity: 0;"/><text class="annotation-text" text-anchor="middle" x="24.0625" y="12" style="font-family: 'Open Sans', verdana, arial, sans-serif; font-size: 10px; fill: rgb(42, 63, 95); fill-opacity: 1; white-space: pre;"><tspan style="font-weight:bold">PDB_ID</tspan></text></g></g></g><g class="annotation" data-index="2" style="opacity: 1;"><g class="annotation-text-g" transform="rotate(0,350,172.4)"><g class="cursor-pointer" transform="translate(308,164)"><rect class="bg" x="0.5" y="0.5" width="83" height="15" style="stroke-width: 1px; stroke: rgb(0, 0, 0); stroke-opacity: 0; fill: rgb(0, 0, 0); fill-opacity: 0;"/><text class="annotation-text" text-anchor="middle" x="42.203125" y="12" style="font-family: 'Open Sans', verdana, arial, sans-serif; font-size: 10px; fill: rgb(42, 63, 95); fill-opacity: 1; white-space: pre;"><tspan style="font-weight:bold">Protein_Name</tspan></text></g></g></g></g></svg>