<svg class="main-svg" xmlns="http://www.w3.org/2000/svg" xmlns:xlink="http://www.w3.org/1999/xlink" width="700" height="500" style="" viewBox="0 0 700 500"><rect x="0" y="0" width="700" height="500" style="fill: rgb(255, 255, 255); fill-opacity: 1;"/><defs id="defs-410f69"><g class="clips"/><g class="gradients"/><g class="patterns"/></defs><g class="bglayer"/><g class="layer-below"><g class="imagelayer"/><g class="shapelayer"/></g><g class="cartesianlayer"/><g class="polarlayer"/><g class="smithlayer"/><g class="ternarylayer"/><g class="geolayer"/><g class="funnelarealayer"/><g class="pielayer"/><g class="iciclelayer"/><g class="treemaplayer"/><g class="sunburstlayer"><g class="trace sunburst" stroke-linejoin="round" style="opacity: 1;"><g class="slice cursor-pointer"><path class="surface" d="M350,240L410,240A60,60 0,0,0 345.90545519811974,180.13987384856765L350,240A0,0 0,0,1 350,240Z" style="pointer-events: all; stroke-width: 1; fill: rgb(99, 110, 250); fill-opacity: 1; stroke: rgb(255, 255, 255); stroke-opacity: 1;"/><g class="slicetext"><text data-notex="1" class="slicetext" text-anchor="middle" x="0" y="0" style="font-family: 'Open Sans', verdana, arial, sans-serif; font-size: 12px; fill: rgb(255, 255, 255); fill-opacity: 1; white-space: pre;" transform="translate(373.66093000049227,219.41533007073497)">Akr1C3</text></g></g><g class="slice cursor-pointer"><path class="surface" d="M350,240L345.90545519811974,180.13987384856765A60,60 0,0,0 290.55884323782016,248.16999894577478L350,240A0,0 0,0,1 350,240Z" style="pointer-events: all; stroke-width: 1; fill: rgb(239, 85, 59); fill-opacity: 1; stroke: rgb(255, 255, 255); stroke-opacity: 1;"/><g class="slicetext"><text data-notex="1" class="slicetext" text-anchor="middle" x="0" y="0" style="font-family: 'Open Sans', verdana, arial, sans-serif; font-size: 12px; fill: rgb(68, 68, 68); fill-opacity: 1; white-space: pre;" transform="translate(323.1097120681354,222.87312810627577)">Alb</text></g></g><g class="slice cursor-pointer"><path class="surface" d="M350,240L290.55884323782016,248.16999894577478A60,60 0,0,0 362.207360783158,298.7450452609394L350,240A0,0 0,0,1 350,240Z" style="pointer-events: all; stroke-width: 1; fill: rgb(0, 204, 150); fill-opacity: 1; stroke: rgb(255, 255, 255); stroke-opacity: 1;"/><g class="slicetext"><text data-notex="1" class="slicetext" text-anchor="middle" x="0" y="0" style="font-family: 'Open Sans', verdana, arial, sans-serif; font-size: 12px; fill: rgb(68, 68, 68); fill-opacity: 1; white-space: pre;" transform="translate(330.0091862885904,273.07053099906)">Tyk2</text></g></g><g class="slice cursor-pointer"><path class="surface" d="M350,240L362.207360783158,298.7450452609394A60,60 0,0,0 410,240.00000000000003L350,240A0,0 0,0,1 350,240Z" style="pointer-events: all; stroke-width: 1; fill: rgb(171, 99, 250); fill-opacity: 1; stroke: rgb(255, 255, 255); stroke-opacity: 1;"/><g class="slicetext"><text data-notex="1" class="slicetext" text-anchor="middle" x="0" y="0" style="font-family: 'Open Sans', verdana, arial, sans-serif; font-size: 12px; fill: rgb(68, 68, 68); fill-opacity: 1; white-space: pre;" transform="translate(378.53474431232837,267.96473639191703)">Ephb4</text></g></g><g class="slice cursor-pointer"><path class="surface" d="M410,240L470,240A120,120 0,0,0 465.5500744817359,207.62438746115708L407.77503724086796,223.81219373057854A60,60 0,0,1 410,240Z" style="pointer-events: all; stroke-width: 1; fill: rgb(99, 110, 250); fill-opacity: 1; stroke: rgb(255, 255, 255); stroke-opacity: 1;"/><g class="slicetext"><text data-notex="1" class="slicetext" text-anchor="middle" x="0" y="0" style="font-family: 'Open Sans', verdana, arial, sans-serif; font-size: 12px; fill: rgb(255, 255, 255); fill-opacity: 1; white-space: pre;" transform="translate(446.8013643663596,231.48961641431944)rotate(-7.826086956521749)">1S2C</text></g></g><g class="slice cursor-pointer"><path class="surface" d="M407.77503724086796,223.81219373057854L465.5500744817359,207.62438746115708A120,120 0,0,0 452.53032854557864,177.64992599574796L401.2651642727893,208.824962997874A60,60 0,0,1 407.77503724086796,223.81219373057854Z" style="pointer-events: all; stroke-width: 1; fill: rgb(99, 110, 250); fill-opacity: 1; stroke: rgb(255, 255, 255); stroke-opacity: 1;"/><g class="slicetext"><text data-notex="1" class="slicetext" text-anchor="middle" x="0" y="0" style="font-family: 'Open Sans', verdana, arial, sans-serif; font-size: 12px; fill: rgb(255, 255, 255); fill-opacity: 1; white-space: pre;" transform="translate(441.15272378464465,205.58552598899897)rotate(-23.478260869565247)">3R43</text></g></g><g class="slice cursor-pointer"><path class="surface" d="M401.2651642727893,208.824962997874L452.53032854557864,177.64992599574796A120,120 0,0,0 431.9063771862385,152.2996842866251L390.95318859311925,196.14984214331255A60,60 0,0,1 401.2651642727893,208.824962997874Z" style="pointer-events: all; stroke-width: 1; fill: rgb(99, 110, 250); fill-opacity: 1; stroke: rgb(255, 255, 255); stroke-opacity: 1;"/><g class="slicetext"><text data-notex="1" class="slicetext" text-anchor="middle" x="0" y="0" style="font-family: 'Open Sans', verdana, arial, sans-serif; font-size: 12px; fill: rgb(255, 255, 255); fill-opacity: 1; white-space: pre;" transform="translate(429.39724677079965,181.52896084760593)rotate(-39.130434782608745)">3R6I</text></g></g><g class="slice cursor-pointer"><path class="surface" d="M390.95318859311925,196.14984214331255L431.9063771862385,152.2996842866251A120,120 0,0,0 405.2078045277383,133.45377379171498L377.60390226386914,186.7268868958575A60,60 0,0,1 390.95318859311925,196.14984214331255Z" style="pointer-events: all; stroke-width: 1; fill: rgb(99, 110, 250); fill-opacity: 1; stroke: rgb(255, 255, 255); stroke-opacity: 1;"/><g class="slicetext"><text data-notex="1" class="slicetext" text-anchor="middle" x="0" y="0" style="font-family: 'Open Sans', verdana, arial, sans-serif; font-size: 12px; fill: rgb(255, 255, 255); fill-opacity: 1; white-space: pre;" transform="translate(409.49232987240254,163.95536887755364)rotate(-54.78260869565213)">4DBS</text></g></g><g class="slice cursor-pointer"><path class="surface" d="M377.60390226386914,186.7268868958575L405.2078045277383,133.45377379171498A120,120 0,0,0 374.4147215663161,122.50990947812126L362.20736078315804,181.25495473906062A60,60 0,0,1 377.60390226386914,186.7268868958575Z" style="pointer-events: all; stroke-width: 1; fill: rgb(99, 110, 250); fill-opacity: 1; stroke: rgb(255, 255, 255); stroke-opacity: 1;"/><g class="slicetext"><text data-notex="1" class="slicetext" text-anchor="middle" x="0" y="0" style="font-family: 'Open Sans', verdana, arial, sans-serif; font-size: 12px; fill: rgb(255, 255, 255); fill-opacity: 1; white-space: pre;" transform="translate(386.68705340868706,150.95672686258754)rotate(-70.43478260869563)">4DBU</text></g></g><g class="slice cursor-pointer"><path class="surface" d="M362.20736078315804,181.25495473906062L374.4147215663161,122.50990947812126A120,120 0,0,0 341.81091039623954,120.27974769713529L345.90545519811974,180.13987384856765A60,60 0,0,1 362.20736078315804,181.25495473906062Z" style="pointer-events: all; stroke-width: 1; fill: rgb(99, 110, 250); fill-opacity: 1; stroke: rgb(255, 255, 255); stroke-opacity: 1;"/><g class="slicetext"><text data-notex="1" class="slicetext" text-anchor="middle" x="0" y="0" style="font-family: 'Open Sans', verdana, arial, sans-serif; font-size: 12px; fill: rgb(255, 255, 255); fill-opacity: 1; white-space: pre;" transform="translate(361.4238185998312,142.59449051972226)rotate(-86.08695652173913)">6F78</text></g></g><g class="slice cursor-pointer"><path class="surface" d="M345.90545519811974,180.13987384856765L341.8109103962395,120.2797476971353A120,120 0,0,0 309.81444653948165,126.92868934574153L329.9072232697408,183.46434467287077A60,60 0,0,1 345.90545519811974,180.13987384856765Z" style="pointer-events: all; stroke-width: 1; fill: rgb(239, 85, 59); fill-opacity: 1; stroke: rgb(255, 255, 255); stroke-opacity: 1;"/><g class="slicetext"><text data-notex="1" class="slicetext" text-anchor="middle" x="0" y="0" style="font-family: 'Open Sans', verdana, arial, sans-serif; font-size: 12px; fill: rgb(68, 68, 68); fill-opacity: 1; white-space: pre;" transform="translate(325.5384418685673,145.63108930363782)rotate(78.26086956521738)">4Z69</text></g></g><g class="slice cursor-pointer"><path class="surface" d="M329.9072232697408,183.46434467287077L309.81444653948165,126.92868934574153A120,120 0,0,0 280.798361346216,141.96361283874694L315.399180673108,190.98180641937347A60,60 0,0,1 329.9072232697408,183.46434467287077Z" style="pointer-events: all; stroke-width: 1; fill: rgb(239, 85, 59); fill-opacity: 1; stroke: rgb(255, 255, 255); stroke-opacity: 1;"/><g class="slicetext"><text data-notex="1" class="slicetext" text-anchor="middle" x="0" y="0" style="font-family: 'Open Sans', verdana, arial, sans-serif; font-size: 12px; fill: rgb(68, 68, 68); fill-opacity: 1; white-space: pre;" transform="translate(301.4584851530105,156.64375606409027)rotate(62.60869565217388)">4ZBQ</text></g></g><g class="slice cursor-pointer"><path class="surface" d="M315.399180673108,190.98180641937347L280.798361346216,141.96361283874694A120,120 0,0,0 256.9146451154696,164.26944668087364L303.4573225577348,202.13472334043684A60,60 0,0,1 315.399180673108,190.98180641937347Z" style="pointer-events: all; stroke-width: 1; fill: rgb(239, 85, 59); fill-opacity: 1; stroke: rgb(255, 255, 255); stroke-opacity: 1;"/><g class="slicetext"><text data-notex="1" class="slicetext" text-anchor="middle" x="0" y="0" style="font-family: 'Open Sans', verdana, arial, sans-serif; font-size: 12px; fill: rgb(68, 68, 68); fill-opacity: 1; white-space: pre;" transform="translate(280.4525433055153,172.4920219997523)rotate(46.956521739130494)">4ZBR</text></g></g><g class="slice cursor-pointer"><path class="surface" d="M303.4573225577348,202.13472334043684L256.9146451154696,164.26944668087364A120,120 0,0,0 239.93464381934567,192.191869218451L294.9673219096728,216.09593460922548A60,60 0,0,1 303.4573225577348,202.13472334043684Z" style="pointer-events: all; stroke-width: 1; fill: rgb(239, 85, 59); fill-opacity: 1; stroke: rgb(255, 255, 255); stroke-opacity: 1;"/><g class="slicetext"><text data-notex="1" class="slicetext" text-anchor="middle" x="0" y="0" style="font-family: 'Open Sans', verdana, arial, sans-serif; font-size: 12px; fill: rgb(68, 68, 68); fill-opacity: 1; white-space: pre;" transform="translate(264.84382856047176,193.7747156533642)rotate(31.304347826086996)">5DBY</text></g></g><g class="slice cursor-pointer"><path class="surface" d="M294.9673219096728,216.09593460922548L239.93464381934567,192.191869218451A120,120 0,0,0 231.1176864756403,223.66000210845036L290.55884323782016,231.83000105422516A60,60 0,0,1 294.9673219096728,216.09593460922548Z" style="pointer-events: all; stroke-width: 1; fill: rgb(239, 85, 59); fill-opacity: 1; stroke: rgb(255, 255, 255); stroke-opacity: 1;"/><g class="slicetext"><text data-notex="1" class="slicetext" text-anchor="middle" x="0" y="0" style="font-family: 'Open Sans', verdana, arial, sans-serif; font-size: 12px; fill: rgb(68, 68, 68); fill-opacity: 1; white-space: pre;" transform="translate(255.84769685825944,218.55268811143523)rotate(15.652173913043498)">6HN0</text></g></g><g class="slice cursor-pointer"><path class="surface" d="M290.55884323782016,231.83000105422516L231.1176864756403,223.66000210845036A120,120 0,0,0 231.1176864756403,256.3399978915495L290.55884323782016,248.16999894577475A60,60 0,0,1 290.55884323782016,231.83000105422516Z" style="pointer-events: all; stroke-width: 1; fill: rgb(239, 85, 59); fill-opacity: 1; stroke: rgb(255, 255, 255); stroke-opacity: 1;"/><g class="slicetext"><text data-notex="1" class="slicetext" text-anchor="middle" x="0" y="0" style="font-family: 'Open Sans', verdana, arial, sans-serif; font-size: 12px; fill: rgb(68, 68, 68); fill-opacity: 1; white-space: pre;" transform="translate(253.55270416367506,244.74999999999994)">6HN1</text></g></g><g class="slice cursor-pointer"><path class="surface" d="M290.55884323782016,248.16999894577478L231.1176864756403,256.33999789154956A120,120 0,0,0 239.93464381934564,287.8081307815489L294.9673219096728,263.90406539077446A60,60 0,0,1 290.55884323782016,248.16999894577478Z" style="pointer-events: all; stroke-width: 1; fill: rgb(0, 204, 150); fill-opacity: 1; stroke: rgb(255, 255, 255); stroke-opacity: 1;"/><g class="slicetext"><text data-notex="1" class="slicetext" text-anchor="middle" x="0" y="0" style="font-family: 'Open Sans', verdana, arial, sans-serif; font-size: 12px; fill: rgb(68, 68, 68); fill-opacity: 1; white-space: pre;" transform="translate(258.13168658719013,270.67322055435227)rotate(-15.652173913043498)">5TKD</text></g></g><g class="slice cursor-pointer"><path class="surface" d="M294.9673219096728,263.90406539077446L239.93464381934564,287.8081307815489A120,120 0,0,0 256.91464511546957,315.7305533191263L303.4573225577348,277.86527665956316A60,60 0,0,1 294.9673219096728,263.90406539077446Z" style="pointer-events: all; stroke-width: 1; fill: rgb(0, 204, 150); fill-opacity: 1; stroke: rgb(255, 255, 255); stroke-opacity: 1;"/><g class="slicetext"><text data-notex="1" class="slicetext" text-anchor="middle" x="0" y="0" style="font-family: 'Open Sans', verdana, arial, sans-serif; font-size: 12px; fill: rgb(68, 68, 68); fill-opacity: 1; white-space: pre;" transform="translate(270.11732110822885,294.1370638258741)rotate(-31.304347826086996)">6DBK</text></g></g><g class="slice cursor-pointer"><path class="surface" d="M303.4573225577348,277.86527665956316L256.91464511546957,315.7305533191263A120,120 0,0,0 280.7983613462159,338.03638716125306L315.399180673108,289.01819358062653A60,60 0,0,1 303.4573225577348,277.86527665956316Z" style="pointer-events: all; stroke-width: 1; fill: rgb(0, 204, 150); fill-opacity: 1; stroke: rgb(255, 255, 255); stroke-opacity: 1;"/><g class="slicetext"><text data-notex="1" class="slicetext" text-anchor="middle" x="0" y="0" style="font-family: 'Open Sans', verdana, arial, sans-serif; font-size: 12px; fill: rgb(68, 68, 68); fill-opacity: 1; white-space: pre;" transform="translate(287.1212977816735,314.28581564973433)rotate(-46.95652173913038)">6NSL</text></g></g><g class="slice cursor-pointer"><path class="surface" d="M315.399180673108,289.01819358062653L280.7983613462159,338.03638716125306A120,120 0,0,0 309.81444653948165,353.07131065425847L329.9072232697408,296.53565532712923A60,60 0,0,1 315.399180673108,289.01819358062653Z" style="pointer-events: all; stroke-width: 1; fill: rgb(0, 204, 150); fill-opacity: 1; stroke: rgb(255, 255, 255); stroke-opacity: 1;"/><g class="slicetext"><text data-notex="1" class="slicetext" text-anchor="middle" x="0" y="0" style="font-family: 'Open Sans', verdana, arial, sans-serif; font-size: 12px; fill: rgb(68, 68, 68); fill-opacity: 1; white-space: pre;" transform="translate(309.95297242852547,327.61188205137825)rotate(-62.60869565217388)">6NZH</text></g></g><g class="slice cursor-pointer"><path class="surface" d="M329.9072232697408,296.53565532712923L309.81444653948165,353.07131065425847A120,120 0,0,0 341.8109103962394,359.7202523028647L345.90545519811974,299.8601261514323A60,60 0,0,1 329.9072232697408,296.53565532712923Z" style="pointer-events: all; stroke-width: 1; fill: rgb(0, 204, 150); fill-opacity: 1; stroke: rgb(255, 255, 255); stroke-opacity: 1;"/><g class="slicetext"><text data-notex="1" class="slicetext" text-anchor="middle" x="0" y="0" style="font-family: 'Open Sans', verdana, arial, sans-serif; font-size: 12px; fill: rgb(68, 68, 68); fill-opacity: 1; white-space: pre;" transform="translate(334.92269064893674,335.90256575824185)rotate(-78.26086956521738)">6NZP</text></g></g><g class="slice cursor-pointer"><path class="surface" d="M345.90545519811974,299.8601261514323L341.8109103962394,359.7202523028647A120,120 0,0,0 374.414721566316,357.49009052187876L362.207360783158,298.7450452609394A60,60 0,0,1 345.90545519811974,299.8601261514323Z" style="pointer-events: all; stroke-width: 1; fill: rgb(0, 204, 150); fill-opacity: 1; stroke: rgb(255, 255, 255); stroke-opacity: 1;"/><g class="slicetext"><text data-notex="1" class="slicetext" text-anchor="middle" x="0" y="0" style="font-family: 'Open Sans', verdana, arial, sans-serif; font-size: 12px; fill: rgb(68, 68, 68); fill-opacity: 1; white-space: pre;" transform="translate(351.8366414667094,336.45555464695843)rotate(86.08695652173924)">6OVA</text></g></g><g class="slice cursor-pointer"><path class="surface" d="M362.207360783158,298.7450452609394L374.414721566316,357.49009052187876A120,120 0,0,0 405.2078045277382,346.5462262082851L377.6039022638691,293.2731131041425A60,60 0,0,1 362.207360783158,298.7450452609394Z" style="pointer-events: all; stroke-width: 1; fill: rgb(171, 99, 250); fill-opacity: 1; stroke: rgb(255, 255, 255); stroke-opacity: 1;"/><g class="slicetext"><text data-notex="1" class="slicetext" text-anchor="middle" x="0" y="0" style="font-family: 'Open Sans', verdana, arial, sans-serif; font-size: 12px; fill: rgb(68, 68, 68); fill-opacity: 1; white-space: pre;" transform="translate(377.38766779000485,331.24571337263785)rotate(70.43478260869563)">2VWU</text></g></g><g class="slice cursor-pointer"><path class="surface" d="M377.6039022638691,293.2731131041425L405.2078045277382,346.5462262082851A120,120 0,0,0 431.90637718623844,327.70031571337495L390.9531885931192,283.8501578566875A60,60 0,0,1 377.6039022638691,293.2731131041425Z" style="pointer-events: all; stroke-width: 1; fill: rgb(171, 99, 250); fill-opacity: 1; stroke: rgb(255, 255, 255); stroke-opacity: 1;"/><g class="slicetext"><text data-notex="1" class="slicetext" text-anchor="middle" x="0" y="0" style="font-family: 'Open Sans', verdana, arial, sans-serif; font-size: 12px; fill: rgb(68, 68, 68); fill-opacity: 1; white-space: pre;" transform="translate(401.7311158888033,321.52309418253765)rotate(54.78260869565224)">2XVD</text></g></g><g class="slice cursor-pointer"><path class="surface" d="M390.9531885931192,283.8501578566875L431.90637718623844,327.70031571337495A120,120 0,0,0 452.5303285455786,302.3500740042521L401.26516427278926,271.17503700212603A60,60 0,0,1 390.9531885931192,283.8501578566875Z" style="pointer-events: all; stroke-width: 1; fill: rgb(171, 99, 250); fill-opacity: 1; stroke: rgb(255, 255, 255); stroke-opacity: 1;"/><g class="slicetext"><text data-notex="1" class="slicetext" text-anchor="middle" x="0" y="0" style="font-family: 'Open Sans', verdana, arial, sans-serif; font-size: 12px; fill: rgb(68, 68, 68); fill-opacity: 1; white-space: pre;" transform="translate(422.33375308492134,304.97128524967616)rotate(39.130434782608745)">4BB4</text></g></g><g class="slice cursor-pointer"><path class="surface" d="M401.26516427278926,271.17503700212603L452.5303285455786,302.3500740042521A120,120 0,0,0 465.55007448173586,272.37561253884303L407.77503724086796,256.1878062694215A60,60 0,0,1 401.26516427278926,271.17503700212603Z" style="pointer-events: all; stroke-width: 1; fill: rgb(171, 99, 250); fill-opacity: 1; stroke: rgb(255, 255, 255); stroke-opacity: 1;"/><g class="slicetext"><text data-notex="1" class="slicetext" text-anchor="middle" x="0" y="0" style="font-family: 'Open Sans', verdana, arial, sans-serif; font-size: 12px; fill: rgb(68, 68, 68); fill-opacity: 1; white-space: pre;" transform="translate(438.4836063672294,283.61259520524163)rotate(23.478260869565247)">6FNI</text></g></g><g class="slice cursor-pointer"><path class="surface" d="M407.77503724086796,256.1878062694215L465.55007448173586,272.37561253884303A120,120 0,0,0 470,240.00000000000014L410,240.00000000000006A60,60 0,0,1 407.77503724086796,256.1878062694215Z" style="pointer-events: all; stroke-width: 1; fill: rgb(171, 99, 250); fill-opacity: 1; stroke: rgb(255, 255, 255); stroke-opacity: 1;"/><g class="slicetext"><text data-notex="1" class="slicetext" text-anchor="middle" x="0" y="0" style="font-family: 'Open Sans', verdana, arial, sans-serif; font-size: 12px; fill: rgb(68, 68, 68); fill-opacity: 1; white-space: pre;" transform="translate(446.78177445680575,258.0970064157088)rotate(7.826086956521749)">6FNJ</text></g></g><g class="slice"><path class="surface" d="M470,240L530,240A180,180 0,0,0 523.3251117226039,191.43658119173563L465.5500744817359,207.62438746115708A120,120 0,0,1 470,240Z" style="pointer-events: all; stroke-width: 1; fill: rgb(99, 110, 250); fill-opacity: 1; stroke: rgb(255, 255, 255); stroke-opacity: 1; opacity: 0.7;"/><g class="slicetext"><text data-notex="1" class="slicetext" text-anchor="middle" x="0" y="0" style="font-family: 'Open Sans', verdana, arial, sans-serif; font-size: 12px; fill: rgb(255, 255, 255); fill-opacity: 1; white-space: pre;" transform="translate(506.9518612682262,223.17746320989033)">FLF</text></g></g><g class="slice"><path class="surface" d="M465.5500744817359,207.62438746115708L523.3251117226039,191.43658119173563A180,180 0,0,0 503.79549281836796,146.47488899362196L452.53032854557864,177.64992599574796A120,120 0,0,1 465.5500744817359,207.62438746115708Z" style="pointer-events: all; stroke-width: 1; fill: rgb(99, 110, 250); fill-opacity: 1; stroke: rgb(255, 255, 255); stroke-opacity: 1; opacity: 0.7;"/><g class="slicetext"><text data-notex="1" class="slicetext" text-anchor="middle" x="0" y="0" style="font-family: 'Open Sans', verdana, arial, sans-serif; font-size: 12px; fill: rgb(255, 255, 255); fill-opacity: 1; white-space: pre;" transform="translate(495.3114597249508,181.6323259956044)">ID8</text></g></g><g class="slice"><path class="surface" d="M452.53032854557864,177.64992599574796L503.79549281836796,146.47488899362196A180,180 0,0,0 472.85956577935775,108.44952642993766L431.9063771862385,152.2996842866251A120,120 0,0,1 452.53032854557864,177.64992599574796Z" style="pointer-events: all; stroke-width: 1; fill: rgb(99, 110, 250); fill-opacity: 1; stroke: rgb(255, 255, 255); stroke-opacity: 1; opacity: 0.7;"/><g class="slicetext"><text data-notex="1" class="slicetext" text-anchor="middle" x="0" y="0" style="font-family: 'Open Sans', verdana, arial, sans-serif; font-size: 12px; fill: rgb(255, 255, 255); fill-opacity: 1; white-space: pre;" transform="translate(472.893971969571,144.76833791807894)">JMS</text></g></g><g class="slice"><path class="surface" d="M431.9063771862385,152.2996842866251L472.85956577935775,108.44952642993766A180,180 0,0,0 432.8117067916074,80.18066068757247L405.2078045277383,133.45377379171498A120,120 0,0,1 431.9063771862385,152.2996842866251Z" style="pointer-events: all; stroke-width: 1; fill: rgb(99, 110, 250); fill-opacity: 1; stroke: rgb(255, 255, 255); stroke-opacity: 1; opacity: 0.7;"/><g class="slicetext"><text data-notex="1" class="slicetext" text-anchor="middle" x="0" y="0" style="font-family: 'Open Sans', verdana, arial, sans-serif; font-size: 12px; fill: rgb(255, 255, 255); fill-opacity: 1; white-space: pre;" transform="translate(441.3620005157208,115.31953233150011)">0HV</text></g></g><g class="slice"><path class="surface" d="M405.2078045277383,133.45377379171498L432.8117067916074,80.18066068757247A180,180 0,0,0 386.6220823494741,63.764864217181895L374.4147215663161,122.50990947812126A120,120 0,0,1 405.2078045277383,133.45377379171498Z" style="pointer-events: all; stroke-width: 1; fill: rgb(99, 110, 250); fill-opacity: 1; stroke: rgb(255, 255, 255); stroke-opacity: 1; opacity: 0.7;"/><g class="slicetext"><text data-notex="1" class="slicetext" text-anchor="middle" x="0" y="0" style="font-family: 'Open Sans', verdana, arial, sans-serif; font-size: 12px; fill: rgb(255, 255, 255); fill-opacity: 1; white-space: pre;" transform="translate(403.05412743696127,95.46999242690319)">BT9</text></g></g><g class="slice"><path class="surface" d="M374.4147215663161,122.50990947812126L386.6220823494741,63.764864217181895A180,180 0,0,0 337.7163655943593,60.41962154570294L341.81091039623954,120.27974769713529A120,120 0,0,1 374.4147215663161,122.50990947812126Z" style="pointer-events: all; stroke-width: 1; fill: rgb(99, 110, 250); fill-opacity: 1; stroke: rgb(255, 255, 255); stroke-opacity: 1; opacity: 0.7;"/><g class="slicetext"><text data-notex="1" class="slicetext" text-anchor="middle" x="0" y="0" style="font-family: 'Open Sans', verdana, arial, sans-serif; font-size: 12px; fill: rgb(255, 255, 255); fill-opacity: 1; white-space: pre;" transform="translate(360.81147243268555,86.69186777340929)">CVN</text></g></g><g class="slice"><path class="surface" d="M341.8109103962395,120.2797476971353L337.7163655943592,60.41962154570297A180,180 0,0,0 289.7216698092225,70.3930340186123L309.81444653948165,126.92868934574153A120,120 0,0,1 341.8109103962395,120.2797476971353Z" style="pointer-events: all; stroke-width: 1; fill: rgb(239, 85, 59); fill-opacity: 1; stroke: rgb(255, 255, 255); stroke-opacity: 1; opacity: 0.7;"/><g class="slicetext"><text data-notex="1" class="slicetext" text-anchor="middle" x="0" y="0" style="font-family: 'Open Sans', verdana, arial, sans-serif; font-size: 12px; fill: rgb(68, 68, 68); fill-opacity: 1; white-space: pre;" transform="translate(317.7669799772729,89.63619171931973)">DIF</text></g></g><g class="slice"><path class="surface" d="M309.81444653948165,126.92868934574153L289.7216698092225,70.3930340186123A180,180 0,0,0 246.19754201932392,92.94541925812041L280.798361346216,141.96361283874694A120,120 0,0,1 309.81444653948165,126.92868934574153Z" style="pointer-events: all; stroke-width: 1; fill: rgb(239, 85, 59); fill-opacity: 1; stroke: rgb(255, 255, 255); stroke-opacity: 1; opacity: 0.7;"/><g class="slicetext"><text data-notex="1" class="slicetext" text-anchor="middle" x="0" y="0" style="font-family: 'Open Sans', verdana, arial, sans-serif; font-size: 12px; fill: rgb(68, 68, 68); fill-opacity: 1; white-space: pre;" transform="translate(277.11306316069107,104.08459722695224)">DIF</text></g></g><g class="slice"><path class="surface" d="M280.798361346216,141.96361283874694L246.19754201932392,92.94541925812041A180,180 0,0,0 210.37196767320447,126.40417002131046L256.9146451154696,164.26944668087364A120,120 0,0,1 280.798361346216,141.96361283874694Z" style="pointer-events: all; stroke-width: 1; fill: rgb(239, 85, 59); fill-opacity: 1; stroke: rgb(255, 255, 255); stroke-opacity: 1; opacity: 0.7;"/><g class="slicetext"><text data-notex="1" class="slicetext" text-anchor="middle" x="0" y="0" style="font-family: 'Open Sans', verdana, arial, sans-serif; font-size: 12px; fill: rgb(68, 68, 68); fill-opacity: 1; white-space: pre;" transform="translate(241.86483701393166,128.96551215686276)">DIF</text></g></g><g class="slice"><path class="surface" d="M256.9146451154696,164.26944668087364L210.37196767320447,126.40417002131046A180,180 0,0,0 184.90196572901849,168.2878038276765L239.93464381934567,192.191869218451A120,120 0,0,1 256.9146451154696,164.26944668087364Z" style="pointer-events: all; stroke-width: 1; fill: rgb(239, 85, 59); fill-opacity: 1; stroke: rgb(255, 255, 255); stroke-opacity: 1; opacity: 0.7;"/><g class="slicetext"><text data-notex="1" class="slicetext" text-anchor="middle" x="0" y="0" style="font-family: 'Open Sans', verdana, arial, sans-serif; font-size: 12px; fill: rgb(68, 68, 68); fill-opacity: 1; white-space: pre;" transform="translate(214.63650122039476,162.4336328713118)">DIF</text></g></g><g class="slice"><path class="surface" d="M239.93464381934567,192.191869218451L184.90196572901849,168.2878038276765A180,180 0,0,0 171.6765297134605,215.49000316267552L231.1176864756403,223.66000210845036A120,120 0,0,1 239.93464381934567,192.191869218451Z" style="pointer-events: all; stroke-width: 1; fill: rgb(239, 85, 59); fill-opacity: 1; stroke: rgb(255, 255, 255); stroke-opacity: 1; opacity: 0.7;"/><g class="slicetext"><text data-notex="1" class="slicetext" text-anchor="middle" x="0" y="0" style="font-family: 'Open Sans', verdana, arial, sans-serif; font-size: 12px; fill: rgb(68, 68, 68); fill-opacity: 1; white-space: pre;" transform="translate(197.44745688453912,202.00678196337327)">DIF</text></g></g><g class="slice"><path class="surface" d="M231.1176864756403,223.66000210845036L171.6765297134605,215.49000316267552A180,180 0,0,0 171.67652971346044,264.50999683732425L231.1176864756403,256.3399978915495A120,120 0,0,1 231.1176864756403,223.66000210845036Z" style="pointer-events: all; stroke-width: 1; fill: rgb(239, 85, 59); fill-opacity: 1; stroke: rgb(255, 255, 255); stroke-opacity: 1; opacity: 0.7;"/><g class="slicetext"><text data-notex="1" class="slicetext" text-anchor="middle" x="0" y="0" style="font-family: 'Open Sans', verdana, arial, sans-serif; font-size: 12px; fill: rgb(68, 68, 68); fill-opacity: 1; white-space: pre;" transform="translate(191.57253679010964,244.74999999999991)">DIF</text></g></g><g class="slice"><path class="surface" d="M231.1176864756403,256.33999789154956L171.67652971346047,264.50999683732437A180,180 0,0,0 184.90196572901843,311.7121961723234L239.93464381934564,287.8081307815489A120,120 0,0,1 231.1176864756403,256.33999789154956Z" style="pointer-events: all; stroke-width: 1; fill: rgb(0, 204, 150); fill-opacity: 1; stroke: rgb(255, 255, 255); stroke-opacity: 1; opacity: 0.7;"/><g class="slicetext"><text data-notex="1" class="slicetext" text-anchor="middle" x="0" y="0" style="font-family: 'Open Sans', verdana, arial, sans-serif; font-size: 12px; fill: rgb(68, 68, 68); fill-opacity: 1; white-space: pre;" transform="translate(197.4396443845391,287.4932180366267)">7GL</text></g></g><g class="slice"><path class="surface" d="M239.93464381934564,287.8081307815489L184.90196572901843,311.7121961723234A180,180 0,0,0 210.37196767320438,353.59582997868944L256.91464511546957,315.7305533191263A120,120 0,0,1 239.93464381934564,287.8081307815489Z" style="pointer-events: all; stroke-width: 1; fill: rgb(0, 204, 150); fill-opacity: 1; stroke: rgb(255, 255, 255); stroke-opacity: 1; opacity: 0.7;"/><g class="slicetext"><text data-notex="1" class="slicetext" text-anchor="middle" x="0" y="0" style="font-family: 'Open Sans', verdana, arial, sans-serif; font-size: 12px; fill: rgb(68, 68, 68); fill-opacity: 1; white-space: pre;" transform="translate(214.63650122039473,327.0663671286881)">G5D</text></g></g><g class="slice"><path class="surface" d="M256.91464511546957,315.7305533191263L210.37196767320438,353.59582997868944A180,180 0,0,0 246.19754201932392,387.0545807418796L280.7983613462159,338.03638716125306A120,120 0,0,1 256.91464511546957,315.7305533191263Z" style="pointer-events: all; stroke-width: 1; fill: rgb(0, 204, 150); fill-opacity: 1; stroke: rgb(255, 255, 255); stroke-opacity: 1; opacity: 0.7;"/><g class="slicetext"><text data-notex="1" class="slicetext" text-anchor="middle" x="0" y="0" style="font-family: 'Open Sans', verdana, arial, sans-serif; font-size: 12px; fill: rgb(68, 68, 68); fill-opacity: 1; white-space: pre;" transform="translate(241.8648370139316,360.5344878431372)">KZJ</text></g></g><g class="slice"><path class="surface" d="M280.7983613462159,338.03638716125306L246.19754201932392,387.0545807418796A180,180 0,0,0 289.7216698092225,409.6069659813877L309.81444653948165,353.07131065425847A120,120 0,0,1 280.7983613462159,338.03638716125306Z" style="pointer-events: all; stroke-width: 1; fill: rgb(0, 204, 150); fill-opacity: 1; stroke: rgb(255, 255, 255); stroke-opacity: 1; opacity: 0.7;"/><g class="slicetext"><text data-notex="1" class="slicetext" text-anchor="middle" x="0" y="0" style="font-family: 'Open Sans', verdana, arial, sans-serif; font-size: 12px; fill: rgb(68, 68, 68); fill-opacity: 1; white-space: pre;" transform="translate(277.11306316069107,385.41540277304773)">L9A</text></g></g><g class="slice"><path class="surface" d="M309.81444653948165,353.07131065425847L289.7216698092225,409.6069659813877A180,180 0,0,0 337.71636559435916,419.58037845429703L341.8109103962394,359.7202523028647A120,120 0,0,1 309.81444653948165,353.07131065425847Z" style="pointer-events: all; stroke-width: 1; fill: rgb(0, 204, 150); fill-opacity: 1; stroke: rgb(255, 255, 255); stroke-opacity: 1; opacity: 0.7;"/><g class="slicetext"><text data-notex="1" class="slicetext" text-anchor="middle" x="0" y="0" style="font-family: 'Open Sans', verdana, arial, sans-serif; font-size: 12px; fill: rgb(68, 68, 68); fill-opacity: 1; white-space: pre;" transform="translate(317.76697997727285,399.86380828068025)">LB7</text></g></g><g class="slice"><path class="surface" d="M341.8109103962394,359.7202523028647L337.71636559435916,419.58037845429703A180,180 0,0,0 386.622082349474,416.23513578281813L374.414721566316,357.49009052187876A120,120 0,0,1 341.8109103962394,359.7202523028647Z" style="pointer-events: all; stroke-width: 1; fill: rgb(0, 204, 150); fill-opacity: 1; stroke: rgb(255, 255, 255); stroke-opacity: 1; opacity: 0.7;"/><g class="slicetext"><text data-notex="1" class="slicetext" text-anchor="middle" x="0" y="0" style="font-family: 'Open Sans', verdana, arial, sans-serif; font-size: 12px; fill: rgb(68, 68, 68); fill-opacity: 1; white-space: pre;" transform="translate(360.8114724326855,402.8081322265907)">N9G</text></g></g><g class="slice"><path class="surface" d="M374.414721566316,357.49009052187876L386.622082349474,416.23513578281813A180,180 0,0,0 432.8117067916073,399.8193393124276L405.2078045277382,346.5462262082851A120,120 0,0,1 374.414721566316,357.49009052187876Z" style="pointer-events: all; stroke-width: 1; fill: rgb(171, 99, 250); fill-opacity: 1; stroke: rgb(255, 255, 255); stroke-opacity: 1; opacity: 0.7;"/><g class="slicetext"><text data-notex="1" class="slicetext" text-anchor="middle" x="0" y="0" style="font-family: 'Open Sans', verdana, arial, sans-serif; font-size: 12px; fill: rgb(68, 68, 68); fill-opacity: 1; white-space: pre;" transform="translate(403.05412743696115,394.0300075730968)">7X1</text></g></g><g class="slice"><path class="surface" d="M405.2078045277382,346.5462262082851L432.8117067916073,399.8193393124276A180,180 0,0,0 472.85956577935764,371.5504735700624L431.90637718623844,327.70031571337495A120,120 0,0,1 405.2078045277382,346.5462262082851Z" style="pointer-events: all; stroke-width: 1; fill: rgb(171, 99, 250); fill-opacity: 1; stroke: rgb(255, 255, 255); stroke-opacity: 1; opacity: 0.7;"/><g class="slicetext"><text data-notex="1" class="slicetext" text-anchor="middle" x="0" y="0" style="font-family: 'Open Sans', verdana, arial, sans-serif; font-size: 12px; fill: rgb(68, 68, 68); fill-opacity: 1; white-space: pre;" transform="translate(441.36200051572075,374.18046766849994)">AS6</text></g></g><g class="slice"><path class="surface" d="M431.90637718623844,327.70031571337495L472.85956577935764,371.5504735700624A180,180 0,0,0 503.79549281836785,333.5251110063782L452.5303285455786,302.3500740042521A120,120 0,0,1 431.90637718623844,327.70031571337495Z" style="pointer-events: all; stroke-width: 1; fill: rgb(171, 99, 250); fill-opacity: 1; stroke: rgb(255, 255, 255); stroke-opacity: 1; opacity: 0.7;"/><g class="slicetext"><text data-notex="1" class="slicetext" text-anchor="middle" x="0" y="0" style="font-family: 'Open Sans', verdana, arial, sans-serif; font-size: 12px; fill: rgb(68, 68, 68); fill-opacity: 1; white-space: pre;" transform="translate(472.893971969571,344.7316620819211)">32W</text></g></g><g class="slice"><path class="surface" d="M452.5303285455786,302.3500740042521L503.79549281836785,333.5251110063782A180,180 0,0,0 523.3251117226039,288.56341880826454L465.55007448173586,272.37561253884303A120,120 0,0,1 452.5303285455786,302.3500740042521Z" style="pointer-events: all; stroke-width: 1; fill: rgb(171, 99, 250); fill-opacity: 1; stroke: rgb(255, 255, 255); stroke-opacity: 1; opacity: 0.7;"/><g class="slicetext"><text data-notex="1" class="slicetext" text-anchor="middle" x="0" y="0" style="font-family: 'Open Sans', verdana, arial, sans-serif; font-size: 12px; fill: rgb(68, 68, 68); fill-opacity: 1; white-space: pre;" transform="translate(495.31145972495074,307.86767400439584)">DXH</text></g></g><g class="slice"><path class="surface" d="M465.55007448173586,272.37561253884303L523.3251117226039,288.56341880826454A180,180 0,0,0 530,240.0000000000002L470,240.00000000000014A120,120 0,0,1 465.55007448173586,272.37561253884303Z" style="pointer-events: all; stroke-width: 1; fill: rgb(171, 99, 250); fill-opacity: 1; stroke: rgb(255, 255, 255); stroke-opacity: 1; opacity: 0.7;"/><g class="slicetext"><text data-notex="1" class="slicetext" text-anchor="middle" x="0" y="0" style="font-family: 'Open Sans', verdana, arial, sans-serif; font-size: 12px; fill: rgb(68, 68, 68); fill-opacity: 1; white-space: pre;" transform="translate(506.9518612682262,266.3225367901097)">DWT</text></g></g></g></g><g class="glimages"/><defs id="topdefs-410f69"><g class="clips"/></defs><g class="layer-above"><g class="imagelayer"/><g class="shapelayer"/></g><g class="infolayer"><g class="g-gtitle"/><g class="annotation" data-index="0" style="opacity: 1;"><g class="annotation-text-g" transform="rotate(0,350,49.999999999999986)"><g class="cursor-pointer" transform="translate(312,42)"><rect class="bg" x="0.5" y="0.5" width="75" height="15" style="stroke-width: 1px; stroke: rgb(0, 0, 0); stroke-opacity: 0; fill: rgb(0, 0, 0); fill-opacity: 0;"/><text class="annotation-text" text-anchor="middle" x="37.9375" y="12" style="font-family: 'Open Sans', verdana, arial, sans-serif; font-size: 10px; fill: rgb(42, 63, 95); fill-opacity: 1; white-space: pre;"><tspan style="font-weight:bold">Chemical_ID</tspan></text></g></g></g><g class="annotation" data-index="1" style="opacity: 1;"><g class="annotation-text-g" transform="rotate(0,350,111.19999999999999)"><g class="cursor-pointer" transform="translate(326,103)"><rect class="bg" x="0.5" y="0.5" width="47" height="15" style="stroke-width: 1px; stroke: rgb(0, 0, 0); stroke-opacity: 0; fill: rgb(0, 0, 0); fill-opacity: 0;"/><text class="annotation-text" text-anchor="middle" x="24.0625" y="12" style="font-family: 'Open Sans', verdana, arial, sans-serif; font-size: 10px; fill: rgb(42, 63, 95); fill-opacity: 1; white-space: pre;"><tspan style="font-weight:bold">PDB_ID</tspan></text></g></g></g><g class="annotation" data-index="2" style="opacity: 1;"><g class="annotation-text-g" transform="rotate(0,350,172.4)"><g class="cursor-pointer" transform="translate(308,164)"><rect class="bg" x="0.5" y="0.5" width="83" height="15" style="stroke-width: 1px; stroke: rgb(0, 0, 0); stroke-opacity: 0; fill: rgb(0, 0, 0); fill-opacity: 0;"/><text class="annotation-text" text-anchor="middle" x="42.203125" y="12" style="font-family: 'Open Sans', verdana, arial, sans-serif; font-size: 10px; fill: rgb(42, 63, 95); fill-opacity: 1; white-space: pre;"><tspan style="font-weight:bold">Protein_Name</tspan></text></g></g></g></g></svg>