<svg class="main-svg" xmlns="http://www.w3.org/2000/svg" xmlns:xlink="http://www.w3.org/1999/xlink" width="700" height="500" style="" viewBox="0 0 700 500"><rect x="0" y="0" width="700" height="500" style="fill: rgb(255, 255, 255); fill-opacity: 1;"/><defs id="defs-80ad3f"><g class="clips"/><g class="gradients"/><g class="patterns"/></defs><g class="bglayer"/><g class="layer-below"><g class="imagelayer"/><g class="shapelayer"/></g><g class="cartesianlayer"/><g class="polarlayer"/><g class="smithlayer"/><g class="ternarylayer"/><g class="geolayer"/><g class="funnelarealayer"/><g class="pielayer"/><g class="iciclelayer"/><g class="treemaplayer"/><g class="sunburstlayer"><g class="trace sunburst" stroke-linejoin="round" style="opacity: 1;"><g class="slice"><path class="surface" d="M350,260A0,0 0,1,0 350,260A0,0 0,1,0 350,260ZM430,260A80,80 0,1,1 270,260A80,80 0,1,1 430,260Z" style="pointer-events: all; stroke-width: 1; fill: rgb(0, 0, 0); fill-opacity: 0; stroke: rgb(255, 255, 255); stroke-opacity: 1;"/><g class="slicetext"><text data-notex="1" class="slicetext" text-anchor="middle" x="0" y="0" style="font-family: 'Open Sans', verdana, arial, sans-serif; font-size: 12px; fill: rgb(42, 63, 95); fill-opacity: 1; white-space: pre;" transform="translate(350,264.75)">Protein_Name</text></g></g><g class="slice"><path class="surface" d="M430,260L510,260A160,160 0,0,0 449.7583682973974,134.90696280511523L399.8791841486987,197.4534814025576A80,80 0,0,1 430,260Z" style="pointer-events: all; stroke-width: 1; fill: rgb(99, 110, 250); fill-opacity: 1; stroke: rgb(255, 255, 255); stroke-opacity: 1; opacity: 0.7;"/><g class="slicetext"><text data-notex="1" class="slicetext" text-anchor="middle" x="0" y="0" style="font-family: 'Open Sans', verdana, arial, sans-serif; font-size: 12px; fill: rgb(255, 255, 255); fill-opacity: 1; white-space: pre;" transform="translate(458.11626414829027,212.683951305893)">Tyk2</text></g></g><g class="slice"><path class="surface" d="M399.8791841486987,197.4534814025576L449.7583682973974,134.90696280511523A160,160 0,0,0 314.3966505669897,104.01153405090821L332.19832528349485,182.0057670254541A80,80 0,0,1 399.8791841486987,197.4534814025576Z" style="pointer-events: all; stroke-width: 1; fill: rgb(239, 85, 59); fill-opacity: 1; stroke: rgb(255, 255, 255); stroke-opacity: 1; opacity: 0.7;"/><g class="slicetext"><text data-notex="1" class="slicetext" text-anchor="middle" x="0" y="0" style="font-family: 'Open Sans', verdana, arial, sans-serif; font-size: 12px; fill: rgb(68, 68, 68); fill-opacity: 1; white-space: pre;" transform="translate(376.70251207475775,147.75865053818114)">BTK</text></g></g><g class="slice"><path class="surface" d="M332.19832528349485,182.0057670254541L314.3966505669897,104.01153405090821A160,160 0,0,0 205.84498113561295,190.57860174119068L277.92249056780645,225.28930087059535A80,80 0,0,1 332.19832528349485,182.0057670254541Z" style="pointer-events: all; stroke-width: 1; fill: rgb(0, 204, 150); fill-opacity: 1; stroke: rgb(255, 255, 255); stroke-opacity: 1; opacity: 0.7;"/><g class="slicetext"><text data-notex="1" class="slicetext" text-anchor="middle" x="0" y="0" style="font-family: 'Open Sans', verdana, arial, sans-serif; font-size: 12px; fill: rgb(68, 68, 68); fill-opacity: 1; white-space: pre;" transform="translate(275.181223776952,170.93022210383643)">Chk1</text></g></g><g class="slice"><path class="surface" d="M277.92249056780645,225.28930087059535L205.84498113561295,190.57860174119068A160,160 0,0,0 205.84498113561293,329.4213982588093L277.92249056780645,294.71069912940465A80,80 0,0,1 277.92249056780645,225.28930087059535Z" style="pointer-events: all; stroke-width: 1; fill: rgb(171, 99, 250); fill-opacity: 1; stroke: rgb(255, 255, 255); stroke-opacity: 1; opacity: 0.7;"/><g class="slicetext"><text data-notex="1" class="slicetext" text-anchor="middle" x="0" y="0" style="font-family: 'Open Sans', verdana, arial, sans-serif; font-size: 12px; fill: rgb(68, 68, 68); fill-opacity: 1; white-space: pre;" transform="translate(230,264.75)">Met</text></g></g><g class="slice"><path class="surface" d="M277.92249056780645,294.71069912940465L205.84498113561293,329.4213982588093A160,160 0,0,0 314.39665056698965,415.9884659490918L332.19832528349485,337.99423297454587A80,80 0,0,1 277.92249056780645,294.71069912940465Z" style="pointer-events: all; stroke-width: 1; fill: rgb(255, 161, 90); fill-opacity: 1; stroke: rgb(255, 255, 255); stroke-opacity: 1; opacity: 0.7;"/><g class="slicetext"><text data-notex="1" class="slicetext" text-anchor="middle" x="0" y="0" style="font-family: 'Open Sans', verdana, arial, sans-serif; font-size: 12px; fill: rgb(68, 68, 68); fill-opacity: 1; white-space: pre;" transform="translate(275.181223776952,358.56977789616354)">p38a</text></g></g><g class="slice"><path class="surface" d="M332.19832528349485,337.99423297454587L314.39665056698965,415.9884659490918A160,160 0,0,0 449.75836829739734,385.0930371948848L399.87918414869864,322.5465185974424A80,80 0,0,1 332.19832528349485,337.99423297454587Z" style="pointer-events: all; stroke-width: 1; fill: rgb(25, 211, 243); fill-opacity: 1; stroke: rgb(255, 255, 255); stroke-opacity: 1; opacity: 0.7;"/><g class="slicetext"><text data-notex="1" class="slicetext" text-anchor="middle" x="0" y="0" style="font-family: 'Open Sans', verdana, arial, sans-serif; font-size: 12px; fill: rgb(68, 68, 68); fill-opacity: 1; white-space: pre;" transform="translate(376.7025120747577,381.74134946181886)">Lck</text></g></g></g><g class="trace sunburst" stroke-linejoin="round" style="opacity: 1;"><g class="slice"><path class="surface" d="M350,260A0,0 0,1,0 350,260A0,0 0,1,0 350,260ZM430,260A80,80 0,1,1 270,260A80,80 0,1,1 430,260Z" style="pointer-events: all; stroke-width: 1; fill: rgb(0, 0, 0); fill-opacity: 0; stroke: rgb(255, 255, 255); stroke-opacity: 1;"/><g class="slicetext"><text data-notex="1" class="slicetext" text-anchor="middle" x="0" y="0" style="font-family: 'Open Sans', verdana, arial, sans-serif; font-size: 12px; fill: rgb(42, 63, 95); fill-opacity: 1; white-space: pre;" transform="translate(350,264.75)">PDB_ID</text></g></g><g class="slice"><path class="surface" d="M430,260L510,260A160,160 0,0,0 491.6729641045136,185.64429247299705L420.83648205225677,222.82214623649853A80,80 0,0,1 430,260Z" style="pointer-events: all; stroke-width: 1; fill: rgb(255, 102, 146); fill-opacity: 1; stroke: rgb(255, 255, 255); stroke-opacity: 1; opacity: 0.7;"/><g class="slicetext"><text data-notex="1" class="slicetext" text-anchor="middle" x="0" y="0" style="font-family: 'Open Sans', verdana, arial, sans-serif; font-size: 12px; fill: rgb(68, 68, 68); fill-opacity: 1; white-space: pre;" transform="translate(475.35199486683996,233.85350817842584)">4RFZ</text></g></g><g class="slice"><path class="surface" d="M420.83648205225677,222.82214623649853L491.6729641045136,185.64429247299705A160,160 0,0,0 440.89035947698494,128.322581457015L395.44517973849247,194.16129072850748A80,80 0,0,1 420.83648205225677,222.82214623649853Z" style="pointer-events: all; stroke-width: 1; fill: rgb(182, 232, 128); fill-opacity: 1; stroke: rgb(255, 255, 255); stroke-opacity: 1; opacity: 0.7;"/><g class="slicetext"><text data-notex="1" class="slicetext" text-anchor="middle" x="0" y="0" style="font-family: 'Open Sans', verdana, arial, sans-serif; font-size: 12px; fill: rgb(68, 68, 68); fill-opacity: 1; white-space: pre;" transform="translate(446.6275509981474,179.13853846850998)">6NSL</text></g></g><g class="slice"><path class="surface" d="M395.44517973849247,194.16129072850748L440.89035947698494,128.322581457015A160,160 0,0,0 369.2858688408517,101.16658014431135L359.64293442042583,180.58329007215568A80,80 0,0,1 395.44517973849247,194.16129072850748Z" style="pointer-events: all; stroke-width: 1; fill: rgb(255, 151, 255); fill-opacity: 1; stroke: rgb(255, 255, 255); stroke-opacity: 1; opacity: 0.7;"/><g class="slicetext"><text data-notex="1" class="slicetext" text-anchor="middle" x="0" y="0" style="font-family: 'Open Sans', verdana, arial, sans-serif; font-size: 12px; fill: rgb(68, 68, 68); fill-opacity: 1; white-space: pre;" transform="translate(395.7807349344058,144.03612286550253)">5KUP</text></g></g><g class="slice"><path class="surface" d="M359.64293442042583,180.58329007215568L369.2858688408517,101.16658014431135A160,160 0,0,0 293.2632180731943,110.39740117033364L321.6316090365972,185.19870058516682A80,80 0,0,1 359.64293442042583,180.58329007215568Z" style="pointer-events: all; stroke-width: 1; fill: rgb(254, 203, 82); fill-opacity: 1; stroke: rgb(255, 255, 255); stroke-opacity: 1; opacity: 0.7;"/><g class="slicetext"><text data-notex="1" class="slicetext" text-anchor="middle" x="0" y="0" style="font-family: 'Open Sans', verdana, arial, sans-serif; font-size: 12px; fill: rgb(68, 68, 68); fill-opacity: 1; white-space: pre;" transform="translate(334.43829171485663,136.58780175408594)">3BYO</text></g></g><g class="slice"><path class="surface" d="M321.6316090365972,185.19870058516682L293.2632180731943,110.39740117033364A160,160 0,0,0 230.23828029262387,153.90037468147273L290.1191401463119,206.95018734073636A80,80 0,0,1 321.6316090365972,185.19870058516682Z" style="pointer-events: all; stroke-width: 1; fill: rgb(198, 202, 253); fill-opacity: 1; stroke: rgb(255, 255, 255); stroke-opacity: 1; opacity: 0.7;"/><g class="slicetext"><text data-notex="1" class="slicetext" text-anchor="middle" x="0" y="0" style="font-family: 'Open Sans', verdana, arial, sans-serif; font-size: 12px; fill: rgb(68, 68, 68); fill-opacity: 1; white-space: pre;" transform="translate(276.66084832451884,158.49989573888575)">5P9G</text></g></g><g class="slice"><path class="surface" d="M290.1191401463119,206.95018734073636L230.23828029262387,153.90037468147273A160,160 0,0,0 194.6493092118317,221.7094937139907L272.32465460591584,240.85474685699535A80,80 0,0,1 290.1191401463119,206.95018734073636Z" style="pointer-events: all; stroke-width: 1; fill: rgb(247, 167, 153); fill-opacity: 1; stroke: rgb(255, 255, 255); stroke-opacity: 1; opacity: 0.7;"/><g class="slicetext"><text data-notex="1" class="slicetext" text-anchor="middle" x="0" y="0" style="font-family: 'Open Sans', verdana, arial, sans-serif; font-size: 12px; fill: rgb(68, 68, 68); fill-opacity: 1; white-space: pre;" transform="translate(235.6845207504444,204.75260815734327)">4BTY</text></g></g><g class="slice"><path class="surface" d="M272.32465460591584,240.85474685699535L194.6493092118317,221.7094937139907A160,160 0,0,0 194.64930921183165,298.2905062860092L272.32465460591584,279.1452531430046A80,80 0,0,1 272.32465460591584,240.85474685699535Z" style="pointer-events: all; stroke-width: 1; fill: rgb(51, 255, 201); fill-opacity: 1; stroke: rgb(255, 255, 255); stroke-opacity: 1; opacity: 0.7;"/><g class="slicetext"><text data-notex="1" class="slicetext" text-anchor="middle" x="0" y="0" style="font-family: 'Open Sans', verdana, arial, sans-serif; font-size: 12px; fill: rgb(68, 68, 68); fill-opacity: 1; white-space: pre;" transform="translate(220.89649182157413,264.74999999999994)">6HRT</text></g></g><g class="slice"><path class="surface" d="M272.32465460591584,279.1452531430046L194.64930921183165,298.2905062860092A160,160 0,0,0 230.23828029262378,366.09962531852716L290.1191401463119,313.0498126592636A80,80 0,0,1 272.32465460591584,279.1452531430046Z" style="pointer-events: all; stroke-width: 1; fill: rgb(224, 198, 253); fill-opacity: 1; stroke: rgb(255, 255, 255); stroke-opacity: 1; opacity: 0.7;"/><g class="slicetext"><text data-notex="1" class="slicetext" text-anchor="middle" x="0" y="0" style="font-family: 'Open Sans', verdana, arial, sans-serif; font-size: 12px; fill: rgb(68, 68, 68); fill-opacity: 1; white-space: pre;" transform="translate(235.66108325044434,324.7473918426566)">4OTR</text></g></g><g class="slice"><path class="surface" d="M290.1191401463119,313.0498126592636L230.23828029262378,366.09962531852716A160,160 0,0,0 293.26321807319425,409.60259882966636L321.6316090365971,334.8012994148332A80,80 0,0,1 290.1191401463119,313.0498126592636Z" style="pointer-events: all; stroke-width: 1; fill: rgb(255, 219, 192); fill-opacity: 1; stroke: rgb(255, 255, 255); stroke-opacity: 1; opacity: 0.7;"/><g class="slicetext"><text data-notex="1" class="slicetext" text-anchor="middle" x="0" y="0" style="font-family: 'Open Sans', verdana, arial, sans-serif; font-size: 12px; fill: rgb(68, 68, 68); fill-opacity: 1; white-space: pre;" transform="translate(276.66084832451884,371.0001042611142)">6HRP</text></g></g><g class="slice"><path class="surface" d="M321.6316090365971,334.8012994148332L293.26321807319425,409.60259882966636A160,160 0,0,0 369.28586884085155,418.83341985568865L359.6429344204258,339.4167099278443A80,80 0,0,1 321.6316090365971,334.8012994148332Z" style="pointer-events: all; stroke-width: 1; fill: rgb(122, 230, 248); fill-opacity: 1; stroke: rgb(255, 255, 255); stroke-opacity: 1; opacity: 0.7;"/><g class="slicetext"><text data-notex="1" class="slicetext" text-anchor="middle" x="0" y="0" style="font-family: 'Open Sans', verdana, arial, sans-serif; font-size: 12px; fill: rgb(68, 68, 68); fill-opacity: 1; white-space: pre;" transform="translate(334.4382917148565,392.91219824591406)">5P9H</text></g></g><g class="slice"><path class="surface" d="M359.6429344204258,339.4167099278443L369.28586884085155,418.83341985568865A160,160 0,0,0 440.89035947698477,391.67741854298515L395.44517973849236,325.8387092714926A80,80 0,0,1 359.6429344204258,339.4167099278443Z" style="pointer-events: all; stroke-width: 1; fill: rgb(255, 204, 219); fill-opacity: 1; stroke: rgb(255, 255, 255); stroke-opacity: 1; opacity: 0.7;"/><g class="slicetext"><text data-notex="1" class="slicetext" text-anchor="middle" x="0" y="0" style="font-family: 'Open Sans', verdana, arial, sans-serif; font-size: 12px; fill: rgb(68, 68, 68); fill-opacity: 1; white-space: pre;" transform="translate(395.7807349344057,385.4638771344975)">6NFH</text></g></g><g class="slice"><path class="surface" d="M395.44517973849236,325.8387092714926L440.89035947698477,391.67741854298515A160,160 0,0,0 491.6729641045134,334.3557075270032L420.8364820522567,297.1778537635016A80,80 0,0,1 395.44517973849236,325.8387092714926Z" style="pointer-events: all; stroke-width: 1; fill: rgb(232, 248, 214); fill-opacity: 1; stroke: rgb(255, 255, 255); stroke-opacity: 1; opacity: 0.7;"/><g class="slicetext"><text data-notex="1" class="slicetext" text-anchor="middle" x="0" y="0" style="font-family: 'Open Sans', verdana, arial, sans-serif; font-size: 12px; fill: rgb(68, 68, 68); fill-opacity: 1; white-space: pre;" transform="translate(446.6353634981473,350.36146153149014)">5GMP</text></g></g></g><g class="trace sunburst" stroke-linejoin="round" style="opacity: 1;"><g class="slice"><path class="surface" d="M350,260A0,0 0,1,0 350,260A0,0 0,1,0 350,260ZM430,260A80,80 0,1,1 270,260A80,80 0,1,1 430,260Z" style="pointer-events: all; stroke-width: 1; fill: rgb(0, 0, 0); fill-opacity: 0; stroke: rgb(255, 255, 255); stroke-opacity: 1;"/><g class="slicetext"><text data-notex="1" class="slicetext" text-anchor="middle" x="0" y="0" style="font-family: 'Open Sans', verdana, arial, sans-serif; font-size: 12px; fill: rgb(42, 63, 95); fill-opacity: 1; white-space: pre;" transform="translate(350,264.75)">Chemical_ID</text></g></g><g class="slice"><path class="surface" d="M430,260L510,260A160,160 0,0,0 491.6729641045136,185.64429247299705L420.83648205225677,222.82214623649853A80,80 0,0,1 430,260Z" style="pointer-events: all; stroke-width: 1; fill: rgb(255, 253, 255); fill-opacity: 1; stroke: rgb(255, 255, 255); stroke-opacity: 1; opacity: 0.7;"/><g class="slicetext"><text data-notex="1" class="slicetext" text-anchor="middle" x="0" y="0" style="font-family: 'Open Sans', verdana, arial, sans-serif; font-size: 12px; fill: rgb(68, 68, 68); fill-opacity: 1; white-space: pre;" transform="translate(475.34418236683996,233.85350817842584)">6XL</text></g></g><g class="slice"><path class="surface" d="M420.83648205225677,222.82214623649853L491.6729641045136,185.64429247299705A160,160 0,0,0 440.89035947698494,128.322581457015L395.44517973849247,194.16129072850748A80,80 0,0,1 420.83648205225677,222.82214623649853Z" style="pointer-events: all; stroke-width: 1; fill: rgb(255, 233, 183); fill-opacity: 1; stroke: rgb(255, 255, 255); stroke-opacity: 1; opacity: 0.7;"/><g class="slicetext"><text data-notex="1" class="slicetext" text-anchor="middle" x="0" y="0" style="font-family: 'Open Sans', verdana, arial, sans-serif; font-size: 12px; fill: rgb(68, 68, 68); fill-opacity: 1; white-space: pre;" transform="translate(446.6353634981474,179.13853846850998)">7G7</text></g></g><g class="slice"><path class="surface" d="M395.44517973849247,194.16129072850748L440.89035947698494,128.322581457015A160,160 0,0,0 369.2858688408517,101.16658014431135L359.64293442042583,180.58329007215568A80,80 0,0,1 395.44517973849247,194.16129072850748Z" style="pointer-events: all; stroke-width: 1; fill: rgb(8, 25, 239); fill-opacity: 1; stroke: rgb(255, 255, 255); stroke-opacity: 1; opacity: 0.7;"/><g class="slicetext"><text data-notex="1" class="slicetext" text-anchor="middle" x="0" y="0" style="font-family: 'Open Sans', verdana, arial, sans-serif; font-size: 12px; fill: rgb(255, 255, 255); fill-opacity: 1; white-space: pre;" transform="translate(395.7807349344058,144.03612286550253)">KLM</text></g></g><g class="slice"><path class="surface" d="M359.64293442042583,180.58329007215568L369.2858688408517,101.16658014431135A160,160 0,0,0 293.2632180731943,110.39740117033364L321.6316090365972,185.19870058516682A80,80 0,0,1 359.64293442042583,180.58329007215568Z" style="pointer-events: all; stroke-width: 1; fill: rgb(181, 39, 15); fill-opacity: 1; stroke: rgb(255, 255, 255); stroke-opacity: 1; opacity: 0.7;"/><g class="slicetext"><text data-notex="1" class="slicetext" text-anchor="middle" x="0" y="0" style="font-family: 'Open Sans', verdana, arial, sans-serif; font-size: 12px; fill: rgb(255, 255, 255); fill-opacity: 1; white-space: pre;" transform="translate(334.43829171485663,136.58780175408594)">GMW</text></g></g><g class="slice"><path class="surface" d="M321.6316090365972,185.19870058516682L293.2632180731943,110.39740117033364A160,160 0,0,0 230.23828029262387,153.90037468147273L290.1191401463119,206.95018734073636A80,80 0,0,1 321.6316090365972,185.19870058516682Z" style="pointer-events: all; stroke-width: 1; fill: rgb(0, 102, 75); fill-opacity: 1; stroke: rgb(255, 255, 255); stroke-opacity: 1; opacity: 0.7;"/><g class="slicetext"><text data-notex="1" class="slicetext" text-anchor="middle" x="0" y="0" style="font-family: 'Open Sans', verdana, arial, sans-serif; font-size: 12px; fill: rgb(255, 255, 255); fill-opacity: 1; white-space: pre;" transform="translate(276.66084832451884,158.49989573888575)">7G6</text></g></g><g class="slice"><path class="surface" d="M290.1191401463119,206.95018734073636L230.23828029262387,153.90037468147273A160,160 0,0,0 194.6493092118317,221.7094937139907L272.32465460591584,240.85474685699535A80,80 0,0,1 290.1191401463119,206.95018734073636Z" style="pointer-events: all; stroke-width: 1; fill: rgb(118, 8, 239); fill-opacity: 1; stroke: rgb(255, 255, 255); stroke-opacity: 1; opacity: 0.7;"/><g class="slicetext"><text data-notex="1" class="slicetext" text-anchor="middle" x="0" y="0" style="font-family: 'Open Sans', verdana, arial, sans-serif; font-size: 12px; fill: rgb(255, 255, 255); fill-opacity: 1; white-space: pre;" transform="translate(235.6845207504444,204.75260815734327)">3OV</text></g></g><g class="slice"><path class="surface" d="M272.32465460591584,240.85474685699535L194.6493092118317,221.7094937139907A160,160 0,0,0 194.64930921183165,298.2905062860092L272.32465460591584,279.1452531430046A80,80 0,0,1 272.32465460591584,240.85474685699535Z" style="pointer-events: all; stroke-width: 1; fill: rgb(243, 105, 0); fill-opacity: 1; stroke: rgb(255, 255, 255); stroke-opacity: 1; opacity: 0.7;"/><g class="slicetext"><text data-notex="1" class="slicetext" text-anchor="middle" x="0" y="0" style="font-family: 'Open Sans', verdana, arial, sans-serif; font-size: 12px; fill: rgb(68, 68, 68); fill-opacity: 1; white-space: pre;" transform="translate(220.89649182157413,264.74999999999994)">AM9</text></g></g><g class="slice"><path class="surface" d="M272.32465460591584,279.1452531430046L194.64930921183165,298.2905062860092A160,160 0,0,0 230.23828029262378,366.09962531852716L290.1191401463119,313.0498126592636A80,80 0,0,1 272.32465460591584,279.1452531430046Z" style="pointer-events: all; stroke-width: 1; fill: rgb(8, 136, 158); fill-opacity: 1; stroke: rgb(255, 255, 255); stroke-opacity: 1; opacity: 0.7;"/><g class="slicetext"><text data-notex="1" class="slicetext" text-anchor="middle" x="0" y="0" style="font-family: 'Open Sans', verdana, arial, sans-serif; font-size: 12px; fill: rgb(255, 255, 255); fill-opacity: 1; white-space: pre;" transform="translate(235.68452075044434,324.7473918426566)">KZJ</text></g></g><g class="slice"><path class="surface" d="M290.1191401463119,313.0498126592636L230.23828029262378,366.09962531852716A160,160 0,0,0 293.26321807319425,409.60259882966636L321.6316090365971,334.8012994148332A80,80 0,0,1 290.1191401463119,313.0498126592636Z" style="pointer-events: all; stroke-width: 1; fill: rgb(255, 0, 73); fill-opacity: 1; stroke: rgb(255, 255, 255); stroke-opacity: 1; opacity: 0.7;"/><g class="slicetext"><text data-notex="1" class="slicetext" text-anchor="middle" x="0" y="0" style="font-family: 'Open Sans', verdana, arial, sans-serif; font-size: 12px; fill: rgb(255, 255, 255); fill-opacity: 1; white-space: pre;" transform="translate(276.66084832451884,371.0001042611142)">F62</text></g></g><g class="slice"><path class="surface" d="M321.6316090365971,334.8012994148332L293.26321807319425,409.60259882966636A160,160 0,0,0 369.28586884085155,418.83341985568865L359.6429344204258,339.4167099278443A80,80 0,0,1 321.6316090365971,334.8012994148332Z" style="pointer-events: all; stroke-width: 1; fill: rgb(132, 216, 42); fill-opacity: 1; stroke: rgb(255, 255, 255); stroke-opacity: 1; opacity: 0.7;"/><g class="slicetext"><text data-notex="1" class="slicetext" text-anchor="middle" x="0" y="0" style="font-family: 'Open Sans', verdana, arial, sans-serif; font-size: 12px; fill: rgb(68, 68, 68); fill-opacity: 1; white-space: pre;" transform="translate(334.4382917148565,392.91219824591406)">GMQ</text></g></g><g class="slice"><path class="surface" d="M359.6429344204258,339.4167099278443L369.28586884085155,418.83341985568865A160,160 0,0,0 440.89035947698477,391.67741854298515L395.44517973849236,325.8387092714926A80,80 0,0,1 359.6429344204258,339.4167099278443Z" style="pointer-events: all; stroke-width: 1; fill: rgb(255, 49, 255); fill-opacity: 1; stroke: rgb(255, 255, 255); stroke-opacity: 1; opacity: 0.7;"/><g class="slicetext"><text data-notex="1" class="slicetext" text-anchor="middle" x="0" y="0" style="font-family: 'Open Sans', verdana, arial, sans-serif; font-size: 12px; fill: rgb(68, 68, 68); fill-opacity: 1; white-space: pre;" transform="translate(395.7807349344057,385.4638771344975)">2V3</text></g></g><g class="slice"><path class="surface" d="M395.44517973849236,325.8387092714926L440.89035947698477,391.67741854298515A160,160 0,0,0 491.6729641045134,334.3557075270032L420.8364820522567,297.1778537635016A80,80 0,0,1 395.44517973849236,325.8387092714926Z" style="pointer-events: all; stroke-width: 1; fill: rgb(233, 164, 1); fill-opacity: 1; stroke: rgb(255, 255, 255); stroke-opacity: 1; opacity: 0.7;"/><g class="slicetext"><text data-notex="1" class="slicetext" text-anchor="middle" x="0" y="0" style="font-family: 'Open Sans', verdana, arial, sans-serif; font-size: 12px; fill: rgb(68, 68, 68); fill-opacity: 1; white-space: pre;" transform="translate(446.6353634981473,350.36146153149014)">JWF</text></g></g></g></g><g class="glimages"/><defs id="topdefs-80ad3f"><g class="clips"/></defs><g class="layer-above"><g class="imagelayer"/><g class="shapelayer"/></g><g class="infolayer"><g class="g-gtitle"><text class="gtitle" x="35" y="50" text-anchor="start" dy="0em" style="font-family: 'Open Sans', verdana, arial, sans-serif; font-size: 24px; fill: rgb(42, 63, 95); opacity: 1; font-weight: normal; white-space: pre;">Common Elements - intersaction</text></g></g></svg>